<svg width="24" height="24" viewBox="0 0 24 24" fill="none" xmlns="http://www.w3.org/2000/svg">
<path d="M21.42 9.65002L13 4.00002C12.7071 3.79433 12.3579 3.68396 12 3.68396C11.6421 3.68396 11.2929 3.79433 11 4.00002L2.57999 9.65002C2.41423 9.76141 2.29951 9.93409 2.26107 10.1301C2.22262 10.326 2.2636 10.5293 2.37499 10.695C2.48638 10.8608 2.65906 10.9755 2.85504 11.0139C3.05101 11.0524 3.25423 11.0114 3.41999 10.9L4.49999 10.18V17.28C4.49999 18.0757 4.81606 18.8387 5.37867 19.4013C5.94128 19.964 6.70434 20.28 7.49999 20.28H16.5C17.2956 20.28 18.0587 19.964 18.6213 19.4013C19.1839 18.8387 19.5 18.0757 19.5 17.28V10.18L20.58 10.9C20.7084 10.9707 20.8535 11.0053 21 11C21.1227 11.0016 21.2439 10.9722 21.3523 10.9145C21.4607 10.8568 21.5527 10.7727 21.62 10.67C21.7249 10.5071 21.7626 10.3099 21.7253 10.1198C21.6881 9.92961 21.5786 9.76128 21.42 9.65002ZM14 18H9.99999C9.80108 18 9.61031 17.921 9.46966 17.7804C9.32901 17.6397 9.24999 17.4489 9.24999 17.25C9.24999 17.0511 9.32901 16.8603 9.46966 16.7197C9.61031 16.579 9.80108 16.5 9.99999 16.5H14C14.1989 16.5 14.3897 16.579 14.5303 16.7197C14.671 16.8603 14.75 17.0511 14.75 17.25C14.75 17.4489 14.671 17.6397 14.5303 17.7804C14.3897 17.921 14.1989 18 14 18Z" fill="#000D26"/>
</svg>
