<svg width="24" height="24" viewBox="0 0 24 24" fill="none" xmlns="http://www.w3.org/2000/svg">
<path d="M8.88001 14.1701L15.37 17.9201C15.7504 18.1397 16.182 18.2552 16.6212 18.255C17.0605 18.2548 17.492 18.1388 17.8722 17.9188C18.2523 17.6988 18.5679 17.3825 18.7869 17.0018C19.006 16.6211 19.1209 16.1893 19.12 15.7501V8.25006C19.1209 7.8108 19.006 7.37906 18.7869 6.99833C18.5679 6.61759 18.2523 6.30129 17.8722 6.08129C17.492 5.86128 17.0605 5.74533 16.6212 5.74512C16.182 5.7449 15.7504 5.86043 15.37 6.08006L8.88001 9.83006C8.50019 10.0509 8.18497 10.3675 7.96586 10.7483C7.74676 11.1291 7.63144 11.5607 7.63144 12.0001C7.63144 12.4394 7.74676 12.871 7.96586 13.2518C8.18497 13.6326 8.50019 13.9493 8.88001 14.1701Z" fill="#000D26"/>
<path d="M4.88 18.75C4.68109 18.75 4.49033 18.671 4.34967 18.5303C4.20902 18.3897 4.13 18.1989 4.13 18V6C4.13 5.80109 4.20902 5.61032 4.34967 5.46967C4.49033 5.32902 4.68109 5.25 4.88 5.25C5.07892 5.25 5.26968 5.32902 5.41034 5.46967C5.55099 5.61032 5.63 5.80109 5.63 6V18C5.62741 18.1981 5.54757 18.3874 5.40747 18.5275C5.26738 18.6676 5.07811 18.7474 4.88 18.75Z" fill="#000D26"/>
</svg>
