<svg width="24" height="24" viewBox="0 0 24 24" fill="none" xmlns="http://www.w3.org/2000/svg">
<path d="M18.49 7.51001C19.5946 7.51001 20.49 6.61458 20.49 5.51001C20.49 4.40544 19.5946 3.51001 18.49 3.51001C17.3854 3.51001 16.49 4.40544 16.49 5.51001C16.49 6.61458 17.3854 7.51001 18.49 7.51001Z" fill="#000D26"/>
<path d="M19.82 8C19.287 8.28501 18.6765 8.39121 18.0786 8.30295C17.4806 8.2147 16.9268 7.93666 16.4989 7.50983C16.0709 7.083 15.7914 6.52996 15.7016 5.93224C15.6118 5.33452 15.7164 4.72376 16 4.19C16.0142 4.1658 16.0233 4.13901 16.027 4.11121C16.0306 4.08341 16.0286 4.05516 16.0212 4.02813C16.0137 4.0011 16.0009 3.97584 15.9835 3.95383C15.9662 3.93183 15.9446 3.91352 15.92 3.9C14.0054 2.9733 11.8244 2.75469 9.76396 3.28293C7.7035 3.81117 5.89673 5.05213 4.66413 6.78569C3.43152 8.51925 2.85276 10.6333 3.0305 12.753C3.20823 14.8727 4.13098 16.8609 5.63506 18.3649C7.13914 19.869 9.12734 20.7918 11.247 20.9695C13.3667 21.1472 15.4808 20.5685 17.2143 19.3359C18.9479 18.1033 20.1888 16.2965 20.7171 14.236C21.2453 12.1756 21.0267 9.99462 20.1 8.08C20.0875 8.05577 20.0701 8.03436 20.049 8.01709C20.0279 7.99981 20.0035 7.98703 19.9773 7.97954C19.9511 7.97204 19.9236 7.96999 19.8965 7.97351C19.8695 7.97703 19.8434 7.98605 19.82 8ZM17.59 10.32L15.39 13.15C15.1871 13.4128 14.9264 13.6253 14.6281 13.7709C14.3298 13.9166 14.002 13.9916 13.67 13.99C13.3462 13.9855 13.0277 13.9075 12.7384 13.762C12.4492 13.6165 12.1967 13.4072 12 13.15L10.92 11.76C10.8549 11.6794 10.7726 11.6143 10.6792 11.5693C10.5859 11.5243 10.4836 11.5007 10.38 11.5C10.2778 11.5007 10.1771 11.5245 10.0853 11.5695C9.99356 11.6145 9.91313 11.6796 9.85 11.76L7.59 14.6C7.52014 14.69 7.4307 14.7628 7.32847 14.8131C7.22624 14.8633 7.11391 14.8896 7 14.89C6.85985 14.8896 6.72263 14.8499 6.60389 14.7754C6.48516 14.7009 6.38966 14.5947 6.32824 14.4687C6.26681 14.3427 6.24191 14.2021 6.25637 14.0627C6.27082 13.9233 6.32404 13.7907 6.41 13.68L8.61 10.84C8.8144 10.5789 9.07542 10.3676 9.37337 10.2221C9.67132 10.0766 9.99842 10.0007 10.33 10C10.6618 9.99919 10.9894 10.0745 11.2876 10.2201C11.5858 10.3657 11.8466 10.5778 12.05 10.84L13.13 12.23C13.1936 12.3123 13.2756 12.3786 13.3693 12.4237C13.463 12.4689 13.566 12.4916 13.67 12.49C13.7726 12.4916 13.8741 12.4688 13.9662 12.4236C14.0583 12.3785 14.1385 12.3121 14.2 12.23L16.41 9.39C16.5333 9.23353 16.7138 9.13245 16.9116 9.10901C17.1095 9.08556 17.3085 9.14168 17.465 9.265C17.6215 9.38833 17.7226 9.56877 17.746 9.76662C17.7694 9.96447 17.7133 10.1635 17.59 10.32Z" fill="#000D26"/>
</svg>
