<svg width="24" height="24" viewBox="0 0 24 24" fill="none" xmlns="http://www.w3.org/2000/svg">
<path d="M11.25 9.5C12.9069 9.5 14.25 8.15685 14.25 6.5C14.25 4.84315 12.9069 3.5 11.25 3.5C9.59315 3.5 8.25 4.84315 8.25 6.5C8.25 8.15685 9.59315 9.5 11.25 9.5Z" fill="#000D26"/>
<path d="M12.74 20.0001H5.74005C5.22553 20.0001 4.73208 19.7957 4.36826 19.4318C4.00444 19.068 3.80005 18.5746 3.80005 18.0601V14.4401C3.79988 13.9341 3.9974 13.4481 4.35047 13.0857C4.70355 12.7232 5.18424 12.5131 5.69005 12.5001H12.74C12.801 12.4921 12.863 12.5031 12.9175 12.5316C12.972 12.5601 13.0165 12.6046 13.0449 12.6592C13.0732 12.7137 13.0842 12.7757 13.0761 12.8367C13.0681 12.8976 13.0416 12.9547 13 13.0001C12.2201 13.9071 11.7911 15.0638 11.7911 16.2601C11.7911 17.4564 12.2201 18.613 13 19.5201C13.0347 19.566 13.0554 19.6209 13.0597 19.6783C13.064 19.7357 13.0518 19.7931 13.0244 19.8436C12.997 19.8942 12.9556 19.9359 12.9052 19.9636C12.8548 19.9913 12.7974 20.004 12.74 20.0001Z" fill="#000D26"/>
<path d="M16.75 12.75C16.0578 12.75 15.3811 12.9553 14.8055 13.3399C14.2299 13.7244 13.7813 14.2711 13.5164 14.9106C13.2515 15.5501 13.1822 16.2539 13.3173 16.9328C13.4523 17.6117 13.7856 18.2354 14.2751 18.7249C14.7646 19.2144 15.3883 19.5477 16.0672 19.6827C16.7461 19.8178 17.4499 19.7485 18.0894 19.4836C18.7289 19.2187 19.2756 18.7701 19.6601 18.1945C20.0447 17.6189 20.25 16.9422 20.25 16.25C20.25 15.3217 19.8813 14.4315 19.2249 13.7751C18.5685 13.1187 17.6783 12.75 16.75 12.75ZM18.8 15.75L16.71 17.83C16.6411 17.9006 16.5586 17.9565 16.4675 17.9943C16.3764 18.0321 16.2786 18.051 16.18 18.05C16.0815 18.0505 15.9838 18.0312 15.8928 17.9935C15.8018 17.9557 15.7192 17.9001 15.65 17.83L14.65 16.88C14.5175 16.7378 14.4454 16.5498 14.4488 16.3555C14.4523 16.1612 14.531 15.9758 14.6684 15.8384C14.8058 15.701 14.9912 15.6223 15.1855 15.6188C15.3798 15.6154 15.5678 15.6875 15.71 15.82L16.13 16.24L17.69 14.69C17.7589 14.6192 17.8414 14.563 17.9324 14.5246C18.0234 14.4862 18.1212 14.4664 18.22 14.4664C18.3188 14.4664 18.4166 14.4862 18.5076 14.5246C18.5986 14.563 18.6811 14.6192 18.75 14.69C18.8943 14.8235 18.9804 15.0084 18.9897 15.2048C18.9991 15.4012 18.931 15.5934 18.8 15.74V15.75Z" fill="#000D26"/>
</svg>
