<svg width="24" height="24" viewBox="0 0 24 24" fill="none" xmlns="http://www.w3.org/2000/svg">
<path d="M19.16 9.28003C19.3564 9.39861 19.523 9.56066 19.647 9.75373C19.7709 9.94679 19.849 10.1657 19.875 10.3937C19.9011 10.6216 19.8746 10.8525 19.7974 11.0686C19.7203 11.2847 19.5946 11.4802 19.43 11.64L17.37 13.64C17.1903 13.8127 17.0568 14.0276 16.9817 14.2652C16.9066 14.5028 16.8922 14.7555 16.94 15L17.42 17.84C17.4662 18.1149 17.4348 18.3973 17.3295 18.6554C17.2242 18.9134 17.049 19.1371 16.8236 19.3011C16.5983 19.4652 16.3317 19.5633 16.0537 19.5843C15.7758 19.6053 15.4974 19.5484 15.25 19.42L12.7 18.06C12.484 17.947 12.2438 17.888 12 17.888C11.7562 17.888 11.516 17.947 11.3 18.06L8.75 19.4" fill="#000D26"/>
<path d="M20.78 3.22007C20.6394 3.07962 20.4487 3.00073 20.25 3.00073C20.0512 3.00073 19.8606 3.07962 19.72 3.22007L14.81 8.13007C14.7377 8.04317 14.674 7.94939 14.62 7.85007L13.35 5.26007C13.2245 5.00956 13.0317 4.79892 12.7933 4.65171C12.5549 4.5045 12.2802 4.42653 12 4.42653C11.7198 4.42653 11.4451 4.5045 11.2067 4.65171C10.9683 4.79892 10.7755 5.00956 10.65 5.26007L9.38 7.85007C9.27224 8.06813 9.11307 8.25671 8.91622 8.39956C8.71936 8.54241 8.49072 8.63525 8.25 8.67007L5.4 9.08007C5.12282 9.12032 4.86245 9.23736 4.64837 9.41795C4.43429 9.59854 4.27504 9.83546 4.18866 10.1019C4.10228 10.3683 4.09222 10.6536 4.15961 10.9254C4.22701 11.1973 4.36917 11.4448 4.57 11.6401L6.63 13.6401C6.80968 13.8127 6.94319 14.0277 7.01831 14.2653C7.09343 14.5029 7.10776 14.7555 7.06 15.0001L6.88 16.0801L3.22 19.7201C3.07955 19.8607 3.00066 20.0513 3.00066 20.2501C3.00066 20.4488 3.07955 20.6394 3.22 20.7801C3.36062 20.9205 3.55125 20.9994 3.75 20.9994C3.94875 20.9994 4.13937 20.9205 4.28 20.7801L20.78 4.28007C20.9204 4.13945 20.9993 3.94882 20.9993 3.75007C20.9993 3.55132 20.9204 3.3607 20.78 3.22007Z" fill="#000D26"/>
</svg>
