<svg width="24" height="24" viewBox="0 0 24 24" fill="none" xmlns="http://www.w3.org/2000/svg">
<path d="M13.75 9.44003H17.37L12.92 5.00003C12.906 4.98633 12.8883 4.97703 12.8691 4.97328C12.8499 4.96954 12.83 4.97151 12.8119 4.97897C12.7938 4.98642 12.7783 4.99902 12.7673 5.01521C12.7563 5.0314 12.7503 5.05046 12.75 5.07003V8.44003C12.75 8.70525 12.8554 8.9596 13.0429 9.14714C13.2304 9.33467 13.4848 9.44003 13.75 9.44003Z" fill="#000D26"/>
<path d="M17.22 10.94H12.9C12.4624 10.94 12.0427 10.7662 11.7333 10.4568C11.4238 10.1473 11.25 9.72765 11.25 9.29004V5.00004C11.2514 4.97295 11.2472 4.94586 11.2378 4.92043C11.2283 4.895 11.2138 4.87175 11.1951 4.85211C11.1764 4.83246 11.1539 4.81683 11.1289 4.80616C11.104 4.79549 11.0771 4.79001 11.05 4.79004H9.29C8.57472 4.79002 7.88844 5.07279 7.38078 5.5767C6.87313 6.0806 6.58528 6.76477 6.58001 7.48004V16.48C6.57869 16.8368 6.64781 17.1902 6.78341 17.5202C6.91901 17.8501 7.11842 18.1501 7.3702 18.4028C7.62198 18.6555 7.92117 18.856 8.25062 18.9928C8.58006 19.1296 8.93328 19.2 9.29 19.2H14.71C15.0667 19.2 15.4199 19.1296 15.7494 18.9928C16.0788 18.856 16.378 18.6555 16.6298 18.4028C16.8816 18.1501 17.081 17.8501 17.2166 17.5202C17.3522 17.1902 17.4213 16.8368 17.42 16.48V11.14C17.4176 11.0878 17.3957 11.0383 17.3587 11.0013C17.3217 10.9643 17.2723 10.9425 17.22 10.94Z" fill="#000D26"/>
</svg>
