<svg width="24" height="24" viewBox="0 0 24 24" fill="none" xmlns="http://www.w3.org/2000/svg">
<path d="M16.5 14.8C15.8078 14.8 15.1311 15.0053 14.5555 15.3899C13.9799 15.7745 13.5313 16.3211 13.2664 16.9607C13.0015 17.6002 12.9322 18.3039 13.0673 18.9829C13.2023 19.6618 13.5356 20.2854 14.0251 20.7749C14.5146 21.2644 15.1383 21.5977 15.8172 21.7328C16.4961 21.8678 17.1999 21.7985 17.8394 21.5336C18.4789 21.2687 19.0256 20.8201 19.4101 20.2445C19.7947 19.669 20 18.9923 20 18.3C20 17.3718 19.6313 16.4816 18.9749 15.8252C18.3185 15.1688 17.4283 14.8 16.5 14.8ZM16.27 19.7C16.27 19.899 16.191 20.0897 16.0503 20.2304C15.9097 20.371 15.7189 20.45 15.52 20.45C15.3211 20.45 15.1303 20.371 14.9897 20.2304C14.849 20.0897 14.77 19.899 14.77 19.7V16.9C14.77 16.7011 14.849 16.5104 14.9897 16.3697C15.1303 16.2291 15.3211 16.15 15.52 16.15C15.7189 16.15 15.9097 16.2291 16.0503 16.3697C16.191 16.5104 16.27 16.7011 16.27 16.9V19.7ZM18.27 19.7C18.27 19.899 18.191 20.0897 18.0503 20.2304C17.9097 20.371 17.7189 20.45 17.52 20.45C17.3211 20.45 17.1303 20.371 16.9897 20.2304C16.849 20.0897 16.77 19.899 16.77 19.7V16.9C16.77 16.7011 16.849 16.5104 16.9897 16.3697C17.1303 16.2291 17.3211 16.15 17.52 16.15C17.7189 16.15 17.9097 16.2291 18.0503 16.3697C18.191 16.5104 18.27 16.7011 18.27 16.9V19.7Z" fill="#000D26"/>
<path d="M16.5 13.3C17.7355 13.2972 18.9272 13.7575 19.84 14.59C19.9497 14.0672 20.0033 13.5342 20 13C20 11.4178 19.5308 9.87103 18.6518 8.55544C17.7727 7.23985 16.5233 6.21447 15.0615 5.60897C13.5997 5.00347 11.9911 4.84504 10.4393 5.15372C8.88743 5.4624 7.46197 6.22433 6.34315 7.34315C5.22433 8.46197 4.4624 9.88743 4.15372 11.4393C3.84504 12.9911 4.00347 14.5997 4.60897 16.0615C5.21447 17.5233 6.23985 18.7727 7.55544 19.6518C8.87103 20.5308 10.4178 21 12 21H12.29C11.8053 20.2445 11.5329 19.3723 11.5014 18.4752C11.4699 17.5781 11.6806 16.689 12.1112 15.9014C12.5419 15.1137 13.1767 14.4565 13.9489 13.9988C14.7211 13.5411 15.6023 13.2997 16.5 13.3ZM12.75 11.22C12.75 11.4189 12.671 11.6097 12.5303 11.7503C12.3897 11.891 12.1989 11.97 12 11.97C11.8011 11.97 11.6103 11.891 11.4697 11.7503C11.329 11.6097 11.25 11.4189 11.25 11.22V7.67C11.25 7.47109 11.329 7.28033 11.4697 7.13967C11.6103 6.99902 11.8011 6.92 12 6.92C12.1989 6.92 12.3897 6.99902 12.5303 7.13967C12.671 7.28033 12.75 7.47109 12.75 7.67V11.22Z" fill="#000D26"/>
<path d="M10 3.75H14C14.1989 3.75 14.3897 3.67098 14.5303 3.53033C14.671 3.38968 14.75 3.19891 14.75 3C14.75 2.80109 14.671 2.61032 14.5303 2.46967C14.3897 2.32902 14.1989 2.25 14 2.25H10C9.80109 2.25 9.61032 2.32902 9.46967 2.46967C9.32902 2.61032 9.25 2.80109 9.25 3C9.25 3.19891 9.32902 3.38968 9.46967 3.53033C9.61032 3.67098 9.80109 3.75 10 3.75Z" fill="#000D26"/>
</svg>
