<svg width="24" height="24" viewBox="0 0 24 24" fill="none" xmlns="http://www.w3.org/2000/svg">
<path d="M15.6 8.39994C15.7937 8.61046 15.9086 8.88147 15.9253 9.16704C15.9421 9.45261 15.8595 9.73518 15.6917 9.96686C15.5239 10.1985 15.2812 10.3651 15.0047 10.4383C14.7281 10.5114 14.4348 10.4867 14.1743 10.3684C13.9139 10.25 13.7024 10.0452 13.5757 9.78875C13.449 9.53228 13.4149 9.23989 13.4791 8.96113C13.5433 8.68237 13.702 8.43439 13.9281 8.25921C14.1543 8.08403 14.434 7.99243 14.72 7.99994C14.8863 8.00255 15.0503 8.03942 15.2017 8.10825C15.3531 8.17707 15.4887 8.27637 15.6 8.39994Z" fill="#000D26"/>
<path d="M19.33 6.4299C19.2808 5.97902 19.0798 5.55826 18.76 5.23664C18.4402 4.91502 18.0206 4.71165 17.57 4.6599L13.75 4.2399C13.4514 4.20556 13.1489 4.23897 12.8649 4.33766C12.581 4.43634 12.323 4.59776 12.11 4.8099L4.82 12.1099C4.63405 12.2956 4.48653 12.5162 4.38588 12.759C4.28523 13.0018 4.23343 13.2621 4.23343 13.5249C4.23343 13.7877 4.28523 14.048 4.38588 14.2908C4.48653 14.5336 4.63405 14.7542 4.82 14.9399L9.06 19.1799C9.24575 19.3659 9.46633 19.5134 9.70912 19.614C9.95192 19.7147 10.2122 19.7665 10.475 19.7665C10.7378 19.7665 10.9981 19.7147 11.2409 19.614C11.4837 19.5134 11.7043 19.3659 11.89 19.1799L19.18 11.8799C19.3925 11.669 19.555 11.413 19.6554 11.1309C19.7558 10.8487 19.7915 10.5477 19.76 10.2499L19.33 6.4299ZM16.66 11.2299C16.2754 11.6144 15.7854 11.8762 15.2519 11.9822C14.7185 12.0882 14.1657 12.0336 13.6632 11.8254C13.1608 11.6173 12.7314 11.2648 12.4293 10.8126C12.1272 10.3604 11.9659 9.82874 11.9659 9.2849C11.9659 8.74106 12.1272 8.20942 12.4293 7.75722C12.7314 7.30501 13.1608 6.95254 13.6632 6.74436C14.1657 6.53618 14.7185 6.48164 15.2519 6.58765C15.7854 6.69365 16.2754 6.95544 16.66 7.3399C17.1712 7.85822 17.4577 8.55693 17.4577 9.2849C17.4577 10.0129 17.1712 10.7116 16.66 11.2299Z" fill="#000D26"/>
</svg>
