<svg width="24" height="24" viewBox="0 0 24 24" fill="none" xmlns="http://www.w3.org/2000/svg">
<path d="M19 15.7C18.3851 16.7022 17.551 17.552 16.5605 18.1855C15.5699 18.819 14.4487 19.2197 13.281 19.3576C12.1133 19.4955 10.9296 19.3669 9.81874 18.9815C8.70789 18.5961 7.69884 17.964 6.86742 17.1326C6.03601 16.3012 5.40386 15.2921 5.01848 14.1813C4.6331 13.0704 4.50451 11.8867 4.64239 10.719C4.78027 9.55129 5.18102 8.43005 5.81452 7.43951C6.44803 6.44897 7.29781 5.6149 8.3 4.99999C8.38804 4.95589 8.48713 4.93875 8.58487 4.95074C8.6826 4.96273 8.77461 5.00331 8.84937 5.06739C8.92413 5.13147 8.97831 5.2162 9.00511 5.31095C9.0319 5.4057 9.03013 5.50625 9 5.59999C8.56257 7.48822 8.82552 9.47105 9.74 11.18C10.4267 12.4507 11.4693 13.4933 12.74 14.18C14.4612 15.1414 16.4767 15.4334 18.4 15C18.4937 14.9699 18.5943 14.9681 18.689 14.9949C18.7838 15.0217 18.8685 15.0759 18.9326 15.1506C18.9967 15.2254 19.0373 15.3174 19.0493 15.4151C19.0612 15.5129 19.0441 15.612 19 15.7Z" fill="#000D26"/>
</svg>
