<svg width="24" height="24" viewBox="0 0 24 24" fill="none" xmlns="http://www.w3.org/2000/svg">
<path d="M18.18 10.0799C18.18 8.44086 17.5289 6.86896 16.3699 5.70998C15.211 4.55101 13.639 3.8999 12 3.8999C10.361 3.8999 8.78907 4.55101 7.63009 5.70998C6.47112 6.86896 5.82001 8.44086 5.82001 10.0799C5.82001 10.0799 5.47001 12.9199 9.51001 18.7899C9.78367 19.2025 10.1552 19.5409 10.5914 19.775C11.0276 20.0091 11.515 20.1316 12.01 20.1316C12.5051 20.1316 12.9924 20.0091 13.4286 19.775C13.8649 19.5409 14.2364 19.2025 14.51 18.7899C18.53 12.9199 18.18 10.0799 18.18 10.0799ZM14 10.8199H10C9.8011 10.8199 9.61033 10.7409 9.46968 10.6002C9.32903 10.4596 9.25001 10.2688 9.25001 10.0699C9.25001 9.87099 9.32903 9.68022 9.46968 9.53957C9.61033 9.39892 9.8011 9.3199 10 9.3199H14C14.1989 9.3199 14.3897 9.39892 14.5303 9.53957C14.671 9.68022 14.75 9.87099 14.75 10.0699C14.75 10.2688 14.671 10.4596 14.5303 10.6002C14.3897 10.7409 14.1989 10.8199 14 10.8199Z" fill="#000D26"/>
</svg>
