<svg width="24" height="24" viewBox="0 0 24 24" fill="none" xmlns="http://www.w3.org/2000/svg">
<path d="M20 16L17.76 13.75C17.5599 13.5534 17.2906 13.4432 17.01 13.4432C16.7295 13.4432 16.4601 13.5534 16.26 13.75L15.51 14.5C15.3099 14.6967 15.0406 14.8069 14.76 14.8069C14.4795 14.8069 14.2101 14.6967 14.01 14.5L9.47003 10C9.27338 9.79991 9.16318 9.53058 9.16318 9.25002C9.16318 8.96946 9.27338 8.70012 9.47003 8.50002L10.22 7.75002C10.4167 7.54991 10.5269 7.28058 10.5269 7.00002C10.5269 6.71946 10.4167 6.45012 10.22 6.25002L8.00003 4.05002C7.90227 3.95024 7.78558 3.87097 7.65679 3.81685C7.52801 3.76274 7.38972 3.73486 7.25003 3.73486C7.11034 3.73486 6.97205 3.76274 6.84327 3.81685C6.71448 3.87097 6.59779 3.95024 6.50003 4.05002L5.00003 5.54002C4.60335 5.93245 4.28843 6.39966 4.07351 6.91461C3.85859 7.42956 3.74792 7.98202 3.74792 8.54002C3.74792 9.09801 3.85859 9.65047 4.07351 10.1654C4.28843 10.6804 4.60335 11.1476 5.00003 11.54L12.47 19C12.8625 19.3967 13.3297 19.7116 13.8446 19.9265C14.3596 20.1415 14.912 20.2521 15.47 20.2521C16.028 20.2521 16.5805 20.1415 17.0954 19.9265C17.6104 19.7116 18.0776 19.3967 18.47 19L20 17.53C20.1045 17.4318 20.1877 17.3133 20.2446 17.1817C20.3015 17.0502 20.3308 16.9084 20.3308 16.765C20.3308 16.6217 20.3015 16.4799 20.2446 16.3483C20.1877 16.2167 20.1045 16.0982 20 16Z" fill="#000D26"/>
<path d="M14.52 6.00005H18V9.50005C18 9.69896 18.079 9.88973 18.2197 10.0304C18.3603 10.171 18.5511 10.25 18.75 10.25C18.9489 10.25 19.1397 10.171 19.2803 10.0304C19.421 9.88973 19.5 9.69896 19.5 9.50005V5.23005C19.5014 5.13119 19.4829 5.03305 19.4457 4.94145C19.4085 4.84985 19.3533 4.76664 19.2833 4.69672C19.2134 4.62681 19.1302 4.57161 19.0386 4.5344C18.947 4.49718 18.8489 4.4787 18.75 4.48005H14.52C14.3211 4.48005 14.1303 4.55907 13.9897 4.69972C13.849 4.84037 13.77 5.03114 13.77 5.23005C13.77 5.42896 13.849 5.61973 13.9897 5.76038C14.1303 5.90103 14.3211 5.98005 14.52 5.98005V6.00005Z" fill="#000D26"/>
</svg>
