<svg width="24" height="24" viewBox="0 0 24 24" fill="none" xmlns="http://www.w3.org/2000/svg">
<path d="M18.42 8.51992C17.8283 9.09444 17.0522 9.44082 16.2294 9.49763C15.4066 9.55444 14.5902 9.31801 13.9251 8.83027C13.26 8.34253 12.7891 7.635 12.596 6.83316C12.4029 6.03132 12.5 5.187 12.87 4.44992C12.896 4.40503 12.9099 4.35418 12.9103 4.30233C12.9108 4.25047 12.8978 4.19939 12.8726 4.15407C12.8474 4.10874 12.8109 4.07071 12.7666 4.0437C12.7224 4.01668 12.6719 4.0016 12.62 3.99992C12.0097 3.9506 11.3958 3.97073 10.79 4.05992C9.46189 4.27419 8.21568 4.84131 7.18169 5.70198C6.14769 6.56265 5.36387 7.68527 4.91217 8.9525C4.46046 10.2197 4.35746 11.585 4.61392 12.9057C4.87038 14.2263 5.47688 15.4538 6.37004 16.4599C6.4659 16.5691 6.53482 16.6993 6.57129 16.84C6.60776 16.9806 6.61076 17.1279 6.58004 17.2699L6.05004 19.4199C6.03023 19.5011 6.03392 19.5862 6.0607 19.6653C6.08749 19.7445 6.13624 19.8143 6.20127 19.8668C6.26631 19.9192 6.34492 19.9521 6.42794 19.9615C6.51095 19.9709 6.59492 19.9565 6.67004 19.9199L9.17004 18.7199C9.37681 18.6451 9.60328 18.6451 9.81004 18.7199C10.8153 19.0282 11.874 19.1223 12.9178 18.9961C13.9616 18.8698 14.9674 18.5261 15.8701 17.9871C16.7729 17.4481 17.5526 16.7257 18.1589 15.8667C18.7652 15.0077 19.1846 14.0311 19.39 12.9999C19.675 11.5324 19.5112 10.013 18.92 8.63992C18.9023 8.59234 18.8731 8.54986 18.8351 8.51621C18.7971 8.48255 18.7513 8.45875 18.702 8.4469C18.6526 8.43505 18.6011 8.43551 18.5519 8.44824C18.5027 8.46097 18.4575 8.48559 18.42 8.51992ZM9.00004 12.4999C8.80226 12.4999 8.60892 12.4413 8.44447 12.3314C8.28002 12.2215 8.15185 12.0653 8.07616 11.8826C8.00048 11.6999 7.98067 11.4988 8.01926 11.3048C8.05784 11.1108 8.15308 10.9327 8.29294 10.7928C8.43279 10.653 8.61097 10.5577 8.80495 10.5191C8.99893 10.4805 9.2 10.5003 9.38273 10.576C9.56545 10.6517 9.72163 10.7799 9.83151 10.9443C9.94139 11.1088 10 11.3021 10 11.4999C10 11.7651 9.89469 12.0195 9.70715 12.207C9.51961 12.3946 9.26526 12.4999 9.00004 12.4999ZM12 12.4999C11.8023 12.4999 11.6089 12.4413 11.4445 12.3314C11.28 12.2215 11.1519 12.0653 11.0762 11.8826C11.0005 11.6999 10.9807 11.4988 11.0193 11.3048C11.0578 11.1108 11.1531 10.9327 11.2929 10.7928C11.4328 10.653 11.611 10.5577 11.805 10.5191C11.9989 10.4805 12.2 10.5003 12.3827 10.576C12.5655 10.6517 12.7216 10.7799 12.8315 10.9443C12.9414 11.1088 13 11.3021 13 11.4999C13 11.7651 12.8947 12.0195 12.7071 12.207C12.5196 12.3946 12.2653 12.4999 12 12.4999ZM15 12.4999C14.8023 12.4999 14.6089 12.4413 14.4445 12.3314C14.28 12.2215 14.1519 12.0653 14.0762 11.8826C14.0005 11.6999 13.9807 11.4988 14.0193 11.3048C14.0578 11.1108 14.1531 10.9327 14.2929 10.7928C14.4328 10.653 14.611 10.5577 14.805 10.5191C14.9989 10.4805 15.2 10.5003 15.3827 10.576C15.5655 10.6517 15.7216 10.7799 15.8315 10.9443C15.9414 11.1088 16 11.3021 16 11.4999C16 11.7651 15.8947 12.0195 15.7071 12.207C15.5196 12.3946 15.2653 12.4999 15 12.4999Z" fill="#000D26"/>
<path d="M16 8C17.1046 8 18 7.10457 18 6C18 4.89543 17.1046 4 16 4C14.8954 4 14 4.89543 14 6C14 7.10457 14.8954 8 16 8Z" fill="#000D26"/>
</svg>
