<svg width="24" height="24" viewBox="0 0 24 24" fill="none" xmlns="http://www.w3.org/2000/svg">
<path d="M15.2299 6H5.62988C4.83423 6 4.07117 6.31607 3.50856 6.87868C2.94595 7.44129 2.62988 8.20435 2.62988 9V14.86C2.63018 15.516 2.84549 16.1538 3.24283 16.6758C3.64017 17.1977 4.19764 17.5751 4.82988 17.75C5.05916 17.7968 5.26478 17.9224 5.41095 18.1051C5.55713 18.2879 5.6346 18.5161 5.62988 18.75V20.67C5.62622 20.7701 5.6533 20.8689 5.70749 20.9531C5.76169 21.0373 5.84038 21.1029 5.93299 21.141C6.02559 21.1792 6.12765 21.188 6.22543 21.1664C6.32321 21.1447 6.41202 21.0936 6.47988 21.02L9.31988 18.19C9.50614 18.0053 9.75754 17.9011 10.0199 17.9H15.2299C16.0255 17.9 16.7886 17.5839 17.3512 17.0213C17.9138 16.4587 18.2299 15.6956 18.2299 14.9V9C18.2299 8.20435 17.9138 7.44129 17.3512 6.87868C16.7886 6.31607 16.0255 6 15.2299 6ZM7.42988 12.86C7.2321 12.86 7.03876 12.8014 6.87431 12.6915C6.70986 12.5816 6.58169 12.4254 6.506 12.2427C6.43032 12.06 6.41051 11.8589 6.4491 11.6649C6.48768 11.4709 6.58292 11.2927 6.72278 11.1529C6.86263 11.013 7.04081 10.9178 7.23479 10.8792C7.42877 10.8406 7.62984 10.8604 7.81257 10.9361C7.99529 11.0118 8.15147 11.14 8.26135 11.3044C8.37123 11.4689 8.42988 11.6622 8.42988 11.86C8.42725 12.1235 8.32073 12.3753 8.13348 12.5607C7.94623 12.746 7.69338 12.85 7.42988 12.85V12.86ZM10.4299 12.86C10.2321 12.86 10.0388 12.8014 9.87431 12.6915C9.70986 12.5816 9.58169 12.4254 9.506 12.2427C9.43032 12.06 9.41051 11.8589 9.4491 11.6649C9.48768 11.4709 9.58292 11.2927 9.72278 11.1529C9.86263 11.013 10.0408 10.9178 10.2348 10.8792C10.4288 10.8406 10.6298 10.8604 10.8126 10.9361C10.9953 11.0118 11.1515 11.14 11.2614 11.3044C11.3712 11.4689 11.4299 11.6622 11.4299 11.86C11.4272 12.1235 11.3207 12.3753 11.1335 12.5607C10.9462 12.746 10.6934 12.85 10.4299 12.85V12.86ZM13.4299 12.86C13.2321 12.86 13.0388 12.8014 12.8743 12.6915C12.7099 12.5816 12.5817 12.4254 12.506 12.2427C12.4303 12.06 12.4105 11.8589 12.4491 11.6649C12.4877 11.4709 12.5829 11.2927 12.7228 11.1529C12.8626 11.013 13.0408 10.9178 13.2348 10.8792C13.4288 10.8406 13.6298 10.8604 13.8126 10.9361C13.9953 11.0118 14.1515 11.14 14.2614 11.3044C14.3712 11.4689 14.4299 11.6622 14.4299 11.86C14.4272 12.1235 14.3207 12.3753 14.1335 12.5607C13.9462 12.746 13.6934 12.85 13.4299 12.85V12.86Z" fill="#000D26"/>
<path d="M21.3701 5.86011V11.7101C21.3693 12.2707 21.2116 12.8198 20.9146 13.2953C20.6177 13.7707 20.1935 14.1535 19.6901 14.4001V7.53011C19.6901 6.73446 19.374 5.9714 18.8114 5.40879C18.2488 4.84618 17.4857 4.53011 16.6901 4.53011H6.09009C6.33738 4.03011 6.71917 3.60897 7.19259 3.31397C7.666 3.01897 8.21229 2.8618 8.77009 2.86011H18.3701C18.7641 2.86011 19.1542 2.9377 19.5181 3.08847C19.8821 3.23923 20.2128 3.46021 20.4914 3.73879C20.77 4.01736 20.991 4.34808 21.1417 4.71206C21.2925 5.07603 21.3701 5.46614 21.3701 5.86011Z" fill="#000D26"/>
</svg>
