<svg width="24" height="24" viewBox="0 0 24 24" fill="none" xmlns="http://www.w3.org/2000/svg">
<path d="M11.1299 9.31995C12.7867 9.31995 14.1299 7.9768 14.1299 6.31995C14.1299 4.66309 12.7867 3.31995 11.1299 3.31995C9.47303 3.31995 8.12988 4.66309 8.12988 6.31995C8.12988 7.9768 9.47303 9.31995 11.1299 9.31995Z" fill="#000D26"/>
<path d="M11.8699 17.18C11.8699 16.4038 12.0506 15.6382 12.3978 14.9439C12.7449 14.2497 13.2489 13.6457 13.8699 13.18C13.9104 13.1476 13.9417 13.1052 13.9609 13.057C13.9801 13.0089 13.9865 12.9565 13.9794 12.9052C13.9724 12.8538 13.9521 12.8051 13.9207 12.7639C13.8892 12.7227 13.8476 12.6903 13.7999 12.67C12.6894 12.2517 11.4956 12.1025 10.3163 12.2347C9.13702 12.3669 8.00584 12.7766 7.01548 13.4304C6.02512 14.0841 5.20378 14.9632 4.61877 15.9956C4.03375 17.0281 3.70173 18.1845 3.6499 19.37C3.64986 19.4532 3.6822 19.5331 3.74007 19.5928C3.79793 19.6525 3.87678 19.6874 3.9599 19.69H12.0799C12.132 19.6908 12.1834 19.6781 12.229 19.653C12.2747 19.6279 12.313 19.5913 12.3403 19.5469C12.3675 19.5025 12.3827 19.4518 12.3844 19.3997C12.3861 19.3477 12.3742 19.2961 12.3499 19.25C12.0385 18.6041 11.8746 17.897 11.8699 17.18Z" fill="#000D26"/>
<path d="M16.8701 13.6799C16.1779 13.6799 15.5012 13.8852 14.9256 14.2698C14.3501 14.6544 13.9014 15.201 13.6365 15.8406C13.3716 16.4801 13.3023 17.1838 13.4374 17.8628C13.5724 18.5417 13.9058 19.1653 14.3952 19.6548C14.8847 20.1443 15.5084 20.4776 16.1873 20.6127C16.8662 20.7477 17.57 20.6784 18.2095 20.4135C18.8491 20.1486 19.3957 19.7 19.7803 19.1244C20.1648 18.5489 20.3701 17.8722 20.3701 17.1799C20.3714 16.7199 20.2818 16.2642 20.1064 15.839C19.931 15.4138 19.6732 15.0274 19.3479 14.7021C19.0227 14.3769 18.6363 14.1191 18.2111 13.9437C17.7858 13.7683 17.3301 13.6786 16.8701 13.6799ZM18.3701 17.9299H17.6201V18.6799C17.6201 18.8789 17.5411 19.0696 17.4004 19.2103C17.2598 19.3509 17.069 19.4299 16.8701 19.4299C16.6712 19.4299 16.4804 19.3509 16.3398 19.2103C16.1991 19.0696 16.1201 18.8789 16.1201 18.6799V17.9299H15.3701C15.1712 17.9299 14.9804 17.8509 14.8398 17.7103C14.6991 17.5696 14.6201 17.3789 14.6201 17.1799C14.6201 16.981 14.6991 16.7903 14.8398 16.6496C14.9804 16.509 15.1712 16.4299 15.3701 16.4299H16.1201V15.6799C16.1201 15.481 16.1991 15.2903 16.3398 15.1496C16.4804 15.009 16.6712 14.9299 16.8701 14.9299C17.069 14.9299 17.2598 15.009 17.4004 15.1496C17.5411 15.2903 17.6201 15.481 17.6201 15.6799V16.4299H18.3701C18.569 16.4299 18.7598 16.509 18.9004 16.6496C19.0411 16.7903 19.1201 16.981 19.1201 17.1799C19.1201 17.3789 19.0411 17.5696 18.9004 17.7103C18.7598 17.8509 18.569 17.9299 18.3701 17.9299Z" fill="#000D26"/>
</svg>
