<svg width="24" height="24" viewBox="0 0 24 24" fill="none" xmlns="http://www.w3.org/2000/svg">
<path d="M18 14C17.2089 14 16.4355 14.2346 15.7777 14.6741C15.1199 15.1136 14.6072 15.7384 14.3045 16.4693C14.0017 17.2002 13.9225 18.0044 14.0769 18.7804C14.2312 19.5563 14.6122 20.269 15.1716 20.8284C15.731 21.3878 16.4437 21.7688 17.2196 21.9231C17.9956 22.0775 18.7998 21.9983 19.5307 21.6955C20.2616 21.3928 20.8864 20.8801 21.3259 20.2223C21.7654 19.5645 22 18.7911 22 18C22 16.9391 21.5786 15.9217 20.8284 15.1716C20.0783 14.4214 19.0609 14 18 14ZM20.28 20.28C20.1741 20.3795 20.0353 20.4365 19.89 20.44C19.7443 20.4385 19.6048 20.3812 19.5 20.28L18.81 19.59C18.4786 19.7824 18.1031 19.8857 17.72 19.89C17.2908 19.89 16.8713 19.7627 16.5144 19.5243C16.1576 19.2858 15.8794 18.9469 15.7152 18.5504C15.5509 18.1539 15.508 17.7176 15.5917 17.2967C15.6754 16.8757 15.8821 16.4891 16.1856 16.1856C16.4891 15.8821 16.8757 15.6754 17.2967 15.5917C17.7176 15.508 18.1539 15.5509 18.5504 15.7152C18.9469 15.8794 19.2858 16.1576 19.5243 16.5144C19.7627 16.8713 19.89 17.2908 19.89 17.72C19.8857 18.1031 19.7824 18.4786 19.59 18.81L20.28 19.5C20.3814 19.6045 20.4381 19.7444 20.4381 19.89C20.4381 20.0356 20.3814 20.1755 20.28 20.28Z" fill="#000D26"/>
<path d="M18.6 4H5.4C4.49908 4.00264 3.6358 4.3617 2.99875 4.99875C2.3617 5.6358 2.00264 6.49908 2 7.4V16.6C2.00264 17.5009 2.3617 18.3642 2.99875 19.0012C3.6358 19.6383 4.49908 19.9974 5.4 20H12.46C12.5073 20.0013 12.5543 19.9909 12.5967 19.9699C12.6391 19.9488 12.6758 19.9177 12.7034 19.8792C12.731 19.8408 12.7488 19.7961 12.7552 19.7492C12.7616 19.7022 12.7563 19.6545 12.74 19.61C12.5987 19.1628 12.518 18.6987 12.5 18.23C12.4593 17.1694 12.7264 16.1196 13.2691 15.2074C13.8118 14.2952 14.6068 13.5595 15.5582 13.0891C16.5097 12.6186 17.577 12.4335 18.6313 12.5561C19.6856 12.6787 20.6819 13.1038 21.5 13.78C21.5433 13.8179 21.5969 13.842 21.654 13.8493C21.7111 13.8566 21.769 13.8467 21.8205 13.821C21.872 13.7953 21.9146 13.7548 21.943 13.7048C21.9714 13.6547 21.9843 13.5974 21.98 13.54V7.4C21.9774 6.50252 21.6211 5.64224 20.9883 5.00576C20.3556 4.36927 19.4974 4.00789 18.6 4ZM18.41 9.63L13.57 12.8C13.114 13.1225 12.5684 13.2938 12.01 13.29C11.4335 13.2904 10.8711 13.1122 10.4 12.78L5.59 9.63C5.50727 9.57616 5.43595 9.50655 5.38012 9.42514C5.32429 9.34374 5.28504 9.25214 5.26461 9.15556C5.24418 9.05899 5.24297 8.95934 5.26106 8.8623C5.27914 8.76526 5.31616 8.67273 5.37 8.59C5.42384 8.50727 5.49345 8.43595 5.57486 8.38012C5.65626 8.32429 5.74786 8.28504 5.84444 8.26461C5.94101 8.24418 6.04066 8.24297 6.1377 8.26106C6.23474 8.27914 6.32727 8.31616 6.41 8.37L11.25 11.54C11.4652 11.6961 11.7242 11.7802 11.99 11.7802C12.2558 11.7802 12.5148 11.6961 12.73 11.54L17.59 8.35C17.6727 8.29616 17.7653 8.25914 17.8623 8.24106C17.9593 8.22297 18.059 8.22418 18.1556 8.24461C18.2521 8.26504 18.3437 8.30429 18.4251 8.36012C18.5065 8.41595 18.5762 8.48727 18.63 8.57C18.6838 8.65273 18.7209 8.74526 18.7389 8.8423C18.757 8.93934 18.7558 9.03899 18.7354 9.13556C18.715 9.23214 18.6757 9.32374 18.6199 9.40514C18.5641 9.48655 18.4927 9.55616 18.41 9.61V9.63Z" fill="#000D26"/>
</svg>
