<svg width="24" height="24" viewBox="0 0 24 24" fill="none" xmlns="http://www.w3.org/2000/svg">
<path d="M12 13.25C12.6904 13.25 13.25 12.6904 13.25 12C13.25 11.3096 12.6904 10.75 12 10.75C11.3096 10.75 10.75 11.3096 10.75 12C10.75 12.6904 11.3096 13.25 12 13.25Z" fill="#000D26"/>
<path d="M19 10.25H18.25C18.085 10.2485 17.9241 10.1984 17.7874 10.1059C17.6508 10.0135 17.5443 9.88293 17.4814 9.73041C17.4184 9.57789 17.4018 9.41021 17.4336 9.24831C17.4654 9.0864 17.5441 8.93744 17.66 8.82L18.19 8.29C18.2837 8.19704 18.3581 8.08644 18.4089 7.96458C18.4597 7.84272 18.4858 7.71201 18.4858 7.58C18.4858 7.44799 18.4597 7.31728 18.4089 7.19542C18.3581 7.07356 18.2837 6.96296 18.19 6.87L17.13 5.81C17.037 5.71627 16.9264 5.64188 16.8046 5.59111C16.6827 5.54034 16.552 5.5142 16.42 5.5142C16.288 5.5142 16.1573 5.54034 16.0354 5.59111C15.9136 5.64188 15.803 5.71627 15.71 5.81L15.18 6.34C15.0626 6.4559 14.9136 6.53464 14.7517 6.56641C14.5898 6.59817 14.4221 6.58156 14.2696 6.51863C14.1171 6.4557 13.9865 6.34925 13.8941 6.21256C13.8016 6.07586 13.7515 5.91499 13.75 5.75V5C13.75 4.73478 13.6446 4.48043 13.4571 4.29289C13.2696 4.10536 13.0152 4 12.75 4H11.25C10.9848 4 10.7304 4.10536 10.5429 4.29289C10.3554 4.48043 10.25 4.73478 10.25 5V5.75C10.2485 5.91499 10.1984 6.07586 10.1059 6.21256C10.0135 6.34925 9.88293 6.4557 9.73041 6.51863C9.57789 6.58156 9.41021 6.59817 9.24831 6.56641C9.0864 6.53464 8.93744 6.4559 8.82 6.34L8.29 5.81C8.19704 5.71627 8.08644 5.64188 7.96458 5.59111C7.84272 5.54034 7.71201 5.5142 7.58 5.5142C7.44799 5.5142 7.31728 5.54034 7.19542 5.59111C7.07356 5.64188 6.96296 5.71627 6.87 5.81L5.81 6.87C5.71627 6.96296 5.64188 7.07356 5.59111 7.19542C5.54034 7.31728 5.5142 7.44799 5.5142 7.58C5.5142 7.71201 5.54034 7.84272 5.59111 7.96458C5.64188 8.08644 5.71627 8.19704 5.81 8.29L6.34 8.82C6.4559 8.93744 6.53464 9.0864 6.56641 9.24831C6.59817 9.41021 6.58156 9.57789 6.51863 9.73041C6.4557 9.88293 6.34925 10.0135 6.21256 10.1059C6.07586 10.1984 5.91499 10.2485 5.75 10.25H5C4.73478 10.25 4.48043 10.3554 4.29289 10.5429C4.10536 10.7304 4 10.9848 4 11.25V12.75C4 13.0152 4.10536 13.2696 4.29289 13.4571C4.48043 13.6446 4.73478 13.75 5 13.75H5.75C5.91499 13.7515 6.07586 13.8016 6.21256 13.8941C6.34925 13.9865 6.4557 14.1171 6.51863 14.2696C6.58156 14.4221 6.59817 14.5898 6.56641 14.7517C6.53464 14.9136 6.4559 15.0626 6.34 15.18L5.81 15.71C5.62375 15.8974 5.51921 16.1508 5.51921 16.415C5.51921 16.6792 5.62375 16.9326 5.81 17.12L6.87 18.18C6.96296 18.2737 7.07356 18.3481 7.19542 18.3989C7.31728 18.4497 7.44799 18.4758 7.58 18.4758C7.71201 18.4758 7.84272 18.4497 7.96458 18.3989C8.08644 18.3481 8.19704 18.2737 8.29 18.18L8.82 17.65C8.93804 17.5335 9.08792 17.4546 9.25076 17.4231C9.41359 17.3917 9.58208 17.4092 9.735 17.4733C9.88792 17.5375 10.0184 17.6455 10.1101 17.7837C10.2017 17.9219 10.2504 18.0842 10.25 18.25V19C10.25 19.2652 10.3554 19.5196 10.5429 19.7071C10.7304 19.8946 10.9848 20 11.25 20H12.75C13.0152 20 13.2696 19.8946 13.4571 19.7071C13.6446 19.5196 13.75 19.2652 13.75 19V18.25C13.7496 18.0842 13.7983 17.9219 13.8899 17.7837C13.9816 17.6455 14.1121 17.5375 14.265 17.4733C14.4179 17.4092 14.5864 17.3917 14.7492 17.4231C14.9121 17.4546 15.062 17.5335 15.18 17.65L15.71 18.18C15.803 18.2737 15.9136 18.3481 16.0354 18.3989C16.1573 18.4497 16.288 18.4758 16.42 18.4758C16.552 18.4758 16.6827 18.4497 16.8046 18.3989C16.9264 18.3481 17.037 18.2737 17.13 18.18L18.19 17.12C18.3763 16.9326 18.4808 16.6792 18.4808 16.415C18.4808 16.1508 18.3763 15.8974 18.19 15.71L17.66 15.18C17.5441 15.0626 17.4654 14.9136 17.4336 14.7517C17.4018 14.5898 17.4184 14.4221 17.4814 14.2696C17.5443 14.1171 17.6508 13.9865 17.7874 13.8941C17.9241 13.8016 18.085 13.7515 18.25 13.75H19C19.2652 13.75 19.5196 13.6446 19.7071 13.4571C19.8946 13.2696 20 13.0152 20 12.75V11.25C20 11.1187 19.9741 10.9886 19.9239 10.8673C19.8736 10.746 19.8 10.6358 19.7071 10.5429C19.6142 10.45 19.504 10.3764 19.3827 10.3261C19.2614 10.2759 19.1313 10.25 19 10.25ZM12 14.75C11.4561 14.75 10.9244 14.5887 10.4722 14.2865C10.0199 13.9844 9.66747 13.5549 9.45933 13.0524C9.25119 12.5499 9.19673 11.9969 9.30284 11.4635C9.40895 10.9301 9.67086 10.4401 10.0555 10.0555C10.4401 9.67086 10.9301 9.40895 11.4635 9.30284C11.9969 9.19673 12.5499 9.25119 13.0524 9.45933C13.5549 9.66747 13.9844 10.0199 14.2865 10.4722C14.5887 10.9244 14.75 11.4561 14.75 12C14.75 12.7293 14.4603 13.4288 13.9445 13.9445C13.4288 14.4603 12.7293 14.75 12 14.75Z" fill="#000D26"/>
</svg>
