<svg width="24" height="24" viewBox="0 0 24 24" fill="none" xmlns="http://www.w3.org/2000/svg">
<path d="M12 3C10.22 3 8.47991 3.52784 6.99987 4.51677C5.51983 5.50571 4.36628 6.91131 3.68509 8.55585C3.0039 10.2004 2.82567 12.01 3.17294 13.7558C3.5202 15.5016 4.37737 17.1053 5.63604 18.364C6.89472 19.6226 8.49836 20.4798 10.2442 20.8271C11.99 21.1743 13.7996 20.9961 15.4442 20.3149C17.0887 19.6337 18.4943 18.4802 19.4832 17.0001C20.4722 15.5201 21 13.78 21 12C21 9.61305 20.0518 7.32387 18.364 5.63604C16.6761 3.94821 14.387 3 12 3ZM16.53 9L12 13.53C11.8594 13.6705 11.6688 13.7493 11.47 13.7493C11.2713 13.7493 11.0806 13.6705 10.94 13.53L8.47 11C8.38697 10.854 8.35537 10.6843 8.38027 10.5181C8.40517 10.352 8.48513 10.199 8.60732 10.0838C8.72952 9.96848 8.88688 9.89756 9.05418 9.88238C9.22149 9.86719 9.38905 9.90861 9.53 10L11.53 12L15.53 8C15.67 7.93316 15.8272 7.91135 15.9801 7.93758C16.1329 7.9638 16.2739 8.03678 16.3836 8.14645C16.4932 8.25612 16.5662 8.39709 16.5924 8.54995C16.6187 8.70281 16.5968 8.86005 16.53 9Z" fill="#000D26"/>
</svg>
