<svg width="24" height="24" viewBox="0 0 24 24" fill="none" xmlns="http://www.w3.org/2000/svg">
<path d="M14 9.22001H17.82C17.8424 9.2183 17.8638 9.21036 17.8819 9.19709C17.9 9.18382 17.914 9.16575 17.9223 9.14492C17.9306 9.1241 17.9329 9.10136 17.929 9.07928C17.9251 9.0572 17.915 9.03667 17.9 9.02001L13 4.15001C12.9833 4.13499 12.9628 4.12495 12.9407 4.12101C12.9187 4.11707 12.8959 4.11939 12.8751 4.12772C12.8543 4.13605 12.8362 4.15005 12.8229 4.16813C12.8096 4.18621 12.8017 4.20765 12.8 4.23001V8.05001C12.8013 8.20582 12.8334 8.35984 12.8946 8.50316C12.9557 8.64649 13.0446 8.77628 13.1562 8.88506C13.2678 8.99384 13.3998 9.07944 13.5446 9.13693C13.6894 9.19442 13.8442 9.22266 14 9.22001Z" fill="#000D26"/>
<path d="M13.22 10.76C12.6896 10.76 12.1809 10.5493 11.8058 10.1742C11.4307 9.79914 11.22 9.29043 11.22 8.76V4H9C8.20435 4 7.44129 4.31607 6.87868 4.87868C6.31607 5.44129 6 6.20435 6 7V17C6 17.7956 6.31607 18.5587 6.87868 19.1213C7.44129 19.6839 8.20435 20 9 20H15C15.7956 20 16.5587 19.6839 17.1213 19.1213C17.6839 18.5587 18 17.7956 18 17V10.76H13.22ZM10.22 17.01C10.22 17.2089 10.141 17.3997 10.0003 17.5403C9.85968 17.681 9.66891 17.76 9.47 17.76C9.27109 17.76 9.08032 17.681 8.93967 17.5403C8.79902 17.3997 8.72 17.2089 8.72 17.01V13C8.72 12.8011 8.79902 12.6103 8.93967 12.4697C9.08032 12.329 9.27109 12.25 9.47 12.25C9.66891 12.25 9.85968 12.329 10.0003 12.4697C10.141 12.6103 10.22 12.8011 10.22 13V17.01ZM12.72 17.01C12.72 17.2089 12.641 17.3997 12.5003 17.5403C12.3597 17.681 12.1689 17.76 11.97 17.76C11.7711 17.76 11.5803 17.681 11.4397 17.5403C11.299 17.3997 11.22 17.2089 11.22 17.01V14C11.22 13.8011 11.299 13.6103 11.4397 13.4697C11.5803 13.329 11.7711 13.25 11.97 13.25C12.1689 13.25 12.3597 13.329 12.5003 13.4697C12.641 13.6103 12.72 13.8011 12.72 14V17.01ZM15.22 17.01C15.22 17.2089 15.141 17.3997 15.0003 17.5403C14.8597 17.681 14.6689 17.76 14.47 17.76C14.2711 17.76 14.0803 17.681 13.9397 17.5403C13.799 17.3997 13.72 17.2089 13.72 17.01V15C13.72 14.8011 13.799 14.6103 13.9397 14.4697C14.0803 14.329 14.2711 14.25 14.47 14.25C14.6689 14.25 14.8597 14.329 15.0003 14.4697C15.141 14.6103 15.22 14.8011 15.22 15V17.01Z" fill="#000D26"/>
</svg>
