<svg width="24" height="24" viewBox="0 0 24 24" fill="none" xmlns="http://www.w3.org/2000/svg">
<path d="M21.42 9.65002L13 4.00002C12.7071 3.79433 12.3579 3.68396 12 3.68396C11.6421 3.68396 11.2929 3.79433 11 4.00002L2.58 9.65002C2.41424 9.76141 2.29952 9.93409 2.26107 10.1301C2.22263 10.326 2.26361 10.5293 2.375 10.695C2.48639 10.8608 2.65907 10.9755 2.85504 11.0139C3.05102 11.0524 3.25424 11.0114 3.42 10.9L4.5 10.18V17.28C4.5 18.0757 4.81607 18.8387 5.37868 19.4013C5.94129 19.964 6.70435 20.28 7.5 20.28H16.5C17.2956 20.28 18.0587 19.964 18.6213 19.4013C19.1839 18.8387 19.5 18.0757 19.5 17.28V10.18L20.58 10.9C20.7084 10.9707 20.8535 11.0053 21 11C21.1228 11.0016 21.2439 10.9722 21.3523 10.9145C21.4607 10.8568 21.5527 10.7727 21.62 10.67C21.7249 10.5071 21.7626 10.3099 21.7253 10.1198C21.6881 9.92961 21.5786 9.76128 21.42 9.65002ZM12.75 17.28C12.75 17.4789 12.671 17.6697 12.5303 17.8104C12.3897 17.951 12.1989 18.03 12 18.03C11.8011 18.03 11.6103 17.951 11.4697 17.8104C11.329 17.6697 11.25 17.4789 11.25 17.28V15.28C11.25 15.0811 11.329 14.8903 11.4697 14.7497C11.6103 14.609 11.8011 14.53 12 14.53C12.1989 14.53 12.3897 14.609 12.5303 14.7497C12.671 14.8903 12.75 15.0811 12.75 15.28V17.28Z" fill="#000D26"/>
</svg>
