<svg width="24" height="24" viewBox="0 0 24 24" fill="none" xmlns="http://www.w3.org/2000/svg">
<path d="M17 3H7C5.93913 3 4.92172 3.42143 4.17157 4.17157C3.42143 4.92172 3 5.93913 3 7V17C3 18.0609 3.42143 19.0783 4.17157 19.8284C4.92172 20.5786 5.93913 21 7 21H17C18.0609 21 19.0783 20.5786 19.8284 19.8284C20.5786 19.0783 21 18.0609 21 17V7C21 5.93913 20.5786 4.92172 19.8284 4.17157C19.0783 3.42143 18.0609 3 17 3ZM14 14.47C14.1405 14.6106 14.2193 14.8012 14.2193 15C14.2193 15.1988 14.1405 15.3894 14 15.53C13.8594 15.6705 13.6688 15.7493 13.47 15.7493C13.2712 15.7493 13.0806 15.6705 12.94 15.53L9.94 12.53C9.79955 12.3894 9.72066 12.1988 9.72066 12C9.72066 11.8012 9.79955 11.6106 9.94 11.47L12.94 8.47C13.0822 8.33752 13.2702 8.2654 13.4645 8.26882C13.6588 8.27225 13.8442 8.35097 13.9816 8.48838C14.119 8.62579 14.1977 8.81118 14.2012 9.00548C14.2046 9.19978 14.1325 9.38783 14 9.53L11.56 12L14 14.47Z" fill="#000D26"/>
</svg>
