<svg width="24" height="24" viewBox="0 0 24 24" fill="none" xmlns="http://www.w3.org/2000/svg">
<path d="M16.94 8.32001L14.28 16.32C14.2142 16.5201 14.087 16.6943 13.9164 16.8178C13.7458 16.9413 13.5406 17.0078 13.33 17.0078C13.1194 17.0078 12.9142 16.9413 12.7436 16.8178C12.573 16.6943 12.4458 16.5201 12.38 16.32L11.67 14.17C11.6157 13.9972 11.6093 13.8129 11.6516 13.6368C11.6939 13.4607 11.7832 13.2993 11.91 13.17L13.15 11.93C13.2208 11.8611 13.277 11.7786 13.3154 11.6876C13.3538 11.5966 13.3736 11.4988 13.3736 11.4C13.3736 11.3012 13.3538 11.2034 13.3154 11.1124C13.277 11.0214 13.2208 10.939 13.15 10.87C13.0094 10.7296 12.8188 10.6507 12.62 10.6507C12.4213 10.6507 12.2306 10.7296 12.09 10.87L10.85 12.11C10.7217 12.2385 10.5609 12.3297 10.3847 12.3738C10.2085 12.4178 10.0237 12.4131 9.85001 12.36L7.72001 11.65C7.51994 11.5842 7.34574 11.457 7.22224 11.2864C7.09875 11.1158 7.03226 10.9106 7.03226 10.7C7.03226 10.4894 7.09875 10.2842 7.22224 10.1136C7.34574 9.94301 7.51994 9.81577 7.72001 9.75001L15.72 7.09001C15.8898 7.04519 16.0684 7.04587 16.2378 7.09197C16.4073 7.13808 16.5616 7.228 16.6852 7.35267C16.8089 7.47734 16.8975 7.63238 16.9423 7.80219C16.987 7.972 16.9862 8.15059 16.94 8.32001Z" fill="#000D26"/>
</svg>
