<svg width="24" height="24" viewBox="0 0 24 24" fill="none" xmlns="http://www.w3.org/2000/svg">
<path d="M21.42 9.65002L13 4.00002C12.7066 3.79569 12.3576 3.68616 12 3.68616C11.6424 3.68616 11.2934 3.79569 11 4.00002L2.58 9.65002C2.42674 9.76078 2.32097 9.92536 2.28388 10.1108C2.2468 10.2962 2.28113 10.4888 2.38 10.65C2.48772 10.8069 2.65172 10.9162 2.83794 10.9553C3.02416 10.9944 3.21829 10.9603 3.38 10.86L4.46 10.14V17.24C4.46 18.0357 4.77607 18.7987 5.33868 19.3613C5.90129 19.9239 6.66435 20.24 7.46 20.24H9.2C9.30506 20.24 9.40909 20.2193 9.50615 20.1791C9.60321 20.1389 9.6914 20.08 9.76569 20.0057C9.83997 19.9314 9.8989 19.8432 9.9391 19.7462C9.97931 19.6491 10 19.5451 10 19.44V16.24C10 15.7096 10.2107 15.2009 10.5858 14.8258C10.9609 14.4507 11.4696 14.24 12 14.24C12.5304 14.24 13.0391 14.4507 13.4142 14.8258C13.7893 15.2009 14 15.7096 14 16.24V19.44C14 19.5451 14.0207 19.6491 14.0609 19.7462C14.1011 19.8432 14.16 19.9314 14.2343 20.0057C14.3086 20.08 14.3968 20.1389 14.4939 20.1791C14.5909 20.2193 14.6949 20.24 14.8 20.24H16.5C17.2956 20.24 18.0587 19.9239 18.6213 19.3613C19.1839 18.7987 19.5 18.0357 19.5 17.24V10.14L20.58 10.86C20.7043 10.9448 20.8497 10.9933 21 11C21.1228 11.0016 21.2439 10.9722 21.3523 10.9145C21.4607 10.8568 21.5527 10.7727 21.62 10.67C21.7249 10.5071 21.7626 10.3099 21.7253 10.1198C21.6881 9.92961 21.5786 9.76127 21.42 9.65002Z" fill="#000D26"/>
</svg>
