<svg width="24" height="24" viewBox="0 0 24 24" fill="none" xmlns="http://www.w3.org/2000/svg">
<path d="M17 3H7C5.93913 3 4.92172 3.42143 4.17157 4.17157C3.42143 4.92172 3 5.93913 3 7V17C3 18.0609 3.42143 19.0783 4.17157 19.8284C4.92172 20.5786 5.93913 21 7 21H17C18.0609 21 19.0783 20.5786 19.8284 19.8284C20.5786 19.0783 21 18.0609 21 17V7C21 5.93913 20.5786 4.92172 19.8284 4.17157C19.0783 3.42143 18.0609 3 17 3ZM15.53 10.53C15.3894 10.6705 15.1988 10.7493 15 10.7493C14.8012 10.7493 14.6106 10.6705 14.47 10.53L12.75 8.81V17C12.75 17.1989 12.671 17.3897 12.5303 17.5303C12.3897 17.671 12.1989 17.75 12 17.75C11.8011 17.75 11.6103 17.671 11.4697 17.5303C11.329 17.3897 11.25 17.1989 11.25 17V8.81L9.53 10.53C9.38783 10.6625 9.19978 10.7346 9.00548 10.7312C8.81118 10.7277 8.62579 10.649 8.48838 10.5116C8.35097 10.3742 8.27225 10.1888 8.26882 9.99452C8.2654 9.80022 8.33752 9.61217 8.47 9.47L11.47 6.47C11.6106 6.32955 11.8012 6.25066 12 6.25066C12.1988 6.25066 12.3894 6.32955 12.53 6.47L15.53 9.47C15.6705 9.61063 15.7493 9.80125 15.7493 10C15.7493 10.1988 15.6705 10.3894 15.53 10.53Z" fill="#000D26"/>
</svg>
