<svg width="24" height="24" viewBox="0 0 24 24" fill="none" xmlns="http://www.w3.org/2000/svg">
<path d="M16.3 4.25995C16.2194 4.25718 16.1409 4.28592 16.0812 4.34006C16.0215 4.3942 15.9852 4.46949 15.98 4.54995C15.9088 5.15716 15.6167 5.71695 15.1593 6.12266C14.702 6.52838 14.1114 6.75165 13.5 6.74995H10.5C9.8852 6.7566 9.28968 6.53555 8.82811 6.12937C8.36654 5.72319 8.07157 5.16061 8 4.54995C7.99485 4.46949 7.95855 4.3942 7.89881 4.34006C7.83907 4.28592 7.76058 4.25718 7.68 4.25995C6.93743 4.33457 6.24934 4.68329 5.75008 5.23802C5.25083 5.79275 4.97626 6.51365 4.98 7.25995V18.2599C4.98 19.0556 5.29607 19.8187 5.85868 20.3813C6.42129 20.9439 7.18435 21.2599 7.98 21.2599H15.98C16.7757 21.2599 17.5387 20.9439 18.1013 20.3813C18.6639 19.8187 18.98 19.0556 18.98 18.2599V7.25995C18.9842 6.51676 18.7125 5.79845 18.2173 5.2442C17.7222 4.68995 17.039 4.33921 16.3 4.25995ZM15.53 11.5299L11.78 15.2799C11.7108 15.3501 11.6282 15.4056 11.5372 15.4434C11.4462 15.4812 11.3485 15.5004 11.25 15.4999C11.1512 15.5022 11.053 15.4838 10.9618 15.4459C10.8705 15.408 10.7882 15.3515 10.72 15.2799L9 13.5699C8.92925 13.501 8.87301 13.4186 8.83461 13.3276C8.79622 13.2365 8.77643 13.1387 8.77643 13.0399C8.77643 12.9412 8.79622 12.8434 8.83461 12.7523C8.87301 12.6613 8.92925 12.5789 9 12.5099C9.14063 12.3695 9.33125 12.2906 9.53 12.2906C9.72875 12.2906 9.91938 12.3695 10.06 12.5099L11.24 13.6899L14.46 10.4699C14.6022 10.3375 14.7902 10.2653 14.9845 10.2688C15.1788 10.2722 15.3642 10.3509 15.5016 10.4883C15.639 10.6257 15.7177 10.8111 15.7212 11.0054C15.7246 11.1997 15.6525 11.3878 15.52 11.5299H15.53Z" fill="#000D26"/>
<path d="M10.5 5.75H13.5C13.8978 5.75 14.2794 5.59196 14.5607 5.31066C14.842 5.02936 15 4.64782 15 4.25C15 3.85218 14.842 3.47064 14.5607 3.18934C14.2794 2.90804 13.8978 2.75 13.5 2.75H10.5C10.1022 2.75 9.72064 2.90804 9.43934 3.18934C9.15804 3.47064 9 3.85218 9 4.25C9 4.64782 9.15804 5.02936 9.43934 5.31066C9.72064 5.59196 10.1022 5.75 10.5 5.75Z" fill="#000D26"/>
</svg>
