<svg width="24" height="24" viewBox="0 0 24 24" fill="none" xmlns="http://www.w3.org/2000/svg">
<path d="M12 9.81006C13.6569 9.81006 15 8.46691 15 6.81006C15 5.1532 13.6569 3.81006 12 3.81006C10.3431 3.81006 9 5.1532 9 6.81006C9 8.46691 10.3431 9.81006 12 9.81006Z" fill="#000D26"/>
<path d="M4.80993 20.19C4.76922 20.1887 4.72915 20.1794 4.69203 20.1626C4.65492 20.1458 4.62147 20.1219 4.59361 20.0922C4.56575 20.0625 4.54402 20.0275 4.52966 19.9894C4.5153 19.9513 4.5086 19.9107 4.50993 19.87C4.50993 17.8809 5.30011 15.9732 6.70663 14.5667C8.11315 13.1602 10.0208 12.37 12.0099 12.37C13.9991 12.37 15.9067 13.1602 17.3132 14.5667C18.7198 15.9732 19.5099 17.8809 19.5099 19.87C19.5113 19.9107 19.5046 19.9513 19.4902 19.9894C19.4758 20.0275 19.4541 20.0625 19.4263 20.0922C19.3984 20.1219 19.3649 20.1458 19.3278 20.1626C19.2907 20.1794 19.2506 20.1887 19.2099 20.19H4.80993Z" fill="#000D26"/>
</svg>
