<svg width="24" height="24" viewBox="0 0 24 24" fill="none" xmlns="http://www.w3.org/2000/svg">
<path d="M9.23999 19.1799C9.79227 19.1799 10.24 18.7322 10.24 18.1799C10.24 17.6276 9.79227 17.1799 9.23999 17.1799C8.68771 17.1799 8.23999 17.6276 8.23999 18.1799C8.23999 18.7322 8.68771 19.1799 9.23999 19.1799Z" fill="#000D26"/>
<path d="M17.24 19.1799C17.7923 19.1799 18.24 18.7322 18.24 18.1799C18.24 17.6276 17.7923 17.1799 17.24 17.1799C16.6877 17.1799 16.24 17.6276 16.24 18.1799C16.24 18.7322 16.6877 19.1799 17.24 19.1799Z" fill="#000D26"/>
<path d="M20.63 6.57007C20.4228 6.34176 20.1716 6.15766 19.8916 6.02878C19.6115 5.8999 19.3082 5.82891 19 5.82007H7.14004C6.93455 5.51252 6.65641 5.26037 6.33024 5.08595C6.00406 4.91153 5.63992 4.8202 5.27004 4.82007H3.54004C3.44155 4.82007 3.34402 4.83947 3.25303 4.87716C3.16203 4.91485 3.07935 4.97009 3.00971 5.03974C2.94006 5.10938 2.88482 5.19206 2.84713 5.28306C2.80944 5.37405 2.79004 5.47158 2.79004 5.57007C2.79004 5.66856 2.80944 5.76609 2.84713 5.85708C2.88482 5.94808 2.94006 6.03075 3.00971 6.1004C3.07935 6.17004 3.16203 6.22529 3.25303 6.26298C3.34402 6.30067 3.44155 6.32007 3.54004 6.32007H5.27004C5.45529 6.31963 5.63377 6.38964 5.76932 6.51591C5.90487 6.64218 5.98735 6.81525 6.00004 7.00007L6.73004 14.3001C6.79161 14.8508 7.05423 15.3594 7.46757 15.7284C7.88092 16.0975 8.41591 16.301 8.97004 16.3001H18.27C18.8242 16.301 19.3592 16.0975 19.7725 15.7284C20.1859 15.3594 20.4485 14.8508 20.51 14.3001L21.18 8.30007C21.2111 7.98944 21.1784 7.67574 21.0838 7.37824C20.9892 7.08074 20.8348 6.80572 20.63 6.57007ZM15.48 12.0001C15.5508 12.069 15.607 12.1514 15.6454 12.2425C15.6838 12.3335 15.7036 12.4313 15.7036 12.5301C15.7036 12.6289 15.6838 12.7267 15.6454 12.8177C15.607 12.9087 15.5508 12.9911 15.48 13.0601C15.3383 13.199 15.1485 13.2778 14.95 13.2801C14.752 13.2758 14.5629 13.1972 14.42 13.0601L13.54 12.1701L12.65 13.0601C12.5095 13.2008 12.3189 13.2799 12.12 13.2801C11.922 13.2758 11.7329 13.1972 11.59 13.0601C11.4496 12.9194 11.3707 12.7288 11.3707 12.5301C11.3707 12.3313 11.4496 12.1407 11.59 12.0001L12.48 11.1101L11.59 10.2301C11.4576 10.0879 11.3854 9.89985 11.3889 9.70555C11.3923 9.51124 11.471 9.32586 11.6084 9.18845C11.7458 9.05103 11.9312 8.97232 12.1255 8.96889C12.3198 8.96547 12.5079 9.03759 12.65 9.17007L13.54 10.0501L14.42 9.17007C14.5607 9.02962 14.7513 8.95073 14.95 8.95073C15.1488 8.95073 15.3394 9.02962 15.48 9.17007C15.5508 9.23901 15.607 9.32143 15.6454 9.41246C15.6838 9.50348 15.7036 9.60127 15.7036 9.70007C15.7036 9.79886 15.6838 9.89666 15.6454 9.98768C15.607 10.0787 15.5508 10.1611 15.48 10.2301L14.6 11.1101L15.48 12.0001Z" fill="#000D26"/>
</svg>
