<svg width="24" height="24" viewBox="0 0 24 24" fill="none" xmlns="http://www.w3.org/2000/svg">
<path d="M15.3801 13.6L13.2501 12L15.3801 10.4C15.9517 9.96868 16.3735 9.3688 16.586 8.68497C16.7985 8.00113 16.791 7.26784 16.5646 6.58849C16.3381 5.90914 15.9042 5.31801 15.3238 4.89845C14.7435 4.4789 14.0461 4.25208 13.3301 4.25H10.6701C9.95396 4.25208 9.25658 4.4789 8.67626 4.89845C8.09595 5.31801 7.66196 5.90914 7.43551 6.58849C7.20906 7.26784 7.20157 8.00113 7.41409 8.68497C7.62661 9.3688 8.04843 9.96868 8.62005 10.4L10.7501 12L8.62005 13.6C8.04843 14.0313 7.62661 14.6312 7.41409 15.315C7.20157 15.9989 7.20906 16.7322 7.43551 17.4115C7.66196 18.0909 8.09595 18.682 8.67626 19.1015C9.25658 19.5211 9.95396 19.7479 10.6701 19.75H13.3301C14.0461 19.7479 14.7435 19.5211 15.3238 19.1015C15.9042 18.682 16.3381 18.0909 16.5646 17.4115C16.791 16.7322 16.7985 15.9989 16.586 15.315C16.3735 14.6312 15.9517 14.0313 15.3801 13.6Z" fill="#000D26"/>
</svg>
