<svg width="24" height="24" viewBox="0 0 24 24" fill="none" xmlns="http://www.w3.org/2000/svg">
<path d="M6.35 19.28C5.60795 19.2813 4.88218 19.0625 4.26457 18.6511C3.64696 18.2398 3.16527 17.6545 2.88048 16.9692C2.59568 16.284 2.52058 15.5297 2.66468 14.8018C2.80879 14.0738 3.16561 13.405 3.69 12.88L9.35 7.23C10.0653 6.55124 11.0139 6.17285 12 6.17285C12.9861 6.17285 13.9347 6.55124 14.65 7.23C14.9989 7.57749 15.2758 7.99047 15.4647 8.44522C15.6536 8.89998 15.7509 9.38757 15.7509 9.88C15.7509 10.3724 15.6536 10.86 15.4647 11.3148C15.2758 11.7695 14.9989 12.1825 14.65 12.53L12.53 14.65C12.4613 14.7237 12.3785 14.7828 12.2865 14.8238C12.1945 14.8648 12.0952 14.8868 11.9945 14.8886C11.8938 14.8904 11.7938 14.8718 11.7004 14.8341C11.607 14.7964 11.5222 14.7403 11.451 14.669C11.3797 14.5978 11.3236 14.513 11.2859 14.4196C11.2482 14.3262 11.2296 14.2262 11.2314 14.1255C11.2332 14.0248 11.2552 13.9255 11.2962 13.8335C11.3372 13.7415 11.3963 13.6587 11.47 13.59L13.59 11.47C14.0114 11.0481 14.248 10.4763 14.248 9.88C14.248 9.28375 14.0114 8.71188 13.59 8.29C13.162 7.88048 12.5924 7.6519 12 7.6519C11.4076 7.6519 10.838 7.88048 10.41 8.29L4.75 13.94C4.37595 14.3155 4.14647 14.811 4.10203 15.3392C4.05758 15.8674 4.20102 16.3943 4.50705 16.827C4.81308 17.2598 5.26207 17.5706 5.77485 17.7047C6.28763 17.8388 6.8313 17.7875 7.31 17.56C7.49035 17.4685 7.69966 17.4524 7.89188 17.5152C8.08411 17.578 8.2435 17.7147 8.335 17.895C8.4265 18.0754 8.44261 18.2847 8.37978 18.4769C8.31696 18.6691 8.18035 18.8285 8 18.92C7.48342 19.1606 6.91987 19.2836 6.35 19.28Z" fill="#000D26"/>
<path d="M12 17.87C11.2588 17.8693 10.5344 17.649 9.91834 17.2369C9.30226 16.8248 8.82212 16.2394 8.53856 15.5546C8.25501 14.8698 8.18075 14.1163 8.32517 13.3893C8.46959 12.6623 8.82622 11.9944 9.35 11.47L11.47 9.34996C11.5387 9.27627 11.6215 9.21717 11.7135 9.17617C11.8055 9.13518 11.9048 9.11314 12.0055 9.11136C12.1062 9.10959 12.2062 9.12811 12.2996 9.16583C12.393 9.20355 12.4778 9.2597 12.549 9.33092C12.6203 9.40214 12.6764 9.48697 12.7141 9.58036C12.7518 9.67375 12.7704 9.77377 12.7686 9.87448C12.7668 9.97518 12.7448 10.0745 12.7038 10.1665C12.6628 10.2585 12.6037 10.3413 12.53 10.41L10.41 12.53C10.1889 12.7359 10.0116 12.9843 9.88866 13.2603C9.76568 13.5363 9.69956 13.8343 9.69422 14.1364C9.68889 14.4385 9.74447 14.7386 9.85763 15.0187C9.97079 15.2989 10.1392 15.5534 10.3529 15.7671C10.5665 15.9807 10.821 16.1492 11.1012 16.2623C11.3814 16.3755 11.6815 16.4311 11.9836 16.4257C12.2857 16.4204 12.5836 16.3543 12.8596 16.2313C13.1356 16.1083 13.384 15.931 13.59 15.71L19.25 10.06C19.6241 9.68444 19.8535 9.18892 19.898 8.66076C19.9424 8.1326 19.799 7.6057 19.4929 7.17295C19.1869 6.7402 18.7379 6.42938 18.2252 6.29528C17.7124 6.16119 17.1687 6.21242 16.69 6.43996C16.5093 6.52254 16.3035 6.53111 16.1166 6.46382C15.9297 6.39654 15.7766 6.25875 15.69 6.07996C15.604 5.9009 15.5926 5.69505 15.6582 5.50758C15.7238 5.32011 15.8611 5.16632 16.04 5.07996C16.8327 4.71831 17.7267 4.64401 18.5682 4.86981C19.4098 5.09562 20.1465 5.60745 20.6517 6.31736C21.1569 7.02728 21.3992 7.89097 21.3368 8.76007C21.2745 9.62918 20.9114 10.4494 20.31 11.08L14.65 16.73C14.3058 17.086 13.8942 17.37 13.4393 17.5657C12.9844 17.7614 12.4952 17.8648 12 17.87Z" fill="#000D26"/>
</svg>
