<svg width="24" height="24" viewBox="0 0 24 24" fill="none" xmlns="http://www.w3.org/2000/svg">
<path d="M19 15.25H5C4.80109 15.25 4.61032 15.329 4.46967 15.4697C4.32902 15.6103 4.25 15.8011 4.25 16C4.25 16.1989 4.32902 16.3897 4.46967 16.5303C4.61032 16.671 4.80109 16.75 5 16.75H19C19.1989 16.75 19.3897 16.671 19.5303 16.5303C19.671 16.3897 19.75 16.1989 19.75 16C19.75 15.8011 19.671 15.6103 19.5303 15.4697C19.3897 15.329 19.1989 15.25 19 15.25Z" fill="#000D26"/>
<path d="M5 12.75H13C13.1989 12.75 13.3897 12.671 13.5303 12.5303C13.671 12.3897 13.75 12.1989 13.75 12C13.75 11.8011 13.671 11.6103 13.5303 11.4697C13.3897 11.329 13.1989 11.25 13 11.25H5C4.80109 11.25 4.61032 11.329 4.46967 11.4697C4.32902 11.6103 4.25 11.8011 4.25 12C4.25 12.1989 4.32902 12.3897 4.46967 12.5303C4.61032 12.671 4.80109 12.75 5 12.75Z" fill="#000D26"/>
<path d="M5 8.75H13C13.1989 8.75 13.3897 8.67098 13.5303 8.53033C13.671 8.38968 13.75 8.19891 13.75 8C13.75 7.80109 13.671 7.61032 13.5303 7.46967C13.3897 7.32902 13.1989 7.25 13 7.25H5C4.80109 7.25 4.61032 7.32902 4.46967 7.46967C4.32902 7.61032 4.25 7.80109 4.25 8C4.25 8.19891 4.32902 8.38968 4.46967 8.53033C4.61032 8.67098 4.80109 8.75 5 8.75Z" fill="#000D26"/>
<path d="M16.47 13.53C16.5393 13.5978 16.6207 13.6521 16.71 13.69C16.8015 13.7296 16.9002 13.7501 17 13.7501C17.0997 13.7501 17.1984 13.7296 17.29 13.69C17.3792 13.6521 17.4606 13.5978 17.53 13.53L19.33 11.73C19.4625 11.5878 19.5346 11.3998 19.5312 11.2055C19.5277 11.0112 19.449 10.8258 19.3116 10.6884C19.1742 10.551 18.9888 10.4723 18.7945 10.4688C18.6002 10.4654 18.4122 10.5375 18.27 10.67L17.75 11.19V8C17.75 7.80109 17.671 7.61032 17.5303 7.46967C17.3897 7.32902 17.1989 7.25 17 7.25C16.8011 7.25 16.6103 7.32902 16.4697 7.46967C16.329 7.61032 16.25 7.80109 16.25 8V11.19L15.73 10.67C15.6613 10.5963 15.5785 10.5372 15.4865 10.4962C15.3945 10.4552 15.2952 10.4332 15.1945 10.4314C15.0938 10.4296 14.9938 10.4482 14.9004 10.4859C14.807 10.5236 14.7222 10.5797 14.6509 10.651C14.5797 10.7222 14.5236 10.807 14.4859 10.9004C14.4481 10.9938 14.4296 11.0938 14.4314 11.1945C14.4332 11.2952 14.4552 11.3945 14.4962 11.4865C14.5372 11.5785 14.5963 11.6613 14.67 11.73L16.47 13.53Z" fill="#000D26"/>
</svg>
