<svg width="24" height="24" viewBox="0 0 24 24" fill="none" xmlns="http://www.w3.org/2000/svg">
<path d="M17 3H7C5.93913 3 4.92172 3.42143 4.17157 4.17157C3.42143 4.92172 3 5.93913 3 7V17C3 18.0609 3.42143 19.0783 4.17157 19.8284C4.92172 20.5786 5.93913 21 7 21H17C18.0609 21 19.0783 20.5786 19.8284 19.8284C20.5786 19.0783 21 18.0609 21 17V7C21 5.93913 20.5786 4.92172 19.8284 4.17157C19.0783 3.42143 18.0609 3 17 3ZM17.69 12.29C17.6521 12.3793 17.5978 12.4606 17.53 12.53L14.53 15.53C14.3894 15.6705 14.1988 15.7493 14 15.7493C13.8012 15.7493 13.6106 15.6705 13.47 15.53C13.3295 15.3894 13.2507 15.1988 13.2507 15C13.2507 14.8012 13.3295 14.6106 13.47 14.47L15.19 12.75H7C6.80109 12.75 6.61032 12.671 6.46967 12.5303C6.32902 12.3897 6.25 12.1989 6.25 12C6.25 11.8011 6.32902 11.6103 6.46967 11.4697C6.61032 11.329 6.80109 11.25 7 11.25H15.19L13.47 9.53C13.3375 9.38783 13.2654 9.19978 13.2688 9.00548C13.2723 8.81118 13.351 8.62579 13.4884 8.48838C13.6258 8.35097 13.8112 8.27225 14.0055 8.26882C14.1998 8.2654 14.3878 8.33752 14.53 8.47L17.53 11.47C17.5978 11.5394 17.6521 11.6207 17.69 11.71C17.7296 11.8015 17.7501 11.9002 17.7501 12C17.7501 12.0998 17.7296 12.1985 17.69 12.29Z" fill="#000D26"/>
</svg>
