<svg width="24" height="24" viewBox="0 0 24 24" fill="none" xmlns="http://www.w3.org/2000/svg">
<path d="M7.69 9.71989L15.69 7.05989C15.8654 7.00293 16.0531 6.99557 16.2324 7.03863C16.4117 7.08169 16.5756 7.17349 16.706 7.30388C16.8364 7.43427 16.9282 7.59818 16.9713 7.77749C17.0143 7.95679 17.007 8.14451 16.95 8.31989L14.29 16.3199C14.2242 16.52 14.097 16.6942 13.9264 16.8177C13.7558 16.9412 13.5506 17.0076 13.34 17.0076C13.1294 17.0076 12.9242 16.9412 12.7536 16.8177C12.583 16.6942 12.4558 16.52 12.39 16.3199L11.39 13.3199C11.3412 13.1704 11.2577 13.0345 11.1465 12.9233C11.0353 12.8121 10.8995 12.7287 10.75 12.6799L7.75 11.6799C7.52216 11.6414 7.31468 11.5252 7.16284 11.351C7.011 11.1768 6.92416 10.9554 6.91709 10.7245C6.91002 10.4935 6.98316 10.2672 7.12406 10.0841C7.26496 9.90095 7.46494 9.77226 7.69 9.71989Z" fill="#000D26"/>
</svg>
