<svg width="24" height="24" viewBox="0 0 24 24" fill="none" xmlns="http://www.w3.org/2000/svg">
<path d="M11 9.81006C12.6569 9.81006 14 8.46691 14 6.81006C14 5.1532 12.6569 3.81006 11 3.81006C9.34315 3.81006 8 5.1532 8 6.81006C8 8.46691 9.34315 9.81006 11 9.81006Z" fill="#000D26"/>
<path d="M3.81005 20.19C3.76934 20.1887 3.72928 20.1794 3.69216 20.1626C3.65504 20.1458 3.62159 20.1219 3.59373 20.0922C3.56587 20.0625 3.54414 20.0275 3.52978 19.9894C3.51542 19.9513 3.50872 19.9107 3.51005 19.87C3.51005 17.8809 4.30023 15.9732 5.70675 14.5667C7.11328 13.1602 9.02093 12.37 11.0101 12.37C12.9992 12.37 14.9068 13.1602 16.3134 14.5667C17.7199 15.9732 18.5101 17.8809 18.5101 19.87C18.5114 19.9107 18.5047 19.9513 18.4903 19.9894C18.476 20.0275 18.4542 20.0625 18.4264 20.0922C18.3985 20.1219 18.3651 20.1458 18.328 20.1626C18.2908 20.1794 18.2508 20.1887 18.2101 20.19H3.81005Z" fill="#000D26"/>
<path d="M16.96 11.66C18.3131 11.66 19.41 10.5631 19.41 9.21001C19.41 7.85691 18.3131 6.76001 16.96 6.76001C15.6069 6.76001 14.51 7.85691 14.51 9.21001C14.51 10.5631 15.6069 11.66 16.96 11.66Z" fill="#000D26"/>
<path d="M22.55 19.89C22.55 19.9563 22.5236 20.0199 22.4767 20.0668C22.4299 20.1137 22.3663 20.14 22.3 20.14H20.14C20.1043 20.1358 20.0711 20.1197 20.0457 20.0943C20.0203 20.0689 20.0042 20.0357 20 20V19.83C19.999 18.0809 19.4461 16.3766 18.42 14.96C18.3804 14.9078 18.359 14.8441 18.359 14.7785C18.3591 14.713 18.3806 14.6493 18.4203 14.5971C18.4599 14.5449 18.5156 14.5072 18.5788 14.4897C18.6419 14.4722 18.7091 14.4758 18.77 14.5C19.8474 14.9459 20.7754 15.6898 21.4449 16.6445C22.1145 17.5992 22.4978 18.7251 22.55 19.89Z" fill="#000D26"/>
</svg>
