<svg width="24" height="24" viewBox="0 0 24 24" fill="none" xmlns="http://www.w3.org/2000/svg">
<path d="M17.71 13.78C17.5099 13.5834 17.2406 13.4732 16.96 13.4732C16.6794 13.4732 16.4101 13.5834 16.21 13.78L15.46 14.53C15.2599 14.7267 14.9906 14.8369 14.71 14.8369C14.4294 14.8369 14.1601 14.7267 13.96 14.53L9.47 10C9.27334 9.79991 9.16315 9.53058 9.16315 9.25002C9.16315 8.96946 9.27334 8.70012 9.47 8.50002L10.22 7.75002C10.4167 7.54991 10.5268 7.28058 10.5268 7.00002C10.5268 6.71946 10.4167 6.45012 10.22 6.25002L8 4.05002C7.90224 3.95024 7.78555 3.87097 7.65676 3.81685C7.52798 3.76274 7.38969 3.73486 7.25 3.73486C7.11031 3.73486 6.97202 3.76274 6.84324 3.81685C6.71445 3.87097 6.59776 3.95024 6.5 4.05002L5 5.54002C4.60332 5.93245 4.2884 6.39966 4.07348 6.91461C3.85856 7.42956 3.74789 7.98202 3.74789 8.54002C3.74789 9.09801 3.85856 9.65047 4.07348 10.1654C4.2884 10.6804 4.60332 11.1476 5 11.54L12.47 19C12.8624 19.3967 13.3296 19.7116 13.8446 19.9265C14.3595 20.1415 14.912 20.2521 15.47 20.2521C16.028 20.2521 16.5805 20.1415 17.0954 19.9265C17.6104 19.7116 18.0776 19.3967 18.47 19L20 17.53C20.1044 17.4318 20.1877 17.3133 20.2445 17.1817C20.3014 17.0502 20.3308 16.9084 20.3308 16.765C20.3308 16.6217 20.3014 16.4799 20.2445 16.3483C20.1877 16.2167 20.1044 16.0982 20 16L17.71 13.78Z" fill="#000D26"/>
<path d="M21.35 3.47007C21.2094 3.32962 21.0188 3.25073 20.82 3.25073C20.6213 3.25073 20.4306 3.32962 20.29 3.47007L16.82 6.94007L15.53 5.65007C15.4611 5.57932 15.3786 5.52308 15.2876 5.48468C15.1966 5.44628 15.0988 5.4265 15 5.4265C14.9012 5.4265 14.8034 5.44628 14.7124 5.48468C14.6214 5.52308 14.539 5.57932 14.47 5.65007C14.3296 5.7907 14.2507 5.98132 14.2507 6.18007C14.2507 6.37882 14.3296 6.56945 14.47 6.71007L16.29 8.53007C16.3593 8.60018 16.4418 8.65576 16.5328 8.69354C16.6238 8.73132 16.7215 8.75054 16.82 8.75007C16.9186 8.75111 17.0164 8.73215 17.1075 8.69433C17.1986 8.65652 17.2811 8.60064 17.35 8.53007L21.35 4.53007C21.4905 4.38945 21.5694 4.19882 21.5694 4.00007C21.5694 3.80132 21.4905 3.6107 21.35 3.47007Z" fill="#000D26"/>
</svg>
