<svg width="24" height="24" viewBox="0 0 24 24" fill="none" xmlns="http://www.w3.org/2000/svg">
<path d="M11.13 9.31995C12.7869 9.31995 14.13 7.9768 14.13 6.31995C14.13 4.66309 12.7869 3.31995 11.13 3.31995C9.47315 3.31995 8.13 4.66309 8.13 6.31995C8.13 7.9768 9.47315 9.31995 11.13 9.31995Z" fill="#000D26"/>
<path d="M11.87 17.18C11.87 16.4038 12.0508 15.6382 12.3979 14.9439C12.745 14.2497 13.249 13.6457 13.87 13.18C13.9134 13.1494 13.9475 13.1074 13.9687 13.0587C13.9898 13.0099 13.9972 12.9564 13.99 12.9037C13.9827 12.8511 13.9612 12.8015 13.9277 12.7603C13.8942 12.7191 13.8501 12.6878 13.8 12.67C12.6895 12.2517 11.4957 12.1025 10.3164 12.2347C9.13714 12.3669 8.00596 12.7766 7.0156 13.4304C6.02525 14.0841 5.2039 14.9632 4.61889 15.9956C4.03388 17.0281 3.70185 18.1845 3.65002 19.37C3.64998 19.4532 3.68232 19.5331 3.74019 19.5928C3.79805 19.6525 3.8769 19.6874 3.96002 19.69H12.08C12.1321 19.6908 12.1835 19.6781 12.2292 19.653C12.2748 19.6279 12.3132 19.5913 12.3404 19.5469C12.3677 19.5025 12.3829 19.4518 12.3846 19.3997C12.3862 19.3477 12.3743 19.2961 12.35 19.25C12.0387 18.6041 11.8747 17.897 11.87 17.18Z" fill="#000D26"/>
<path d="M16.87 13.6799C16.1778 13.6799 15.5011 13.8852 14.9255 14.2698C14.3499 14.6544 13.9013 15.201 13.6364 15.8405C13.3715 16.4801 13.3022 17.1838 13.4372 17.8627C13.5723 18.5417 13.9056 19.1653 14.3951 19.6548C14.8846 20.1443 15.5082 20.4776 16.1872 20.6127C16.8661 20.7477 17.5698 20.6784 18.2094 20.4135C18.8489 20.1486 19.3956 19.7 19.7801 19.1244C20.1647 18.5489 20.37 17.8722 20.37 17.1799C20.37 16.2517 20.0012 15.3614 19.3449 14.7051C18.6885 14.0487 17.7983 13.6799 16.87 13.6799ZM18.37 17.9299H15.37C15.1711 17.9299 14.9803 17.8509 14.8397 17.7103C14.699 17.5696 14.62 17.3788 14.62 17.1799C14.62 16.981 14.699 16.7903 14.8397 16.6496C14.9803 16.5089 15.1711 16.4299 15.37 16.4299H18.37C18.5689 16.4299 18.7597 16.5089 18.9003 16.6496C19.041 16.7903 19.12 16.981 19.12 17.1799C19.12 17.3788 19.041 17.5696 18.9003 17.7103C18.7597 17.8509 18.5689 17.9299 18.37 17.9299Z" fill="#000D26"/>
</svg>
