<svg width="24" height="24" viewBox="0 0 24 24" fill="none" xmlns="http://www.w3.org/2000/svg">
<path d="M9.87988 10.88C11.5367 10.88 12.8799 9.53686 12.8799 7.88C12.8799 6.22315 11.5367 4.88 9.87988 4.88C8.22303 4.88 6.87988 6.22315 6.87988 7.88C6.87988 9.53686 8.22303 10.88 9.87988 10.88Z" fill="#000D26"/>
<path d="M2.37988 18.82V15.82C2.39496 15.3103 2.60419 14.8255 2.96479 14.4649C3.3254 14.1043 3.81013 13.8951 4.31988 13.88H15.4499C15.9579 13.8976 16.4401 14.1079 16.7986 14.4683C17.1571 14.8286 17.3649 15.3119 17.3799 15.82V18.82C17.3813 18.8598 17.3745 18.8994 17.3599 18.9364C17.3453 18.9735 17.3233 19.0071 17.2951 19.0352C17.267 19.0634 17.2333 19.0854 17.1963 19.1C17.1593 19.1146 17.1197 19.1214 17.0799 19.12H2.67988C2.60032 19.12 2.52401 19.0884 2.46775 19.0321C2.41149 18.9759 2.37988 18.8996 2.37988 18.82Z" fill="#000D26"/>
<path d="M16.2001 12.55C17.52 12.55 18.5901 11.48 18.5901 10.16C18.5901 8.84006 17.52 7.77002 16.2001 7.77002C14.8801 7.77002 13.8101 8.84006 13.8101 10.16C13.8101 11.48 14.8801 12.55 16.2001 12.55Z" fill="#000D26"/>
<path d="M21.55 16.48V18.89C21.55 18.9536 21.5248 19.0147 21.4797 19.0597C21.4347 19.1047 21.3737 19.13 21.31 19.13H19.16C19.1203 19.1314 19.0806 19.1246 19.0436 19.11C19.0066 19.0954 18.9729 19.0734 18.9448 19.0452C18.9167 19.0171 18.8946 18.9835 18.88 18.9464C18.8654 18.9094 18.8586 18.8698 18.86 18.83V15.24C18.8586 15.2002 18.8654 15.1606 18.88 15.1236C18.8946 15.0865 18.9167 15.0529 18.9448 15.0248C18.9729 14.9966 19.0066 14.9746 19.0436 14.96C19.0806 14.9454 19.1203 14.9386 19.16 14.94H20C20.2031 14.9387 20.4044 14.9775 20.5924 15.0543C20.7804 15.1311 20.9514 15.2444 21.0955 15.3875C21.2395 15.5306 21.3539 15.7009 21.4319 15.8883C21.5099 16.0758 21.55 16.2769 21.55 16.48Z" fill="#000D26"/>
</svg>
