<svg width="24" height="24" viewBox="0 0 24 24" fill="none" xmlns="http://www.w3.org/2000/svg">
<path d="M5 8.75H19C19.1989 8.75 19.3897 8.67098 19.5303 8.53033C19.671 8.38968 19.75 8.19891 19.75 8C19.75 7.80109 19.671 7.61032 19.5303 7.46967C19.3897 7.32902 19.1989 7.25 19 7.25H5C4.80109 7.25 4.61032 7.32902 4.46967 7.46967C4.32902 7.61032 4.25 7.80109 4.25 8C4.25 8.19891 4.32902 8.38968 4.46967 8.53033C4.61032 8.67098 4.80109 8.75 5 8.75Z" fill="#000D26"/>
<path d="M19 11.25H5C4.80109 11.25 4.61032 11.329 4.46967 11.4697C4.32902 11.6103 4.25 11.8011 4.25 12C4.25 12.1989 4.32902 12.3897 4.46967 12.5303C4.61032 12.671 4.80109 12.75 5 12.75H19C19.1989 12.75 19.3897 12.671 19.5303 12.5303C19.671 12.3897 19.75 12.1989 19.75 12C19.75 11.8011 19.671 11.6103 19.5303 11.4697C19.3897 11.329 19.1989 11.25 19 11.25Z" fill="#000D26"/>
<path d="M19 15.25H5C4.80109 15.25 4.61032 15.329 4.46967 15.4697C4.32902 15.6103 4.25 15.8011 4.25 16C4.25 16.1989 4.32902 16.3897 4.46967 16.5303C4.61032 16.671 4.80109 16.75 5 16.75H19C19.1989 16.75 19.3897 16.671 19.5303 16.5303C19.671 16.3897 19.75 16.1989 19.75 16C19.75 15.8011 19.671 15.6103 19.5303 15.4697C19.3897 15.329 19.1989 15.25 19 15.25Z" fill="#000D26"/>
</svg>
