<svg width="24" height="24" viewBox="0 0 24 24" fill="none" xmlns="http://www.w3.org/2000/svg">
<path d="M9.25 19.1799C9.80228 19.1799 10.25 18.7322 10.25 18.1799C10.25 17.6276 9.80228 17.1799 9.25 17.1799C8.69772 17.1799 8.25 17.6276 8.25 18.1799C8.25 18.7322 8.69772 19.1799 9.25 19.1799Z" fill="#000D26"/>
<path d="M17.25 19.1799C17.8023 19.1799 18.25 18.7322 18.25 18.1799C18.25 17.6276 17.8023 17.1799 17.25 17.1799C16.6977 17.1799 16.25 17.6276 16.25 18.1799C16.25 18.7322 16.6977 19.1799 17.25 19.1799Z" fill="#000D26"/>
<path d="M20.63 6.57007C20.4243 6.33993 20.1735 6.15459 19.893 6.02556C19.6126 5.89653 19.3086 5.82658 19 5.82007H7.15004C6.94171 5.51298 6.66158 5.26138 6.33395 5.08711C6.00633 4.91284 5.64112 4.82118 5.27004 4.82007H3.54004C3.44155 4.82007 3.34402 4.83947 3.25303 4.87716C3.16203 4.91485 3.07935 4.97009 3.00971 5.03974C2.94006 5.10938 2.88482 5.19206 2.84713 5.28306C2.80944 5.37405 2.79004 5.47158 2.79004 5.57007C2.79004 5.66856 2.80944 5.76609 2.84713 5.85708C2.88482 5.94808 2.94006 6.03075 3.00971 6.1004C3.07935 6.17004 3.16203 6.22529 3.25303 6.26298C3.34402 6.30067 3.44155 6.32007 3.54004 6.32007H5.27004C5.45393 6.32417 5.62991 6.39572 5.7645 6.52109C5.89909 6.64646 5.98292 6.81693 6.00004 7.00007L6.73004 14.3001C6.79161 14.8508 7.05423 15.3594 7.46757 15.7284C7.88092 16.0975 8.41591 16.301 8.97004 16.3001H18.27C18.8242 16.301 19.3592 16.0975 19.7725 15.7284C20.1859 15.3594 20.4485 14.8508 20.51 14.3001L21.17 8.30007C21.2049 7.99002 21.1749 7.67612 21.0819 7.37829C20.989 7.08047 20.8351 6.80523 20.63 6.57007ZM15.54 11.8201H14.29V13.0701C14.29 13.269 14.211 13.4597 14.0704 13.6004C13.9297 13.7411 13.739 13.8201 13.54 13.8201C13.3411 13.8201 13.1504 13.7411 13.0097 13.6004C12.8691 13.4597 12.79 13.269 12.79 13.0701V11.8201H11.54C11.3411 11.8201 11.1504 11.7411 11.0097 11.6004C10.8691 11.4597 10.79 11.269 10.79 11.0701C10.79 10.8712 10.8691 10.6804 11.0097 10.5397C11.1504 10.3991 11.3411 10.3201 11.54 10.3201H12.79V9.07007C12.79 8.87116 12.8691 8.68039 13.0097 8.53974C13.1504 8.39909 13.3411 8.32007 13.54 8.32007C13.739 8.32007 13.9297 8.39909 14.0704 8.53974C14.211 8.68039 14.29 8.87116 14.29 9.07007V10.3201H15.54C15.739 10.3201 15.9297 10.3991 16.0704 10.5397C16.211 10.6804 16.29 10.8712 16.29 11.0701C16.29 11.269 16.211 11.4597 16.0704 11.6004C15.9297 11.7411 15.739 11.8201 15.54 11.8201Z" fill="#000D26"/>
</svg>
