<svg width="24" height="24" viewBox="0 0 24 24" fill="none" xmlns="http://www.w3.org/2000/svg">
<path d="M10.7899 4.08991C9.46177 4.30419 8.21556 4.8713 7.18157 5.73197C6.14757 6.59264 5.36375 7.71526 4.91205 8.98249C4.46034 10.2497 4.35733 11.615 4.61379 12.9357C4.87025 14.2563 5.47676 15.4838 6.36992 16.4899C6.46577 16.5991 6.5347 16.7293 6.57117 16.87C6.60764 17.0106 6.61063 17.1579 6.57992 17.2999L6.04992 19.4499C6.0301 19.5311 6.0338 19.6162 6.06058 19.6953C6.08736 19.7745 6.13612 19.8443 6.20115 19.8968C6.26618 19.9492 6.3448 19.9821 6.42781 19.9915C6.51083 20.0009 6.5948 19.9865 6.66992 19.9499L9.16992 18.7499C9.37669 18.675 9.60316 18.675 9.80992 18.7499C10.8923 19.0792 12.0351 19.1599 13.1531 18.9862C14.271 18.8125 15.3354 18.3888 16.2669 17.7466C17.1983 17.1044 17.9729 16.2603 18.5328 15.2772C19.0928 14.2941 19.4237 13.1973 19.5009 12.0686C19.5781 10.9398 19.3996 9.8082 18.9787 8.75801C18.5579 7.70782 17.9055 6.76612 17.0701 6.00308C16.2348 5.24005 15.238 4.67533 14.1541 4.351C13.0702 4.02668 11.9271 3.9511 10.8099 4.12991L10.7899 4.08991ZM8.99992 12.4999C8.80214 12.4999 8.6088 12.4413 8.44435 12.3314C8.2799 12.2215 8.15173 12.0653 8.07604 11.8826C8.00035 11.6999 7.98055 11.4988 8.01914 11.3048C8.05772 11.1108 8.15296 10.9327 8.29281 10.7928C8.43267 10.653 8.61085 10.5577 8.80483 10.5191C8.99881 10.4805 9.19988 10.5003 9.3826 10.576C9.56533 10.6517 9.72151 10.7799 9.83139 10.9443C9.94127 11.1088 9.99992 11.3021 9.99992 11.4999C9.99992 11.7651 9.89456 12.0195 9.70703 12.207C9.51949 12.3946 9.26514 12.4999 8.99992 12.4999ZM11.9999 12.4999C11.8021 12.4999 11.6088 12.4413 11.4444 12.3314C11.2799 12.2215 11.1517 12.0653 11.076 11.8826C11.0004 11.6999 10.9806 11.4988 11.0191 11.3048C11.0577 11.1108 11.153 10.9327 11.2928 10.7928C11.4327 10.653 11.6108 10.5577 11.8048 10.5191C11.9988 10.4805 12.1999 10.5003 12.3826 10.576C12.5653 10.6517 12.7215 10.7799 12.8314 10.9443C12.9413 11.1088 12.9999 11.3021 12.9999 11.4999C12.9999 11.7651 12.8946 12.0195 12.707 12.207C12.5195 12.3946 12.2651 12.4999 11.9999 12.4999ZM14.9999 12.4999C14.8021 12.4999 14.6088 12.4413 14.4444 12.3314C14.2799 12.2215 14.1517 12.0653 14.076 11.8826C14.0004 11.6999 13.9805 11.4988 14.0191 11.3048C14.0577 11.1108 14.153 10.9327 14.2928 10.7928C14.4327 10.653 14.6108 10.5577 14.8048 10.5191C14.9988 10.4805 15.1999 10.5003 15.3826 10.576C15.5653 10.6517 15.7215 10.7799 15.8314 10.9443C15.9413 11.1088 15.9999 11.3021 15.9999 11.4999C15.9999 11.7651 15.8946 12.0195 15.707 12.207C15.5195 12.3946 15.2651 12.4999 14.9999 12.4999Z" fill="#000D26"/>
</svg>
