<svg width="24" height="24" viewBox="0 0 24 24" fill="none" xmlns="http://www.w3.org/2000/svg">
<path d="M10.67 8.07996H11.25V10.5L10.32 9.79996C10.2456 9.74618 10.1851 9.67554 10.1434 9.59383C10.1017 9.51213 10.0799 9.4217 10.08 9.32996V8.66996C10.0825 8.51428 10.1455 8.3657 10.2556 8.25561C10.3657 8.14552 10.5143 8.08253 10.67 8.07996Z" fill="#000D26"/>
<path d="M12.75 13.5L13.68 14.2C13.7543 14.2538 13.8148 14.3244 13.8566 14.4061C13.8983 14.4878 13.92 14.5783 13.92 14.67V15.33C13.92 15.4865 13.8578 15.6365 13.7472 15.7472C13.6365 15.8578 13.4865 15.92 13.33 15.92H12.75V13.5Z" fill="#000D26"/>
<path d="M17 3H7C5.93913 3 4.92172 3.42143 4.17157 4.17157C3.42143 4.92172 3 5.93913 3 7V17C3 18.0609 3.42143 19.0783 4.17157 19.8284C4.92172 20.5786 5.93913 21 7 21H17C18.0609 21 19.0783 20.5786 19.8284 19.8284C20.5786 19.0783 21 18.0609 21 17V7C21 5.93913 20.5786 4.92172 19.8284 4.17157C19.0783 3.42143 18.0609 3 17 3ZM15.42 10C15.42 10.1989 15.341 10.3897 15.2003 10.5303C15.0597 10.671 14.8689 10.75 14.67 10.75C14.4711 10.75 14.2803 10.671 14.1397 10.5303C13.999 10.3897 13.92 10.1989 13.92 10V8.67C13.9174 8.51433 13.8544 8.36575 13.7443 8.25565C13.6343 8.14556 13.4857 8.08257 13.33 8.08H12.75V11.63L14.58 13C14.8395 13.1946 15.0503 13.4466 15.1961 13.7364C15.3418 14.0261 15.4185 14.3457 15.42 14.67V15.33C15.4174 15.8835 15.1963 16.4136 14.8049 16.8049C14.4136 17.1963 13.8835 17.4174 13.33 17.42H12.75V18C12.75 18.1989 12.671 18.3897 12.5303 18.5303C12.3897 18.671 12.1989 18.75 12 18.75C11.8011 18.75 11.6103 18.671 11.4697 18.5303C11.329 18.3897 11.25 18.1989 11.25 18V17.42H10.67C10.1165 17.4174 9.58643 17.1963 9.19505 16.8049C8.80367 16.4136 8.58263 15.8835 8.58 15.33V14C8.58 13.8011 8.65902 13.6103 8.79967 13.4697C8.94032 13.329 9.13109 13.25 9.33 13.25C9.52891 13.25 9.71968 13.329 9.86033 13.4697C10.001 13.6103 10.08 13.8011 10.08 14V15.33C10.08 15.4865 10.1422 15.6365 10.2528 15.7472C10.3635 15.8578 10.5135 15.92 10.67 15.92H11.25V12.38L9.42 11C9.16054 10.8054 8.94967 10.5534 8.80393 10.2636C8.65819 9.97388 8.58155 9.65432 8.58 9.33V8.67C8.58263 8.11651 8.80367 7.58643 9.19505 7.19505C9.58643 6.80367 10.1165 6.58263 10.67 6.58H11.25V6C11.25 5.80109 11.329 5.61032 11.4697 5.46967C11.6103 5.32902 11.8011 5.25 12 5.25C12.1989 5.25 12.3897 5.32902 12.5303 5.46967C12.671 5.61032 12.75 5.80109 12.75 6V6.58H13.33C13.8835 6.58263 14.4136 6.80367 14.8049 7.19505C15.1963 7.58643 15.4174 8.11651 15.42 8.67V10Z" fill="#000D26"/>
</svg>
