<svg width="24" height="24" viewBox="0 0 24 24" fill="none" xmlns="http://www.w3.org/2000/svg">
<path d="M14.22 4.16003C15.266 4.15288 16.2902 4.45834 17.1614 5.03722C18.0326 5.61611 18.711 6.44203 19.1097 7.40908C19.5083 8.37612 19.609 9.4402 19.3988 10.4649C19.1886 11.4895 18.6772 12.428 17.93 13.16L11.93 19.16C11.5813 19.508 11.1676 19.784 10.7123 19.972C10.257 20.1601 9.76908 20.2567 9.27647 20.2562C8.28159 20.2553 7.32783 19.8592 6.625 19.155C5.92218 18.4509 5.52786 17.4964 5.5288 16.5015C5.52927 16.0089 5.62675 15.5212 5.8157 15.0662C6.00464 14.6113 6.28134 14.198 6.63 13.85L12.63 7.85003C13.0592 7.44278 13.6283 7.21574 14.22 7.21574C14.8117 7.21574 15.3808 7.44278 15.81 7.85003C16.0203 8.05777 16.1871 8.30542 16.3004 8.57845C16.4137 8.85149 16.4714 9.14441 16.47 9.44003C16.4711 9.73709 16.4133 10.0314 16.3 10.306C16.1867 10.5806 16.0202 10.8301 15.81 11.04L9.81 17.04C9.74106 17.1108 9.65864 17.167 9.56762 17.2054C9.47659 17.2438 9.3788 17.2636 9.28 17.2636C9.18121 17.2636 9.08342 17.2438 8.99239 17.2054C8.90136 17.167 8.81895 17.1108 8.75 17.04C8.60955 16.8994 8.53066 16.7088 8.53066 16.51C8.53066 16.3113 8.60955 16.1207 8.75 15.98L14.75 9.98003C14.8313 9.90735 14.8959 9.81781 14.939 9.71763C14.9822 9.61746 15.003 9.50907 15 9.40003C14.9999 9.25179 14.9558 9.10692 14.8734 8.9837C14.791 8.86049 14.6739 8.76446 14.5369 8.70775C14.4 8.65104 14.2493 8.63618 14.1039 8.66507C13.9585 8.69395 13.8249 8.76528 13.72 8.87003L7.72 14.87C7.29698 15.2917 7.05881 15.8642 7.05787 16.4615C7.05693 17.0588 7.29331 17.632 7.715 18.055C8.1367 18.4781 8.70916 18.7162 9.30647 18.7172C9.90377 18.7181 10.477 18.4817 10.9 18.06L16.9 12.06C17.6042 11.3572 18.0003 10.4035 18.0012 9.40857C18.0021 8.41369 17.6078 7.45918 16.905 6.75504C16.557 6.40638 16.1437 6.12967 15.6888 5.94073C15.2339 5.75179 14.7462 5.6543 14.2535 5.65383C13.2587 5.6529 12.3042 6.04721 11.6 6.75004L5.6 12.75C5.53106 12.8223 5.44856 12.8802 5.35723 12.9205C5.26589 12.9609 5.1675 12.9829 5.06768 12.9852C4.96786 12.9875 4.86855 12.9701 4.77544 12.9341C4.68233 12.898 4.59723 12.844 4.525 12.775C4.45278 12.7061 4.39484 12.6236 4.35449 12.5323C4.31414 12.4409 4.29218 12.3425 4.28986 12.2427C4.28754 12.1429 4.3049 12.0436 4.34096 11.9505C4.37702 11.8574 4.43106 11.7723 4.5 11.7L10.5 5.70003C10.9879 5.21075 11.5678 4.82279 12.2062 4.5585C12.8446 4.2942 13.529 4.15878 14.22 4.16003Z" fill="#000D26"/>
</svg>
