<svg width="24" height="24" viewBox="0 0 24 24" fill="none" xmlns="http://www.w3.org/2000/svg">
<path d="M12 3C10.22 3 8.47991 3.52784 6.99987 4.51677C5.51983 5.50571 4.36628 6.91131 3.68509 8.55585C3.0039 10.2004 2.82567 12.01 3.17294 13.7558C3.5202 15.5016 4.37737 17.1053 5.63604 18.364C6.89472 19.6226 8.49836 20.4798 10.2442 20.8271C11.99 21.1743 13.7996 20.9961 15.4442 20.3149C17.0887 19.6337 18.4943 18.4802 19.4832 17.0001C20.4722 15.5201 21 13.78 21 12C21 9.61305 20.0518 7.32387 18.364 5.63604C16.6761 3.94821 14.387 3 12 3ZM7.3 13.68H7.12C6.95245 13.6777 6.7905 13.6193 6.66 13.5141C6.5295 13.409 6.43797 13.2632 6.4 13.1C6.18141 12.1767 6.20362 11.2127 6.46453 10.3004C6.72543 9.38811 7.21627 8.55813 7.89 7.89C8.79959 6.98942 9.9898 6.42697 11.2631 6.29601C12.5364 6.16504 13.8161 6.47343 14.89 7.17C14.9119 6.99409 14.997 6.83214 15.1295 6.71438C15.2619 6.59661 15.4327 6.53108 15.61 6.53C15.8089 6.53 15.9997 6.60902 16.1403 6.74967C16.281 6.89032 16.36 7.08109 16.36 7.28V8.8C16.3614 8.89886 16.3429 8.99699 16.3057 9.0886C16.2684 9.1802 16.2132 9.26341 16.1433 9.33333C16.0734 9.40324 15.9902 9.45844 15.8986 9.49565C15.807 9.53287 15.7089 9.55135 15.61 9.55H14.12C13.9211 9.55 13.7303 9.47098 13.5897 9.33033C13.449 9.18968 13.37 8.99891 13.37 8.8C13.3735 8.68457 13.4032 8.57144 13.4569 8.46921C13.5106 8.36697 13.5869 8.27833 13.68 8.21C12.9868 7.85783 12.2074 7.71106 11.4336 7.78698C10.6598 7.86291 9.9238 8.15836 9.31227 8.63854C8.70074 9.11873 8.23916 9.76365 7.98187 10.4974C7.72458 11.2311 7.6823 12.0231 7.86 12.78C7.90226 12.9734 7.86739 13.1757 7.7628 13.3437C7.65822 13.5118 7.49218 13.6325 7.3 13.68ZM16.11 16.1C15.5921 16.6201 14.9766 17.0328 14.2987 17.3142C13.6208 17.5957 12.894 17.7404 12.16 17.74C11.0657 17.7392 9.99545 17.4195 9.08 16.82C9.05794 16.9976 8.9714 17.1609 8.83681 17.2789C8.70223 17.3969 8.52898 17.4614 8.35 17.46C8.15109 17.46 7.96033 17.381 7.81967 17.2403C7.67902 17.0997 7.6 16.9089 7.6 16.71V15.19C7.60259 14.9919 7.68244 14.8026 7.82254 14.6625C7.96263 14.5224 8.1519 14.4426 8.35 14.44H9.88C10.0781 14.4426 10.2674 14.5224 10.4075 14.6625C10.5476 14.8026 10.6274 14.9919 10.63 15.19C10.6289 15.3059 10.6002 15.4198 10.5463 15.5224C10.4924 15.625 10.4148 15.7133 10.32 15.78C11.0895 16.1673 11.962 16.3005 12.812 16.1603C13.662 16.0201 14.4456 15.6139 15.05 15C15.5487 14.5134 15.9115 13.9049 16.1027 13.2349C16.2939 12.5649 16.3068 11.8565 16.14 11.18C16.095 10.9864 16.1288 10.7829 16.2338 10.6141C16.3388 10.4454 16.5065 10.3252 16.7 10.28C16.7959 10.2563 16.8956 10.2521 16.9932 10.2676C17.0908 10.2831 17.1842 10.318 17.2681 10.3702C17.352 10.4224 17.4246 10.4908 17.4816 10.5715C17.5386 10.6522 17.5788 10.7435 17.6 10.84C17.8277 11.7708 17.8102 12.7447 17.549 13.6666C17.2879 14.5885 16.792 15.427 16.11 16.1Z" fill="#000D26"/>
</svg>
