<svg width="24" height="24" viewBox="0 0 24 24" fill="none" xmlns="http://www.w3.org/2000/svg">
<path d="M17 3H7C5.93913 3 4.92172 3.42143 4.17157 4.17157C3.42143 4.92172 3 5.93913 3 7V17C3 18.0609 3.42143 19.0783 4.17157 19.8284C4.92172 20.5786 5.93913 21 7 21H17C18.0609 21 19.0783 20.5786 19.8284 19.8284C20.5786 19.0783 21 18.0609 21 17V7C21 5.93913 20.5786 4.92172 19.8284 4.17157C19.0783 3.42143 18.0609 3 17 3ZM12 15.5C11.3078 15.5 10.6311 15.2947 10.0555 14.9101C9.47993 14.5256 9.03133 13.9789 8.76642 13.3394C8.50151 12.6999 8.4322 11.9961 8.56725 11.3172C8.7023 10.6382 9.03564 10.0146 9.52513 9.52513C10.0146 9.03564 10.6382 8.7023 11.3172 8.56725C11.9961 8.4322 12.6999 8.50151 13.3394 8.76642C13.9789 9.03133 14.5256 9.47993 14.9101 10.0555C15.2947 10.6311 15.5 11.3078 15.5 12C15.5 12.9283 15.1313 13.8185 14.4749 14.4749C13.8185 15.1313 12.9283 15.5 12 15.5Z" fill="#000D26"/>
</svg>
