<svg width="24" height="24" viewBox="0 0 24 24" fill="none" xmlns="http://www.w3.org/2000/svg">
<path d="M16.22 12.89L8.67999 16.66C8.49248 16.7529 8.28055 16.7846 8.07406 16.7507C7.86756 16.7168 7.6769 16.619 7.52894 16.471C7.38097 16.323 7.28314 16.1324 7.24925 15.9259C7.21535 15.7194 7.24709 15.5075 7.33999 15.32L8.33999 13.32C8.42309 13.155 8.55023 13.0164 8.70732 12.9193C8.86442 12.8222 9.04532 12.7705 9.22999 12.77H11C11.0992 12.7727 11.198 12.7552 11.2902 12.7185C11.3825 12.6818 11.4663 12.6266 11.5365 12.5564C11.6067 12.4862 11.6618 12.4024 11.6985 12.3102C11.7352 12.218 11.7527 12.1192 11.75 12.02C11.7474 11.8218 11.6675 11.6326 11.5275 11.4925C11.3874 11.3524 11.1981 11.2725 11 11.27H9.23999C9.05532 11.2694 8.87442 11.2177 8.71732 11.1206C8.56023 11.0235 8.43309 10.8849 8.34999 10.72L7.34999 8.71995C7.24411 8.53244 7.20159 8.31576 7.22875 8.10214C7.25591 7.88852 7.3513 7.68938 7.50073 7.53433C7.65017 7.37928 7.84566 7.27661 8.05813 7.24159C8.2706 7.20656 8.4887 7.24106 8.67999 7.33995L16.22 11.11C16.3838 11.1939 16.5213 11.3214 16.6172 11.4784C16.7132 11.6354 16.764 11.8159 16.764 12C16.764 12.184 16.7132 12.3645 16.6172 12.5215C16.5213 12.6785 16.3838 12.806 16.22 12.89Z" fill="#000D26"/>
</svg>
