<svg width="24" height="24" viewBox="0 0 24 24" fill="none" xmlns="http://www.w3.org/2000/svg">
<path d="M17 3H7C5.93913 3 4.92172 3.42143 4.17157 4.17157C3.42143 4.92172 3 5.93913 3 7V17C3 18.0609 3.42143 19.0783 4.17157 19.8284C4.92172 20.5786 5.93913 21 7 21H17C18.0609 21 19.0783 20.5786 19.8284 19.8284C20.5786 19.0783 21 18.0609 21 17V7C21 5.93913 20.5786 4.92172 19.8284 4.17157C19.0783 3.42143 18.0609 3 17 3ZM17.69 14.12L15 16.77C14.9308 16.8401 14.8482 16.8957 14.7572 16.9335C14.6662 16.9712 14.5685 16.9905 14.47 16.99C14.3712 16.9922 14.273 16.9738 14.1818 16.9359C14.0905 16.898 14.0082 16.8415 13.94 16.77C13.8692 16.7011 13.813 16.6186 13.7746 16.5276C13.7362 16.4366 13.7164 16.3388 13.7164 16.24C13.7164 16.1412 13.7362 16.0434 13.7746 15.9524C13.813 15.8614 13.8692 15.7789 13.94 15.71L15.31 14.34H6.84C6.64109 14.34 6.45032 14.261 6.30967 14.1203C6.16902 13.9797 6.09 13.7889 6.09 13.59C6.09 13.3911 6.16902 13.2003 6.30967 13.0597C6.45032 12.919 6.64109 12.84 6.84 12.84H17.16C17.3078 12.839 17.4525 12.8823 17.5755 12.9643C17.6985 13.0463 17.7941 13.1632 17.85 13.3C17.9063 13.4374 17.9212 13.5882 17.8928 13.734C17.8643 13.8797 17.7939 14.0139 17.69 14.12ZM17.16 11.12H6.84C6.69176 11.1199 6.54688 11.0758 6.42367 10.9934C6.30045 10.911 6.20442 10.7939 6.14771 10.6569C6.091 10.52 6.07615 10.3693 6.10503 10.2239C6.13392 10.0785 6.20524 9.94489 6.31 9.84L9 7.23C9.14604 7.14697 9.31572 7.11537 9.48186 7.14027C9.648 7.16517 9.80096 7.24512 9.91624 7.36732C10.0315 7.48952 10.1024 7.64688 10.1176 7.81418C10.1328 7.98148 10.0914 8.14904 10 8.29L8.65 9.66H17.16C17.3589 9.66 17.5497 9.73902 17.6903 9.87967C17.831 10.0203 17.91 10.2111 17.91 10.41C17.91 10.6089 17.831 10.7997 17.6903 10.9403C17.5497 11.081 17.3589 11.16 17.16 11.16V11.12Z" fill="#000D26"/>
</svg>
