<svg width="24" height="24" viewBox="0 0 24 24" fill="none" xmlns="http://www.w3.org/2000/svg">
<path d="M17 3H7C5.93913 3 4.92172 3.42143 4.17157 4.17157C3.42143 4.92172 3 5.93913 3 7V17C3 18.0609 3.42143 19.0783 4.17157 19.8284C4.92172 20.5786 5.93913 21 7 21H17C18.0609 21 19.0783 20.5786 19.8284 19.8284C20.5786 19.0783 21 18.0609 21 17V7C21 5.93913 20.5786 4.92172 19.8284 4.17157C19.0783 3.42143 18.0609 3 17 3ZM15.53 11L12.53 14C12.3894 14.1405 12.1988 14.2193 12 14.2193C11.8012 14.2193 11.6106 14.1405 11.47 14L8.47 11C8.38697 10.854 8.35537 10.6843 8.38027 10.5181C8.40517 10.352 8.48512 10.199 8.60732 10.0838C8.72952 9.96848 8.88688 9.89756 9.05418 9.88238C9.22148 9.86719 9.38904 9.90861 9.53 10L12 12.44L14.47 10C14.611 9.90861 14.7785 9.86719 14.9458 9.88238C15.1131 9.89756 15.2705 9.96848 15.3927 10.0838C15.5149 10.199 15.5948 10.352 15.6197 10.5181C15.6446 10.6843 15.613 10.854 15.53 11Z" fill="#000D26"/>
</svg>
