<svg width="24" height="24" viewBox="0 0 24 24" fill="none" xmlns="http://www.w3.org/2000/svg">
<path d="M17 3H7C5.93913 3 4.92172 3.42143 4.17157 4.17157C3.42143 4.92172 3 5.93913 3 7V17C3 18.0609 3.42143 19.0783 4.17157 19.8284C4.92172 20.5786 5.93913 21 7 21H17C18.0609 21 19.0783 20.5786 19.8284 19.8284C20.5786 19.0783 21 18.0609 21 17V7C21 5.93913 20.5786 4.92172 19.8284 4.17157C19.0783 3.42143 18.0609 3 17 3ZM16.5 12.94C16.6989 12.94 16.8897 13.019 17.0303 13.1597C17.171 13.3003 17.25 13.4911 17.25 13.69C17.25 13.8889 17.171 14.0797 17.0303 14.2203C16.8897 14.361 16.6989 14.44 16.5 14.44H14.44V16.5C14.44 16.6989 14.361 16.8897 14.2203 17.0303C14.0797 17.171 13.8889 17.25 13.69 17.25C13.4911 17.25 13.3003 17.171 13.1597 17.0303C13.019 16.8897 12.94 16.6989 12.94 16.5V14.44H11.06V16.5C11.06 16.6989 10.981 16.8897 10.8403 17.0303C10.6997 17.171 10.5089 17.25 10.31 17.25C10.1111 17.25 9.92032 17.171 9.77967 17.0303C9.63902 16.8897 9.56 16.6989 9.56 16.5V14.44H7.5C7.30109 14.44 7.11032 14.361 6.96967 14.2203C6.82902 14.0797 6.75 13.8889 6.75 13.69C6.75 13.4911 6.82902 13.3003 6.96967 13.1597C7.11032 13.019 7.30109 12.94 7.5 12.94H9.56V11.06H7.5C7.30109 11.06 7.11032 10.981 6.96967 10.8403C6.82902 10.6997 6.75 10.5089 6.75 10.31C6.75 10.1111 6.82902 9.92032 6.96967 9.77967C7.11032 9.63902 7.30109 9.56 7.5 9.56H9.56V7.5C9.56 7.30109 9.63902 7.11032 9.77967 6.96967C9.92032 6.82902 10.1111 6.75 10.31 6.75C10.5089 6.75 10.6997 6.82902 10.8403 6.96967C10.981 7.11032 11.06 7.30109 11.06 7.5V9.56H12.94V7.5C12.94 7.30109 13.019 7.11032 13.1597 6.96967C13.3003 6.82902 13.4911 6.75 13.69 6.75C13.8889 6.75 14.0797 6.82902 14.2203 6.96967C14.361 7.11032 14.44 7.30109 14.44 7.5V9.56H16.5C16.6989 9.56 16.8897 9.63902 17.0303 9.77967C17.171 9.92032 17.25 10.1111 17.25 10.31C17.25 10.5089 17.171 10.6997 17.0303 10.8403C16.8897 10.981 16.6989 11.06 16.5 11.06H14.44V12.94H16.5Z" fill="#000D26"/>
<path d="M12.93 11.0601H11.06V12.9401H12.93V11.0601Z" fill="#000D26"/>
</svg>
