<svg width="24" height="24" viewBox="0 0 24 24" fill="none" xmlns="http://www.w3.org/2000/svg">
<path d="M16.3 4.25995C16.2194 4.25718 16.1409 4.28592 16.0812 4.34006C16.0214 4.3942 15.9851 4.46949 15.98 4.54995C15.9088 5.15716 15.6167 5.71695 15.1593 6.12266C14.702 6.52838 14.1114 6.75165 13.5 6.74995H10.5C9.88519 6.7566 9.28966 6.53555 8.8281 6.12937C8.36653 5.72319 8.07156 5.16061 7.99999 4.54995C7.99483 4.46949 7.95853 4.3942 7.89879 4.34006C7.83905 4.28592 7.76057 4.25718 7.67999 4.25995C6.93742 4.33457 6.24932 4.68329 5.75007 5.23802C5.25081 5.79275 4.97625 6.51365 4.97999 7.25995V18.2599C4.97999 19.0556 5.29606 19.8187 5.85867 20.3813C6.42128 20.9439 7.18434 21.2599 7.97999 21.2599H15.98C16.7756 21.2599 17.5387 20.9439 18.1013 20.3813C18.6639 19.8187 18.98 19.0556 18.98 18.2599V7.25995C18.9842 6.51676 18.7125 5.79845 18.2173 5.2442C17.7222 4.68995 17.039 4.33921 16.3 4.25995Z" fill="#000D26"/>
<path d="M10.5 5.75H13.5C13.8978 5.75 14.2794 5.59196 14.5607 5.31066C14.842 5.02936 15 4.64782 15 4.25C15 3.85218 14.842 3.47064 14.5607 3.18934C14.2794 2.90804 13.8978 2.75 13.5 2.75H10.5C10.1022 2.75 9.72064 2.90804 9.43934 3.18934C9.15804 3.47064 9 3.85218 9 4.25C9 4.64782 9.15804 5.02936 9.43934 5.31066C9.72064 5.59196 10.1022 5.75 10.5 5.75Z" fill="#000D26"/>
</svg>
