<svg width="24" height="24" viewBox="0 0 24 24" fill="none" xmlns="http://www.w3.org/2000/svg">
<path d="M12 3C10.22 3 8.47991 3.52784 6.99987 4.51677C5.51983 5.50571 4.36628 6.91131 3.68509 8.55585C3.0039 10.2004 2.82567 12.01 3.17294 13.7558C3.5202 15.5016 4.37737 17.1053 5.63604 18.364C6.89472 19.6226 8.49836 20.4798 10.2442 20.8271C11.99 21.1743 13.7996 20.9961 15.4442 20.3149C17.0887 19.6337 18.4943 18.4802 19.4832 17.0001C20.4722 15.5201 21 13.78 21 12C21 9.61305 20.0518 7.32387 18.364 5.63604C16.6761 3.94821 14.387 3 12 3ZM7.34 11.39C7.42473 11.3955 7.50967 11.3835 7.58957 11.3548C7.66947 11.3261 7.74263 11.2813 7.8045 11.2232C7.86638 11.1651 7.91566 11.0948 7.94929 11.0169C7.98292 10.9389 8.00018 10.8549 8 10.77C7.99694 10.2275 8.09179 9.68884 8.28 9.18C8.33405 9.04142 8.43763 8.92786 8.57067 8.86134C8.70371 8.79482 8.85672 8.78009 9 8.82C9.07421 8.84666 9.14231 8.88793 9.2003 8.94137C9.25828 8.9948 9.30497 9.05931 9.3376 9.13109C9.37022 9.20288 9.38813 9.28047 9.39026 9.35929C9.3924 9.43811 9.37871 9.51656 9.35 9.59C9.21815 9.96947 9.15055 10.3683 9.15 10.77C9.14738 11.2519 8.95479 11.7133 8.61404 12.054C8.27329 12.3948 7.81189 12.5874 7.33 12.59C7.17087 12.59 7.01826 12.5268 6.90574 12.4143C6.79322 12.3017 6.73 12.1491 6.73 11.99C6.73 11.8309 6.79322 11.6783 6.90574 11.5657C7.01826 11.4532 7.17087 11.39 7.33 11.39H7.34ZM8 16.59C7.85381 16.5913 7.71217 16.5392 7.60169 16.4434C7.49121 16.3477 7.41949 16.2149 7.4 16.07C7.39019 15.9851 7.39834 15.899 7.42393 15.8174C7.44953 15.7358 7.49199 15.6605 7.54857 15.5964C7.60515 15.5323 7.67457 15.4808 7.75235 15.4452C7.83012 15.4096 7.91449 15.3908 8 15.39C9.11145 15.231 10.1281 14.676 10.863 13.8272C11.5979 12.9784 12.0017 11.8928 12 10.77C12 10.6109 12.0632 10.4583 12.1757 10.3457C12.2883 10.2332 12.4409 10.17 12.6 10.17C12.7591 10.17 12.9117 10.2332 13.0243 10.3457C13.1368 10.4583 13.2 10.6109 13.2 10.77C13.1978 12.1919 12.6795 13.5646 11.7415 14.6331C10.8035 15.7017 9.50957 16.3935 8.1 16.58L8 16.59ZM13.06 16.17C12.4649 16.8172 11.7693 17.3642 11 17.79C10.9117 17.8288 10.8164 17.8492 10.72 17.85C10.6102 17.8534 10.5018 17.825 10.4078 17.7682C10.3137 17.7115 10.2381 17.6287 10.19 17.53C10.1159 17.3894 10.1006 17.2252 10.1475 17.0733C10.1943 16.9214 10.2996 16.7944 10.44 16.72C11.1199 16.3697 11.7353 15.9065 12.26 15.35C12.3142 15.2931 12.3793 15.2478 12.4515 15.2169C12.5237 15.186 12.6015 15.17 12.68 15.17C12.7586 15.17 12.8363 15.186 12.9085 15.2169C12.9807 15.2478 13.0458 15.2931 13.1 15.35C13.205 15.4613 13.2626 15.609 13.2608 15.762C13.2589 15.915 13.1977 16.0613 13.09 16.17H13.06ZM12.58 9.35C12.2025 9.34999 11.8403 9.49928 11.5724 9.7653C11.3045 10.0313 11.1526 10.3925 11.15 10.77C11.15 11.7884 10.7454 12.7652 10.0253 13.4853C9.30516 14.2054 8.32844 14.61 7.31 14.61C7.15087 14.61 6.99826 14.5468 6.88574 14.4343C6.77322 14.3217 6.71 14.1691 6.71 14.01C6.71 13.8509 6.77322 13.6983 6.88574 13.5857C6.99826 13.4732 7.15087 13.41 7.31 13.41C7.66088 13.4166 8.00956 13.3533 8.33565 13.2236C8.66174 13.0939 8.95871 12.9005 9.20917 12.6547C9.45964 12.4089 9.65859 12.1156 9.79437 11.792C9.93016 11.4684 10.0001 11.1209 10 10.77C10.0413 10.1018 10.3358 9.47451 10.8235 9.01595C11.3113 8.55739 11.9555 8.3021 12.625 8.3021C13.2945 8.3021 13.9387 8.55739 14.4265 9.01595C14.9142 9.47451 15.2087 10.1018 15.25 10.77C15.2513 11.965 14.9812 13.1447 14.46 14.22C14.3889 14.3638 14.2641 14.4738 14.1125 14.5262C13.9609 14.5786 13.7947 14.5692 13.65 14.5C13.5791 14.4659 13.5157 14.418 13.4636 14.3591C13.4115 14.3002 13.3717 14.2314 13.3465 14.1569C13.3213 14.0823 13.3113 14.0035 13.3171 13.9251C13.3229 13.8466 13.3442 13.7701 13.38 13.7C13.8088 12.7839 14.0209 11.7813 14 10.77C13.9976 10.3993 13.8512 10.044 13.5919 9.77913C13.3326 9.51422 12.9806 9.36036 12.61 9.35H12.58ZM14.4 17.7C14.344 17.7572 14.277 17.8026 14.2032 17.8335C14.1294 17.8644 14.0501 17.8802 13.97 17.88C13.8138 17.8774 13.6641 17.8168 13.55 17.71C13.4941 17.6543 13.4497 17.588 13.4194 17.5151C13.3891 17.4422 13.3735 17.364 13.3735 17.285C13.3735 17.206 13.3891 17.1278 13.4194 17.0549C13.4497 16.982 13.4941 16.9157 13.55 16.86C15.1507 15.2378 16.0457 13.0489 16.04 10.77C16.0377 10.1195 15.8516 9.48299 15.5031 8.93376C15.1547 8.38453 14.658 7.945 14.0705 7.66587C13.483 7.38675 12.8285 7.2794 12.1826 7.35621C11.5367 7.43302 10.9257 7.69087 10.42 8.1C10.3579 8.14991 10.2865 8.18695 10.2099 8.20896C10.1333 8.23097 10.0532 8.23751 9.97404 8.22821C9.89491 8.2189 9.81844 8.19392 9.74907 8.15474C9.6797 8.11556 9.61883 8.06296 9.57 8C9.51982 7.93934 9.48228 7.86926 9.45959 7.79387C9.43691 7.71848 9.42955 7.63931 9.43793 7.56103C9.44632 7.48275 9.47029 7.40694 9.50843 7.33806C9.54657 7.26919 9.5981 7.20865 9.66 7.16C10.3406 6.60142 11.1658 6.24755 12.0396 6.13955C12.9134 6.03155 13.8 6.17386 14.5961 6.54992C15.3922 6.92598 16.0652 7.52034 16.5368 8.26387C17.0084 9.00739 17.2592 9.86953 17.26 10.75C17.2696 13.3491 16.2525 15.8469 14.43 17.7H14.4Z" fill="#000D26"/>
</svg>
