<svg width="24" height="24" viewBox="0 0 24 24" fill="none" xmlns="http://www.w3.org/2000/svg">
<path d="M13.08 10.9199C13.2945 11.1337 13.4407 11.4063 13.5002 11.7032C13.5596 12.0001 13.5297 12.308 13.414 12.5879C13.2984 12.8678 13.1023 13.1071 12.8505 13.2754C12.5988 13.4438 12.3028 13.5336 12 13.5336C11.6971 13.5336 11.4011 13.4438 11.1494 13.2754C10.8977 13.1071 10.7016 12.8678 10.5859 12.5879C10.4703 12.308 10.4403 12.0001 10.4998 11.7032C10.5592 11.4063 10.7055 11.1337 10.92 10.9199C11.2067 10.6341 11.5951 10.4736 12 10.4736C12.4048 10.4736 12.7932 10.6341 13.08 10.9199Z" fill="#000D26"/>
<path d="M17 3H7C5.93913 3 4.92172 3.42143 4.17157 4.17157C3.42143 4.92172 3 5.93913 3 7V17C3 18.0609 3.42143 19.0783 4.17157 19.8284C4.92172 20.5786 5.93913 21 7 21H17C18.0609 21 19.0783 20.5786 19.8284 19.8284C20.5786 19.0783 21 18.0609 21 17V7C21 5.93913 20.5786 4.92172 19.8284 4.17157C19.0783 3.42143 18.0609 3 17 3ZM16.73 9L15.47 14.31C15.4064 14.5826 15.2678 14.832 15.0699 15.0299C14.872 15.2278 14.6226 15.3664 14.35 15.43L9 16.73C8.76226 16.7802 8.51577 16.7702 8.28285 16.701C8.04994 16.6319 7.83797 16.5056 7.66616 16.3338C7.49436 16.162 7.36814 15.9501 7.29896 15.7171C7.22979 15.4842 7.21983 15.2377 7.27 15L8.53 9.65C8.59628 9.37975 8.73596 9.13307 8.9336 8.93719C9.13124 8.74131 9.37916 8.60386 9.65 8.54L15 7.28C15.2367 7.23042 15.4821 7.24043 15.714 7.30913C15.9459 7.37784 16.1571 7.50309 16.3287 7.67363C16.5002 7.84417 16.6267 8.05465 16.6967 8.28617C16.7668 8.51768 16.7782 8.76297 16.73 9Z" fill="#000D26"/>
</svg>
