<svg width="24" height="24" viewBox="0 0 24 24" fill="none" xmlns="http://www.w3.org/2000/svg">
<path d="M15.32 16.6499L13.32 15.6499C13.1551 15.5668 13.0164 15.4396 12.9193 15.2825C12.8222 15.1255 12.7706 14.9445 12.77 14.7599V12.9999C12.77 12.801 12.691 12.6102 12.5503 12.4695C12.4097 12.3289 12.2189 12.2499 12.02 12.2499C11.8211 12.2499 11.6303 12.3289 11.4897 12.4695C11.349 12.6102 11.27 12.801 11.27 12.9999V14.7599C11.2694 14.9445 11.2178 15.1255 11.1207 15.2825C11.0236 15.4396 10.8849 15.5668 10.72 15.6499L8.71999 16.6499C8.53249 16.7428 8.32056 16.7745 8.11406 16.7406C7.90757 16.7067 7.71691 16.6089 7.56894 16.4609C7.42097 16.313 7.32315 16.1223 7.28925 15.9158C7.25536 15.7093 7.28709 15.4974 7.37999 15.3099L11.15 7.77988C11.2339 7.61608 11.3614 7.47861 11.5184 7.38262C11.6755 7.28663 11.8559 7.23584 12.04 7.23584C12.224 7.23584 12.4045 7.28663 12.5615 7.38262C12.7186 7.47861 12.8461 7.61608 12.93 7.77988L16.7 15.3099C16.803 15.5014 16.8407 15.7213 16.8075 15.9362C16.7742 16.1511 16.6719 16.3493 16.5158 16.5008C16.3598 16.6523 16.1587 16.7488 15.9429 16.7757C15.7271 16.8026 15.5084 16.7584 15.32 16.6499Z" fill="#000D26"/>
</svg>
