<svg width="24" height="24" viewBox="0 0 24 24" fill="none" xmlns="http://www.w3.org/2000/svg">
<path d="M16.3 4.25995C16.2194 4.25718 16.1409 4.28592 16.0812 4.34006C16.0215 4.3942 15.9852 4.46949 15.98 4.54995C15.9088 5.15716 15.6167 5.71695 15.1593 6.12266C14.702 6.52838 14.1114 6.75165 13.5 6.74995H10.5C9.8852 6.7566 9.28968 6.53555 8.82811 6.12937C8.36654 5.72319 8.07157 5.16061 8 4.54995C7.99485 4.46949 7.95855 4.3942 7.89881 4.34006C7.83907 4.28592 7.76058 4.25718 7.68 4.25995C6.93743 4.33457 6.24934 4.68329 5.75008 5.23802C5.25083 5.79275 4.97626 6.51365 4.98 7.25995V18.2599C4.98 19.0556 5.29607 19.8187 5.85868 20.3813C6.42129 20.9439 7.18435 21.2599 7.98 21.2599H15.98C16.7757 21.2599 17.5387 20.9439 18.1013 20.3813C18.6639 19.8187 18.98 19.0556 18.98 18.2599V7.25995C18.9842 6.51676 18.7125 5.79845 18.2173 5.2442C17.7222 4.68995 17.039 4.33921 16.3 4.25995ZM12.6 16.7499H9C8.80109 16.7499 8.61033 16.6709 8.46967 16.5303C8.32902 16.3896 8.25 16.1989 8.25 15.9999C8.25 15.801 8.32902 15.6103 8.46967 15.4696C8.61033 15.329 8.80109 15.2499 9 15.2499H12.6C12.7989 15.2499 12.9897 15.329 13.1303 15.4696C13.271 15.6103 13.35 15.801 13.35 15.9999C13.35 16.1989 13.271 16.3896 13.1303 16.5303C12.9897 16.6709 12.7989 16.7499 12.6 16.7499ZM15 13.7499H9C8.80109 13.7499 8.61033 13.6709 8.46967 13.5303C8.32902 13.3896 8.25 13.1989 8.25 12.9999C8.25 12.801 8.32902 12.6103 8.46967 12.4696C8.61033 12.329 8.80109 12.2499 9 12.2499H15C15.1989 12.2499 15.3897 12.329 15.5303 12.4696C15.671 12.6103 15.75 12.801 15.75 12.9999C15.75 13.1989 15.671 13.3896 15.5303 13.5303C15.3897 13.6709 15.1989 13.7499 15 13.7499ZM15 10.7499H9C8.80109 10.7499 8.61033 10.6709 8.46967 10.5303C8.32902 10.3896 8.25 10.1989 8.25 9.99995C8.25 9.80104 8.32902 9.61027 8.46967 9.46962C8.61033 9.32897 8.80109 9.24995 9 9.24995H15C15.1989 9.24995 15.3897 9.32897 15.5303 9.46962C15.671 9.61027 15.75 9.80104 15.75 9.99995C15.75 10.1989 15.671 10.3896 15.5303 10.5303C15.3897 10.6709 15.1989 10.7499 15 10.7499Z" fill="#000D26"/>
<path d="M10.5 5.75H13.5C13.8978 5.75 14.2794 5.59196 14.5607 5.31066C14.842 5.02936 15 4.64782 15 4.25C15 3.85218 14.842 3.47064 14.5607 3.18934C14.2794 2.90804 13.8978 2.75 13.5 2.75H10.5C10.1022 2.75 9.72064 2.90804 9.43934 3.18934C9.15804 3.47064 9 3.85218 9 4.25C9 4.64782 9.15804 5.02936 9.43934 5.31066C9.72064 5.59196 10.1022 5.75 10.5 5.75Z" fill="#000D26"/>
</svg>
