<svg width="24" height="24" viewBox="0 0 24 24" fill="none" xmlns="http://www.w3.org/2000/svg">
<path d="M11.21 10.4399C12.8668 10.4399 14.21 9.0968 14.21 7.43994C14.21 5.78309 12.8668 4.43994 11.21 4.43994C9.55311 4.43994 8.20996 5.78309 8.20996 7.43994C8.20996 9.0968 9.55311 10.4399 11.21 10.4399Z" fill="#000D26"/>
<path d="M11.7899 16.0599C11.7882 15.3079 11.9592 14.5654 12.2899 13.8899C12.3136 13.8432 12.325 13.7912 12.3231 13.7388C12.3213 13.6864 12.3061 13.6353 12.2792 13.5904C12.2522 13.5454 12.2143 13.508 12.1689 13.4817C12.1236 13.4554 12.0723 13.441 12.0199 13.4399H5.6499C5.1371 13.4399 4.64517 13.643 4.28163 14.0046C3.9181 14.3663 3.71254 14.8572 3.7099 15.3699V18.3699C3.7085 18.4097 3.7153 18.4493 3.72988 18.4864C3.74447 18.5234 3.76651 18.557 3.79466 18.5852C3.8228 18.6133 3.85643 18.6354 3.89346 18.65C3.93049 18.6645 3.97012 18.6713 4.0099 18.6699H12.0099C12.0611 18.669 12.1113 18.655 12.1556 18.6292C12.1999 18.6034 12.2368 18.5667 12.2629 18.5226C12.2889 18.4785 12.3033 18.4284 12.3045 18.3772C12.3057 18.326 12.2938 18.2753 12.2699 18.2299C11.9491 17.5518 11.7851 16.8101 11.7899 16.0599Z" fill="#000D26"/>
<path d="M16.79 12.5601C16.0978 12.5601 15.4211 12.7653 14.8455 13.1499C14.27 13.5345 13.8214 14.0811 13.5565 14.7207C13.2916 15.3602 13.2222 16.0639 13.3573 16.7429C13.4923 17.4218 13.8257 18.0454 14.3152 18.5349C14.8047 19.0244 15.4283 19.3578 16.1072 19.4928C16.7862 19.6279 17.4899 19.5585 18.1294 19.2936C18.769 19.0287 19.3156 18.5801 19.7002 18.0046C20.0848 17.429 20.29 16.7523 20.29 16.0601C20.29 15.1318 19.9213 14.2416 19.2649 13.5852C18.6085 12.9288 17.7183 12.5601 16.79 12.5601ZM18.38 16.5601C18.5205 16.7007 18.5994 16.8913 18.5994 17.0901C18.5994 17.2888 18.5205 17.4794 18.38 17.6201C18.2394 17.7605 18.0488 17.8394 17.85 17.8394C17.6513 17.8394 17.4607 17.7605 17.32 17.6201L16.79 17.0901L16.26 17.6201C16.1194 17.7605 15.9288 17.8394 15.73 17.8394C15.5313 17.8394 15.3407 17.7605 15.2 17.6201C15.0596 17.4794 14.9807 17.2888 14.9807 17.0901C14.9807 16.8913 15.0596 16.7007 15.2 16.5601L15.73 16.0301L15.2 15.5001C15.0676 15.3579 14.9954 15.1698 14.9989 14.9755C15.0023 14.7812 15.081 14.5958 15.2184 14.4584C15.3558 14.321 15.5412 14.2423 15.7355 14.2389C15.9298 14.2355 16.1179 14.3076 16.26 14.4401L16.79 14.9701L17.32 14.4401C17.3887 14.3664 17.4715 14.3073 17.5635 14.2663C17.6555 14.2253 17.7548 14.2032 17.8555 14.2015C17.9562 14.1997 18.0563 14.2182 18.1496 14.2559C18.243 14.2937 18.3279 14.3498 18.3991 14.421C18.4703 14.4922 18.5264 14.5771 18.5642 14.6705C18.6019 14.7638 18.6204 14.8639 18.6186 14.9646C18.6169 15.0653 18.5948 15.1646 18.5538 15.2566C18.5128 15.3486 18.4537 15.4314 18.38 15.5001L17.85 16.0301L18.38 16.5601Z" fill="#000D26"/>
</svg>
