<svg width="24" height="24" viewBox="0 0 24 24" fill="none" xmlns="http://www.w3.org/2000/svg">
<path d="M16.3 4.25995C16.2194 4.25718 16.1409 4.28592 16.0812 4.34006C16.0215 4.3942 15.9852 4.46949 15.98 4.54995C15.9067 5.15629 15.614 5.71483 15.1571 6.12014C14.7002 6.52544 14.1108 6.74948 13.5 6.74995H10.5C9.8852 6.7566 9.28968 6.53555 8.82811 6.12937C8.36654 5.72319 8.07157 5.16061 8 4.54995C7.99485 4.46949 7.95855 4.3942 7.89881 4.34006C7.83907 4.28592 7.76058 4.25718 7.68 4.25995C6.93743 4.33457 6.24934 4.68329 5.75008 5.23802C5.25083 5.79275 4.97626 6.51365 4.98 7.25995V18.2599C4.98 19.0556 5.29607 19.8187 5.85868 20.3813C6.42129 20.9439 7.18435 21.2599 7.98 21.2599H15.98C16.7757 21.2599 17.5387 20.9439 18.1013 20.3813C18.6639 19.8187 18.98 19.0556 18.98 18.2599V7.25995C18.9842 6.51676 18.7125 5.79845 18.2173 5.2442C17.7222 4.68995 17.039 4.33921 16.3 4.25995ZM14 13.7499H10C9.80109 13.7499 9.61033 13.6709 9.46967 13.5303C9.32902 13.3896 9.25 13.1989 9.25 12.9999C9.25 12.801 9.32902 12.6103 9.46967 12.4696C9.61033 12.329 9.80109 12.2499 10 12.2499H14C14.1989 12.2499 14.3897 12.329 14.5303 12.4696C14.671 12.6103 14.75 12.801 14.75 12.9999C14.75 13.1989 14.671 13.3896 14.5303 13.5303C14.3897 13.6709 14.1989 13.7499 14 13.7499Z" fill="#000D26"/>
<path d="M10.5 5.75H13.5C13.8978 5.75 14.2794 5.59196 14.5607 5.31066C14.842 5.02936 15 4.64782 15 4.25C15 3.85218 14.842 3.47064 14.5607 3.18934C14.2794 2.90804 13.8978 2.75 13.5 2.75H10.5C10.1022 2.75 9.72064 2.90804 9.43934 3.18934C9.15804 3.47064 9 3.85218 9 4.25C9 4.64782 9.15804 5.02936 9.43934 5.31066C9.72064 5.59196 10.1022 5.75 10.5 5.75Z" fill="#000D26"/>
</svg>
