<svg width="24" height="24" viewBox="0 0 24 24" fill="none" xmlns="http://www.w3.org/2000/svg">
<path d="M15.45 8.00006H18.45C18.4753 8.00244 18.5007 7.99673 18.5225 7.98375C18.5444 7.97077 18.5615 7.9512 18.5715 7.92786C18.5815 7.90451 18.5839 7.87858 18.5782 7.85382C18.5725 7.82906 18.5592 7.80673 18.54 7.79006L14.45 3.67006C14.4316 3.65556 14.4097 3.64629 14.3865 3.64322C14.3633 3.64014 14.3397 3.64339 14.3182 3.6526C14.2967 3.66182 14.2781 3.67666 14.2643 3.69558C14.2506 3.71449 14.2422 3.73677 14.24 3.76006V6.76006C14.2374 6.92111 14.2666 7.08109 14.3261 7.23077C14.3856 7.38045 14.4742 7.51686 14.5867 7.63214C14.6992 7.74742 14.8334 7.83929 14.9815 7.90243C15.1297 7.96558 15.2889 7.99876 15.45 8.00006Z" fill="#000D26"/>
<path d="M14.64 9.51001C14.3918 9.51001 14.146 9.46112 13.9167 9.36614C13.6874 9.27116 13.4791 9.13194 13.3036 8.95644C13.1281 8.78094 12.9889 8.57259 12.8939 8.34328C12.7989 8.11398 12.75 7.86821 12.75 7.62001V3.51001H10.87C10.1751 3.51001 9.50873 3.78604 9.01738 4.27739C8.52604 4.76874 8.25 5.43514 8.25 6.13001V14.88C8.24869 15.2249 8.31548 15.5667 8.44656 15.8857C8.57764 16.2047 8.77042 16.4947 9.01384 16.7391C9.25726 16.9834 9.54653 17.1773 9.86506 17.3096C10.1836 17.4419 10.5251 17.51 10.87 17.51H16.12C16.8175 17.51 17.4865 17.2329 17.9797 16.7397C18.4729 16.2465 18.75 15.5775 18.75 14.88V9.51001H14.64ZM11.31 11.51H13.94C14.1389 11.51 14.3297 11.589 14.4703 11.7297C14.611 11.8703 14.69 12.0611 14.69 12.26C14.69 12.4589 14.611 12.6497 14.4703 12.7903C14.3297 12.931 14.1389 13.01 13.94 13.01H11.31C11.1111 13.01 10.9203 12.931 10.7797 12.7903C10.639 12.6497 10.56 12.4589 10.56 12.26C10.56 12.0611 10.639 11.8703 10.7797 11.7297C10.9203 11.589 11.1111 11.51 11.31 11.51ZM15.69 15.63H11.31C11.1111 15.63 10.9203 15.551 10.7797 15.4103C10.639 15.2697 10.56 15.0789 10.56 14.88C10.56 14.6811 10.639 14.4903 10.7797 14.3497C10.9203 14.209 11.1111 14.13 11.31 14.13H15.69C15.8889 14.13 16.0797 14.209 16.2203 14.3497C16.361 14.4903 16.44 14.6811 16.44 14.88C16.44 15.0789 16.361 15.2697 16.2203 15.4103C16.0797 15.551 15.8889 15.63 15.69 15.63Z" fill="#000D26"/>
<path d="M6.62001 16.0001V6.84009C6.20532 7.06152 5.85873 7.39165 5.61738 7.79507C5.37604 8.19849 5.24904 8.65999 5.25001 9.13009V17.8801C5.25 18.5759 5.52572 19.2433 6.01678 19.7363C6.50784 20.2292 7.17422 20.5074 7.87001 20.5101H13.12C13.5938 20.5105 14.0589 20.3823 14.4657 20.1393C14.8725 19.8963 15.2057 19.5475 15.43 19.1301H9.72001C9.30999 19.1314 8.90381 19.0512 8.52512 18.894C8.14643 18.7368 7.80282 18.5058 7.51429 18.2145C7.22577 17.9232 6.9981 17.5774 6.84457 17.1972C6.69103 16.817 6.6147 16.4101 6.62001 16.0001Z" fill="#000D26"/>
</svg>
