<svg width="24" height="24" viewBox="0 0 24 24" fill="none" xmlns="http://www.w3.org/2000/svg">
<path d="M14.75 18.25C14.6515 18.2504 14.5538 18.2312 14.4628 18.1934C14.3718 18.1557 14.2893 18.1001 14.22 18.03L8.72001 12.53C8.57956 12.3893 8.50067 12.1987 8.50067 12C8.50067 11.8012 8.57956 11.6106 8.72001 11.47L14.22 5.99997C14.361 5.90858 14.5285 5.86716 14.6958 5.88234C14.8631 5.89753 15.0205 5.96845 15.1427 6.08373C15.2649 6.19901 15.3448 6.35197 15.3697 6.51811C15.3946 6.68425 15.363 6.85393 15.28 6.99997L10.28 12L15.28 17C15.4205 17.1406 15.4994 17.3312 15.4994 17.53C15.4994 17.7287 15.4205 17.9193 15.28 18.06C15.1353 18.1907 14.9448 18.2589 14.75 18.25Z" fill="#000D26"/>
</svg>
