<svg width="24" height="24" viewBox="0 0 24 24" fill="none" xmlns="http://www.w3.org/2000/svg">
<path d="M12 3C10.22 3 8.47991 3.52784 6.99987 4.51677C5.51983 5.50571 4.36628 6.91131 3.68509 8.55585C3.0039 10.2004 2.82567 12.01 3.17294 13.7558C3.5202 15.5016 4.37737 17.1053 5.63604 18.364C6.89472 19.6226 8.49836 20.4798 10.2442 20.8271C11.99 21.1743 13.7996 20.9961 15.4442 20.3149C17.0887 19.6337 18.4943 18.4802 19.4832 17.0001C20.4722 15.5201 21 13.78 21 12C21 9.61305 20.0518 7.32387 18.364 5.63604C16.6761 3.94821 14.387 3 12 3ZM16.07 16.07C15.2465 16.8949 14.1918 17.4501 13.0456 17.6619C11.8994 17.8737 10.7159 17.7322 9.65197 17.2561C8.58805 16.78 7.69395 15.9917 7.08818 14.9959C6.48241 14.0001 6.19359 12.8437 6.26 11.68C6.27783 11.4864 6.37018 11.3072 6.51757 11.1803C6.66496 11.0535 6.85586 10.9888 7.05 11C7.24807 11.0129 7.43324 11.1028 7.56592 11.2504C7.6986 11.398 7.76826 11.5917 7.76 11.79C7.72256 12.498 7.86283 13.2041 8.16803 13.844C8.47323 14.4839 8.93366 15.0373 9.50741 15.4538C10.0811 15.8703 10.75 16.1366 11.453 16.2286C12.1559 16.3205 12.8708 16.2351 13.5323 15.9802C14.1939 15.7252 14.7811 15.3089 15.2406 14.769C15.7001 14.229 16.0172 13.5828 16.1631 12.889C16.309 12.1952 16.279 11.4759 16.0759 10.7966C15.8727 10.1174 15.5029 9.49977 15 9C14.3537 8.35972 13.5183 7.94486 12.6176 7.81696C11.7169 7.68906 10.799 7.85495 10 8.29C10.1423 8.37244 10.253 8.49991 10.3148 8.65229C10.3765 8.80467 10.3858 8.97327 10.341 9.13149C10.2963 9.28971 10.2002 9.42853 10.0678 9.52604C9.93545 9.62356 9.77437 9.67421 9.61 9.67H8.13C7.9319 9.66741 7.74263 9.58756 7.60254 9.44747C7.46244 9.30737 7.38259 9.11811 7.38 8.92V7.47C7.38212 7.29562 7.44494 7.12744 7.55765 6.99437C7.67037 6.8613 7.82593 6.77167 7.99758 6.74089C8.16923 6.71011 8.34624 6.74011 8.49816 6.82573C8.65009 6.91134 8.76743 7.04722 8.83 7.21C10.0184 6.42361 11.4566 6.10655 12.8655 6.3203C14.2744 6.53405 15.5538 7.26338 16.4555 8.36687C17.3572 9.47036 17.8171 10.8694 17.7458 12.2927C17.6746 13.7159 17.0774 15.0621 16.07 16.07Z" fill="#000D26"/>
</svg>
