<svg width="24" height="24" viewBox="0 0 24 24" fill="none" xmlns="http://www.w3.org/2000/svg">
<path d="M20.92 8.75C20.9179 7.82082 20.5924 6.92137 19.9994 6.20606C19.4063 5.49075 18.5827 5.00422 17.67 4.83V3.25C17.67 3.05109 17.591 2.86032 17.4504 2.71967C17.3097 2.57902 17.119 2.5 16.92 2.5C16.7211 2.5 16.5304 2.57902 16.3897 2.71967C16.2491 2.86032 16.17 3.05109 16.17 3.25V4.75H8.67004V3.25C8.67004 3.05109 8.59103 2.86032 8.45037 2.71967C8.30972 2.57902 8.11896 2.5 7.92004 2.5C7.72113 2.5 7.53037 2.57902 7.38971 2.71967C7.24906 2.86032 7.17004 3.05109 7.17004 3.25V4.75H6.92004C5.85918 4.75 4.84176 5.17143 4.09162 5.92157C3.34147 6.67172 2.92004 7.68913 2.92004 8.75V9H20.92V8.75Z" fill="#000D26"/>
<path d="M17.58 13.5C18.8131 13.5002 20.0026 13.9561 20.92 14.78V10.5H2.92004V18C2.92004 19.0609 3.34147 20.0783 4.09162 20.8284C4.84176 21.5786 5.85918 22 6.92004 22H14C13.3102 21.2963 12.8438 20.4044 12.6592 19.4364C12.4747 18.4684 12.5803 17.4674 12.9628 16.5592C13.3453 15.651 13.9876 14.8761 14.8091 14.3319C15.6306 13.7876 16.5946 13.4982 17.58 13.5ZM7.92004 19C7.72226 19 7.52892 18.9414 7.36447 18.8315C7.20002 18.7216 7.07185 18.5654 6.99616 18.3827C6.92048 18.2 6.90067 17.9989 6.93926 17.8049C6.97784 17.6109 7.07308 17.4327 7.21294 17.2929C7.35279 17.153 7.53097 17.0578 7.72495 17.0192C7.91893 16.9806 8.12 17.0004 8.30273 17.0761C8.48545 17.1518 8.64163 17.28 8.75151 17.4444C8.86139 17.6089 8.92004 17.8022 8.92004 18C8.92004 18.2652 8.81469 18.5196 8.62715 18.7071C8.43961 18.8946 8.18526 19 7.92004 19ZM7.92004 15C7.72226 15 7.52892 14.9414 7.36447 14.8315C7.20002 14.7216 7.07185 14.5654 6.99616 14.3827C6.92048 14.2 6.90067 13.9989 6.93926 13.8049C6.97784 13.6109 7.07308 13.4327 7.21294 13.2929C7.35279 13.153 7.53097 13.0578 7.72495 13.0192C7.91893 12.9806 8.12 13.0004 8.30273 13.0761C8.48545 13.1518 8.64163 13.28 8.75151 13.4444C8.86139 13.6089 8.92004 13.8022 8.92004 14C8.92004 14.2652 8.81469 14.5196 8.62715 14.7071C8.43961 14.8946 8.18526 15 7.92004 15ZM11.92 15C11.7223 15 11.5289 14.9414 11.3645 14.8315C11.2 14.7216 11.0719 14.5654 10.9962 14.3827C10.9205 14.2 10.9007 13.9989 10.9393 13.8049C10.9778 13.6109 11.0731 13.4327 11.2129 13.2929C11.3528 13.153 11.531 13.0578 11.725 13.0192C11.9189 12.9806 12.12 13.0004 12.3027 13.0761C12.4855 13.1518 12.6416 13.28 12.7515 13.4444C12.8614 13.6089 12.92 13.8022 12.92 14C12.92 14.2652 12.8147 14.5196 12.6272 14.7071C12.4396 14.8946 12.1853 15 11.92 15Z" fill="#000D26"/>
<path d="M17.58 15C16.8877 15 16.211 15.2053 15.6355 15.5899C15.0599 15.9744 14.6113 16.5211 14.3464 17.1606C14.0815 17.8001 14.0122 18.5039 14.1472 19.1828C14.2823 19.8617 14.6156 20.4854 15.1051 20.9749C15.5946 21.4644 16.2182 21.7977 16.8971 21.9327C17.5761 22.0678 18.2798 21.9985 18.9193 21.7336C19.5589 21.4687 20.1055 21.0201 20.4901 20.4445C20.8747 19.8689 21.08 19.1922 21.08 18.5C21.08 17.5717 20.7112 16.6815 20.0548 16.0251C19.3985 15.3687 18.5082 15 17.58 15ZM19.49 20.41C19.4744 20.4294 19.4546 20.4449 19.432 20.4554C19.4095 20.4658 19.3848 20.4708 19.36 20.47C19.3072 20.4692 19.2569 20.4477 19.22 20.41L18.55 19.75C18.2305 20.0092 17.8314 20.1505 17.42 20.15C17.062 20.15 16.712 20.0438 16.4144 19.845C16.1167 19.6461 15.8847 19.3634 15.7477 19.0327C15.6107 18.7019 15.5749 18.338 15.6447 17.9869C15.7146 17.6358 15.887 17.3133 16.1401 17.0601C16.3932 16.807 16.7157 16.6346 17.0668 16.5648C17.418 16.4949 17.7819 16.5308 18.1126 16.6678C18.4433 16.8048 18.726 17.0368 18.9249 17.3344C19.1238 17.6321 19.23 17.982 19.23 18.34C19.2305 18.7514 19.0892 19.1505 18.83 19.47L19.49 20.14C19.5091 20.1569 19.5245 20.1777 19.535 20.2009C19.5455 20.2242 19.5509 20.2495 19.5509 20.275C19.5509 20.3005 19.5455 20.3258 19.535 20.3491C19.5245 20.3723 19.5091 20.3931 19.49 20.41Z" fill="#000D26"/>
</svg>
