<svg width="24" height="24" viewBox="0 0 24 24" fill="none" xmlns="http://www.w3.org/2000/svg">
<path d="M6 11.74L12.56 3.55002C12.6893 3.38887 12.8653 3.27171 13.0639 3.21466C13.2625 3.15761 13.4738 3.16347 13.6689 3.23143C13.8641 3.29939 14.0333 3.42611 14.1535 3.59418C14.2737 3.76225 14.3388 3.96342 14.34 4.17002V10C14.34 10.2652 14.4454 10.5196 14.6329 10.7071C14.8204 10.8947 15.0748 11 15.34 11H17.23C17.4018 11.0131 17.5674 11.0705 17.7105 11.1664C17.8537 11.2623 17.9696 11.3936 18.0471 11.5476C18.1245 11.7015 18.1609 11.8729 18.1527 12.045C18.1444 12.2171 18.0918 12.3842 18 12.53L12.5 20.4C12.3783 20.5744 12.2042 20.7054 12.003 20.774C11.8019 20.8427 11.584 20.8455 11.3811 20.782C11.1782 20.7184 11.0009 20.5919 10.8748 20.4207C10.7487 20.2495 10.6805 20.0426 10.68 19.83V14.37C10.68 14.1048 10.5746 13.8505 10.3871 13.6629C10.1996 13.4754 9.94522 13.37 9.68 13.37H6.78C6.59076 13.3707 6.40523 13.3176 6.24495 13.217C6.08467 13.1164 5.95623 12.9724 5.87455 12.8017C5.79286 12.631 5.76129 12.4406 5.7835 12.2527C5.8057 12.0648 5.88078 11.887 6 11.74Z" fill="#000D26"/>
</svg>
