<svg width="24" height="24" viewBox="0 0 24 24" fill="none" xmlns="http://www.w3.org/2000/svg">
<path d="M13.13 8.66C13.2037 8.59134 13.2628 8.50854 13.3038 8.41654C13.3448 8.32454 13.3668 8.22522 13.3686 8.12452C13.3704 8.02382 13.3518 7.92379 13.3141 7.8304C13.2764 7.73701 13.2203 7.65218 13.149 7.58096C13.0778 7.50974 12.993 7.4536 12.8996 7.41588C12.8062 7.37816 12.7062 7.35963 12.6055 7.36141C12.5048 7.36318 12.4055 7.38523 12.3135 7.42622C12.2215 7.46721 12.1387 7.52631 12.07 7.6L8.47 11.2C8.40221 11.2694 8.34795 11.3507 8.31 11.44C8.27037 11.5315 8.24993 11.6302 8.24993 11.73C8.24993 11.8298 8.27037 11.9285 8.31 12.02C8.34795 12.1093 8.40221 12.1906 8.47 12.26L12.07 15.86C12.2106 16.0005 12.4012 16.0793 12.6 16.0793C12.7988 16.0793 12.9894 16.0005 13.13 15.86C13.2705 15.7194 13.3493 15.5288 13.3493 15.33C13.3493 15.1312 13.2705 14.9406 13.13 14.8L10.81 12.48H16V16C16 17.3261 15.4732 18.5979 14.5355 19.5355C13.5979 20.4732 12.3261 21 11 21C9.67392 21 8.40215 20.4732 7.46447 19.5355C6.52678 18.5979 6 17.3261 6 16V8C6 6.67392 6.52678 5.40215 7.46447 4.46447C8.40215 3.52678 9.67392 3 11 3C12.3261 3 13.5979 3.52678 14.5355 4.46447C15.4732 5.40215 16 6.67392 16 8V11H10.81L13.13 8.66Z" fill="#000D26"/>
<path d="M21.75 11.73C21.7474 11.9281 21.6676 12.1174 21.5275 12.2575C21.3874 12.3976 21.1981 12.4774 21 12.48H16V11H21C21.1947 11.0024 21.3811 11.0795 21.5207 11.2153C21.6602 11.3512 21.7423 11.5354 21.75 11.73Z" fill="#000D26"/>
</svg>
