<svg width="24" height="24" viewBox="0 0 24 24" fill="none" xmlns="http://www.w3.org/2000/svg">
<path d="M17 3H7C5.93913 3 4.92172 3.42143 4.17157 4.17157C3.42143 4.92172 3 5.93913 3 7V17C3 18.0609 3.42143 19.0783 4.17157 19.8284C4.92172 20.5786 5.93913 21 7 21H17C18.0609 21 19.0783 20.5786 19.8284 19.8284C20.5786 19.0783 21 18.0609 21 17V7C21 5.93913 20.5786 4.92172 19.8284 4.17157C19.0783 3.42143 18.0609 3 17 3ZM16 12.75H13.81L15.36 14.3C15.5005 14.4406 15.5793 14.6312 15.5793 14.83C15.5793 15.0288 15.5005 15.2194 15.36 15.36C15.2172 15.4972 15.028 15.5757 14.83 15.58C14.6316 15.5777 14.4417 15.4989 14.3 15.36L12.75 13.81V16C12.75 16.1989 12.671 16.3897 12.5303 16.5303C12.3897 16.671 12.1989 16.75 12 16.75C11.8011 16.75 11.6103 16.671 11.4697 16.5303C11.329 16.3897 11.25 16.1989 11.25 16V13.81L9.7 15.36C9.55828 15.4989 9.36841 15.5777 9.17 15.58C8.972 15.5757 8.78285 15.4972 8.64 15.36C8.49955 15.2194 8.42066 15.0288 8.42066 14.83C8.42066 14.6312 8.49955 14.4406 8.64 14.3L10.19 12.75H8C7.80109 12.75 7.61032 12.671 7.46967 12.5303C7.32902 12.3897 7.25 12.1989 7.25 12C7.25 11.8011 7.32902 11.6103 7.46967 11.4697C7.61032 11.329 7.80109 11.25 8 11.25H10.19L8.64 9.7C8.50752 9.55783 8.4354 9.36978 8.43882 9.17548C8.44225 8.98118 8.52097 8.79579 8.65838 8.65838C8.79579 8.52097 8.98118 8.44225 9.17548 8.43882C9.36978 8.4354 9.55783 8.50752 9.7 8.64L11.25 10.19V8C11.25 7.80109 11.329 7.61032 11.4697 7.46967C11.6103 7.32902 11.8011 7.25 12 7.25C12.1989 7.25 12.3897 7.32902 12.5303 7.46967C12.671 7.61032 12.75 7.80109 12.75 8V10.19L14.3 8.64C14.4422 8.50752 14.6302 8.4354 14.8245 8.43882C15.0188 8.44225 15.2042 8.52097 15.3416 8.65838C15.479 8.79579 15.5577 8.98118 15.5612 9.17548C15.5646 9.36978 15.4925 9.55783 15.36 9.7L13.81 11.25H16C16.1989 11.25 16.3897 11.329 16.5303 11.4697C16.671 11.6103 16.75 11.8011 16.75 12C16.75 12.1989 16.671 12.3897 16.5303 12.5303C16.3897 12.671 16.1989 12.75 16 12.75Z" fill="#000D26"/>
</svg>
