<svg width="24" height="24" viewBox="0 0 24 24" fill="none" xmlns="http://www.w3.org/2000/svg">
<path d="M17.71 13.78C17.5099 13.5834 17.2406 13.4732 16.96 13.4732C16.6795 13.4732 16.4101 13.5834 16.21 13.78L15.46 14.53C15.2599 14.7267 14.9906 14.8369 14.71 14.8369C14.4295 14.8369 14.1601 14.7267 13.96 14.53L9.47003 10C9.27338 9.79991 9.16318 9.53058 9.16318 9.25002C9.16318 8.96946 9.27338 8.70012 9.47003 8.50002L10.22 7.75002C10.4167 7.54991 10.5269 7.28058 10.5269 7.00002C10.5269 6.71946 10.4167 6.45012 10.22 6.25002L8.00003 4.05002C7.90227 3.95024 7.78558 3.87097 7.65679 3.81685C7.52801 3.76274 7.38972 3.73486 7.25003 3.73486C7.11034 3.73486 6.97205 3.76274 6.84327 3.81685C6.71448 3.87097 6.59779 3.95024 6.50003 4.05002L5.00003 5.54002C4.60335 5.93245 4.28843 6.39966 4.07351 6.91461C3.85859 7.42956 3.74792 7.98202 3.74792 8.54002C3.74792 9.09801 3.85859 9.65047 4.07351 10.1654C4.28843 10.6804 4.60335 11.1476 5.00003 11.54L12.47 19C12.8625 19.3967 13.3297 19.7116 13.8446 19.9265C14.3596 20.1415 14.912 20.2521 15.47 20.2521C16.028 20.2521 16.5805 20.1415 17.0954 19.9265C17.6104 19.7116 18.0776 19.3967 18.47 19L20 17.53C20.1045 17.4318 20.1877 17.3133 20.2446 17.1817C20.3015 17.0502 20.3308 16.9084 20.3308 16.765C20.3308 16.6217 20.3015 16.4799 20.2446 16.3483C20.1877 16.2167 20.1045 16.0982 20 16L17.71 13.78Z" fill="#000D26"/>
<path d="M21.78 5.48997C21.7803 5.39019 21.7599 5.29144 21.72 5.19997C21.6809 5.12305 21.6265 5.05498 21.56 4.99997L19.45 2.84997C19.3078 2.71749 19.1198 2.64537 18.9255 2.6488C18.7312 2.65223 18.5458 2.73094 18.4084 2.86835C18.271 3.00576 18.1923 3.19115 18.1888 3.38545C18.1854 3.57975 18.2575 3.7678 18.39 3.90997L19.22 4.73997H14C13.8011 4.73997 13.6103 4.81899 13.4697 4.95964C13.329 5.1003 13.25 5.29106 13.25 5.48997C13.25 5.68889 13.329 5.87965 13.4697 6.0203C13.6103 6.16096 13.8011 6.23997 14 6.23997H19.24L18.41 7.07997C18.3392 7.14892 18.283 7.23134 18.2446 7.32236C18.2062 7.41339 18.1864 7.51118 18.1864 7.60997C18.1864 7.70877 18.2062 7.80656 18.2446 7.89759C18.283 7.98861 18.3392 8.07103 18.41 8.13997C18.5517 8.27886 18.7416 8.35767 18.94 8.35997C19.138 8.35566 19.3272 8.27715 19.47 8.13997L21.56 5.99997C21.6312 5.93342 21.6859 5.85127 21.72 5.75997C21.7573 5.6747 21.7776 5.58301 21.78 5.48997Z" fill="#000D26"/>
</svg>
