<svg width="24" height="24" viewBox="0 0 24 24" fill="none" xmlns="http://www.w3.org/2000/svg">
<path d="M9.76 16.87C9.66121 16.8722 9.56304 16.8538 9.47178 16.8159C9.38052 16.778 9.29817 16.7215 9.23 16.65L5.47 12.9C5.32955 12.7593 5.25066 12.5687 5.25066 12.37C5.25066 12.1712 5.32955 11.9806 5.47 11.84C5.53894 11.7692 5.62136 11.713 5.71238 11.6746C5.80341 11.6362 5.9012 11.6164 6 11.6164C6.09879 11.6164 6.19658 11.6362 6.28761 11.6746C6.37863 11.713 6.46105 11.7692 6.53 11.84L9.76 15.06L17.47 7.34997C17.6122 7.21749 17.8002 7.14537 17.9945 7.1488C18.1888 7.15223 18.3742 7.23094 18.5116 7.36835C18.649 7.50576 18.7277 7.69115 18.7312 7.88545C18.7346 8.07975 18.6625 8.2678 18.53 8.40997L10.29 16.65C10.2208 16.7201 10.1382 16.7757 10.0472 16.8134C9.95618 16.8512 9.85854 16.8704 9.76 16.87Z" fill="#000D26"/>
</svg>
