<svg width="24" height="24" viewBox="0 0 24 24" fill="none" xmlns="http://www.w3.org/2000/svg">
<path d="M21.8 4.12999C21.667 3.99809 21.4873 3.92407 21.3 3.92407C21.1127 3.92407 20.933 3.99809 20.8 4.12999L16.41 8.52999V8.34999C16.4074 7.4252 16.0388 6.53903 15.3849 5.8851C14.731 5.23117 13.8448 4.86263 12.92 4.85999H5.49C4.56439 4.85999 3.6767 5.22768 3.0222 5.88219C2.3677 6.53669 2 7.42438 2 8.34999V15.79C2 16.7156 2.3677 17.6033 3.0222 18.2578C3.6767 18.9123 4.56439 19.28 5.49 19.28H5.66L4.06 20.88C3.9281 21.013 3.85408 21.1927 3.85408 21.38C3.85408 21.5673 3.9281 21.747 4.06 21.88C4.19563 22.0071 4.37413 22.0785 4.56 22.08C4.74321 22.08 4.91913 22.0082 5.05 21.88L21.8 5.11999C21.9289 4.98745 22.001 4.80987 22.001 4.62499C22.001 4.44011 21.9289 4.26253 21.8 4.12999Z" fill="#000D26"/>
<path d="M21.57 7.69997C21.4415 7.64994 21.3012 7.63843 21.1662 7.66684C21.0312 7.69526 20.9075 7.76237 20.81 7.85997L10.58 18.09C10.4841 18.1878 10.419 18.3117 10.3928 18.4461C10.3666 18.5806 10.3804 18.7199 10.4326 18.8466C10.4847 18.9733 10.5729 19.0819 10.6863 19.1589C10.7996 19.236 10.933 19.278 11.07 19.28H12.93C13.8548 19.2773 14.741 18.9088 15.3949 18.2549C16.0488 17.6009 16.4174 16.7148 16.42 15.79V15.43L18.9 17.91C19.1526 18.1666 19.476 18.3421 19.8289 18.414C20.1817 18.4858 20.548 18.4508 20.8808 18.3134C21.2137 18.1759 21.4979 17.9423 21.6973 17.6425C21.8967 17.3426 22.0021 16.9901 22 16.63V8.34997C21.9995 8.2115 21.9586 8.07619 21.8822 7.9607C21.8058 7.84521 21.6973 7.75458 21.57 7.69997Z" fill="#000D26"/>
</svg>
