<svg width="24" height="24" viewBox="0 0 24 24" fill="none" xmlns="http://www.w3.org/2000/svg">
<path d="M12 9.5C13.6569 9.5 15 8.15685 15 6.5C15 4.84315 13.6569 3.5 12 3.5C10.3431 3.5 9 4.84315 9 6.5C9 8.15685 10.3431 9.5 12 9.5Z" fill="#000D26"/>
<path d="M12.5 16.25C12.5001 15.0548 12.9335 13.9001 13.72 13C13.7559 12.9562 13.7786 12.9032 13.7856 12.847C13.7925 12.7908 13.7835 12.7338 13.7594 12.6826C13.7354 12.6313 13.6973 12.5879 13.6496 12.5574C13.6019 12.5269 13.5466 12.5105 13.49 12.51H6.49C6.2319 12.5034 5.97506 12.5483 5.73455 12.6422C5.49404 12.7361 5.27468 12.877 5.08935 13.0568C4.90401 13.2365 4.75641 13.4515 4.65521 13.689C4.55401 13.9265 4.50125 14.1819 4.5 14.44V18.06C4.5 18.5746 4.70439 19.068 5.06821 19.4318C5.43203 19.7957 5.92548 20 6.44 20H13.49C13.5466 19.9996 13.6019 19.9832 13.6496 19.9527C13.6973 19.9222 13.7354 19.8788 13.7594 19.8275C13.7835 19.7763 13.7925 19.7193 13.7856 19.6631C13.7786 19.6069 13.7559 19.5539 13.72 19.51C12.9313 18.6074 12.4977 17.4487 12.5 16.25Z" fill="#000D26"/>
<path d="M17.5 12.75C16.8078 12.75 16.1311 12.9553 15.5555 13.3399C14.9799 13.7244 14.5313 14.2711 14.2664 14.9106C14.0015 15.5501 13.9322 16.2539 14.0673 16.9328C14.2023 17.6117 14.5356 18.2354 15.0251 18.7249C15.5146 19.2144 16.1383 19.5477 16.8172 19.6827C17.4961 19.8178 18.1999 19.7485 18.8394 19.4836C19.4789 19.2187 20.0256 18.7701 20.4101 18.1945C20.7947 17.6189 21 16.9422 21 16.25C21 15.3217 20.6313 14.4315 19.9749 13.7751C19.3185 13.1187 18.4283 12.75 17.5 12.75ZM19 17H18.25V17.75C18.25 17.9489 18.171 18.1397 18.0303 18.2803C17.8897 18.421 17.6989 18.5 17.5 18.5C17.3011 18.5 17.1103 18.421 16.9697 18.2803C16.829 18.1397 16.75 17.9489 16.75 17.75V17H16C15.8011 17 15.6103 16.921 15.4697 16.7803C15.329 16.6397 15.25 16.4489 15.25 16.25C15.25 16.0511 15.329 15.8603 15.4697 15.7197C15.6103 15.579 15.8011 15.5 16 15.5H16.75V14.75C16.75 14.5511 16.829 14.3603 16.9697 14.2197C17.1103 14.079 17.3011 14 17.5 14C17.6989 14 17.8897 14.079 18.0303 14.2197C18.171 14.3603 18.25 14.5511 18.25 14.75V15.5H19C19.1989 15.5 19.3897 15.579 19.5303 15.7197C19.671 15.8603 19.75 16.0511 19.75 16.25C19.75 16.4489 19.671 16.6397 19.5303 16.7803C19.3897 16.921 19.1989 17 19 17Z" fill="#000D26"/>
</svg>
