<svg width="24" height="24" viewBox="0 0 24 24" fill="none" xmlns="http://www.w3.org/2000/svg">
<path d="M13.22 10.76C12.6896 10.76 12.1809 10.5493 11.8058 10.1742C11.4307 9.79914 11.22 9.29043 11.22 8.76V4H9C8.20435 4 7.44129 4.31607 6.87868 4.87868C6.31607 5.44129 6 6.20435 6 7V17C6 17.7956 6.31607 18.5587 6.87868 19.1213C7.44129 19.6839 8.20435 20 9 20H15C15.7956 20 16.5587 19.6839 17.1213 19.1213C17.6839 18.5587 18 17.7956 18 17V10.76H13.22ZM13.73 15.51H10.27C10.0711 15.51 9.88032 15.431 9.73967 15.2903C9.59902 15.1497 9.52 14.9589 9.52 14.76C9.52 14.5611 9.59902 14.3703 9.73967 14.2297C9.88032 14.089 10.0711 14.01 10.27 14.01H13.73C13.9289 14.01 14.1197 14.089 14.2603 14.2297C14.401 14.3703 14.48 14.5611 14.48 14.76C14.48 14.9589 14.401 15.1497 14.2603 15.2903C14.1197 15.431 13.9289 15.51 13.73 15.51Z" fill="#000D26"/>
<path d="M13.92 9.25998H17.73C17.7549 9.26441 17.7806 9.26011 17.8027 9.24783C17.8248 9.23554 17.842 9.21601 17.8514 9.19253C17.8608 9.16905 17.8618 9.14305 17.8542 9.1189C17.8467 9.09476 17.8311 9.07395 17.81 9.05998L13 4.18998C12.9827 4.17451 12.9613 4.16438 12.9383 4.16083C12.9154 4.15729 12.8919 4.16047 12.8708 4.16999C12.8496 4.17952 12.8316 4.19498 12.8191 4.2145C12.8065 4.23402 12.7999 4.25677 12.8 4.27998V8.08998C12.8022 8.39108 12.9194 8.67997 13.1276 8.89748C13.3358 9.11499 13.6193 9.24468 13.92 9.25998Z" fill="#000D26"/>
</svg>
