<svg width="24" height="24" viewBox="0 0 24 24" fill="none" xmlns="http://www.w3.org/2000/svg">
<path d="M20 10.5V15.63C19.7764 15.4916 19.5288 15.3966 19.27 15.35C19.1091 14.7794 18.7608 14.2795 18.2812 13.9308C17.8016 13.5822 17.2186 13.4052 16.6262 13.4283C16.0337 13.4514 15.4663 13.6733 15.0153 14.0582C14.5643 14.4431 14.256 14.9686 14.14 15.55C13.8829 15.6801 13.6557 15.8622 13.4726 16.0847C13.2896 16.3072 13.1548 16.5653 13.0768 16.8427C12.9987 17.12 12.9792 17.4105 13.0193 17.6958C13.0595 17.9811 13.1585 18.255 13.31 18.5H6C5.46957 18.5 4.96086 18.2893 4.58579 17.9142C4.21071 17.5392 4 17.0305 4 16.5V7.50003C4 6.9696 4.21071 6.46089 4.58579 6.08582C4.96086 5.71075 5.46957 5.50003 6 5.50003H10.17C10.4332 5.49851 10.6941 5.54896 10.9378 5.64849C11.1815 5.74802 11.4031 5.89467 11.59 6.08003L13.41 7.91003C13.5961 8.0972 13.8173 8.2457 14.061 8.34696C14.3047 8.44822 14.5661 8.50024 14.83 8.50003H18C18.5304 8.50003 19.0391 8.71075 19.4142 9.08582C19.7893 9.46089 20 9.9696 20 10.5Z" fill="#000D26"/>
<path d="M18.91 16.3199H18.34C18.345 16.23 18.345 16.1399 18.34 16.0499C18.3576 15.8245 18.3285 15.5978 18.2543 15.3842C18.1801 15.1705 18.0626 14.9745 17.909 14.8085C17.7555 14.6425 17.5693 14.51 17.3621 14.4194C17.1549 14.3288 16.9311 14.282 16.705 14.282C16.4788 14.282 16.2551 14.3288 16.0479 14.4194C15.8407 14.51 15.6545 14.6425 15.5009 14.8085C15.3474 14.9745 15.2299 15.1705 15.1557 15.3842C15.0815 15.5978 15.0523 15.8245 15.07 16.0499C15.0602 16.1397 15.0602 16.2302 15.07 16.3199C14.7809 16.3199 14.5037 16.4348 14.2992 16.6392C14.0948 16.8436 13.98 17.1209 13.98 17.4099C13.98 17.699 14.0948 17.9763 14.2992 18.1807C14.5037 18.3851 14.7809 18.4999 15.07 18.4999H18.89C19.1791 18.4999 19.4563 18.3851 19.6607 18.1807C19.8652 17.9763 19.98 17.699 19.98 17.4099C19.98 17.1209 19.8652 16.8436 19.6607 16.6392C19.4563 16.4348 19.1791 16.3199 18.89 16.3199H18.91Z" fill="#000D26"/>
</svg>
