<svg width="24" height="24" viewBox="0 0 24 24" fill="none" xmlns="http://www.w3.org/2000/svg">
<path d="M15.89 8H15.15V6.4C15.15 5.98634 15.0685 5.57672 14.9102 5.19455C14.7519 4.81237 14.5199 4.46512 14.2274 4.17261C13.9348 3.88011 13.5876 3.64808 13.2054 3.48978C12.8232 3.33148 12.4136 3.25 12 3.25C11.5863 3.25 11.1767 3.33148 10.7945 3.48978C10.4123 3.64808 10.0651 3.88011 9.77258 4.17261C9.48007 4.46512 9.24805 4.81237 9.08974 5.19455C8.93144 5.57672 8.84996 5.98634 8.84996 6.4V8H8.10996C7.81709 7.99598 7.52691 8.05634 7.25994 8.1768C6.99296 8.29727 6.7557 8.47491 6.56493 8.69716C6.37415 8.91941 6.23452 9.18085 6.15591 9.463C6.07729 9.74515 6.06161 10.0411 6.10996 10.33L7.43996 18.33C7.51878 18.8014 7.76382 19.229 8.1307 19.5354C8.49758 19.8417 8.96204 20.0065 9.43996 20H14.56C15.0379 20.0065 15.5023 19.8417 15.8692 19.5354C16.2361 19.229 16.4811 18.8014 16.56 18.33L17.89 10.33C17.9383 10.0411 17.9226 9.74515 17.844 9.463C17.7654 9.18085 17.6258 8.91941 17.435 8.69716C17.2442 8.47491 17.007 8.29727 16.74 8.1768C16.473 8.05634 16.1828 7.99598 15.89 8ZM10.35 6.4C10.35 6.18332 10.3926 5.96876 10.4756 5.76857C10.5585 5.56839 10.68 5.38649 10.8332 5.23327C10.9865 5.08006 11.1683 4.95852 11.3685 4.8756C11.5687 4.79268 11.7833 4.75 12 4.75C12.2166 4.75 12.4312 4.79268 12.6314 4.8756C12.8316 4.95852 13.0135 5.08006 13.1667 5.23327C13.3199 5.38649 13.4414 5.56839 13.5244 5.76857C13.6073 5.96876 13.65 6.18332 13.65 6.4V8H10.35V6.4ZM15.35 12.62L11.44 16.53C11.3707 16.6001 11.2882 16.6557 11.1972 16.6935C11.1061 16.7312 11.0085 16.7505 10.91 16.75C10.8113 16.751 10.7135 16.7321 10.6224 16.6943C10.5313 16.6565 10.4489 16.6006 10.38 16.53L8.61996 14.75C8.54628 14.6813 8.48718 14.5985 8.44618 14.5065C8.40519 14.4145 8.38315 14.3152 8.38137 14.2145C8.3796 14.1138 8.39812 14.0138 8.43584 13.9204C8.47356 13.827 8.52971 13.7422 8.60093 13.671C8.67214 13.5997 8.75698 13.5436 8.85037 13.5059C8.94375 13.4682 9.04378 13.4496 9.14449 13.4514C9.24519 13.4532 9.3445 13.4752 9.4365 13.5162C9.5285 13.5572 9.6113 13.6163 9.67996 13.69L10.94 14.94L14.32 11.56C14.3886 11.4863 14.4714 11.4272 14.5634 11.3862C14.6554 11.3452 14.7547 11.3232 14.8554 11.3214C14.9561 11.3196 15.0562 11.3382 15.1496 11.3759C15.2429 11.4136 15.3278 11.4697 15.399 11.541C15.4702 11.6122 15.5264 11.697 15.5641 11.7904C15.6018 11.8838 15.6203 11.9838 15.6186 12.0845C15.6168 12.1852 15.5947 12.2845 15.5537 12.3765C15.5128 12.4685 15.4537 12.5513 15.38 12.62H15.35Z" fill="#000D26"/>
</svg>
