<svg width="24" height="24" viewBox="0 0 24 24" fill="none" xmlns="http://www.w3.org/2000/svg">
<path d="M22 11.2499H19.7C19.6564 10.7558 19.566 10.267 19.43 9.78995C19.3926 9.66399 19.3232 9.54987 19.2286 9.45873C19.1339 9.3676 19.0173 9.30255 18.89 9.26995C18.7645 9.23929 18.6331 9.24159 18.5087 9.27663C18.3843 9.31167 18.2711 9.37826 18.18 9.46995L9.47001 18.1799C9.37832 18.271 9.31173 18.3843 9.27669 18.5087C9.24165 18.6331 9.23935 18.7644 9.27001 18.8899C9.30261 19.0172 9.36766 19.1339 9.45879 19.2285C9.54993 19.3232 9.66405 19.3926 9.79001 19.4299C10.267 19.5659 10.7559 19.6563 11.25 19.6999V21.9999C11.25 22.1989 11.329 22.3896 11.4697 22.5303C11.6103 22.6709 11.8011 22.7499 12 22.7499C12.1989 22.7499 12.3897 22.6709 12.5303 22.5303C12.671 22.3896 12.75 22.1989 12.75 21.9999V19.7099C14.5507 19.5446 16.2368 18.754 17.5154 17.4754C18.7941 16.1967 19.5847 14.5107 19.75 12.7099H22C22.1989 12.7099 22.3897 12.6309 22.5303 12.4903C22.671 12.3496 22.75 12.1589 22.75 11.9599C22.75 11.761 22.671 11.5703 22.5303 11.4296C22.3897 11.289 22.1989 11.2099 22 11.2099V11.2499Z" fill="#000D26"/>
<path d="M21.53 2.47C21.3894 2.32955 21.1988 2.25066 21 2.25066C20.8012 2.25066 20.6106 2.32955 20.47 2.47L16.9 6C15.7276 5.00694 14.2795 4.39628 12.75 4.25V2C12.75 1.80109 12.671 1.61032 12.5303 1.46967C12.3897 1.32902 12.1989 1.25 12 1.25C11.8011 1.25 11.6103 1.32902 11.4697 1.46967C11.329 1.61032 11.25 1.80109 11.25 2V4.29C9.44926 4.45531 7.76325 5.24591 6.48458 6.52458C5.20591 7.80325 4.41531 9.48926 4.25 11.29H2C1.80109 11.29 1.61032 11.369 1.46967 11.5097C1.32902 11.6503 1.25 11.8411 1.25 12.04C1.25 12.2389 1.32902 12.4297 1.46967 12.5703C1.61032 12.711 1.80109 12.79 2 12.79H4.29C4.43277 14.301 5.02882 15.7336 6 16.9L2.47 20.47C2.32955 20.6106 2.25066 20.8012 2.25066 21C2.25066 21.1988 2.32955 21.3894 2.47 21.53C2.61063 21.6705 2.80125 21.7493 3 21.7493C3.19875 21.7493 3.38937 21.6705 3.53 21.53L21.53 3.53C21.6705 3.38937 21.7493 3.19875 21.7493 3C21.7493 2.80125 21.6705 2.61063 21.53 2.47ZM10.29 10.29C10.6504 9.93026 11.1154 9.69391 11.6185 9.61487C12.1215 9.53582 12.6367 9.61813 13.09 9.85L9.85 13.09C9.61813 12.6367 9.53582 12.1215 9.61487 11.6185C9.69391 11.1154 9.93026 10.6504 10.29 10.29Z" fill="#000D26"/>
</svg>
