<svg width="24" height="24" viewBox="0 0 24 24" fill="none" xmlns="http://www.w3.org/2000/svg">
<path d="M17 8.25H9.75V4.64C9.75 4.40396 9.84377 4.17758 10.0107 4.01067C10.1776 3.84377 10.404 3.75 10.64 3.75H13.36C13.596 3.75 13.8224 3.84377 13.9893 4.01067C14.1562 4.17758 14.25 4.40396 14.25 4.64V6C14.25 6.19891 14.329 6.38968 14.4697 6.53033C14.6103 6.67098 14.8011 6.75 15 6.75C15.1989 6.75 15.3897 6.67098 15.5303 6.53033C15.671 6.38968 15.75 6.19891 15.75 6V4.64C15.75 4.32614 15.6882 4.01535 15.5681 3.72539C15.448 3.43542 15.2719 3.17195 15.05 2.95001C14.8281 2.72808 14.5646 2.55204 14.2746 2.43193C13.9846 2.31182 13.6739 2.25 13.36 2.25H10.64C10.0061 2.25 9.39823 2.5018 8.95002 2.95001C8.5018 3.39823 8.25 4.00613 8.25 4.64V8.25H7C6.00544 8.25 5.05161 8.64509 4.34835 9.34835C3.64509 10.0516 3.25 11.0054 3.25 12V18C3.25 18.9946 3.64509 19.9484 4.34835 20.6517C5.05161 21.3549 6.00544 21.75 7 21.75H17C17.9946 21.75 18.9484 21.3549 19.6517 20.6517C20.3549 19.9484 20.75 18.9946 20.75 18V12C20.75 11.0054 20.3549 10.0516 19.6517 9.34835C18.9484 8.64509 17.9946 8.25 17 8.25ZM12 17.48C11.5067 17.482 11.0239 17.3374 10.6129 17.0645C10.2019 16.7917 9.88117 16.4029 9.69147 15.9475C9.50177 15.4921 9.45162 14.9906 9.54738 14.5067C9.64314 14.0227 9.88049 13.5782 10.2293 13.2293C10.5782 12.8805 11.0227 12.6431 11.5067 12.5474C11.9906 12.4516 12.4921 12.5018 12.9475 12.6915C13.4029 12.8812 13.7917 13.2019 14.0645 13.6129C14.3374 14.0239 14.482 14.5067 14.48 15C14.48 15.3257 14.4159 15.6482 14.2912 15.9491C14.1666 16.2499 13.9839 16.5233 13.7536 16.7536C13.5233 16.9839 13.2499 17.1666 12.9491 17.2912C12.6482 17.4159 12.3257 17.48 12 17.48Z" fill="#000D26"/>
</svg>
