<svg width="24" height="24" viewBox="0 0 24 24" fill="none" xmlns="http://www.w3.org/2000/svg">
<path d="M8.96001 4.5H5.96001C5.13158 4.5 4.46001 5.17157 4.46001 6V9C4.46001 9.82843 5.13158 10.5 5.96001 10.5H8.96001C9.78843 10.5 10.46 9.82843 10.46 9V6C10.46 5.17157 9.78843 4.5 8.96001 4.5Z" fill="#000D26"/>
<path d="M10.46 16.5C10.46 14.8431 9.11686 13.5 7.46001 13.5C5.80315 13.5 4.46001 14.8431 4.46001 16.5C4.46001 18.1569 5.80315 19.5 7.46001 19.5C9.11686 19.5 10.46 18.1569 10.46 16.5Z" fill="#000D26"/>
<path d="M17.96 13.5H14.96C14.1316 13.5 13.46 14.1716 13.46 15V18C13.46 18.8284 14.1316 19.5 14.96 19.5H17.96C18.7884 19.5 19.46 18.8284 19.46 18V15C19.46 14.1716 18.7884 13.5 17.96 13.5Z" fill="#000D26"/>
<path d="M16 5.21997L13.71 9.21997C13.6484 9.32666 13.616 9.44772 13.6162 9.57092C13.6164 9.69412 13.6491 9.81509 13.7109 9.92161C13.7728 10.0281 13.8617 10.1164 13.9687 10.1776C14.0756 10.2388 14.1968 10.2706 14.32 10.27H18.89C19.0132 10.2706 19.1344 10.2388 19.2413 10.1776C19.3483 10.1164 19.4372 10.0281 19.4991 9.92161C19.5609 9.81509 19.5936 9.69412 19.5938 9.57092C19.594 9.44772 19.5616 9.32666 19.5 9.21997L17.21 5.21997C17.1484 5.11413 17.0601 5.02629 16.9539 4.96525C16.8478 4.9042 16.7275 4.87207 16.605 4.87207C16.4825 4.87207 16.3622 4.9042 16.2561 4.96525C16.1499 5.02629 16.0616 5.11413 16 5.21997Z" fill="#000D26"/>
</svg>
