<svg width="24" height="24" viewBox="0 0 24 24" fill="none" xmlns="http://www.w3.org/2000/svg">
<path d="M19 6.65993L12.92 3.14993C12.6406 2.98745 12.3232 2.90186 12 2.90186C11.6768 2.90186 11.3594 2.98745 11.08 3.14993L5 6.65993C4.69626 6.83529 4.44398 7.08744 4.26846 7.39109C4.09294 7.69474 4.00036 8.0392 4 8.38993C3.99901 10.8484 4.64543 13.2638 5.87423 15.3931C7.10304 17.5225 8.8709 19.2907 11 20.5199L11.5 20.8099C11.652 20.8977 11.8245 20.9439 12 20.9439C12.1755 20.9439 12.348 20.8977 12.5 20.8099L13 20.5199C15.1291 19.2907 16.897 17.5225 18.1258 15.3931C19.3546 13.2638 20.001 10.8484 20 8.38993C19.9996 8.0392 19.9071 7.69474 19.7315 7.39109C19.556 7.08744 19.3037 6.83529 19 6.65993ZM16.53 9.52993L11.72 14.3399C11.5783 14.4788 11.3884 14.5576 11.19 14.5599C10.992 14.5556 10.8028 14.4771 10.66 14.3399L8.47 12.1499C8.32955 12.0093 8.25066 11.8187 8.25066 11.6199C8.25066 11.4212 8.32955 11.2306 8.47 11.0899C8.53895 11.0192 8.62136 10.9629 8.71239 10.9245C8.80341 10.8861 8.90121 10.8664 9 10.8664C9.09879 10.8664 9.19659 10.8861 9.28761 10.9245C9.37864 10.9629 9.46105 11.0192 9.53 11.0899L11.19 12.7499L15.47 8.46993C15.6122 8.33745 15.8002 8.26532 15.9945 8.26875C16.1888 8.27218 16.3742 8.35089 16.5116 8.48831C16.649 8.62572 16.7277 8.8111 16.7312 9.0054C16.7346 9.19971 16.6625 9.38775 16.53 9.52993Z" fill="#000D26"/>
</svg>
