<svg width="24" height="24" viewBox="0 0 24 24" fill="none" xmlns="http://www.w3.org/2000/svg">
<path d="M11.43 12L9.43 10C9.23335 9.79991 9.12315 9.53058 9.12315 9.25002C9.12315 8.96946 9.23335 8.70012 9.43 8.50002L10.18 7.75002C10.3767 7.54991 10.4868 7.28058 10.4868 7.00002C10.4868 6.71946 10.3767 6.45012 10.18 6.25002L8 4.05002C7.90224 3.95024 7.78555 3.87097 7.65676 3.81685C7.52798 3.76274 7.38969 3.73486 7.25 3.73486C7.11031 3.73486 6.97202 3.76274 6.84324 3.81685C6.71445 3.87097 6.59776 3.95024 6.5 4.05002L5 5.54002C4.60332 5.93245 4.2884 6.39966 4.07348 6.91461C3.85856 7.42956 3.74789 7.98202 3.74789 8.54002C3.74789 9.09801 3.85856 9.65047 4.07348 10.1654C4.2884 10.6804 4.60332 11.1476 5 11.54L8.44 15" fill="#000D26"/>
<path d="M11.19 17.75L12.47 19C12.8624 19.3966 13.3297 19.7116 13.8446 19.9265C14.3596 20.1414 14.912 20.2521 15.47 20.2521C16.028 20.2521 16.5805 20.1414 17.0954 19.9265C17.6104 19.7116 18.0776 19.3966 18.47 19L20 17.53C20.1044 17.4318 20.1877 17.3133 20.2446 17.1817C20.3014 17.0501 20.3308 16.9083 20.3308 16.765C20.3308 16.6216 20.3014 16.4798 20.2446 16.3482C20.1877 16.2167 20.1044 16.0981 20 16L17.76 13.75C17.5599 13.5533 17.2906 13.4431 17.01 13.4431C16.7295 13.4431 16.4601 13.5533 16.26 13.75L15.51 14.5C15.3457 14.6781 15.1223 14.7904 14.8813 14.8162C14.6404 14.8419 14.3983 14.7793 14.2 14.64C14.1037 14.5737 13.9877 14.5425 13.8712 14.5516C13.7547 14.5607 13.6448 14.6096 13.56 14.69L11.24 17.02C11.1867 17.0632 11.1429 17.117 11.1112 17.1779C11.0796 17.2388 11.0609 17.3056 11.0562 17.3741C11.0515 17.4426 11.061 17.5113 11.084 17.576C11.107 17.6406 11.1431 17.6999 11.19 17.75Z" fill="#000D26"/>
<path d="M18.44 5.56006L4.94 19.0601" stroke="#000D26" stroke-width="1.5" stroke-linecap="round" stroke-linejoin="round"/>
</svg>
