<svg width="24" height="24" viewBox="0 0 24 24" fill="none" xmlns="http://www.w3.org/2000/svg">
<path d="M12 3C10.22 3 8.47991 3.52784 6.99987 4.51677C5.51983 5.50571 4.36628 6.91131 3.68509 8.55585C3.0039 10.2004 2.82567 12.01 3.17294 13.7558C3.5202 15.5016 4.37737 17.1053 5.63604 18.364C6.89472 19.6226 8.49836 20.4798 10.2442 20.8271C11.99 21.1743 13.7996 20.9961 15.4442 20.3149C17.0887 19.6337 18.4943 18.4802 19.4832 17.0001C20.4722 15.5201 21 13.78 21 12C21 9.61305 20.0518 7.32387 18.364 5.63604C16.6761 3.94821 14.387 3 12 3ZM16.07 16.07C15.3012 16.8401 14.3297 17.3762 13.2684 17.6162C12.207 17.8561 11.0994 17.7899 10.0741 17.4253C9.04888 17.0608 8.14813 16.4128 7.47652 15.5566C6.80492 14.7005 6.39003 13.6713 6.28006 12.5888C6.17009 11.5062 6.36956 10.4146 6.85529 9.44093C7.34102 8.46722 8.09307 7.65133 9.02407 7.08804C9.95506 6.52475 11.0268 6.2372 12.1147 6.25879C13.2026 6.28038 14.2621 6.61022 15.17 7.21C15.2326 7.04722 15.3499 6.91134 15.5018 6.82573C15.6538 6.74011 15.8308 6.71011 16.0024 6.74089C16.1741 6.77167 16.3296 6.8613 16.4424 6.99437C16.5551 7.12744 16.6179 7.29562 16.62 7.47V8.92C16.6174 9.11811 16.5376 9.30737 16.3975 9.44747C16.2574 9.58756 16.0681 9.66741 15.87 9.67H14.42C14.2529 9.68169 14.0868 9.63635 13.9488 9.5414C13.8109 9.44645 13.7092 9.3075 13.6604 9.14726C13.6117 8.98703 13.6187 8.81499 13.6804 8.65928C13.7421 8.50356 13.8547 8.37337 14 8.29C13.176 7.84425 12.2273 7.68468 11.3027 7.83633C10.3782 7.98798 9.5302 8.44226 8.89174 9.12791C8.25328 9.81355 7.86052 10.6918 7.77506 11.6247C7.68961 12.5577 7.91631 13.4926 8.41959 14.2829C8.92287 15.0731 9.67425 15.6739 10.5558 15.9909C11.4374 16.308 12.3993 16.3234 13.2906 16.0348C14.1819 15.7461 14.9522 15.1698 15.4806 14.3961C16.0089 13.6224 16.2655 12.6952 16.21 11.76C16.1994 11.5611 16.2682 11.3661 16.4014 11.218C16.5345 11.0698 16.7211 10.9806 16.92 10.97C17.1189 10.9594 17.3139 11.0282 17.462 11.1614C17.6102 11.2945 17.6994 11.4811 17.71 11.68C17.7577 12.4856 17.6364 13.2923 17.354 14.0483C17.0716 14.8043 16.6342 15.493 16.07 16.07Z" fill="#000D26"/>
</svg>
