<svg width="24" height="24" viewBox="0 0 24 24" fill="none" xmlns="http://www.w3.org/2000/svg">
<path d="M12 3C10.22 3 8.47991 3.52784 6.99987 4.51677C5.51983 5.50571 4.36628 6.91131 3.68509 8.55585C3.0039 10.2004 2.82567 12.01 3.17294 13.7558C3.5202 15.5016 4.37737 17.1053 5.63604 18.364C6.89472 19.6226 8.49836 20.4798 10.2442 20.8271C11.99 21.1743 13.7996 20.9961 15.4442 20.3149C17.0887 19.6337 18.4943 18.4802 19.4832 17.0001C20.4722 15.5201 21 13.78 21 12C21 9.61305 20.0518 7.32387 18.364 5.63604C16.6761 3.94821 14.387 3 12 3ZM17.69 12.29C17.6547 12.3807 17.6001 12.4626 17.53 12.53L14.53 15.53C14.3894 15.6705 14.1988 15.7493 14 15.7493C13.8013 15.7493 13.6106 15.6705 13.47 15.53C13.3296 15.3894 13.2507 15.1988 13.2507 15C13.2507 14.8012 13.3296 14.6106 13.47 14.47L15.19 12.75H7C6.80109 12.75 6.61033 12.671 6.46967 12.5303C6.32902 12.3897 6.25 12.1989 6.25 12C6.25 11.8011 6.32902 11.6103 6.46967 11.4697C6.61033 11.329 6.80109 11.25 7 11.25H15.19L13.47 9.53C13.3375 9.38783 13.2654 9.19978 13.2688 9.00548C13.2723 8.81118 13.351 8.62579 13.4884 8.48838C13.6258 8.35097 13.8112 8.27225 14.0055 8.26882C14.1998 8.2654 14.3878 8.33752 14.53 8.47L17.53 11.47C17.5978 11.5394 17.6521 11.6207 17.69 11.71C17.7291 11.8017 17.7495 11.9003 17.75 12C17.7503 12.0998 17.7299 12.1985 17.69 12.29Z" fill="#000D26"/>
</svg>
