<svg width="24" height="24" viewBox="0 0 24 24" fill="none" xmlns="http://www.w3.org/2000/svg">
<path d="M17.71 13.78C17.5099 13.5834 17.2406 13.4732 16.96 13.4732C16.6795 13.4732 16.4101 13.5834 16.21 13.78L15.46 14.53C15.2599 14.7267 14.9906 14.8369 14.71 14.8369C14.4295 14.8369 14.1601 14.7267 13.96 14.53L9.47003 10C9.27338 9.79991 9.16318 9.53058 9.16318 9.25002C9.16318 8.96946 9.27338 8.70012 9.47003 8.50002L10.22 7.75002C10.4167 7.54991 10.5269 7.28058 10.5269 7.00002C10.5269 6.71946 10.4167 6.45012 10.22 6.25002L8.00003 4.05002C7.90227 3.95024 7.78558 3.87097 7.65679 3.81685C7.52801 3.76274 7.38972 3.73486 7.25003 3.73486C7.11034 3.73486 6.97205 3.76274 6.84327 3.81685C6.71448 3.87097 6.59779 3.95024 6.50003 4.05002L5.00003 5.54002C4.60335 5.93245 4.28843 6.39966 4.07351 6.91461C3.85859 7.42956 3.74792 7.98202 3.74792 8.54002C3.74792 9.09801 3.85859 9.65047 4.07351 10.1654C4.28843 10.6804 4.60335 11.1476 5.00003 11.54L12.47 19C12.8625 19.3967 13.3297 19.7116 13.8446 19.9265C14.3596 20.1415 14.912 20.2521 15.47 20.2521C16.028 20.2521 16.5805 20.1415 17.0954 19.9265C17.6104 19.7116 18.0776 19.3967 18.47 19L20 17.53C20.1045 17.4318 20.1877 17.3133 20.2446 17.1817C20.3015 17.0502 20.3308 16.9084 20.3308 16.765C20.3308 16.6217 20.3015 16.4799 20.2446 16.3483C20.1877 16.2167 20.1045 16.0982 20 16L17.71 13.78Z" fill="#000D26"/>
<path d="M21.52 2.47007C21.3794 2.32962 21.1888 2.25073 20.99 2.25073C20.7912 2.25073 20.6006 2.32962 20.46 2.47007L16.75 6.17007V5.00007C16.75 4.80116 16.671 4.61039 16.5303 4.46974C16.3897 4.32909 16.1989 4.25007 16 4.25007C15.8011 4.25007 15.6103 4.32909 15.4697 4.46974C15.329 4.61039 15.25 4.80116 15.25 5.00007V8.00007C15.2508 8.09651 15.2712 8.19178 15.31 8.28007C15.3456 8.37185 15.3994 8.45548 15.4681 8.52594C15.5368 8.5964 15.6191 8.65223 15.71 8.69007C15.8017 8.72915 15.9003 8.74955 16 8.75007H19C19.1989 8.75007 19.3897 8.67105 19.5303 8.5304C19.671 8.38975 19.75 8.19898 19.75 8.00007C19.75 7.80116 19.671 7.61039 19.5303 7.46974C19.3897 7.32909 19.1989 7.25007 19 7.25007H17.81L21.52 3.54007C21.5911 3.47026 21.6475 3.387 21.686 3.29515C21.7245 3.20329 21.7444 3.10468 21.7444 3.00507C21.7444 2.90546 21.7245 2.80685 21.686 2.715C21.6475 2.62314 21.5911 2.53988 21.52 2.47007Z" fill="#000D26"/>
</svg>
