<svg width="24" height="24" viewBox="0 0 24 24" fill="none" xmlns="http://www.w3.org/2000/svg">
<path d="M17 3H7C5.93913 3 4.92172 3.42143 4.17157 4.17157C3.42143 4.92172 3 5.93913 3 7V17C3 18.0609 3.42143 19.0783 4.17157 19.8284C4.92172 20.5786 5.93913 21 7 21H17C18.0609 21 19.0783 20.5786 19.8284 19.8284C20.5786 19.0783 21 18.0609 21 17V7C21 5.93913 20.5786 4.92172 19.8284 4.17157C19.0783 3.42143 18.0609 3 17 3ZM17 12.75H8.81L10.53 14.47C10.6705 14.6106 10.7493 14.8012 10.7493 15C10.7493 15.1988 10.6705 15.3894 10.53 15.53C10.3894 15.6705 10.1988 15.7493 10 15.7493C9.80125 15.7493 9.61063 15.6705 9.47 15.53L6.47 12.53C6.40221 12.4606 6.34795 12.3793 6.31 12.29C6.27037 12.1985 6.24993 12.0998 6.24993 12C6.24993 11.9002 6.27037 11.8015 6.31 11.71C6.34795 11.6207 6.40221 11.5394 6.47 11.47L9.47 8.47C9.61217 8.33752 9.80022 8.2654 9.99452 8.26882C10.1888 8.27225 10.3742 8.35097 10.5116 8.48838C10.649 8.62579 10.7277 8.81118 10.7312 9.00548C10.7346 9.19978 10.6625 9.38783 10.53 9.53L8.81 11.25H17C17.1989 11.25 17.3897 11.329 17.5303 11.4697C17.671 11.6103 17.75 11.8011 17.75 12C17.75 12.1989 17.671 12.3897 17.5303 12.5303C17.3897 12.671 17.1989 12.75 17 12.75Z" fill="#000D26"/>
</svg>
