<svg width="24" height="24" viewBox="0 0 24 24" fill="none" xmlns="http://www.w3.org/2000/svg">
<path d="M21 15.5C21 16.1566 20.8707 16.8068 20.6194 17.4134C20.3681 18.02 19.9998 18.5712 19.5355 19.0355C19.0712 19.4998 18.52 19.8681 17.9134 20.1194C17.3068 20.3707 16.6566 20.5 16 20.5H8C6.67392 20.5 5.40215 19.9732 4.46447 19.0355C3.52678 18.0979 3 16.8261 3 15.5C3 14.1739 3.52678 12.9021 4.46447 11.9645C5.40215 11.0268 6.67392 10.5 8 10.5H11V15.5C11 15.6989 11.079 15.8897 11.2197 16.0303C11.3603 16.171 11.5511 16.25 11.75 16.25C11.9489 16.25 12.1397 16.171 12.2803 16.0303C12.421 15.8897 12.5 15.6989 12.5 15.5V10.5H16C17.3261 10.5 18.5979 11.0268 19.5355 11.9645C20.4732 12.9021 21 14.1739 21 15.5Z" fill="#000D26"/>
<path d="M15.86 7.62998C15.7908 7.7001 15.7082 7.75567 15.6172 7.79345C15.5262 7.83123 15.4285 7.85045 15.33 7.84999C15.2312 7.85221 15.1331 7.8338 15.0418 7.79592C14.9505 7.75803 14.8682 7.70152 14.8 7.62998L12.48 5.30998V10.5H11V5.30998L8.66 7.62998C8.51938 7.77044 8.32876 7.84933 8.13 7.84933C7.93125 7.84933 7.74063 7.77044 7.6 7.62998C7.52925 7.56104 7.47301 7.47862 7.43461 7.3876C7.39622 7.29657 7.37643 7.19878 7.37643 7.09999C7.37643 7.00119 7.39622 6.9034 7.43461 6.81237C7.47301 6.72135 7.52925 6.63893 7.6 6.56999L11.2 2.99998C11.2674 2.92986 11.3493 2.87526 11.44 2.83998C11.5299 2.8006 11.6269 2.78027 11.725 2.78027C11.8231 2.78027 11.9202 2.8006 12.01 2.83998C12.1024 2.87767 12.1871 2.93189 12.26 2.99998L15.86 6.59998C15.9915 6.73921 16.0648 6.92347 16.0648 7.11498C16.0648 7.3065 15.9915 7.49076 15.86 7.62998Z" fill="#000D26"/>
</svg>
