<svg width="24" height="24" viewBox="0 0 24 24" fill="none" xmlns="http://www.w3.org/2000/svg">
<path d="M18.46 14.53L15.63 16.16C15.4647 16.2543 15.2776 16.3036 15.0874 16.3032C14.8971 16.3027 14.7103 16.2525 14.5454 16.1574C14.3806 16.0624 14.2435 15.9258 14.1478 15.7614C14.0522 15.5969 14.0012 15.4103 14 15.22V12C13.9903 11.8047 14.0334 11.6104 14.1246 11.4374C14.2159 11.2645 14.352 11.1193 14.5187 11.017C14.6853 10.9147 14.8765 10.8592 15.072 10.8562C15.2675 10.8532 15.4603 10.9029 15.63 11L18.46 12.63C18.6286 12.7248 18.7688 12.8628 18.8665 13.0297C18.9641 13.1967 19.0156 13.3866 19.0156 13.58C19.0156 13.7734 18.9641 13.9633 18.8665 14.1303C18.7688 14.2972 18.6286 14.4352 18.46 14.53Z" stroke="#000D26" stroke-width="1.5" stroke-linecap="round" stroke-linejoin="round"/>
<path d="M19 7.69H5" stroke="#000D26" stroke-width="1.5" stroke-linecap="round" stroke-linejoin="round"/>
<path d="M11 11.69H5" stroke="#000D26" stroke-width="1.5" stroke-linecap="round" stroke-linejoin="round"/>
<path d="M11 15.69H5" stroke="#000D26" stroke-width="1.5" stroke-linecap="round" stroke-linejoin="round"/>
</svg>
