<svg width="24" height="24" viewBox="0 0 24 24" fill="none" xmlns="http://www.w3.org/2000/svg">
<path d="M18.69 9.25002C19.1064 10.5564 19.1573 11.9518 18.837 13.285C18.5168 14.6183 17.8376 15.8383 16.8732 16.813C15.9089 17.7877 14.6961 18.4798 13.3663 18.8142C12.0366 19.1486 10.6407 19.1126 9.32998 18.71C9.11935 18.6376 8.8906 18.6376 8.67998 18.71L6.18998 20C6.11398 20.0377 6.02871 20.0526 5.94443 20.043C5.86015 20.0334 5.78045 19.9995 5.71494 19.9457C5.64942 19.8918 5.60089 19.8201 5.57517 19.7392C5.54945 19.6584 5.54765 19.5719 5.56998 19.49L6.09998 17.35C6.1315 17.208 6.1289 17.0606 6.0924 16.9198C6.05589 16.779 5.98652 16.6488 5.88998 16.54C4.98608 15.5346 4.37037 14.3038 4.10782 12.9776C3.84526 11.6513 3.9456 10.2788 4.39825 9.00478C4.8509 7.73081 5.63907 6.60265 6.67958 5.73938C7.72009 4.87611 8.97434 4.30973 10.31 4.10002C10.8447 4.00747 11.3879 3.97394 11.93 4.00002" stroke="#000D26" stroke-width="1.5" stroke-linecap="round" stroke-linejoin="round"/>
<path d="M16 4V8" stroke="#000D26" stroke-width="1.5" stroke-linecap="round" stroke-linejoin="round"/>
<path d="M18 6H14" stroke="#000D26" stroke-width="1.5" stroke-linecap="round" stroke-linejoin="round"/>
<path d="M8.52002 11.49V11.5" stroke="#000D26" stroke-width="2" stroke-linecap="round" stroke-linejoin="round"/>
<path d="M11.52 11.49V11.5" stroke="#000D26" stroke-width="2" stroke-linecap="round" stroke-linejoin="round"/>
<path d="M14.52 11.49V11.5" stroke="#000D26" stroke-width="2" stroke-linecap="round" stroke-linejoin="round"/>
</svg>
