<svg width="24" height="24" viewBox="0 0 24 24" fill="none" xmlns="http://www.w3.org/2000/svg">
<path d="M10.1399 11.1C11.6366 11.1 12.8499 9.88669 12.8499 8.39C12.8499 6.89331 11.6366 5.68 10.1399 5.68C8.64324 5.68 7.42993 6.89331 7.42993 8.39C7.42993 9.88669 8.64324 11.1 10.1399 11.1Z" stroke="#000D26" stroke-width="1.5" stroke-linecap="round" stroke-linejoin="round"/>
<path d="M14.54 6.14C15.1122 6.17812 15.6484 6.43227 16.0401 6.85097C16.4318 7.26967 16.6498 7.82162 16.6498 8.395C16.6498 8.96838 16.4318 9.52032 16.0401 9.93903C15.6484 10.3577 15.1122 10.6119 14.54 10.65" stroke="#000D26" stroke-width="1.5" stroke-linecap="round" stroke-linejoin="round"/>
<path d="M14.6599 13.8H5.62988C4.38724 13.8 3.37988 14.8074 3.37988 16.05V16.06C3.37988 17.3026 4.38724 18.31 5.62988 18.31H14.6599C15.9025 18.31 16.9099 17.3026 16.9099 16.06V16.05C16.9099 14.8074 15.9025 13.8 14.6599 13.8Z" stroke="#000D26" stroke-width="1.5" stroke-linecap="round" stroke-linejoin="round"/>
<path d="M18.72 14.06C19.2504 14.06 19.7591 14.2707 20.1342 14.6458C20.5093 15.0209 20.72 15.5296 20.72 16.06C20.72 16.5904 20.5093 17.0991 20.1342 17.4742C19.7591 17.8493 19.2504 18.06 18.72 18.06" stroke="#000D26" stroke-width="1.5" stroke-linecap="round" stroke-linejoin="round"/>
</svg>
