<svg width="24" height="24" viewBox="0 0 24 24" fill="none" xmlns="http://www.w3.org/2000/svg">
<path d="M5.07007 13.87H16.2001C16.7098 13.8851 17.1946 14.0943 17.5552 14.4549C17.9158 14.8155 18.125 15.3003 18.1401 15.81V19.12" stroke="#000D26" stroke-width="1.5" stroke-linecap="round" stroke-linejoin="round"/>
<path d="M10.6399 10.88C12.2967 10.88 13.6399 9.53685 13.6399 7.88C13.6399 6.22315 12.2967 4.88 10.6399 4.88C8.98304 4.88 7.63989 6.22315 7.63989 7.88C7.63989 9.53685 8.98304 10.88 10.6399 10.88Z" stroke="#000D26" stroke-width="1.5" stroke-linecap="round" stroke-linejoin="round"/>
<path d="M3.13989 19.12V15.81C3.15484 15.3019 3.36267 14.8186 3.72116 14.4583C4.07965 14.0979 4.5619 13.8876 5.06989 13.87H16.1999C16.7096 13.8851 17.1944 14.0943 17.555 14.4549C17.9156 14.8155 18.1248 15.3003 18.1399 15.81V19.12" stroke="#000D26" stroke-width="1.5" stroke-linecap="round" stroke-linejoin="round"/>
<path d="M15.5701 5.38C16.2331 5.38 16.869 5.64339 17.3378 6.11223C17.8067 6.58107 18.0701 7.21696 18.0701 7.88C18.0701 8.54304 17.8067 9.17893 17.3378 9.64777C16.869 10.1166 16.2331 10.38 15.5701 10.38" stroke="#000D26" stroke-width="1.5" stroke-linecap="round" stroke-linejoin="round"/>
<path d="M18.4399 12H18.9999C19.4871 12.0026 19.9536 12.1973 20.2981 12.5418C20.6426 12.8863 20.8373 13.3528 20.8399 13.84V17" stroke="#000D26" stroke-width="1.5" stroke-linecap="round" stroke-linejoin="round"/>
</svg>
