<svg width="24" height="24" viewBox="0 0 24 24" fill="none" xmlns="http://www.w3.org/2000/svg">
<path d="M18.75 9.10999V14.87C18.75 15.5675 18.4729 16.2365 17.9797 16.7297C17.4865 17.2229 16.8175 17.5 16.12 17.5H10.87C10.5251 17.5 10.1836 17.4319 9.86506 17.2996C9.54653 17.1673 9.25726 16.9734 9.01384 16.7291C8.77042 16.4847 8.57764 16.1947 8.44656 15.8757C8.31548 15.5567 8.24869 15.2149 8.25 14.87V6.11999C8.25 5.42513 8.52604 4.75872 9.01738 4.26737C9.50873 3.77603 10.1751 3.49999 10.87 3.49999H13.14C13.2531 3.4995 13.3652 3.52132 13.4699 3.56422C13.5746 3.60712 13.6698 3.67025 13.75 3.74999L18.49 8.48999C18.5723 8.57092 18.6377 8.66742 18.6823 8.77386C18.727 8.88031 18.75 8.99457 18.75 9.10999Z" stroke="#000D26" stroke-width="1.5" stroke-miterlimit="10" stroke-linecap="round"/>
<path d="M13.5 3.92001V7.92001C13.4987 8.03509 13.5202 8.1493 13.5633 8.25601C13.6065 8.36272 13.6703 8.45981 13.7513 8.54166C13.8322 8.62351 13.9285 8.68849 14.0347 8.73284C14.1409 8.77718 14.2549 8.80001 14.37 8.80001H18.37C18.4035 8.79745 18.4357 8.78554 18.4628 8.76563C18.4899 8.74572 18.5109 8.71861 18.5234 8.68738C18.5359 8.65614 18.5394 8.62203 18.5335 8.58891C18.5276 8.55579 18.5125 8.52499 18.49 8.50001L13.8 3.80001C13.777 3.77253 13.7459 3.75303 13.7112 3.74428C13.6764 3.73553 13.6398 3.73799 13.6065 3.75129C13.5732 3.7646 13.545 3.78808 13.5259 3.81838C13.5068 3.84868 13.4977 3.88425 13.5 3.92001Z" stroke="#000D26" stroke-width="1.5" stroke-linecap="round" stroke-linejoin="round"/>
<path d="M15.75 17.49V17.87C15.75 18.5675 15.4729 19.2365 14.9797 19.7297C14.4865 20.2229 13.8175 20.5 13.12 20.5H7.87C7.17421 20.4974 6.50783 20.2191 6.01677 19.7262C5.52571 19.2332 5.24999 18.5658 5.25 17.87V9.12C5.25263 8.42594 5.52951 7.76107 6.02029 7.27029C6.51107 6.77951 7.17594 6.50263 7.87 6.5H8.25" stroke="#000D26" stroke-width="1.5" stroke-miterlimit="10" stroke-linecap="round"/>
</svg>
