<svg width="24" height="24" viewBox="0 0 24 24" fill="none" xmlns="http://www.w3.org/2000/svg">
<path d="M19.17 9.25002C19.5459 10.4466 19.6214 11.7173 19.39 12.95C19.1893 13.9848 18.7733 14.9658 18.1691 15.8294C17.5648 16.693 16.7858 17.4199 15.8825 17.9631C14.9791 18.5062 13.9717 18.8533 12.9256 18.982C11.8795 19.1107 10.818 19.018 9.80996 18.71C9.60319 18.6352 9.37672 18.6352 9.16996 18.71L6.66996 20C6.59396 20.0377 6.50869 20.0526 6.42441 20.043C6.34013 20.0334 6.26043 19.9995 6.19492 19.9457C6.12941 19.8918 6.08087 19.8201 6.05515 19.7392C6.02943 19.6584 6.02763 19.5719 6.04996 19.49L6.57996 17.35C6.61148 17.208 6.60888 17.0606 6.57238 16.9198C6.53587 16.779 6.4665 16.6488 6.36996 16.54C5.46606 15.5346 4.85035 14.3038 4.5878 12.9776C4.32524 11.6513 4.42559 10.2788 4.87823 9.00478C5.33088 7.73081 6.11905 6.60265 7.15956 5.73938C8.20007 4.87611 9.45432 4.30973 10.79 4.10002C11.3247 4.00747 11.8679 3.97394 12.41 4.00002" stroke="#000D26" stroke-width="1.5" stroke-linecap="round" stroke-linejoin="round"/>
<path d="M16.5 7C17.3284 7 18 6.32843 18 5.5C18 4.67157 17.3284 4 16.5 4C15.6716 4 15 4.67157 15 5.5C15 6.32843 15.6716 7 16.5 7Z" stroke="#000D26" stroke-width="1.5" stroke-linecap="round" stroke-linejoin="round"/>
<path d="M9 11.49V11.5" stroke="#000D26" stroke-width="2" stroke-linecap="round" stroke-linejoin="round"/>
<path d="M12 11.49V11.5" stroke="#000D26" stroke-width="2" stroke-linecap="round" stroke-linejoin="round"/>
<path d="M15 11.49V11.5" stroke="#000D26" stroke-width="2" stroke-linecap="round" stroke-linejoin="round"/>
</svg>
