<svg
  width="24"
  height="24"
  viewBox="0 0 24 24"
  fill="none"
  xmlns="http://www.w3.org/2000/svg"
>
  <path
    d="M13.08 10.9199C13.2945 11.1337 13.4407 11.4063 13.5002 11.7032C13.5596 12.0001 13.5297 12.308 13.414 12.5879C13.2984 12.8678 13.1023 13.1071 12.8505 13.2754C12.5988 13.4438 12.3028 13.5336 12 13.5336C11.6971 13.5336 11.4011 13.4438 11.1494 13.2754C10.8977 13.1071 10.7016 12.8678 10.5859 12.5879C10.4703 12.308 10.4403 12.0001 10.4998 11.7032C10.5592 11.4063 10.7055 11.1337 10.92 10.9199C11.2067 10.6341 11.5951 10.4736 12 10.4736C12.4048 10.4736 12.7932 10.6341 13.08 10.9199Z"
    fill="#000D26"
  />
  <path
    d="M12 3C10.22 3 8.47991 3.52784 6.99987 4.51677C5.51983 5.50571 4.36628 6.91131 3.68509 8.55585C3.0039 10.2004 2.82567 12.01 3.17294 13.7558C3.5202 15.5016 4.37737 17.1053 5.63604 18.364C6.89472 19.6226 8.49836 20.4798 10.2442 20.8271C11.99 21.1743 13.7996 20.9961 15.4442 20.3149C17.0887 19.6337 18.4943 18.4802 19.4832 17.0001C20.4722 15.5201 21 13.78 21 12C21 9.61305 20.0518 7.32387 18.364 5.63604C16.6761 3.94821 14.387 3 12 3ZM16.73 9L15.47 14.31C15.4075 14.5831 15.2693 14.833 15.0712 15.0311C14.873 15.2293 14.6231 15.3675 14.35 15.43L9 16.73C8.76227 16.7802 8.51577 16.7702 8.28286 16.701C8.04994 16.6319 7.83797 16.5056 7.66617 16.3338C7.49436 16.162 7.36815 15.9501 7.29897 15.7171C7.22979 15.4842 7.21984 15.2377 7.27 15L8.53 9.65C8.59629 9.37975 8.73596 9.13307 8.9336 8.93719C9.13125 8.74131 9.37917 8.60386 9.65 8.54L15 7.28C15.2367 7.23042 15.4821 7.24043 15.714 7.30913C15.9459 7.37784 16.1571 7.50309 16.3287 7.67363C16.5002 7.84417 16.6267 8.05465 16.6967 8.28617C16.7668 8.51768 16.7782 8.76297 16.73 9Z"
    fill="#000D26"
  />
</svg>
