<svg
  width="24"
  height="24"
  viewBox="0 0 24 24"
  fill="none"
  xmlns="http://www.w3.org/2000/svg"
>
  <path
    d="M16.49 11.5101L10 18.0001H10.39C10.7855 18.0012 11.1718 18.1195 11.5 18.3401L14.67 20.4501C14.896 20.6002 15.1585 20.6863 15.4296 20.699C15.7006 20.7118 15.97 20.6507 16.2091 20.5225C16.4482 20.3942 16.6481 20.2035 16.7873 19.9706C16.9266 19.7377 17.0001 19.4714 17 19.2001V11.7201C16.9992 11.6614 16.9811 11.6042 16.9481 11.5556C16.9151 11.5071 16.8686 11.4693 16.8143 11.4469C16.76 11.4246 16.7003 11.4186 16.6426 11.4299C16.585 11.4411 16.5319 11.469 16.49 11.5101Z"
    fill="#000D26"
  />
  <path
    d="M22.53 1.47007C22.3894 1.32962 22.1987 1.25073 22 1.25073C21.8012 1.25073 21.6106 1.32962 21.47 1.47007L17 5.94007V4.80007C17.0001 4.52873 16.9266 4.26245 16.7873 4.02958C16.648 3.79672 16.4482 3.60599 16.2091 3.47771C15.97 3.34944 15.7006 3.28842 15.4296 3.30117C15.1585 3.31391 14.896 3.39993 14.67 3.55007L11.5 5.66007C11.1718 5.88066 10.7855 5.99898 10.39 6.00007H8.5C8.10217 6.00007 7.72064 6.15811 7.43934 6.43941C7.15803 6.72072 7 7.10225 7 7.50007V15.9401L1.47 21.4701C1.32955 21.6107 1.25066 21.8013 1.25066 22.0001C1.25066 22.1988 1.32955 22.3894 1.47 22.5301C1.5389 22.6006 1.62138 22.6565 1.71247 22.6943C1.80356 22.7321 1.90137 22.7511 2 22.7501C2.09854 22.7505 2.19618 22.7313 2.28719 22.6935C2.3782 22.6558 2.46075 22.6002 2.53 22.5301L22.53 2.53007C22.6704 2.38945 22.7493 2.19882 22.7493 2.00007C22.7493 1.80132 22.6704 1.6107 22.53 1.47007Z"
    fill="#000D26"
  />
</svg>
