<svg
  width="24"
  height="24"
  viewBox="0 0 24 24"
  fill="none"
  xmlns="http://www.w3.org/2000/svg"
>
  <path
    d="M12 3C10.22 3 8.47991 3.52784 6.99987 4.51677C5.51983 5.50571 4.36628 6.91131 3.68509 8.55585C3.0039 10.2004 2.82567 12.01 3.17294 13.7558C3.5202 15.5016 4.37737 17.1053 5.63604 18.364C6.89472 19.6226 8.49836 20.4798 10.2442 20.8271C11.99 21.1743 13.7996 20.9961 15.4442 20.3149C17.0887 19.6337 18.4943 18.4802 19.4832 17.0001C20.4722 15.5201 21 13.78 21 12C21 9.61305 20.0518 7.32387 18.364 5.63604C16.6761 3.94821 14.387 3 12 3ZM11.25 6.62C11.25 6.42109 11.329 6.23032 11.4697 6.08967C11.6103 5.94902 11.8011 5.87 12 5.87C12.1989 5.87 12.3897 5.94902 12.5303 6.08967C12.671 6.23032 12.75 6.42109 12.75 6.62V10.46C12.75 10.6589 12.671 10.8497 12.5303 10.9903C12.3897 11.131 12.1989 11.21 12 11.21C11.8011 11.21 11.6103 11.131 11.4697 10.9903C11.329 10.8497 11.25 10.6589 11.25 10.46V6.62ZM12 18.14C10.7116 18.1432 9.45939 17.7136 8.44431 16.9201C7.42923 16.1266 6.71007 15.0151 6.4022 13.764C6.09432 12.5129 6.21556 11.1946 6.74648 10.0207C7.27739 8.8467 8.18721 7.88506 9.33 7.29C9.50541 7.20186 9.70837 7.186 9.89534 7.24583C10.0823 7.30566 10.2384 7.4364 10.33 7.61C10.3754 7.69601 10.4033 7.79011 10.4123 7.88692C10.4212 7.98374 10.411 8.08137 10.3822 8.17424C10.3534 8.26711 10.3066 8.3534 10.2445 8.42817C10.1823 8.50294 10.106 8.56472 10.02 8.61C9.17759 9.05069 8.50726 9.76111 8.1162 10.6277C7.72513 11.4942 7.63592 12.4669 7.86282 13.3902C8.08972 14.3134 8.61963 15.1339 9.36782 15.7205C10.116 16.3071 11.0393 16.6258 11.99 16.6258C12.9407 16.6258 13.864 16.3071 14.6122 15.7205C15.3604 15.1339 15.8903 14.3134 16.1172 13.3902C16.3441 12.4669 16.2549 11.4942 15.8638 10.6277C15.4727 9.76111 14.8024 9.05069 13.96 8.61C13.7932 8.51325 13.6702 8.356 13.6163 8.17089C13.5624 7.98578 13.5819 7.78703 13.6706 7.6159C13.7594 7.44477 13.9107 7.31439 14.0931 7.25185C14.2754 7.1893 14.4749 7.19938 14.65 7.28C15.7966 7.87156 16.711 8.83158 17.246 10.0057C17.781 11.1797 17.9056 12.4996 17.5998 13.7531C17.2939 15.0066 16.5754 16.1207 15.5597 16.9164C14.544 17.7121 13.2902 18.1431 12 18.14Z"
    fill="#000D26"
  />
</svg>
