<svg
  width="24"
  height="24"
  viewBox="0 0 24 24"
  fill="none"
  xmlns="http://www.w3.org/2000/svg"
>
  <path
    d="M17 3H7C5.93913 3 4.92172 3.42143 4.17157 4.17157C3.42143 4.92172 3 5.93913 3 7V17C3 18.0609 3.42143 19.0783 4.17157 19.8284C4.92172 20.5786 5.93913 21 7 21H17C18.0609 21 19.0783 20.5786 19.8284 19.8284C20.5786 19.0783 21 18.0609 21 17V7C21 5.93913 20.5786 4.92172 19.8284 4.17157C19.0783 3.42143 18.0609 3 17 3ZM11.16 17.16C11.161 17.3078 11.1177 17.4525 11.0357 17.5755C10.9537 17.6985 10.8368 17.7941 10.7 17.85C10.5631 17.909 10.4116 17.9253 10.2653 17.8968C10.1189 17.8682 9.98466 17.7962 9.88 17.69L7.23 15C7.13467 14.9382 7.05462 14.8555 6.99591 14.7583C6.9372 14.661 6.90136 14.5517 6.89109 14.4385C6.88081 14.3253 6.89638 14.2113 6.93662 14.1051C6.97686 13.9988 7.04071 13.9031 7.12335 13.8252C7.20599 13.7472 7.30527 13.689 7.41368 13.655C7.5221 13.621 7.63682 13.6121 7.74918 13.629C7.86154 13.6458 7.96861 13.688 8.06229 13.7522C8.15598 13.8165 8.23384 13.9012 8.29 14L9.66 15.38V6.84C9.66 6.64109 9.73902 6.45032 9.87967 6.30967C10.0203 6.16902 10.2111 6.09 10.41 6.09C10.6089 6.09 10.7997 6.16902 10.9403 6.30967C11.081 6.45032 11.16 6.64109 11.16 6.84V17.16ZM16.77 10C16.7011 10.0708 16.6186 10.127 16.5276 10.1654C16.4366 10.2038 16.3388 10.2236 16.24 10.2236C16.1412 10.2236 16.0434 10.2038 15.9524 10.1654C15.8614 10.127 15.7789 10.0708 15.71 10L14.34 8.65V17.16C14.34 17.3589 14.261 17.5497 14.1203 17.6903C13.9797 17.831 13.7889 17.91 13.59 17.91C13.3911 17.91 13.2003 17.831 13.0597 17.6903C12.919 17.5497 12.84 17.3589 12.84 17.16V6.84C12.8401 6.69176 12.8842 6.54688 12.9666 6.42367C13.049 6.30045 13.1661 6.20442 13.3031 6.14771C13.44 6.091 13.5907 6.07615 13.7361 6.10503C13.8815 6.13392 14.0151 6.20524 14.12 6.31L16.77 9C16.8951 9.13647 16.9645 9.31488 16.9645 9.5C16.9645 9.68512 16.8951 9.86353 16.77 10Z"
    fill="#000D26"
  />
</svg>
