<svg
  width="24"
  height="24"
  viewBox="0 0 24 24"
  fill="none"
  xmlns="http://www.w3.org/2000/svg"
>
  <path
    d="M15.75 6.37997C15.5888 6.2811 15.3962 6.24677 15.2108 6.28385C15.0253 6.32094 14.8608 6.4267 14.75 6.57997L7.99999 16.58C7.90213 16.7423 7.86938 16.9357 7.90835 17.1213C7.94731 17.3068 8.05508 17.4707 8.20999 17.58C8.33301 17.666 8.47986 17.7115 8.62999 17.71C8.7535 17.7095 8.87493 17.6782 8.98323 17.6188C9.09152 17.5594 9.18323 17.4739 9.24999 17.37L16 7.41997C16.0527 7.33551 16.0881 7.24139 16.104 7.14312C16.12 7.04485 16.1162 6.94438 16.093 6.84757C16.0697 6.75076 16.0274 6.65956 15.9685 6.57928C15.9096 6.499 15.8353 6.43124 15.75 6.37997Z"
    fill="#000D26"
  />
  <path
    d="M9.54995 7.88C9.66871 7.76851 9.76097 7.63183 9.81995 7.48C9.88833 7.32935 9.92248 7.16542 9.91995 7C9.91681 6.66949 9.78393 6.35345 9.54995 6.12C9.40413 5.97435 9.22506 5.86637 9.02819 5.80539C8.83132 5.74442 8.62257 5.73227 8.41995 5.77C8.34001 5.78612 8.26264 5.81303 8.18995 5.85L7.99995 6L7.80995 6.16C7.57719 6.37973 7.4376 6.68039 7.41995 7C7.41887 7.16429 7.44942 7.32726 7.50995 7.48C7.57629 7.62786 7.66763 7.76317 7.77995 7.88C8.01586 8.11641 8.33597 8.24949 8.66995 8.25C8.83389 8.25008 8.99619 8.21739 9.14731 8.15385C9.29843 8.09031 9.43533 7.9972 9.54995 7.88Z"
    fill="#000D26"
  />
  <path
    d="M16.22 16.12C15.9806 15.8943 15.664 15.7686 15.335 15.7686C15.0059 15.7686 14.6894 15.8943 14.45 16.12C14.216 16.3535 14.0831 16.6695 14.08 17C14.0793 17.164 14.1117 17.3265 14.1753 17.4777C14.2389 17.6289 14.3323 17.7657 14.45 17.88C14.5656 17.9964 14.7011 18.0912 14.85 18.16C15.0032 18.2187 15.1658 18.2492 15.33 18.25C15.5769 18.2505 15.8185 18.1777 16.0241 18.041C16.2298 17.9043 16.3904 17.7098 16.4856 17.4819C16.5808 17.2541 16.6064 17.0031 16.5591 16.7607C16.5118 16.5183 16.3938 16.2954 16.22 16.12Z"
    fill="#000D26"
  />
</svg>
