<svg
  width="24"
  height="24"
  viewBox="0 0 24 24"
  fill="none"
  xmlns="http://www.w3.org/2000/svg"
>
  <path
    d="M13 20.5199L12.5 20.8099C12.348 20.8977 12.1755 20.9439 12 20.9439C11.8245 20.9439 11.652 20.8977 11.5 20.8099L11 20.5199C8.8709 19.2907 7.10304 17.5225 5.87423 15.3931C4.64543 13.2638 3.99901 10.8484 4 8.38993C4.00036 8.0392 4.09294 7.69474 4.26846 7.39109C4.44398 7.08744 4.69626 6.83529 5 6.65993L11.08 3.14993C11.3594 2.98745 11.6768 2.90186 12 2.90186C12.3232 2.90186 12.6406 2.98745 12.92 3.14993L19 6.65993C19.3037 6.83529 19.556 7.08744 19.7315 7.39109C19.9071 7.69474 19.9996 8.0392 20 8.38993C20.001 10.8484 19.3546 13.2638 18.1258 15.3931C16.897 17.5225 15.1291 19.2907 13 20.5199Z"
    fill="#000D26"
  />
</svg>
