<svg
  width="24"
  height="24"
  viewBox="0 0 24 24"
  fill="none"
  xmlns="http://www.w3.org/2000/svg"
>
  <path
    d="M8.87 4.5H5.87C5.04158 4.5 4.37 5.17157 4.37 6V9C4.37 9.82843 5.04158 10.5 5.87 10.5H8.87C9.69843 10.5 10.37 9.82843 10.37 9V6C10.37 5.17157 9.69843 4.5 8.87 4.5Z"
    fill="#000D26"
  />
  <path
    d="M8.87 13.5H5.87C5.04158 13.5 4.37 14.1716 4.37 15V18C4.37 18.8284 5.04158 19.5 5.87 19.5H8.87C9.69843 19.5 10.37 18.8284 10.37 18V15C10.37 14.1716 9.69843 13.5 8.87 13.5Z"
    fill="#000D26"
  />
  <path
    d="M17.87 13.5H14.87C14.0416 13.5 13.37 14.1716 13.37 15V18C13.37 18.8284 14.0416 19.5 14.87 19.5H17.87C18.6984 19.5 19.37 18.8284 19.37 18V15C19.37 14.1716 18.6984 13.5 17.87 13.5Z"
    fill="#000D26"
  />
  <path
    d="M18.88 7.25H17.13V5.5C17.13 5.30109 17.051 5.11032 16.9103 4.96967C16.7697 4.82902 16.5789 4.75 16.38 4.75C16.1811 4.75 15.9903 4.82902 15.8497 4.96967C15.709 5.11032 15.63 5.30109 15.63 5.5V7.25H13.88C13.6811 7.25 13.4903 7.32902 13.3497 7.46967C13.209 7.61032 13.13 7.80109 13.13 8C13.13 8.19891 13.209 8.38968 13.3497 8.53033C13.4903 8.67098 13.6811 8.75 13.88 8.75H15.63V10.5C15.63 10.6989 15.709 10.8897 15.8497 11.0303C15.9903 11.171 16.1811 11.25 16.38 11.25C16.5789 11.25 16.7697 11.171 16.9103 11.0303C17.051 10.8897 17.13 10.6989 17.13 10.5V8.75H18.88C19.0789 8.75 19.2697 8.67098 19.4103 8.53033C19.551 8.38968 19.63 8.19891 19.63 8C19.63 7.80109 19.551 7.61032 19.4103 7.46967C19.2697 7.32902 19.0789 7.25 18.88 7.25Z"
    fill="#000D26"
  />
</svg>
