<svg
  width="24"
  height="24"
  viewBox="0 0 24 24"
  fill="none"
  xmlns="http://www.w3.org/2000/svg"
>
  <path
    d="M17 3H7C5.93913 3 4.92172 3.42143 4.17157 4.17157C3.42143 4.92172 3 5.93913 3 7V17C3 18.0609 3.42143 19.0783 4.17157 19.8284C4.92172 20.5786 5.93913 21 7 21H17C18.0609 21 19.0783 20.5786 19.8284 19.8284C20.5786 19.0783 21 18.0609 21 17V7C21 5.93913 20.5786 4.92172 19.8284 4.17157C19.0783 3.42143 18.0609 3 17 3ZM8.67 8.5C8.66841 8.36999 8.69218 8.24091 8.74 8.12C8.80641 7.99545 8.89445 7.88371 9 7.79C9.18736 7.60375 9.44081 7.49921 9.705 7.49921C9.96919 7.49921 10.2226 7.60375 10.41 7.79C10.5037 7.88296 10.5781 7.99356 10.6289 8.11542C10.6797 8.23728 10.7058 8.36799 10.7058 8.5C10.7058 8.63201 10.6797 8.76272 10.6289 8.88458C10.5781 9.00644 10.5037 9.11704 10.41 9.21C10.3187 9.30354 10.21 9.37828 10.09 9.43C9.90694 9.50533 9.70564 9.52464 9.5116 9.48547C9.31756 9.44631 9.13951 9.35044 9 9.21C8.90872 9.11308 8.83436 9.00153 8.78 8.88C8.71839 8.76192 8.681 8.63273 8.67 8.5ZM9.67 16.25C9.51987 16.2515 9.37302 16.2061 9.25 16.12C9.09509 16.0107 8.98732 15.8468 8.94836 15.6613C8.9094 15.4758 8.94214 15.2824 9.04 15.12L13.71 8.12C13.8161 7.94894 13.9858 7.82702 14.1818 7.78107C14.3777 7.73513 14.5839 7.76891 14.755 7.875C14.9261 7.98109 15.048 8.15078 15.0939 8.34676C15.1399 8.54273 15.1061 8.74894 15 8.92L10.33 15.92C10.2585 16.0279 10.1599 16.1152 10.0441 16.1731C9.92825 16.231 9.79927 16.2575 9.67 16.25ZM15.04 16.25C14.8526 16.4363 14.5992 16.5408 14.335 16.5408C14.0708 16.5408 13.8174 16.4363 13.63 16.25C13.5363 16.157 13.4619 16.0464 13.4111 15.9246C13.3603 15.8027 13.3342 15.672 13.3342 15.54C13.3342 15.408 13.3603 15.2773 13.4111 15.1554C13.4619 15.0336 13.5363 14.923 13.63 14.83C13.7222 14.74 13.8308 14.6687 13.95 14.62C14.1541 14.5624 14.3713 14.5713 14.5701 14.6452C14.7689 14.7192 14.939 14.8544 15.0559 15.0314C15.1728 15.2084 15.2303 15.418 15.2203 15.6298C15.2102 15.8417 15.1331 16.0449 15 16.21L15.04 16.25Z"
    fill="#000D26"
  />
</svg>
