<svg
  width="24"
  height="24"
  viewBox="0 0 24 24"
  fill="none"
  xmlns="http://www.w3.org/2000/svg"
>
  <path
    d="M16.73 9.61003C16.73 9.80894 16.809 9.99971 16.9497 10.1404C17.0903 10.281 17.2811 10.36 17.48 10.36C17.6789 10.36 17.8697 10.281 18.0103 10.1404C18.151 9.99971 18.23 9.80894 18.23 9.61003C18.2247 8.59414 17.8182 7.62152 17.0989 6.90411C16.3796 6.1867 15.4059 5.78265 14.39 5.78003C14.1911 5.78003 14.0003 5.85905 13.8597 5.9997C13.719 6.14035 13.64 6.33112 13.64 6.53003C13.64 6.72894 13.719 6.91971 13.8597 7.06036C14.0003 7.20101 14.1911 7.28003 14.39 7.28003C14.6968 7.27871 15.0009 7.33801 15.2847 7.45451C15.5686 7.57101 15.8266 7.74243 16.044 7.95892C16.2615 8.17542 16.434 8.43272 16.5517 8.71606C16.6694 8.9994 16.73 9.30321 16.73 9.61003Z"
    fill="#000D26"
  />
  <path
    d="M14.39 3.25C14.1911 3.25 14.0003 3.32902 13.8597 3.46967C13.719 3.61032 13.64 3.80109 13.64 4C13.64 4.19891 13.719 4.38968 13.8597 4.53033C14.0003 4.67098 14.1911 4.75 14.39 4.75C15.6782 4.75264 16.9128 5.26553 17.8236 6.17638C18.7345 7.08723 19.2474 8.32186 19.25 9.61C19.25 9.80891 19.329 9.99968 19.4697 10.1403C19.6103 10.281 19.8011 10.36 20 10.36C20.1989 10.36 20.3897 10.281 20.5303 10.1403C20.671 9.99968 20.75 9.80891 20.75 9.61C20.75 7.92322 20.0799 6.30553 18.8872 5.1128C17.6945 3.92007 16.0768 3.25 14.39 3.25Z"
    fill="#000D26"
  />
  <path
    d="M17.71 13.78C17.5099 13.5834 17.2406 13.4732 16.96 13.4732C16.6795 13.4732 16.4101 13.5834 16.21 13.78L15.46 14.53C15.2599 14.7267 14.9906 14.8369 14.71 14.8369C14.4295 14.8369 14.1601 14.7267 13.96 14.53L9.47003 10C9.27338 9.79991 9.16318 9.53058 9.16318 9.25002C9.16318 8.96946 9.27338 8.70012 9.47003 8.50002L10.22 7.75002C10.4167 7.54991 10.5269 7.28058 10.5269 7.00002C10.5269 6.71946 10.4167 6.45012 10.22 6.25002L8.00003 4.05002C7.90227 3.95024 7.78558 3.87097 7.65679 3.81685C7.52801 3.76274 7.38972 3.73486 7.25003 3.73486C7.11034 3.73486 6.97205 3.76274 6.84327 3.81685C6.71448 3.87097 6.59779 3.95024 6.50003 4.05002L5.00003 5.54002C4.60335 5.93245 4.28843 6.39966 4.07351 6.91461C3.85859 7.42956 3.74792 7.98202 3.74792 8.54002C3.74792 9.09801 3.85859 9.65047 4.07351 10.1654C4.28843 10.6804 4.60335 11.1476 5.00003 11.54L12.47 19C12.8625 19.3967 13.3297 19.7116 13.8446 19.9265C14.3596 20.1415 14.912 20.2521 15.47 20.2521C16.028 20.2521 16.5805 20.1415 17.0954 19.9265C17.6104 19.7116 18.0776 19.3967 18.47 19L20 17.53C20.1045 17.4318 20.1877 17.3133 20.2446 17.1817C20.3015 17.0502 20.3308 16.9084 20.3308 16.765C20.3308 16.6217 20.3015 16.4799 20.2446 16.3483C20.1877 16.2167 20.1045 16.0982 20 16L17.71 13.78Z"
    fill="#000D26"
  />
</svg>
