<svg
  width="24"
  height="24"
  viewBox="0 0 24 24"
  fill="none"
  xmlns="http://www.w3.org/2000/svg"
>
  <path
    d="M21 13.5V17.5C21 18.2956 20.6839 19.0587 20.1213 19.6213C19.5587 20.1839 18.7956 20.5 18 20.5H6C5.20435 20.5 4.44129 20.1839 3.87868 19.6213C3.31607 19.0587 3 18.2956 3 17.5V13.5C3 12.7044 3.31607 11.9413 3.87868 11.3787C4.44129 10.8161 5.20435 10.5 6 10.5H11V15.5C11 15.6989 11.079 15.8897 11.2197 16.0303C11.3603 16.171 11.5511 16.25 11.75 16.25C11.9489 16.25 12.1397 16.171 12.2803 16.0303C12.421 15.8897 12.5 15.6989 12.5 15.5V10.5H18C18.7956 10.5 19.5587 10.8161 20.1213 11.3787C20.6839 11.9413 21 12.7044 21 13.5Z"
    fill="#000D26"
  />
  <path
    d="M15.86 7.63009C15.7907 7.7002 15.7082 7.75577 15.6172 7.79355C15.5262 7.83133 15.4285 7.85055 15.33 7.85009C15.2312 7.85231 15.133 7.8339 15.0418 7.79602C14.9505 7.75813 14.8681 7.70162 14.8 7.63009L12.48 5.31009V10.5001H11V5.31009L8.65998 7.63009C8.59131 7.70377 8.50851 7.76287 8.41651 7.80387C8.32451 7.84486 8.2252 7.8669 8.1245 7.86868C8.02379 7.87045 7.92377 7.85193 7.83038 7.81421C7.73699 7.77649 7.65216 7.72034 7.58094 7.64912C7.50972 7.5779 7.45357 7.49307 7.41585 7.39968C7.37813 7.30629 7.35961 7.20627 7.36138 7.10556C7.36316 7.00486 7.3852 6.90555 7.42619 6.81355C7.46719 6.72155 7.52629 6.63875 7.59998 6.57009L11.2 3.00009C11.2674 2.92996 11.3493 2.87536 11.44 2.84009C11.6235 2.7701 11.8264 2.7701 12.01 2.84009C12.1023 2.87777 12.1871 2.93199 12.26 3.00009L15.86 6.60009C15.9915 6.73931 16.0647 6.92357 16.0647 7.11509C16.0647 7.3066 15.9915 7.49086 15.86 7.63009Z"
    fill="#000D26"
  />
</svg>
