<svg
  width="24"
  height="24"
  viewBox="0 0 24 24"
  fill="none"
  xmlns="http://www.w3.org/2000/svg"
>
  <path
    d="M20.38 7.56006L20.32 7.50006C20.2471 7.43947 20.1547 7.40748 20.06 7.41006C19.9482 7.40954 19.8406 7.45258 19.76 7.53006L9.47 18.5301C9.42828 18.5726 9.40017 18.6266 9.38926 18.6852C9.37835 18.7437 9.38512 18.8042 9.40872 18.8589C9.43232 18.9136 9.47168 18.9601 9.52177 18.9923C9.57186 19.0246 9.63043 19.0412 9.69 19.0401H19C19.5304 19.0401 20.0391 18.8293 20.4142 18.4543C20.7893 18.0792 21 17.5705 21 17.0401V9.00006C20.9994 8.6488 20.9063 8.3039 20.73 8.00006C20.6367 7.83624 20.5186 7.68782 20.38 7.56006Z"
    fill="#000D26"
  />
  <path
    d="M22.53 1.47007C22.3894 1.32962 22.1988 1.25073 22 1.25073C21.8013 1.25073 21.6106 1.32962 21.47 1.47007L15.94 7.00007H15.5C15.3674 7.00007 15.2402 6.94739 15.1465 6.85363C15.0527 6.75986 15 6.63268 15 6.50007V5.00007C15 4.73486 14.8947 4.4805 14.7071 4.29297C14.5196 4.10543 14.2652 4.00007 14 4.00007H10C9.73479 4.00007 9.48044 4.10543 9.2929 4.29297C9.10537 4.4805 9.00001 4.73486 9.00001 5.00007V6.50007C9.00001 6.63268 8.94733 6.75986 8.85357 6.85363C8.7598 6.94739 8.63262 7.00007 8.50001 7.00007H5.00001C4.46958 7.00007 3.96087 7.21079 3.5858 7.58586C3.21073 7.96093 3.00001 8.46964 3.00001 9.00007V17.0001C3.00108 17.377 3.10866 17.746 3.31037 18.0645C3.51207 18.383 3.79967 18.638 4.14001 18.8001L1.47001 21.4701C1.32956 21.6107 1.25067 21.8013 1.25067 22.0001C1.25067 22.1988 1.32956 22.3894 1.47001 22.5301C1.61064 22.6705 1.80126 22.7494 2.00001 22.7494C2.19876 22.7494 2.38939 22.6705 2.53001 22.5301L22.53 2.53007C22.6705 2.38945 22.7494 2.19882 22.7494 2.00007C22.7494 1.80132 22.6705 1.6107 22.53 1.47007ZM9.88001 10.8801C10.2581 10.5033 10.7299 10.2342 11.2468 10.1006C11.7636 9.96702 12.3067 9.97373 12.82 10.1201L13 10.1701L9.17001 14.0001C9.14873 13.9415 9.13201 13.8813 9.12001 13.8201C8.97367 13.3067 8.96696 12.7636 9.10055 12.2468C9.23415 11.73 9.50323 11.2582 9.88001 10.8801Z"
    fill="#000D26"
  />
</svg>
