<svg
  width="24"
  height="24"
  viewBox="0 0 24 24"
  fill="none"
  xmlns="http://www.w3.org/2000/svg"
>
  <path
    d="M18 8.5H14.83C14.5661 8.50021 14.3047 8.44818 14.061 8.34692C13.8173 8.24566 13.5961 8.09717 13.41 7.91L11.59 6.09C11.4039 5.90283 11.1827 5.75434 10.939 5.65308C10.6953 5.55182 10.4339 5.49979 10.17 5.5H6C5.46957 5.5 4.96086 5.71071 4.58579 6.08579C4.21071 6.46086 4 6.96957 4 7.5V16.5C4 17.0304 4.21071 17.5391 4.58579 17.9142C4.96086 18.2893 5.46957 18.5 6 18.5H18C18.5304 18.5 19.0391 18.2893 19.4142 17.9142C19.7893 17.5391 20 17.0304 20 16.5V10.5C20 9.96957 19.7893 9.46086 19.4142 9.08579C19.0391 8.71071 18.5304 8.5 18 8.5ZM14.25 14H9.75C9.55109 14 9.36032 13.921 9.21967 13.7803C9.07902 13.6397 9 13.4489 9 13.25C9 13.0511 9.07902 12.8603 9.21967 12.7197C9.36032 12.579 9.55109 12.5 9.75 12.5H14.25C14.4489 12.5 14.6397 12.579 14.7803 12.7197C14.921 12.8603 15 13.0511 15 13.25C15 13.4489 14.921 13.6397 14.7803 13.7803C14.6397 13.921 14.4489 14 14.25 14Z"
    fill="#000D26"
  />
</svg>
