<svg
  width="24"
  height="24"
  viewBox="0 0 24 24"
  fill="none"
  xmlns="http://www.w3.org/2000/svg"
>
  <path
    d="M14.5 6.75H3.5C3.30109 6.75 3.11032 6.67098 2.96967 6.53033C2.82902 6.38968 2.75 6.19891 2.75 6C2.75 5.80109 2.82902 5.61032 2.96967 5.46967C3.11032 5.32902 3.30109 5.25 3.5 5.25H14.5C14.6989 5.25 14.8897 5.32902 15.0303 5.46967C15.171 5.61032 15.25 5.80109 15.25 6C15.25 6.19891 15.171 6.38968 15.0303 6.53033C14.8897 6.67098 14.6989 6.75 14.5 6.75Z"
    fill="#000D26"
  />
  <path
    d="M19 8C20.1046 8 21 7.10457 21 6C21 4.89543 20.1046 4 19 4C17.8954 4 17 4.89543 17 6C17 7.10457 17.8954 8 19 8Z"
    fill="#000D26"
  />
  <path
    d="M20.5 12.75H9.5C9.30109 12.75 9.11032 12.671 8.96967 12.5303C8.82902 12.3897 8.75 12.1989 8.75 12C8.75 11.8011 8.82902 11.6103 8.96967 11.4697C9.11032 11.329 9.30109 11.25 9.5 11.25H20.5C20.6989 11.25 20.8897 11.329 21.0303 11.4697C21.171 11.6103 21.25 11.8011 21.25 12C21.25 12.1989 21.171 12.3897 21.0303 12.5303C20.8897 12.671 20.6989 12.75 20.5 12.75Z"
    fill="#000D26"
  />
  <path
    d="M5 14C6.10457 14 7 13.1046 7 12C7 10.8954 6.10457 10 5 10C3.89543 10 3 10.8954 3 12C3 13.1046 3.89543 14 5 14Z"
    fill="#000D26"
  />
  <path
    d="M14.5 18.75H3.5C3.30109 18.75 3.11032 18.671 2.96967 18.5303C2.82902 18.3897 2.75 18.1989 2.75 18C2.75 17.8011 2.82902 17.6103 2.96967 17.4697C3.11032 17.329 3.30109 17.25 3.5 17.25H14.5C14.6989 17.25 14.8897 17.329 15.0303 17.4697C15.171 17.6103 15.25 17.8011 15.25 18C15.25 18.1989 15.171 18.3897 15.0303 18.5303C14.8897 18.671 14.6989 18.75 14.5 18.75Z"
    fill="#000D26"
  />
  <path
    d="M19 20C20.1046 20 21 19.1046 21 18C21 16.8954 20.1046 16 19 16C17.8954 16 17 16.8954 17 18C17 19.1046 17.8954 20 19 20Z"
    fill="#000D26"
  />
</svg>
