<svg
  width="24"
  height="24"
  viewBox="0 0 24 24"
  fill="none"
  xmlns="http://www.w3.org/2000/svg"
>
  <path
    d="M17 14.56C17 15.886 16.4732 17.1578 15.5355 18.0955C14.5979 19.0332 13.3261 19.56 12 19.56C10.6739 19.56 9.40215 19.0332 8.46447 18.0955C7.52678 17.1578 7 15.886 7 14.56C7 12.23 10.54 6.40996 11.66 4.62996C11.6959 4.57208 11.7459 4.52431 11.8054 4.49118C11.8649 4.45806 11.9319 4.44067 12 4.44067C12.0681 4.44067 12.1351 4.45806 12.1946 4.49118C12.2541 4.52431 12.3041 4.57208 12.34 4.62996C13.46 6.40996 17 12.23 17 14.56Z"
    fill="#000D26"
  />
</svg>
