<svg
  width="24"
  height="24"
  viewBox="0 0 24 24"
  fill="none"
  xmlns="http://www.w3.org/2000/svg"
>
  <path
    d="M19.39 9.20995C18.9828 9.38936 18.5447 9.48786 18.1 9.49995C17.2633 9.51695 16.4476 9.23701 15.7978 8.70978C15.1479 8.18256 14.7058 7.44215 14.55 6.61995C14.447 6.02023 14.4986 5.40417 14.7 4.82995C14.7141 4.78335 14.7171 4.73408 14.7086 4.68613C14.7002 4.63818 14.6805 4.59289 14.6513 4.55393C14.6221 4.51498 14.5841 4.48345 14.5404 4.46191C14.4968 4.44037 14.4486 4.42942 14.4 4.42995H7.19995C6.4043 4.42995 5.64124 4.74602 5.07863 5.30863C4.51602 5.87124 4.19995 6.6343 4.19995 7.42995V13.28C4.20085 13.9372 4.4176 14.5761 4.81687 15.0982C5.21615 15.6203 5.77585 15.9969 6.40995 16.17C6.63738 16.2187 6.84069 16.3453 6.98488 16.5278C7.12907 16.7103 7.20513 16.9374 7.19995 17.17V19.1C7.19937 19.1987 7.22803 19.2953 7.2823 19.3778C7.33658 19.4603 7.41405 19.5248 7.50495 19.5633C7.59585 19.6018 7.69611 19.6125 7.79309 19.5941C7.89008 19.5757 7.97946 19.5291 8.04995 19.4599L10.89 16.62C11.0762 16.4352 11.3276 16.3311 11.59 16.33H16.8C17.5956 16.33 18.3587 16.0139 18.9213 15.4513C19.4839 14.8887 19.8 14.1256 19.8 13.33V9.48995C19.8001 9.44098 19.7883 9.39271 19.7655 9.34937C19.7426 9.30603 19.7096 9.26893 19.6691 9.24131C19.6287 9.2137 19.5821 9.1964 19.5334 9.19093C19.4848 9.18546 19.4355 9.19199 19.39 9.20995ZM8.99995 11.2799C8.80217 11.2799 8.60883 11.2213 8.44438 11.1114C8.27993 11.0015 8.15176 10.8454 8.07607 10.6626C8.00038 10.4799 7.98058 10.2788 8.01917 10.0849C8.05775 9.89088 8.15299 9.7127 8.29284 9.57284C8.4327 9.43299 8.61088 9.33775 8.80486 9.29916C8.99884 9.26058 9.19991 9.28038 9.38264 9.35607C9.56536 9.43176 9.72154 9.55993 9.83142 9.72438C9.9413 9.88883 9.99995 10.0822 9.99995 10.2799C9.99995 10.5452 9.89459 10.7995 9.70706 10.9871C9.51952 11.1746 9.26517 11.2799 8.99995 11.2799ZM12 11.2799C11.8022 11.2799 11.6088 11.2213 11.4444 11.1114C11.2799 11.0015 11.1518 10.8454 11.0761 10.6626C11.0004 10.4799 10.9806 10.2788 11.0192 10.0849C11.0578 9.89088 11.153 9.7127 11.2928 9.57284C11.4327 9.43299 11.6109 9.33775 11.8049 9.29916C11.9988 9.26058 12.1999 9.28038 12.3826 9.35607C12.5654 9.43176 12.7215 9.55993 12.8314 9.72438C12.9413 9.88883 13 10.0822 13 10.2799C13 10.5452 12.8946 10.7995 12.7071 10.9871C12.5195 11.1746 12.2652 11.2799 12 11.2799ZM15 11.2799C14.8022 11.2799 14.6088 11.2213 14.4444 11.1114C14.2799 11.0015 14.1518 10.8454 14.0761 10.6626C14.0004 10.4799 13.9806 10.2788 14.0192 10.0849C14.0578 9.89088 14.153 9.7127 14.2928 9.57284C14.4327 9.43299 14.6109 9.33775 14.8049 9.29916C14.9988 9.26058 15.1999 9.28038 15.3826 9.35607C15.5654 9.43176 15.7215 9.55993 15.8314 9.72438C15.9413 9.88883 16 10.0822 16 10.2799C16 10.5452 15.8946 10.7995 15.7071 10.9871C15.5195 11.1746 15.2652 11.2799 15 11.2799Z"
    fill="#000D26"
  />
  <path
    d="M18 8C19.1046 8 20 7.10457 20 6C20 4.89543 19.1046 4 18 4C16.8954 4 16 4.89543 16 6C16 7.10457 16.8954 8 18 8Z"
    fill="#000D26"
  />
</svg>
