<svg
  width="24"
  height="24"
  viewBox="0 0 24 24"
  fill="none"
  xmlns="http://www.w3.org/2000/svg"
>
  <path
    d="M12 3C10.22 3 8.47991 3.52784 6.99987 4.51677C5.51983 5.50571 4.36628 6.91131 3.68509 8.55585C3.0039 10.2004 2.82567 12.01 3.17294 13.7558C3.5202 15.5016 4.37737 17.1053 5.63604 18.364C6.89472 19.6226 8.49836 20.4798 10.2442 20.8271C11.99 21.1743 13.7996 20.9961 15.4442 20.3149C17.0887 19.6337 18.4943 18.4802 19.4832 17.0001C20.4722 15.5201 21 13.78 21 12C21 9.61305 20.0518 7.32387 18.364 5.63604C16.6761 3.94821 14.387 3 12 3ZM16.29 12.71C16.29 12.9089 16.211 13.0997 16.0703 13.2403C15.9297 13.381 15.7389 13.46 15.54 13.46C15.3411 13.46 15.1503 13.381 15.0097 13.2403C14.869 13.0997 14.79 12.9089 14.79 12.71V10.28L9 16.07C8.93183 16.1415 8.84948 16.198 8.75822 16.2359C8.66696 16.2738 8.56879 16.2922 8.47 16.29C8.37146 16.2905 8.27382 16.2712 8.18281 16.2335C8.0918 16.1957 8.00925 16.1401 7.94 16.07C7.79955 15.9294 7.72066 15.7388 7.72066 15.54C7.72066 15.3412 7.79955 15.1506 7.94 15.01L13.74 9.22H11.29C11.0911 9.22 10.9003 9.14098 10.7597 9.00033C10.619 8.85968 10.54 8.66891 10.54 8.47C10.54 8.27109 10.619 8.08032 10.7597 7.93967C10.9003 7.79902 11.0911 7.72 11.29 7.72H15.54C15.6364 7.72078 15.7317 7.74119 15.82 7.78C15.9118 7.81559 15.9954 7.86937 16.0659 7.93811C16.1363 8.00685 16.1922 8.08913 16.23 8.18C16.2699 8.27147 16.2903 8.37022 16.29 8.47V12.71Z"
    fill="#000D26"
  />
</svg>
