<svg
  width="24"
  height="24"
  viewBox="0 0 24 24"
  fill="none"
  xmlns="http://www.w3.org/2000/svg"
>
  <path
    d="M18.18 10.0799C18.18 8.44086 17.5289 6.86896 16.3699 5.70998C15.211 4.55101 13.639 3.8999 12 3.8999C10.361 3.8999 8.78907 4.55101 7.63009 5.70998C6.47112 6.86896 5.82001 8.44086 5.82001 10.0799C5.82001 10.0799 5.47001 12.9199 9.51001 18.7899C9.78367 19.2025 10.1552 19.5409 10.5914 19.775C11.0276 20.0091 11.515 20.1316 12.01 20.1316C12.5051 20.1316 12.9924 20.0091 13.4286 19.775C13.8649 19.5409 14.2364 19.2025 14.51 18.7899C18.53 12.9199 18.18 10.0799 18.18 10.0799ZM15.66 9.2999L11.36 13.5999C11.2908 13.67 11.2082 13.7256 11.1172 13.7634C11.0262 13.8011 10.9286 13.8204 10.83 13.8199C10.7314 13.8209 10.6336 13.802 10.5425 13.7642C10.4514 13.7264 10.3689 13.6705 10.3 13.5999L8.30001 11.5999C8.22925 11.531 8.17302 11.4485 8.13462 11.3575C8.09622 11.2665 8.07644 11.1687 8.07644 11.0699C8.07644 10.9711 8.09622 10.8733 8.13462 10.7823C8.17302 10.6913 8.22925 10.6088 8.30001 10.5399C8.44064 10.3995 8.63126 10.3206 8.83001 10.3206C9.02876 10.3206 9.21939 10.3995 9.36001 10.5399L10.83 11.9999L14.6 8.2399C14.7422 8.10742 14.9302 8.0353 15.1245 8.03873C15.3188 8.04216 15.5042 8.12087 15.6416 8.25828C15.779 8.39569 15.8578 8.58108 15.8612 8.77538C15.8646 8.96968 15.7925 9.15773 15.66 9.2999Z"
    fill="#000D26"
  />
</svg>
