<svg
  width="24"
  height="24"
  viewBox="0 0 24 24"
  fill="none"
  xmlns="http://www.w3.org/2000/svg"
>
  <path
    d="M7.34001 15.3099L11.11 7.78989C11.1939 7.62609 11.3214 7.48862 11.4785 7.39263C11.6355 7.29664 11.816 7.24585 12 7.24585C12.1841 7.24585 12.3645 7.29664 12.5216 7.39263C12.6786 7.48862 12.8061 7.62609 12.89 7.78989L16.66 15.3099C16.7566 15.4977 16.7912 15.7113 16.759 15.92C16.7267 16.1287 16.6292 16.3218 16.4804 16.4717C16.3317 16.6216 16.1393 16.7205 15.9308 16.7543C15.7223 16.7881 15.5085 16.7551 15.32 16.6599L12.45 15.2199C12.3104 15.1496 12.1563 15.1129 12 15.1129C11.8437 15.1129 11.6896 15.1496 11.55 15.2199L8.68001 16.6599C8.49149 16.7551 8.27768 16.7881 8.06922 16.7543C7.86076 16.7205 7.66835 16.6216 7.51958 16.4717C7.37081 16.3218 7.2733 16.1287 7.24104 15.92C7.20879 15.7113 7.24343 15.4977 7.34001 15.3099Z"
    fill="#000D26"
  />
</svg>
