<svg
  width="24"
  height="24"
  viewBox="0 0 24 24"
  fill="none"
  xmlns="http://www.w3.org/2000/svg"
>
  <path
    d="M18.87 11.1299H5.12998C5.08944 11.1307 5.04956 11.1403 5.01309 11.158C4.97662 11.1757 4.94444 11.2011 4.91876 11.2325C4.89309 11.2639 4.87453 11.3005 4.86438 11.3397C4.85423 11.379 4.85273 11.42 4.85998 11.4599L5.99998 18.0899C6.07892 18.5673 6.32182 19.0022 6.68687 19.3198C7.05192 19.6374 7.51627 19.8178 7.99998 19.8299H16C16.4837 19.8178 16.948 19.6374 17.3131 19.3198C17.6781 19.0022 17.921 18.5673 18 18.0899L19.11 11.4599C19.1171 11.4223 19.1165 11.3837 19.1081 11.3464C19.0997 11.3091 19.0838 11.2739 19.0613 11.243C19.0388 11.2121 19.0103 11.1861 18.9774 11.1666C18.9445 11.1472 18.9079 11.1347 18.87 11.1299ZM15.2 13.6499L11.53 17.3099C11.4611 17.3805 11.3786 17.4363 11.2875 17.4741C11.1964 17.512 11.0986 17.5309 11 17.5299C10.9014 17.5303 10.8038 17.5111 10.7128 17.4733C10.6218 17.4356 10.5392 17.38 10.47 17.3099L8.79998 15.6399C8.72629 15.5712 8.66719 15.4884 8.6262 15.3964C8.58521 15.3044 8.56316 15.2051 8.56139 15.1044C8.55961 15.0037 8.57814 14.9037 8.61586 14.8103C8.65358 14.7169 8.70972 14.6321 8.78094 14.5608C8.85216 14.4896 8.93699 14.4335 9.03038 14.3958C9.12377 14.358 9.2238 14.3395 9.3245 14.3413C9.4252 14.3431 9.52452 14.3651 9.61652 14.4061C9.70852 14.4471 9.79132 14.5062 9.85998 14.5799L11 15.7199L14.14 12.5899C14.2089 12.5191 14.2913 12.4629 14.3824 12.4245C14.4734 12.3861 14.5712 12.3663 14.67 12.3663C14.7688 12.3663 14.8666 12.3861 14.9576 12.4245C15.0486 12.4629 15.131 12.5191 15.2 12.5899C15.3404 12.7305 15.4193 12.9211 15.4193 13.1199C15.4193 13.3186 15.3404 13.5093 15.2 13.6499Z"
    fill="#000D26"
  />
  <path
    d="M17.62 7.29001H16.79L16.66 7.09001L14.91 4.48001C14.8021 4.33727 14.6436 4.24127 14.4671 4.21174C14.2907 4.18222 14.1096 4.22141 13.9611 4.32126C13.8126 4.42111 13.7079 4.57404 13.6687 4.74863C13.6295 4.92323 13.6586 5.10622 13.75 5.26001L15.1 7.26001H8.90004L10.25 5.26001C10.3415 5.10622 10.3706 4.92323 10.3314 4.74863C10.2921 4.57404 10.1875 4.42111 10.039 4.32126C9.89053 4.22141 9.70943 4.18222 9.53294 4.21174C9.35644 4.24127 9.19796 4.33727 9.09004 4.48001L7.28004 7.19001L7.21004 7.29001H6.38004C6.10528 7.29013 5.83389 7.35047 5.58497 7.46679C5.33604 7.58311 5.11564 7.75257 4.93928 7.96326C4.76291 8.17394 4.63487 8.42073 4.56417 8.68623C4.49346 8.95174 4.48181 9.22952 4.53004 9.50001C4.54158 9.56363 4.57477 9.62129 4.62398 9.66321C4.6732 9.70514 4.73541 9.72874 4.80004 9.73001H19.2C19.2647 9.72874 19.3269 9.70514 19.3761 9.66321C19.4253 9.62129 19.4585 9.56363 19.47 9.50001C19.5183 9.22952 19.5066 8.95174 19.4359 8.68623C19.3652 8.42073 19.2372 8.17394 19.0608 7.96326C18.8844 7.75257 18.664 7.58311 18.4151 7.46679C18.1662 7.35047 17.8948 7.29013 17.62 7.29001Z"
    fill="#000D26"
  />
</svg>
