<svg
  width="24"
  height="24"
  viewBox="0 0 24 24"
  fill="none"
  xmlns="http://www.w3.org/2000/svg"
>
  <path
    d="M15.46 7.99996H18.46C18.4824 7.99826 18.5038 7.99032 18.5219 7.97705C18.54 7.96377 18.554 7.9457 18.5623 7.92488C18.5706 7.90405 18.5729 7.88131 18.569 7.85923C18.5651 7.83715 18.555 7.81662 18.54 7.79996L14.45 3.66996C14.4327 3.65449 14.4113 3.64436 14.3883 3.64081C14.3654 3.63727 14.3419 3.64045 14.3208 3.64997C14.2996 3.6595 14.2816 3.67496 14.2691 3.69448C14.2565 3.714 14.2499 3.73675 14.25 3.75996V6.75996C14.246 6.92137 14.2743 7.08194 14.3334 7.23223C14.3924 7.38251 14.4809 7.51947 14.5936 7.63502C14.7064 7.75058 14.8411 7.8424 14.9899 7.90507C15.1387 7.96775 15.2986 8.00001 15.46 7.99996Z"
    fill="#000D26"
  />
  <path
    d="M14.63 9.5C14.3831 9.5 14.1387 9.45137 13.9106 9.35689C13.6825 9.26241 13.4752 9.12393 13.3006 8.94936C13.1261 8.77479 12.9876 8.56754 12.8931 8.33945C12.7986 8.11135 12.75 7.86689 12.75 7.62V3.5H10.87C10.5251 3.5 10.1836 3.5681 9.86506 3.70039C9.54653 3.83268 9.25726 4.02656 9.01384 4.27091C8.77042 4.51526 8.57764 4.80527 8.44656 5.1243C8.31548 5.44333 8.24869 5.7851 8.25 6.13V14.88C8.25 15.2241 8.31777 15.5648 8.44944 15.8826C8.58111 16.2005 8.77409 16.4893 9.01738 16.7326C9.26067 16.9759 9.5495 17.1689 9.86737 17.3006C10.1852 17.4322 10.5259 17.5 10.87 17.5H16.12C16.4649 17.5013 16.8067 17.4345 17.1257 17.3034C17.4447 17.1724 17.7347 16.9796 17.9791 16.7362C18.2234 16.4927 18.4173 16.2035 18.5496 15.8849C18.6819 15.5664 18.75 15.2249 18.75 14.88V9.5H14.63Z"
    fill="#000D26"
  />
  <path
    d="M15.43 19.1301C15.2057 19.5475 14.8725 19.8963 14.4657 20.1393C14.0589 20.3823 13.5938 20.5105 13.12 20.5101H7.87001C7.17422 20.5074 6.50784 20.2292 6.01678 19.7363C5.52572 19.2433 5.25 18.5759 5.25001 17.8801V9.13009C5.24904 8.65999 5.37604 8.19849 5.61738 7.79507C5.85873 7.39165 6.20532 7.06152 6.62001 6.84009V16.0001C6.62 16.4067 6.70026 16.8093 6.85617 17.1849C7.01208 17.5604 7.24058 17.9015 7.52858 18.1886C7.81657 18.4757 8.15839 18.7031 8.53444 18.8578C8.91049 19.0124 9.31338 19.0914 9.72001 19.0901L15.43 19.1301Z"
    fill="#000D26"
  />
</svg>
