<svg
  width="24"
  height="24"
  viewBox="0 0 24 24"
  fill="none"
  xmlns="http://www.w3.org/2000/svg"
>
  <path
    d="M19 6.65993L12.92 3.14993C12.6406 2.98745 12.3232 2.90186 12 2.90186C11.6768 2.90186 11.3594 2.98745 11.08 3.14993L5 6.65993C4.69626 6.83529 4.44398 7.08744 4.26846 7.39109C4.09294 7.69474 4.00036 8.0392 4 8.38993C3.99901 10.8484 4.64543 13.2638 5.87423 15.3931C7.10304 17.5225 8.8709 19.2907 11 20.5199L11.5 20.8099C11.652 20.8977 11.8245 20.9439 12 20.9439C12.1755 20.9439 12.348 20.8977 12.5 20.8099L13 20.5199C15.1291 19.2907 16.897 17.5225 18.1258 15.3931C19.3546 13.2638 20.001 10.8484 20 8.38993C19.9996 8.0392 19.9071 7.69474 19.7315 7.39109C19.556 7.08744 19.3037 6.83529 19 6.65993ZM14.3 12.7399C14.4405 12.8806 14.5193 13.0712 14.5193 13.2699C14.5193 13.4687 14.4405 13.6593 14.3 13.7999C14.1572 13.9371 13.968 14.0156 13.77 14.0199C13.5716 14.0176 13.3817 13.9388 13.24 13.7999L12 12.5599L10.76 13.7999C10.6183 13.9388 10.4284 14.0176 10.23 14.0199C10.032 14.0156 9.84285 13.9371 9.7 13.7999C9.55955 13.6593 9.48066 13.4687 9.48066 13.2699C9.48066 13.0712 9.55955 12.8806 9.7 12.7399L10.94 11.4999L9.7 10.2599C9.56752 10.1178 9.4954 9.92971 9.49883 9.7354C9.50225 9.5411 9.58097 9.35572 9.71838 9.2183C9.85579 9.08089 10.0412 9.00218 10.2355 8.99875C10.4298 8.99532 10.6178 9.06745 10.76 9.19993L12 10.4399L13.24 9.19993C13.3822 9.06745 13.5702 8.99532 13.7645 8.99875C13.9588 9.00218 14.1442 9.08089 14.2816 9.2183C14.419 9.35572 14.4977 9.5411 14.5012 9.7354C14.5046 9.92971 14.4325 10.1178 14.3 10.2599L13.06 11.4999L14.3 12.7399Z"
    fill="#000D26"
  />
</svg>
