<svg
  width="24"
  height="24"
  viewBox="0 0 24 24"
  fill="none"
  xmlns="http://www.w3.org/2000/svg"
>
  <path
    d="M16.75 8.5V7C16.75 6.27065 16.4603 5.57118 15.9445 5.05546C15.4288 4.53973 14.7293 4.25 14 4.25H10C9.27065 4.25 8.57118 4.53973 8.05546 5.05546C7.53973 5.57118 7.25 6.27065 7.25 7V8.5C7.25574 8.77597 7.32668 9.04667 7.45703 9.28998C7.58738 9.5333 7.77343 9.74233 8 9.9L10.8 12L8 14.1C7.78266 14.263 7.60625 14.4744 7.48475 14.7174C7.36325 14.9604 7.3 15.2283 7.3 15.5V17C7.29988 17.7208 7.58274 18.4128 8.0877 18.9271C8.59266 19.4414 9.27935 19.7369 10 19.75H14C14.7293 19.75 15.4288 19.4603 15.9445 18.9445C16.4603 18.4288 16.75 17.7293 16.75 17V15.5C16.75 15.2283 16.6867 14.9604 16.5652 14.7174C16.4438 14.4744 16.2673 14.263 16.05 14.1L13.25 12L16.05 9.9C16.2673 9.73699 16.4438 9.52562 16.5652 9.28262C16.6867 9.03963 16.75 8.77168 16.75 8.5Z"
    fill="#000D26"
  />
</svg>
