<svg
  width="24"
  height="24"
  viewBox="0 0 24 24"
  fill="none"
  xmlns="http://www.w3.org/2000/svg"
>
  <path
    d="M10.33 3.2601L7.16 5.3701C6.83348 5.58527 6.45105 5.7 6.06 5.7001H4.16C3.76218 5.7001 3.38065 5.85814 3.09934 6.13944C2.81804 6.42075 2.66 6.80228 2.66 7.2001V16.2001C2.66 16.5979 2.81804 16.9795 3.09934 17.2608C3.38065 17.5421 3.76218 17.7001 4.16 17.7001H6.06C6.45207 17.7032 6.83459 17.8214 7.16 18.0401L10.33 20.1501C10.556 20.3002 10.8185 20.3863 11.0896 20.399C11.3606 20.4117 11.63 20.3507 11.8691 20.2225C12.1082 20.0942 12.3081 19.9035 12.4473 19.6706C12.5866 19.4377 12.6601 19.1714 12.66 18.9001V4.5001C12.6583 4.22961 12.5835 3.96462 12.4435 3.73317C12.3035 3.50172 12.1035 3.31244 11.8647 3.18536C11.626 3.05829 11.3572 2.99814 11.0871 3.0113C10.8169 3.02445 10.5553 3.11042 10.33 3.2601Z"
    fill="#000D26"
  />
  <path
    d="M21.34 11.45H15.68C15.4811 11.45 15.2903 11.529 15.1497 11.6696C15.009 11.8103 14.93 12.001 14.93 12.2C14.93 12.3989 15.009 12.5896 15.1497 12.7303C15.2903 12.8709 15.4811 12.95 15.68 12.95H21.34C21.5389 12.95 21.7297 12.8709 21.8703 12.7303C22.011 12.5896 22.09 12.3989 22.09 12.2C22.09 12.001 22.011 11.8103 21.8703 11.6696C21.7297 11.529 21.5389 11.45 21.34 11.45Z"
    fill="#000D26"
  />
</svg>
