<svg
  width="24"
  height="24"
  viewBox="0 0 24 24"
  fill="none"
  xmlns="http://www.w3.org/2000/svg"
>
  <path
    d="M17.83 11.3301L9.63999 19.5601C9.60825 19.5979 9.59085 19.6457 9.59085 19.6951C9.59085 19.7444 9.60825 19.7922 9.63999 19.8301C9.92881 20.2085 10.3035 20.5127 10.7332 20.7176C11.1628 20.9225 11.6351 21.0223 12.1109 21.0086C12.5867 20.9949 13.0524 20.8682 13.4696 20.6389C13.8868 20.4097 14.2434 20.0844 14.51 19.6901C17.57 15.2401 18.11 12.5301 18.19 11.4801C18.1977 11.4354 18.19 11.3895 18.1682 11.3497C18.1463 11.31 18.1117 11.2789 18.0698 11.2615C18.028 11.244 17.9815 11.2413 17.9379 11.2538C17.8943 11.2663 17.8563 11.2932 17.83 11.3301Z"
    fill="#000D26"
  />
  <path
    d="M21.53 3.36997C21.3894 3.22952 21.1988 3.15063 21 3.15063C20.8012 3.15063 20.6106 3.22952 20.47 3.36997L16.78 7.05997C15.971 6.07276 14.8762 5.36024 13.646 5.0203C12.4157 4.68035 11.1104 4.72965 9.9093 5.16143C8.70821 5.59321 7.67027 6.38629 6.93805 7.43172C6.20584 8.47714 5.81527 9.72364 5.82 11C5.82 11 5.6 12.76 7.49 16.37L2.49 21.37C2.34955 21.5106 2.27066 21.7012 2.27066 21.9C2.27066 22.0987 2.34955 22.2894 2.49 22.43C2.63063 22.5704 2.82125 22.6493 3.02 22.6493C3.21875 22.6493 3.40938 22.5704 3.55 22.43L21.55 4.42997C21.6878 4.28672 21.7631 4.0946 21.7594 3.89584C21.7556 3.69707 21.6731 3.50793 21.53 3.36997ZM10.59 12.37C10.3823 12.1665 10.2215 11.9202 10.1187 11.6482C10.0159 11.3762 9.97369 11.0851 9.99494 10.7951C10.0162 10.5051 10.1004 10.2233 10.2417 9.96916C10.3831 9.71506 10.5781 9.49483 10.8132 9.32382C11.0484 9.1528 11.318 9.03511 11.6033 8.97895C11.8886 8.92279 12.1827 8.92951 12.4651 8.99864C12.7475 9.06776 13.0115 9.19764 13.2386 9.37921C13.4656 9.56078 13.6504 9.78969 13.78 10.05L11.09 12.74C10.9057 12.6465 10.7371 12.5251 10.59 12.38V12.37Z"
    fill="#000D26"
  />
</svg>
