<svg
  width="24"
  height="24"
  viewBox="0 0 24 24"
  fill="none"
  xmlns="http://www.w3.org/2000/svg"
>
  <path
    d="M12 3C10.22 3 8.47991 3.52784 6.99987 4.51677C5.51983 5.50571 4.36628 6.91131 3.68509 8.55585C3.0039 10.2004 2.82567 12.01 3.17294 13.7558C3.5202 15.5016 4.37737 17.1053 5.63604 18.364C6.89472 19.6226 8.49836 20.4798 10.2442 20.8271C11.99 21.1743 13.7996 20.9961 15.4442 20.3149C17.0887 19.6337 18.4943 18.4802 19.4832 17.0001C20.4722 15.5201 21 13.78 21 12C21 9.61305 20.0518 7.32387 18.364 5.63604C16.6761 3.94821 14.387 3 12 3ZM14 12.53L11 15.53C10.8594 15.6705 10.6688 15.7493 10.47 15.7493C10.2713 15.7493 10.0806 15.6705 9.94 15.53C9.79955 15.3894 9.72066 15.1988 9.72066 15C9.72066 14.8012 9.79955 14.6106 9.94 14.47L12.44 12L10 9.53C9.90861 9.38904 9.86719 9.22148 9.88238 9.05418C9.89757 8.88688 9.96848 8.72952 10.0838 8.60732C10.199 8.48512 10.352 8.40517 10.5181 8.38027C10.6843 8.35537 10.854 8.38697 11 8.47L14 11.47C14.1405 11.6106 14.2193 11.8012 14.2193 12C14.2193 12.1988 14.1405 12.3894 14 12.53Z"
    fill="#000D26"
  />
</svg>
