<svg
  width="24"
  height="24"
  viewBox="0 0 24 24"
  fill="none"
  xmlns="http://www.w3.org/2000/svg"
>
  <path
    d="M16.82 7.99988L12.44 10.5299V9.46988C12.4482 9.16622 12.374 8.86602 12.2251 8.60121C12.0763 8.3364 11.8584 8.11691 11.5947 7.96609C11.3311 7.81526 11.0314 7.73876 10.7277 7.74471C10.424 7.75066 10.1276 7.83885 9.87 7.99988L5.49 10.5399C5.23476 10.6887 5.02299 10.9018 4.87581 11.158C4.72863 11.4142 4.65118 11.7044 4.65118 11.9999C4.65118 12.2953 4.72863 12.5856 4.87581 12.8418C5.02299 13.098 5.23476 13.3111 5.49 13.4599L9.87 15.9999C10.126 16.1501 10.4172 16.2297 10.7141 16.2308C11.0109 16.2318 11.3027 16.1543 11.5597 16.0059C11.8168 15.8575 12.03 15.6437 12.1776 15.3862C12.3252 15.1287 12.4019 14.8367 12.4 14.5399V13.4399L16.82 15.9999C17.0765 16.1468 17.3671 16.2239 17.6627 16.2234C17.9583 16.223 18.2487 16.1449 18.5047 15.9972C18.7608 15.8494 18.9736 15.6371 19.1219 15.3814C19.2702 15.1257 19.3489 14.8355 19.35 14.5399V9.46988C19.3506 9.17342 19.2732 8.882 19.1256 8.62489C18.978 8.36778 18.7654 8.15403 18.509 8.00509C18.2527 7.85615 17.9617 7.77726 17.6652 7.77635C17.3687 7.77543 17.0773 7.85253 16.82 7.99988Z"
    fill="#000D26"
  />
</svg>
