<svg
  width="24"
  height="24"
  viewBox="0 0 24 24"
  fill="none"
  xmlns="http://www.w3.org/2000/svg"
>
  <path
    d="M18.46 12.6501L15.64 11.0001C15.4706 10.8966 15.276 10.8419 15.0775 10.8418C14.879 10.8417 14.6844 10.8964 14.5149 10.9997C14.3454 11.103 14.2077 11.2511 14.1169 11.4275C14.0261 11.604 13.9856 11.8021 14 12.0001V15.2601C13.9981 15.4515 14.0472 15.64 14.1421 15.8063C14.2371 15.9725 14.3746 16.1105 14.5404 16.2062C14.7063 16.3018 14.8946 16.3517 15.086 16.3506C15.2775 16.3495 15.4652 16.2976 15.63 16.2001L18.45 14.5701C18.6268 14.4801 18.7754 14.3432 18.8795 14.1744C18.9836 14.0056 19.0392 13.8114 19.0402 13.6131C19.0413 13.4148 18.9877 13.22 18.8853 13.0501C18.783 12.8802 18.6358 12.7418 18.46 12.6501Z"
    fill="#000D26"
  />
  <path
    d="M19 6.93994H5C4.80109 6.93994 4.61032 7.01896 4.46967 7.15961C4.32902 7.30026 4.25 7.49103 4.25 7.68994C4.25 7.88885 4.32902 8.07962 4.46967 8.22027C4.61032 8.36092 4.80109 8.43994 5 8.43994H19C19.1989 8.43994 19.3897 8.36092 19.5303 8.22027C19.671 8.07962 19.75 7.88885 19.75 7.68994C19.75 7.49103 19.671 7.30026 19.5303 7.15961C19.3897 7.01896 19.1989 6.93994 19 6.93994Z"
    fill="#000D26"
  />
  <path
    d="M11 10.9399H5C4.80109 10.9399 4.61032 11.019 4.46967 11.1596C4.32902 11.3003 4.25 11.491 4.25 11.6899C4.25 11.8889 4.32902 12.0796 4.46967 12.2203C4.61032 12.3609 4.80109 12.4399 5 12.4399H11C11.1989 12.4399 11.3897 12.3609 11.5303 12.2203C11.671 12.0796 11.75 11.8889 11.75 11.6899C11.75 11.491 11.671 11.3003 11.5303 11.1596C11.3897 11.019 11.1989 10.9399 11 10.9399Z"
    fill="#000D26"
  />
  <path
    d="M11 14.9399H5C4.80109 14.9399 4.61032 15.019 4.46967 15.1596C4.32902 15.3003 4.25 15.491 4.25 15.6899C4.25 15.8889 4.32902 16.0796 4.46967 16.2203C4.61032 16.3609 4.80109 16.4399 5 16.4399H11C11.1989 16.4399 11.3897 16.3609 11.5303 16.2203C11.671 16.0796 11.75 15.8889 11.75 15.6899C11.75 15.491 11.671 15.3003 11.5303 15.1596C11.3897 15.019 11.1989 14.9399 11 14.9399Z"
    fill="#000D26"
  />
</svg>
