<svg
  width="24"
  height="24"
  viewBox="0 0 24 24"
  fill="none"
  xmlns="http://www.w3.org/2000/svg"
>
  <path
    d="M17 3H7C5.93913 3 4.92172 3.42143 4.17157 4.17157C3.42143 4.92172 3 5.93913 3 7V17C3 18.0609 3.42143 19.0783 4.17157 19.8284C4.92172 20.5786 5.93913 21 7 21H17C18.0609 21 19.0783 20.5786 19.8284 19.8284C20.5786 19.0783 21 18.0609 21 17V7C21 5.93913 20.5786 4.92172 19.8284 4.17157C19.0783 3.42143 18.0609 3 17 3ZM18 11C18 11.1989 17.921 11.3897 17.7803 11.5303C17.6397 11.671 17.4489 11.75 17.25 11.75C17.0511 11.75 16.8603 11.671 16.7197 11.5303C16.579 11.3897 16.5 11.1989 16.5 11V8.56L10.71 14.35C10.6411 14.4208 10.5586 14.477 10.4676 14.5154C10.3766 14.5538 10.2788 14.5736 10.18 14.5736C10.0812 14.5736 9.98341 14.5538 9.89239 14.5154C9.80136 14.477 9.71895 14.4208 9.65 14.35C9.50955 14.2094 9.43066 14.0188 9.43066 13.82C9.43066 13.6212 9.50955 13.4306 9.65 13.29L15.44 7.5H13C12.8011 7.5 12.6103 7.42098 12.4697 7.28033C12.329 7.13968 12.25 6.94891 12.25 6.75C12.25 6.55109 12.329 6.36032 12.4697 6.21967C12.6103 6.07902 12.8011 6 13 6H17.24C17.3398 5.99969 17.4385 6.02012 17.53 6.06C17.6653 6.1181 17.7807 6.21424 17.8624 6.33673C17.9441 6.45922 17.9884 6.60279 17.99 6.75L18 11Z"
    fill="#000D26"
  />
</svg>
