<svg
  width="24"
  height="24"
  viewBox="0 0 24 24"
  fill="none"
  xmlns="http://www.w3.org/2000/svg"
>
  <path
    d="M20.65 10.94L18.87 9.16V6.64C18.87 6.24217 18.712 5.86064 18.4307 5.57934C18.1494 5.29803 17.7678 5.14 17.37 5.14H14.84L13.06 3.35C12.7775 3.07152 12.3967 2.91541 12 2.91541C11.6033 2.91541 11.2225 3.07152 10.94 3.35L9.16 5.14H6.63C6.23217 5.14 5.85064 5.29803 5.56934 5.57934C5.28803 5.86064 5.13 6.24217 5.13 6.64V9.16L3.35 10.94C3.20971 11.0786 3.09832 11.2436 3.0223 11.4256C2.94628 11.6076 2.90714 11.8028 2.90714 12C2.90714 12.1972 2.94628 12.3924 3.0223 12.5744C3.09832 12.7564 3.20971 12.9214 3.35 13.06L5.13 14.85V17.37C5.13 17.7678 5.28803 18.1494 5.56934 18.4307C5.85064 18.712 6.23217 18.87 6.63 18.87H9.16L10.94 20.65C11.0786 20.7903 11.2436 20.9017 11.4256 20.9777C11.6076 21.0537 11.8028 21.0929 12 21.0929C12.1972 21.0929 12.3924 21.0537 12.5744 20.9777C12.7564 20.9017 12.9214 20.7903 13.06 20.65L14.84 18.87H17.37C17.7678 18.87 18.1494 18.712 18.4307 18.4307C18.712 18.1494 18.87 17.7678 18.87 17.37V14.85L20.65 13.06C20.7903 12.9214 20.9017 12.7564 20.9777 12.5744C21.0537 12.3924 21.0929 12.1972 21.0929 12C21.0929 11.8028 21.0537 11.6076 20.9777 11.4256C20.9017 11.2436 20.7903 11.0786 20.65 10.94ZM11.25 7.5C11.25 7.30109 11.329 7.11032 11.4697 6.96967C11.6103 6.82902 11.8011 6.75 12 6.75C12.1989 6.75 12.3897 6.82902 12.5303 6.96967C12.671 7.11032 12.75 7.30109 12.75 7.5V13.8C12.75 13.9989 12.671 14.1897 12.5303 14.3303C12.3897 14.471 12.1989 14.55 12 14.55C11.8011 14.55 11.6103 14.471 11.4697 14.3303C11.329 14.1897 11.25 13.9989 11.25 13.8V7.5ZM12 17.5C11.8022 17.5 11.6089 17.4413 11.4444 17.3315C11.28 17.2216 11.1518 17.0654 11.0761 16.8827C11.0004 16.7 10.9806 16.4989 11.0192 16.3049C11.0578 16.1109 11.153 15.9327 11.2929 15.7929C11.4327 15.653 11.6109 15.5578 11.8049 15.5192C11.9989 15.4806 12.2 15.5004 12.3827 15.5761C12.5654 15.6518 12.7216 15.78 12.8315 15.9444C12.9413 16.1089 13 16.3022 13 16.5C13 16.7652 12.8946 17.0196 12.7071 17.2071C12.5196 17.3946 12.2652 17.5 12 17.5Z"
    fill="#000D26"
  />
</svg>
