<svg
  width="24"
  height="24"
  viewBox="0 0 24 24"
  fill="none"
  xmlns="http://www.w3.org/2000/svg"
>
  <path
    d="M15 4H9C8.20435 4 7.44129 4.31607 6.87868 4.87868C6.31607 5.44129 6 6.20435 6 7V17C6 17.7956 6.31607 18.5587 6.87868 19.1213C7.44129 19.6839 8.20435 20 9 20H15C15.7956 20 16.5587 19.6839 17.1213 19.1213C17.6839 18.5587 18 17.7956 18 17V7C18 6.20435 17.6839 5.44129 17.1213 4.87868C16.5587 4.31607 15.7956 4 15 4ZM12.5 14.75H9.5C9.30109 14.75 9.11032 14.671 8.96967 14.5303C8.82902 14.3897 8.75 14.1989 8.75 14C8.75 13.8011 8.82902 13.6103 8.96967 13.4697C9.11032 13.329 9.30109 13.25 9.5 13.25H12.5C12.6989 13.25 12.8897 13.329 13.0303 13.4697C13.171 13.6103 13.25 13.8011 13.25 14C13.25 14.1989 13.171 14.3897 13.0303 14.5303C12.8897 14.671 12.6989 14.75 12.5 14.75ZM14.5 11.75H9.5C9.30109 11.75 9.11032 11.671 8.96967 11.5303C8.82902 11.3897 8.75 11.1989 8.75 11C8.75 10.8011 8.82902 10.6103 8.96967 10.4697C9.11032 10.329 9.30109 10.25 9.5 10.25H14.5C14.6989 10.25 14.8897 10.329 15.0303 10.4697C15.171 10.6103 15.25 10.8011 15.25 11C15.25 11.1989 15.171 11.3897 15.0303 11.5303C14.8897 11.671 14.6989 11.75 14.5 11.75ZM14.5 8.75H9.5C9.30109 8.75 9.11032 8.67098 8.96967 8.53033C8.82902 8.38968 8.75 8.19891 8.75 8C8.75 7.80109 8.82902 7.61032 8.96967 7.46967C9.11032 7.32902 9.30109 7.25 9.5 7.25H14.5C14.6989 7.25 14.8897 7.32902 15.0303 7.46967C15.171 7.61032 15.25 7.80109 15.25 8C15.25 8.19891 15.171 8.38968 15.0303 8.53033C14.8897 8.67098 14.6989 8.75 14.5 8.75Z"
    fill="#000D26"
  />
</svg>
