<svg
  width="24"
  height="24"
  viewBox="0 0 24 24"
  fill="none"
  xmlns="http://www.w3.org/2000/svg"
>
  <path
    d="M19 10H20.6C20.7061 10 20.8078 9.95786 20.8828 9.88284C20.9579 9.80783 21 9.70609 21 9.6V8C21 7.20435 20.6839 6.44129 20.1213 5.87868C19.5587 5.31607 18.7956 5 18 5H6C5.20435 5 4.44129 5.31607 3.87868 5.87868C3.31607 6.44129 3 7.20435 3 8V9.6C3 9.70609 3.04214 9.80783 3.11716 9.88284C3.19217 9.95786 3.29391 10 3.4 10H5C5.52815 9.99958 6.03502 10.2081 6.41 10.58C6.61614 10.7834 6.77566 11.0291 6.87752 11.3002C6.97939 11.5712 7.02118 11.8612 7 12.15C6.94964 12.6653 6.70616 13.1425 6.31847 13.4856C5.93078 13.8288 5.4276 14.0126 4.91 14H3.4C3.29391 14 3.19217 14.0421 3.11716 14.1172C3.04214 14.1922 3 14.2939 3 14.4V16C3 16.7956 3.31607 17.5587 3.87868 18.1213C4.44129 18.6839 5.20435 19 6 19H18C18.7956 19 19.5587 18.6839 20.1213 18.1213C20.6839 17.5587 21 16.7956 21 16V14.4C21 14.2939 20.9579 14.1922 20.8828 14.1172C20.8078 14.0421 20.7061 14 20.6 14H19C18.4696 14 17.9609 13.7893 17.5858 13.4142C17.2107 13.0391 17 12.5304 17 12C17 11.4696 17.2107 10.9609 17.5858 10.5858C17.9609 10.2107 18.4696 10 19 10ZM14.4 11.88L13.74 12.53C13.6816 12.5835 13.638 12.6513 13.6135 12.7266C13.589 12.8019 13.5843 12.8823 13.6 12.96L13.75 13.88C13.7665 13.9691 13.7575 14.061 13.724 14.1451C13.6906 14.2293 13.6339 14.3023 13.5607 14.3556C13.4875 14.4089 13.4007 14.4405 13.3103 14.4466C13.22 14.4526 13.1297 14.433 13.05 14.39L12.23 14C12.1598 13.9606 12.0806 13.9399 12 13.9399C11.9194 13.9399 11.8402 13.9606 11.77 14L10.95 14.43C10.8703 14.473 10.78 14.4926 10.6897 14.4866C10.5993 14.4805 10.5125 14.4489 10.4393 14.3956C10.3661 14.3423 10.3094 14.2693 10.276 14.1851C10.2425 14.101 10.2335 14.0091 10.25 13.92L10.4 13C10.4157 12.9223 10.411 12.8419 10.3865 12.7666C10.362 12.6913 10.3184 12.6235 10.26 12.57L9.6 11.92C9.53623 11.8561 9.49136 11.7758 9.47034 11.688C9.44933 11.6001 9.45299 11.5082 9.48093 11.4223C9.50886 11.3365 9.55998 11.26 9.62864 11.2014C9.69729 11.1427 9.78082 11.1042 9.87 11.09L10.79 10.96C10.8668 10.9497 10.9398 10.9206 11.0026 10.8752C11.0655 10.8298 11.1161 10.7697 11.15 10.7L11.57 9.86C11.6097 9.77991 11.671 9.71251 11.747 9.66539C11.823 9.61827 11.9106 9.59331 12 9.59331C12.0894 9.59331 12.177 9.61827 12.253 9.66539C12.329 9.71251 12.3903 9.77991 12.43 9.86L12.85 10.7C12.8839 10.7697 12.9345 10.8298 12.9974 10.8752C13.0602 10.9206 13.1332 10.9497 13.21 10.96L14.13 11.09C14.2117 11.1084 14.2873 11.1475 14.3496 11.2034C14.4118 11.2593 14.4588 11.3303 14.4858 11.4095C14.5129 11.4887 14.5192 11.5736 14.5042 11.6559C14.4892 11.7383 14.4533 11.8154 14.4 11.88Z"
    fill="#000D26"
  />
</svg>
