<svg
  width="24"
  height="24"
  viewBox="0 0 24 24"
  fill="none"
  xmlns="http://www.w3.org/2000/svg"
>
  <path
    d="M15.89 8H15.15V6.4C15.15 5.98634 15.0685 5.57672 14.9102 5.19455C14.7519 4.81237 14.5199 4.46512 14.2274 4.17261C13.9348 3.88011 13.5876 3.64808 13.2054 3.48978C12.8232 3.33148 12.4136 3.25 12 3.25C11.5863 3.25 11.1767 3.33148 10.7945 3.48978C10.4123 3.64808 10.0651 3.88011 9.77258 4.17261C9.48007 4.46512 9.24805 4.81237 9.08974 5.19455C8.93144 5.57672 8.84996 5.98634 8.84996 6.4V8H8.10996C7.81709 7.99598 7.52691 8.05634 7.25994 8.1768C6.99296 8.29727 6.7557 8.47491 6.56493 8.69716C6.37415 8.91941 6.23452 9.18085 6.15591 9.463C6.07729 9.74515 6.06161 10.0411 6.10996 10.33L7.43996 18.33C7.51878 18.8014 7.76382 19.229 8.1307 19.5354C8.49758 19.8417 8.96204 20.0065 9.43996 20H14.56C15.0379 20.0065 15.5023 19.8417 15.8692 19.5354C16.2361 19.229 16.4811 18.8014 16.56 18.33L17.89 10.33C17.9383 10.0411 17.9226 9.74515 17.844 9.463C17.7654 9.18085 17.6258 8.91941 17.435 8.69716C17.2442 8.47491 17.007 8.29727 16.74 8.1768C16.473 8.05634 16.1828 7.99598 15.89 8ZM10.35 6.4C10.35 6.18332 10.3926 5.96876 10.4756 5.76857C10.5585 5.56839 10.68 5.38649 10.8332 5.23327C10.9865 5.08006 11.1683 4.95852 11.3685 4.8756C11.5687 4.79268 11.7833 4.75 12 4.75C12.2166 4.75 12.4312 4.79268 12.6314 4.8756C12.8316 4.95852 13.0135 5.08006 13.1667 5.23327C13.3199 5.38649 13.4414 5.56839 13.5244 5.76857C13.6073 5.96876 13.65 6.18332 13.65 6.4V8H10.35V6.4ZM13.94 14.88C14.0107 14.9489 14.067 15.0314 14.1054 15.1224C14.1438 15.2134 14.1635 15.3112 14.1635 15.41C14.1635 15.5088 14.1438 15.6066 14.1054 15.6976C14.067 15.7886 14.0107 15.8711 13.94 15.94C13.8718 16.0115 13.7894 16.068 13.6982 16.1059C13.6069 16.1438 13.5088 16.1622 13.41 16.16C13.3114 16.1605 13.2138 16.1412 13.1228 16.1035C13.0318 16.0657 12.9492 16.0101 12.88 15.94L12 15.06L11.12 15.94C11.0507 16.0101 10.9682 16.0657 10.8772 16.1035C10.7861 16.1412 10.6885 16.1605 10.59 16.16C10.4912 16.1622 10.393 16.1438 10.3017 16.1059C10.2105 16.068 10.1281 16.0115 10.06 15.94C9.98921 15.8711 9.93297 15.7886 9.89457 15.6976C9.85618 15.6066 9.83639 15.5088 9.83639 15.41C9.83639 15.3112 9.85618 15.2134 9.89457 15.1224C9.93297 15.0314 9.98921 14.9489 10.06 14.88L10.94 14L10.06 13.12C9.92748 12.9778 9.85536 12.7898 9.85879 12.5955C9.86222 12.4012 9.94093 12.2158 10.0783 12.0784C10.2158 11.941 10.4011 11.8623 10.5954 11.8588C10.7897 11.8554 10.9778 11.9275 11.12 12.06L12 12.94L12.88 12.06C13.0221 11.9275 13.2102 11.8554 13.4045 11.8588C13.5988 11.8623 13.7842 11.941 13.9216 12.0784C14.059 12.2158 14.1377 12.4012 14.1411 12.5955C14.1446 12.7898 14.0724 12.9778 13.94 13.12L13.06 14L13.94 14.88Z"
    fill="#000D26"
  />
</svg>
