<svg
  width="24"
  height="24"
  viewBox="0 0 24 24"
  fill="none"
  xmlns="http://www.w3.org/2000/svg"
>
  <path
    d="M12 3C10.22 3 8.47991 3.52784 6.99987 4.51677C5.51983 5.50571 4.36628 6.91131 3.68509 8.55585C3.0039 10.2004 2.82567 12.01 3.17294 13.7558C3.5202 15.5016 4.37737 17.1053 5.63604 18.364C6.89472 19.6226 8.49836 20.4798 10.2442 20.8271C11.99 21.1743 13.7996 20.9961 15.4442 20.3149C17.0887 19.6337 18.4943 18.4802 19.4832 17.0001C20.4722 15.5201 21 13.78 21 12C21 9.61305 20.0518 7.32387 18.364 5.63604C16.6761 3.94821 14.387 3 12 3ZM6.82 9.46C6.82 8.75983 7.09815 8.08833 7.59324 7.59324C8.08834 7.09814 8.75983 6.82 9.46 6.82H10.46C10.6191 6.82 10.7717 6.88321 10.8843 6.99574C10.9968 7.10826 11.06 7.26087 11.06 7.42C11.06 7.57913 10.9968 7.73174 10.8843 7.84426C10.7717 7.95679 10.6191 8.02 10.46 8.02H9.46C9.26886 8.01598 9.07885 8.05034 8.90121 8.12103C8.72358 8.19172 8.56192 8.29732 8.4258 8.43157C8.28968 8.56583 8.18187 8.72601 8.10873 8.90266C8.0356 9.0793 7.99863 9.26882 8 9.46V10.46C8 10.6191 7.93679 10.7717 7.82427 10.8843C7.71175 10.9968 7.55913 11.06 7.4 11.06C7.24087 11.06 7.08826 10.9968 6.97574 10.8843C6.86322 10.7717 6.8 10.6191 6.8 10.46L6.82 9.46ZM10.47 17.18H9.47C9.12331 17.18 8.78002 17.1117 8.45972 16.979C8.13942 16.8464 7.84839 16.6519 7.60324 16.4068C7.3581 16.1616 7.16363 15.8706 7.03096 15.5503C6.89829 15.23 6.83 14.8867 6.83 14.54V13.54C6.83 13.3809 6.89322 13.2283 7.00574 13.1157C7.11826 13.0032 7.27087 12.94 7.43 12.94C7.58913 12.94 7.74175 13.0032 7.85427 13.1157C7.96679 13.2283 8.03 13.3809 8.03 13.54V14.54C8.02601 14.7303 8.06005 14.9195 8.13012 15.0965C8.2002 15.2734 8.3049 15.4346 8.43809 15.5706C8.57127 15.7066 8.73027 15.8146 8.90575 15.8884C9.08123 15.9621 9.26966 16 9.46 16H10.46C10.6191 16 10.7717 16.0632 10.8843 16.1757C10.9968 16.2883 11.06 16.4409 11.06 16.6C11.06 16.7591 10.9968 16.9117 10.8843 17.0243C10.7717 17.1368 10.6191 17.2 10.46 17.2L10.47 17.18ZM17.18 14.54C17.18 14.8867 17.1117 15.23 16.979 15.5503C16.8464 15.8706 16.6519 16.1616 16.4068 16.4068C16.1616 16.6519 15.8706 16.8464 15.5503 16.979C15.23 17.1117 14.8867 17.18 14.54 17.18H13.54C13.3809 17.18 13.2283 17.1168 13.1157 17.0043C13.0032 16.8917 12.94 16.7391 12.94 16.58C12.94 16.4209 13.0032 16.2683 13.1157 16.1557C13.2283 16.0432 13.3809 15.98 13.54 15.98H14.54C14.7311 15.984 14.9212 15.9497 15.0988 15.879C15.2764 15.8083 15.4381 15.7027 15.5742 15.5684C15.7103 15.4342 15.8181 15.274 15.8913 15.0973C15.9644 14.9207 16.0014 14.7312 16 14.54V13.54C16 13.3809 16.0632 13.2283 16.1757 13.1157C16.2883 13.0032 16.4409 12.94 16.6 12.94C16.7591 12.94 16.9117 13.0032 17.0243 13.1157C17.1368 13.2283 17.2 13.3809 17.2 13.54L17.18 14.54ZM16.58 12.6H7.42C7.26087 12.6 7.10826 12.5368 6.99574 12.4243C6.88322 12.3117 6.82 12.1591 6.82 12C6.82 11.8409 6.88322 11.6883 6.99574 11.5757C7.10826 11.4632 7.26087 11.4 7.42 11.4H16.58C16.7391 11.4 16.8917 11.4632 17.0043 11.5757C17.1168 11.6883 17.18 11.8409 17.18 12C17.18 12.1591 17.1168 12.3117 17.0043 12.4243C16.8917 12.5368 16.7391 12.6 16.58 12.6ZM17.18 10.47C17.18 10.5488 17.1645 10.6268 17.1343 10.6996C17.1042 10.7724 17.06 10.8385 17.0043 10.8943C16.9486 10.95 16.8824 10.9942 16.8096 11.0243C16.7368 11.0545 16.6588 11.07 16.58 11.07C16.5012 11.07 16.4232 11.0545 16.3504 11.0243C16.2776 10.9942 16.2115 10.95 16.1557 10.8943C16.1 10.8385 16.0558 10.7724 16.0257 10.6996C15.9955 10.6268 15.98 10.5488 15.98 10.47V9.47C15.9854 9.27803 15.952 9.08694 15.882 8.90813C15.8119 8.72933 15.7065 8.56647 15.5721 8.42928C15.4377 8.29208 15.2771 8.18337 15.0997 8.10961C14.9224 8.03586 14.732 7.99858 14.54 8H13.54C13.3809 8 13.2283 7.93679 13.1157 7.82426C13.0032 7.71174 12.94 7.55913 12.94 7.4C12.94 7.24087 13.0032 7.08826 13.1157 6.97574C13.2283 6.86321 13.3809 6.8 13.54 6.8H14.54C14.8867 6.8 15.23 6.86829 15.5503 7.00096C15.8706 7.13363 16.1616 7.32809 16.4068 7.57324C16.6519 7.81838 16.8464 8.10942 16.979 8.42972C17.1117 8.75002 17.18 9.09331 17.18 9.44V10.47Z"
    fill="#000D26"
  />
</svg>
