<svg
  width="24"
  height="24"
  viewBox="0 0 24 24"
  fill="none"
  xmlns="http://www.w3.org/2000/svg"
>
  <path
    d="M17 3H7C5.93913 3 4.92172 3.42143 4.17157 4.17157C3.42143 4.92172 3 5.93913 3 7V17C3 18.0609 3.42143 19.0783 4.17157 19.8284C4.92172 20.5786 5.93913 21 7 21H17C18.0609 21 19.0783 20.5786 19.8284 19.8284C20.5786 19.0783 21 18.0609 21 17V7C21 5.93913 20.5786 4.92172 19.8284 4.17157C19.0783 3.42143 18.0609 3 17 3ZM15.53 14C15.3894 14.1405 15.1988 14.2193 15 14.2193C14.8012 14.2193 14.6106 14.1405 14.47 14L12 11.56L9.53 14C9.38904 14.0914 9.22148 14.1328 9.05418 14.1176C8.88688 14.1024 8.72952 14.0315 8.60732 13.9162C8.48512 13.801 8.40517 13.648 8.38027 13.4819C8.35537 13.3157 8.38697 13.146 8.47 13L11.47 10C11.6106 9.85955 11.8012 9.78066 12 9.78066C12.1988 9.78066 12.3894 9.85955 12.53 10L15.53 13C15.653 13.1375 15.721 13.3155 15.721 13.5C15.721 13.6845 15.653 13.8625 15.53 14Z"
    fill="#000D26"
  />
</svg>
