<svg
  width="24"
  height="24"
  viewBox="0 0 24 24"
  fill="none"
  xmlns="http://www.w3.org/2000/svg"
>
  <path
    d="M19.41 18.3399L16.82 15.7599C17.9439 14.3648 18.4901 12.5918 18.3461 10.806C18.2021 9.02028 17.3789 7.35772 16.046 6.16065C14.713 4.96357 12.9719 4.32313 11.181 4.37117C9.39009 4.41922 7.68577 5.15209 6.41896 6.41891C5.15215 7.68572 4.41927 9.39003 4.37123 11.1809C4.32318 12.9718 4.96363 14.713 6.1607 16.0459C7.35777 17.3788 9.02034 18.202 10.8061 18.346C12.5918 18.49 14.3648 17.9438 15.76 16.8199L18.34 19.4099C18.4823 19.551 18.6746 19.6302 18.875 19.6302C19.0754 19.6302 19.2677 19.551 19.41 19.4099C19.5487 19.2664 19.6262 19.0746 19.6262 18.8749C19.6262 18.6753 19.5487 18.4835 19.41 18.3399ZM14.63 11.3399C14.6274 10.4788 14.2841 9.65368 13.6752 9.04476C13.0663 8.43584 12.2411 8.09258 11.38 8.08995C11.1819 8.08736 10.9926 8.00751 10.8525 7.86741C10.7124 7.72732 10.6326 7.53805 10.63 7.33995C10.6287 7.24108 10.6471 7.14295 10.6843 7.05135C10.7216 6.95975 10.7768 6.87653 10.8467 6.80662C10.9166 6.7367 10.9998 6.68151 11.0914 6.6443C11.183 6.60708 11.2811 6.5886 11.38 6.58995C12.639 6.59259 13.8456 7.09388 14.7358 7.98411C15.6261 8.87433 16.1274 10.081 16.13 11.3399C16.13 11.5389 16.051 11.7296 15.9103 11.8703C15.7697 12.0109 15.5789 12.0899 15.38 12.0899C15.1811 12.0899 14.9903 12.0109 14.8497 11.8703C14.709 11.7296 14.63 11.5389 14.63 11.3399Z"
    fill="#000D26"
  />
</svg>
