<svg
  width="24"
  height="24"
  viewBox="0 0 24 24"
  fill="none"
  xmlns="http://www.w3.org/2000/svg"
>
  <path
    d="M19 6.65993L12.92 3.14993C12.6406 2.98745 12.3232 2.90186 12 2.90186C11.6768 2.90186 11.3594 2.98745 11.08 3.14993L5 6.65993C4.69626 6.83529 4.44398 7.08744 4.26846 7.39109C4.09294 7.69474 4.00036 8.0392 4 8.38993C3.99901 10.8484 4.64543 13.2638 5.87423 15.3931C7.10304 17.5225 8.8709 19.2907 11 20.5199L11.5 20.8099C11.652 20.8977 11.8245 20.9439 12 20.9439C12.1755 20.9439 12.348 20.8977 12.5 20.8099L13 20.5199C15.1291 19.2907 16.897 17.5225 18.1258 15.3931C19.3546 13.2638 20.001 10.8484 20 8.38993C19.9996 8.0392 19.9071 7.69474 19.7315 7.39109C19.556 7.08744 19.3037 6.83529 19 6.65993ZM14.94 10.8599L14.13 11.6499C14.0602 11.7175 14.0082 11.8012 13.9786 11.8936C13.9489 11.9861 13.9425 12.0844 13.96 12.1799L14.15 13.2999C14.171 13.4096 14.1605 13.5229 14.1196 13.6268C14.0787 13.7307 14.0092 13.8209 13.9192 13.8868C13.8291 13.9528 13.7222 13.9919 13.6108 13.9995C13.4995 14.0071 13.3882 13.983 13.29 13.9299L12.29 13.3999C12.2034 13.3552 12.1074 13.3319 12.01 13.3319C11.9126 13.3319 11.8166 13.3552 11.73 13.3999L10.73 13.9299C10.6318 13.983 10.5205 14.0071 10.4092 13.9995C10.2978 13.9919 10.1909 13.9528 10.1008 13.8868C10.0108 13.8209 9.94126 13.7307 9.9004 13.6268C9.85955 13.5229 9.84901 13.4096 9.87 13.2999L10 12.1799C10.0175 12.0844 10.0111 11.9861 9.98143 11.8936C9.95177 11.8012 9.89976 11.7175 9.83 11.6499L9.02 10.8599C8.94643 10.7813 8.89538 10.6842 8.87224 10.579C8.84909 10.4738 8.85468 10.3643 8.88844 10.2621C8.92219 10.1598 8.98286 10.0685 9.06408 9.9977C9.14529 9.92694 9.24405 9.87935 9.35 9.85993L10.47 9.69993C10.5828 9.69945 10.693 9.66609 10.7872 9.60392C10.8813 9.54176 10.9553 9.45349 11 9.34993L11.51 8.34993C11.5585 8.25071 11.6339 8.16711 11.7276 8.10863C11.8213 8.05016 11.9296 8.01916 12.04 8.01916C12.1504 8.01916 12.2587 8.05016 12.3524 8.10863C12.4461 8.16711 12.5215 8.25071 12.57 8.34993L13.08 9.34993C13.1212 9.43833 13.184 9.51492 13.2627 9.5726C13.3414 9.63028 13.4333 9.6672 13.53 9.67993L14.65 9.83993C14.7566 9.86267 14.8551 9.91404 14.9347 9.98852C15.0143 10.063 15.0722 10.1578 15.102 10.2626C15.1318 10.3675 15.1325 10.4785 15.1039 10.5838C15.0754 10.689 15.0187 10.7845 14.94 10.8599Z"
    fill="#000D26"
  />
</svg>
