<svg
  width="24"
  height="24"
  viewBox="0 0 24 24"
  fill="none"
  xmlns="http://www.w3.org/2000/svg"
>
  <path
    d="M19.07 9.56989C19.0139 9.51492 18.9386 9.48413 18.86 9.48413C18.7815 9.48413 18.7061 9.51492 18.65 9.56989L10.36 17.8499C10.3497 17.8643 10.3431 17.8809 10.3406 17.8985C10.3381 17.916 10.3399 17.9338 10.3457 17.9505C10.3516 17.9672 10.3615 17.9822 10.3744 17.9943C10.3873 18.0064 10.403 18.0152 10.42 18.0199C11.7129 18.288 13.0523 18.229 14.3166 17.8483C15.5809 17.4676 16.7301 16.7773 17.66 15.8399L20.09 13.4099C20.276 13.2241 20.4235 13.0036 20.5241 12.7608C20.6248 12.518 20.6766 12.2577 20.6766 11.9949C20.6766 11.7321 20.6248 11.4718 20.5241 11.229C20.4235 10.9862 20.276 10.7656 20.09 10.5799L19.07 9.56989Z"
    fill="#000D26"
  />
  <path
    d="M21.42 2.49009C21.2794 2.34964 21.0888 2.27075 20.89 2.27075C20.6913 2.27075 20.5006 2.34964 20.36 2.49009L16 6.88009C14.4736 5.99986 12.6994 5.64818 10.9526 5.87963C9.20591 6.11108 7.58446 6.91271 6.34 8.16009L3.91 10.5801C3.72405 10.7658 3.57653 10.9864 3.47588 11.2292C3.37524 11.472 3.32343 11.7323 3.32343 11.9951C3.32343 12.2579 3.37524 12.5182 3.47588 12.761C3.57653 13.0038 3.72405 13.2243 3.91 13.4101L6.34 15.8401C6.45 15.9501 6.58 16.0501 6.7 16.1501L2.4 20.4501C2.25955 20.5907 2.18066 20.7813 2.18066 20.9801C2.18066 21.1788 2.25955 21.3695 2.4 21.5101C2.54063 21.6505 2.73125 21.7294 2.93 21.7294C3.12875 21.7294 3.31938 21.6505 3.46 21.5101L21.46 3.51009C21.5856 3.36746 21.6515 3.18198 21.644 2.99209C21.6366 2.8022 21.5564 2.62245 21.42 2.49009ZM9.45 13.4001C9.21769 12.9697 9.0941 12.4891 9.09 12.0001C9.08598 11.4933 9.2153 10.9943 9.46499 10.5533C9.71468 10.1123 10.076 9.74464 10.5126 9.48732C10.9492 9.23 11.4459 9.09203 11.9527 9.08725C12.4595 9.08247 12.9586 9.21105 13.4 9.46009L9.45 13.4001Z"
    fill="#000D26"
  />
</svg>
