<svg
  width="24"
  height="24"
  viewBox="0 0 24 24"
  fill="none"
  xmlns="http://www.w3.org/2000/svg"
>
  <path
    d="M12 13.6C13.5463 13.6 14.8 12.3464 14.8 10.8C14.8 9.2536 13.5463 8 12 8C10.4536 8 9.19995 9.2536 9.19995 10.8C9.19995 12.3464 10.4536 13.6 12 13.6Z"
    fill="#000D26"
  />
  <path
    d="M12 2.25C10.0716 2.25 8.18657 2.82183 6.58319 3.89317C4.97982 4.96452 3.73013 6.48726 2.99218 8.26884C2.25422 10.0504 2.06114 12.0108 2.43735 13.9021C2.81355 15.7934 3.74215 17.5307 5.10571 18.8943C6.46928 20.2579 8.20656 21.1865 10.0979 21.5627C11.9892 21.9389 13.9496 21.7458 15.7312 21.0078C17.5127 20.2699 19.0355 19.0202 20.1068 17.4168C21.1782 15.8134 21.75 13.9284 21.75 12C21.7474 9.41495 20.7193 6.93654 18.8914 5.10863C17.0635 3.28073 14.5851 2.25265 12 2.25ZM17.75 17.9V17.38C17.7474 16.9883 17.5906 16.6134 17.3136 16.3364C17.0366 16.0594 16.6617 15.9026 16.27 15.9H7.74C7.34656 15.9 6.96908 16.0556 6.68994 16.3329C6.41079 16.6101 6.25265 16.9866 6.25 17.38V17.9C5.07274 16.7558 4.26362 15.2864 3.92617 13.6797C3.58872 12.0731 3.73828 10.4023 4.35572 8.88111C4.97316 7.35995 6.0304 6.05758 7.39217 5.14065C8.75394 4.22372 10.3583 3.73392 12 3.73392C13.6417 3.73392 15.2461 4.22372 16.6078 5.14065C17.9696 6.05758 19.0268 7.35995 19.6443 8.88111C20.2617 10.4023 20.4113 12.0731 20.0738 13.6797C19.7364 15.2864 18.9273 16.7558 17.75 17.9Z"
    fill="#000D26"
  />
</svg>
