<svg
  width="24"
  height="24"
  viewBox="0 0 24 24"
  fill="none"
  xmlns="http://www.w3.org/2000/svg"
>
  <path
    d="M18.87 11.1299H5.13004C5.08965 11.1295 5.04965 11.1378 5.01278 11.1543C4.97591 11.1708 4.94305 11.1951 4.91645 11.2255C4.88985 11.2559 4.87014 11.2917 4.85868 11.3304C4.84722 11.3692 4.84427 11.4099 4.85004 11.4499L6.00004 18.0899C6.07898 18.5673 6.32189 19.0022 6.68693 19.3198C7.05198 19.6374 7.51633 19.8178 8.00004 19.8299H16C16.4838 19.8178 16.9481 19.6374 17.3132 19.3198C17.6782 19.0022 17.9211 18.5673 18 18.0899L19.12 11.4499C19.1256 11.4123 19.1235 11.374 19.1139 11.3373C19.1042 11.3005 19.0871 11.2662 19.0638 11.2362C19.0404 11.2063 19.0111 11.1814 18.9778 11.1631C18.9445 11.1449 18.9079 11.1336 18.87 11.1299ZM10.87 16.8299C10.8819 16.9282 10.8727 17.0278 10.8432 17.1223C10.8136 17.2168 10.7644 17.3039 10.6987 17.3779C10.633 17.452 10.5524 17.5112 10.4621 17.5518C10.3719 17.5924 10.274 17.6134 10.175 17.6134C10.0761 17.6134 9.97822 17.5924 9.88795 17.5518C9.79768 17.5112 9.71705 17.452 9.65137 17.3779C9.58569 17.3039 9.53646 17.2168 9.50693 17.1223C9.4774 17.0278 9.46823 16.9282 9.48004 16.8299V13.0999C9.46823 13.0016 9.4774 12.902 9.50693 12.8075C9.53646 12.713 9.58569 12.6259 9.65137 12.5519C9.71705 12.4778 9.79768 12.4186 9.88795 12.378C9.97822 12.3374 10.0761 12.3164 10.175 12.3164C10.274 12.3164 10.3719 12.3374 10.4621 12.378C10.5524 12.4186 10.633 12.4778 10.6987 12.5519C10.7644 12.6259 10.8136 12.713 10.8432 12.8075C10.8727 12.902 10.8819 13.0016 10.87 13.0999V16.8299ZM14.6 16.8299C14.6119 16.9282 14.6027 17.0278 14.5732 17.1223C14.5436 17.2168 14.4944 17.3039 14.4287 17.3779C14.363 17.452 14.2824 17.5112 14.1921 17.5518C14.1019 17.5924 14.004 17.6134 13.905 17.6134C13.8061 17.6134 13.7082 17.5924 13.618 17.5518C13.5277 17.5112 13.447 17.452 13.3814 17.3779C13.3157 17.3039 13.2665 17.2168 13.2369 17.1223C13.2074 17.0278 13.1982 16.9282 13.21 16.8299V13.0999C13.1982 13.0016 13.2074 12.902 13.2369 12.8075C13.2665 12.713 13.3157 12.6259 13.3814 12.5519C13.447 12.4778 13.5277 12.4186 13.618 12.378C13.7082 12.3374 13.8061 12.3164 13.905 12.3164C14.004 12.3164 14.1019 12.3374 14.1921 12.378C14.2824 12.4186 14.363 12.4778 14.4287 12.5519C14.4944 12.6259 14.5436 12.713 14.5732 12.8075C14.6027 12.902 14.6119 13.0016 14.6 13.0999V16.8299Z"
    fill="#000D26"
  />
  <path
    d="M17.62 7.29011H16.79L16.66 7.09011L14.91 4.48011C14.8597 4.39867 14.7929 4.32859 14.7141 4.27433C14.6352 4.22008 14.5459 4.18283 14.4518 4.16496C14.3578 4.14709 14.261 4.14899 14.1677 4.17053C14.0745 4.19208 13.9867 4.2328 13.91 4.29011C13.8297 4.34145 13.7608 4.40865 13.7074 4.48759C13.654 4.56652 13.6172 4.65553 13.5995 4.74915C13.5817 4.84278 13.5832 4.93905 13.6039 5.03207C13.6246 5.12509 13.6641 5.21289 13.72 5.29011L15.07 7.29011H8.9L10.25 5.29011C10.3415 5.13631 10.3706 4.95332 10.3313 4.77873C10.2921 4.60414 10.1875 4.45121 10.039 4.35136C9.89049 4.25151 9.70939 4.21232 9.53289 4.24184C9.3564 4.27137 9.19791 4.36736 9.09 4.51011L7.28 7.19011L7.21 7.29011H6.38C6.10624 7.29048 5.83587 7.35064 5.58778 7.46637C5.33969 7.5821 5.11987 7.75062 4.94368 7.96014C4.76749 8.16966 4.63919 8.41513 4.56773 8.6794C4.49628 8.94366 4.4834 9.22035 4.53 9.49011C4.53942 9.55555 4.5717 9.61555 4.62112 9.65947C4.67053 9.7034 4.7339 9.72842 4.8 9.73011H19.2C19.2661 9.72842 19.3295 9.7034 19.3789 9.65947C19.4283 9.61555 19.4606 9.55555 19.47 9.49011C19.5166 9.22035 19.5037 8.94366 19.4323 8.6794C19.3608 8.41513 19.2325 8.16966 19.0563 7.96014C18.8801 7.75062 18.6603 7.5821 18.4122 7.46637C18.1641 7.35064 17.8938 7.29048 17.62 7.29011Z"
    fill="#000D26"
  />
</svg>
