<svg
  width="24"
  height="24"
  viewBox="0 0 24 24"
  fill="none"
  xmlns="http://www.w3.org/2000/svg"
>
  <path
    d="M5 10.75H19C19.1989 10.75 19.3897 10.671 19.5303 10.5303C19.671 10.3897 19.75 10.1989 19.75 10C19.75 9.80109 19.671 9.61032 19.5303 9.46967C19.3897 9.32902 19.1989 9.25 19 9.25H5C4.80109 9.25 4.61032 9.32902 4.46967 9.46967C4.32902 9.61032 4.25 9.80109 4.25 10C4.25 10.1989 4.32902 10.3897 4.46967 10.5303C4.61032 10.671 4.80109 10.75 5 10.75Z"
    fill="#000D26"
  />
  <path
    d="M19 13.25H5C4.80109 13.25 4.61032 13.329 4.46967 13.4697C4.32902 13.6103 4.25 13.8011 4.25 14C4.25 14.1989 4.32902 14.3897 4.46967 14.5303C4.61032 14.671 4.80109 14.75 5 14.75H19C19.1989 14.75 19.3897 14.671 19.5303 14.5303C19.671 14.3897 19.75 14.1989 19.75 14C19.75 13.8011 19.671 13.6103 19.5303 13.4697C19.3897 13.329 19.1989 13.25 19 13.25Z"
    fill="#000D26"
  />
</svg>
