<svg
  width="24"
  height="24"
  viewBox="0 0 24 24"
  fill="none"
  xmlns="http://www.w3.org/2000/svg"
>
  <path
    d="M19.4 8.58992C19.3772 8.54611 19.3443 8.50838 19.3039 8.47989C19.2636 8.45139 19.217 8.43295 19.1681 8.4261C19.1191 8.41925 19.0693 8.4242 19.0227 8.44051C18.976 8.45683 18.934 8.48406 18.9 8.51992C18.3057 9.08677 17.531 9.42658 16.7114 9.47988C15.8919 9.53318 15.0797 9.29656 14.417 8.81145C13.7543 8.32634 13.2832 7.62362 13.0864 6.82627C12.8895 6.02893 12.9793 5.18774 13.34 4.44992C13.3657 4.40575 13.3796 4.35576 13.3805 4.3047C13.3815 4.25363 13.3693 4.20317 13.3453 4.15811C13.3213 4.11304 13.2861 4.07486 13.2432 4.04718C13.2003 4.01949 13.151 4.00323 13.1 3.99992C12.4897 3.9506 11.8758 3.97073 11.27 4.05992C9.94187 4.27419 8.69566 4.84131 7.66167 5.70198C6.62767 6.56265 5.84385 7.68527 5.39215 8.9525C4.94044 10.2197 4.83744 11.585 5.0939 12.9057C5.35036 14.2263 5.95686 15.4538 6.85002 16.4599C6.94588 16.5691 7.0148 16.6993 7.05127 16.84C7.08774 16.9806 7.09074 17.1279 7.06002 17.2699L6.53002 19.4199C6.51021 19.5011 6.5139 19.5862 6.54068 19.6653C6.56747 19.7445 6.61622 19.8143 6.68125 19.8668C6.74629 19.9192 6.8249 19.9521 6.90792 19.9615C6.99093 19.9709 7.0749 19.9565 7.15002 19.9199L9.65002 18.7199C9.85679 18.6451 10.0833 18.6451 10.29 18.7199C11.2952 19.0282 12.3539 19.1223 13.3978 18.9961C14.4416 18.8698 15.4474 18.5261 16.3501 17.9871C17.2529 17.4481 18.0326 16.7257 18.6389 15.8667C19.2452 15.0077 19.6646 14.0311 19.87 12.9999C20.1653 11.5163 20.0014 9.97795 19.4 8.58992ZM9.48002 12.4999C9.28224 12.4999 9.0889 12.4413 8.92445 12.3314C8.76 12.2215 8.63183 12.0653 8.55614 11.8826C8.48046 11.6999 8.46065 11.4988 8.49924 11.3048C8.53782 11.1108 8.63306 10.9327 8.77292 10.7928C8.91277 10.653 9.09095 10.5577 9.28493 10.5191C9.47891 10.4805 9.67998 10.5003 9.86271 10.576C10.0454 10.6517 10.2016 10.7799 10.3115 10.9443C10.4214 11.1088 10.48 11.3021 10.48 11.4999C10.48 11.7651 10.3747 12.0195 10.1871 12.207C9.99959 12.3946 9.74524 12.4999 9.48002 12.4999ZM12.48 12.4999C12.2822 12.4999 12.0889 12.4413 11.9245 12.3314C11.76 12.2215 11.6318 12.0653 11.5561 11.8826C11.4805 11.6999 11.4607 11.4988 11.4992 11.3048C11.5378 11.1108 11.6331 10.9327 11.7729 10.7928C11.9128 10.653 12.091 10.5577 12.2849 10.5191C12.4789 10.4805 12.68 10.5003 12.8627 10.576C13.0454 10.6517 13.2016 10.7799 13.3115 10.9443C13.4214 11.1088 13.48 11.3021 13.48 11.4999C13.48 11.7651 13.3747 12.0195 13.1871 12.207C12.9996 12.3946 12.7452 12.4999 12.48 12.4999ZM15.48 12.4999C15.2822 12.4999 15.0889 12.4413 14.9245 12.3314C14.76 12.2215 14.6318 12.0653 14.5561 11.8826C14.4805 11.6999 14.4607 11.4988 14.4992 11.3048C14.5378 11.1108 14.6331 10.9327 14.7729 10.7928C14.9128 10.653 15.091 10.5577 15.2849 10.5191C15.4789 10.4805 15.68 10.5003 15.8627 10.576C16.0454 10.6517 16.2016 10.7799 16.3115 10.9443C16.4214 11.1088 16.48 11.3021 16.48 11.4999C16.48 11.7651 16.3747 12.0195 16.1871 12.207C15.9996 12.3946 15.7452 12.4999 15.48 12.4999Z"
    fill="#000D26"
  />
  <path
    d="M17 8C17.4945 8 17.9778 7.85338 18.3889 7.57867C18.8 7.30397 19.1205 6.91352 19.3097 6.45671C19.4989 5.99989 19.5484 5.49723 19.452 5.01228C19.3555 4.52732 19.1174 4.08187 18.7678 3.73223C18.4181 3.3826 17.9727 3.1445 17.4877 3.04804C17.0028 2.95157 16.5001 3.00108 16.0433 3.1903C15.5865 3.37952 15.196 3.69995 14.9213 4.11108C14.6466 4.5222 14.5 5.00555 14.5 5.5C14.5 6.16304 14.7634 6.79893 15.2322 7.26777C15.7011 7.73661 16.337 8 17 8ZM16.17 5.06H16.56V4.67C16.56 4.61222 16.5714 4.555 16.5935 4.50162C16.6156 4.44824 16.648 4.39973 16.6889 4.35887C16.7297 4.31802 16.7782 4.28561 16.8316 4.26349C16.885 4.24138 16.9422 4.23 17 4.23C17.0578 4.23 17.115 4.24138 17.1684 4.26349C17.2218 4.28561 17.2703 4.31802 17.3111 4.35887C17.352 4.39973 17.3844 4.44824 17.4065 4.50162C17.4286 4.555 17.44 4.61222 17.44 4.67V5.06H17.83C17.9467 5.06 18.0586 5.10636 18.1411 5.18887C18.2236 5.27139 18.27 5.38331 18.27 5.5C18.27 5.6167 18.2236 5.72861 18.1411 5.81113C18.0586 5.89364 17.9467 5.94 17.83 5.94H17.44V6.33C17.44 6.4467 17.3936 6.55861 17.3111 6.64113C17.2286 6.72364 17.1167 6.77 17 6.77C16.8833 6.77 16.7714 6.72364 16.6889 6.64113C16.6064 6.55861 16.56 6.4467 16.56 6.33V5.94H16.17C16.0533 5.94 15.9414 5.89364 15.8589 5.81113C15.7764 5.72861 15.73 5.6167 15.73 5.5C15.73 5.38331 15.7764 5.27139 15.8589 5.18887C15.9414 5.10636 16.0533 5.06 16.17 5.06Z"
    fill="#000D26"
  />
</svg>
