<svg
  width="24"
  height="24"
  viewBox="0 0 24 24"
  fill="none"
  xmlns="http://www.w3.org/2000/svg"
>
  <path
    d="M13 3.55012L9.78999 5.66012C9.46175 5.88071 9.07547 5.99903 8.67999 6.00012H6.78999C6.39217 6.00012 6.01064 6.15816 5.72933 6.43946C5.44803 6.72077 5.28999 7.1023 5.28999 7.50012V16.5001C5.28999 16.8979 5.44803 17.2795 5.72933 17.5608C6.01064 17.8421 6.39217 18.0001 6.78999 18.0001H8.67999C9.07547 18.0012 9.46175 18.1195 9.78999 18.3401L13 20.4501C13.226 20.6003 13.4885 20.6863 13.7596 20.699C14.0306 20.7118 14.3 20.6508 14.5391 20.5225C14.7782 20.3942 14.978 20.2035 15.1173 19.9706C15.2566 19.7377 15.3301 19.4715 15.33 19.2001V4.80012C15.3301 4.52878 15.2566 4.2625 15.1173 4.02963C14.978 3.79676 14.7782 3.60604 14.5391 3.47776C14.3 3.34949 14.0306 3.28847 13.7596 3.30122C13.4885 3.31396 13.226 3.39998 13 3.55012Z"
    fill="#000D26"
  />
  <path
    d="M18.21 9.18988C18.1411 9.11912 18.0586 9.06289 17.9676 9.02449C17.8766 8.98609 17.7788 8.96631 17.68 8.96631C17.5812 8.96631 17.4834 8.98609 17.3924 9.02449C17.3014 9.06289 17.2189 9.11912 17.15 9.18988C17.0096 9.3305 16.9307 9.52113 16.9307 9.71988C16.9307 9.91863 17.0096 10.1093 17.15 10.2499C17.4067 10.5046 17.6104 10.8076 17.7495 11.1414C17.8885 11.4752 17.9601 11.8333 17.9601 12.1949C17.9601 12.5565 17.8885 12.9145 17.7495 13.2484C17.6104 13.5822 17.4067 13.8852 17.15 14.1399C17.0096 14.2805 16.9307 14.4711 16.9307 14.6699C16.9307 14.8686 17.0096 15.0593 17.15 15.1999C17.2928 15.3371 17.482 15.4156 17.68 15.4199C17.8788 15.4197 18.0695 15.3406 18.21 15.1999C19.0069 14.4029 19.4546 13.3219 19.4546 12.1949C19.4546 11.0678 19.0069 9.98689 18.21 9.18988Z"
    fill="#000D26"
  />
</svg>
