<svg
  width="24"
  height="24"
  viewBox="0 0 24 24"
  fill="none"
  xmlns="http://www.w3.org/2000/svg"
>
  <path
    d="M12 3C10.22 3 8.47991 3.52784 6.99987 4.51677C5.51983 5.50571 4.36628 6.91131 3.68509 8.55585C3.0039 10.2004 2.82567 12.01 3.17294 13.7558C3.5202 15.5016 4.37737 17.1053 5.63604 18.364C6.89472 19.6226 8.49836 20.4798 10.2442 20.8271C11.99 21.1743 13.7996 20.9961 15.4442 20.3149C17.0887 19.6337 18.4943 18.4802 19.4832 17.0001C20.4722 15.5201 21 13.78 21 12C21 9.61305 20.0518 7.32387 18.364 5.63604C16.6761 3.94821 14.387 3 12 3ZM15.5 14.1C15.5 14.4713 15.3525 14.8274 15.09 15.0899C14.8274 15.3525 14.4713 15.5 14.1 15.5H9.9C9.71615 15.5 9.5341 15.4638 9.36425 15.3934C9.19439 15.3231 9.04006 15.22 8.91005 15.0899C8.78005 14.9599 8.67693 14.8056 8.60657 14.6358C8.53622 14.4659 8.5 14.2839 8.5 14.1V9.9C8.5 9.71615 8.53622 9.5341 8.60657 9.36424C8.67693 9.19439 8.78005 9.04005 8.91005 8.91005C9.04006 8.78005 9.19439 8.67692 9.36425 8.60657C9.5341 8.53621 9.71615 8.5 9.9 8.5H14.1C14.2839 8.5 14.4659 8.53621 14.6358 8.60657C14.8056 8.67692 14.96 8.78005 15.09 8.91005C15.22 9.04005 15.3231 9.19439 15.3934 9.36424C15.4638 9.5341 15.5 9.71615 15.5 9.9V14.1Z"
    fill="#000D26"
  />
</svg>
