<svg
  width="24"
  height="24"
  viewBox="0 0 24 24"
  fill="none"
  xmlns="http://www.w3.org/2000/svg"
>
  <path
    d="M12 15.5C11.9015 15.5004 11.8038 15.4812 11.7128 15.4434C11.6218 15.4057 11.5393 15.3501 11.47 15.28L6.00003 9.77996C5.90864 9.63901 5.86722 9.47145 5.88241 9.30414C5.89759 9.13684 5.96851 8.97948 6.08379 8.85728C6.19907 8.73509 6.35203 8.65513 6.51817 8.63023C6.68431 8.60533 6.85399 8.63693 7.00003 8.71996L12 13.72L17 8.71996C17.1461 8.63693 17.3158 8.60533 17.4819 8.63023C17.648 8.65513 17.801 8.73509 17.9163 8.85728C18.0315 8.97948 18.1025 9.13684 18.1177 9.30414C18.1328 9.47145 18.0914 9.63901 18 9.77996L12.5 15.28C12.3675 15.4144 12.1887 15.4931 12 15.5Z"
    fill="#000D26"
  />
</svg>
