<svg
  width="24"
  height="24"
  viewBox="0 0 24 24"
  fill="none"
  xmlns="http://www.w3.org/2000/svg"
>
  <path
    d="M16 15.25H8C7.80109 15.25 7.61032 15.329 7.46967 15.4697C7.32902 15.6103 7.25 15.8011 7.25 16C7.25 16.1989 7.32902 16.3897 7.46967 16.5303C7.61032 16.671 7.80109 16.75 8 16.75H16C16.1989 16.75 16.3897 16.671 16.5303 16.5303C16.671 16.3897 16.75 16.1989 16.75 16C16.75 15.8011 16.671 15.6103 16.5303 15.4697C16.3897 15.329 16.1989 15.25 16 15.25Z"
    fill="#000D26"
  />
  <path
    d="M19 11.25H5C4.80109 11.25 4.61032 11.329 4.46967 11.4697C4.32902 11.6103 4.25 11.8011 4.25 12C4.25 12.1989 4.32902 12.3897 4.46967 12.5303C4.61032 12.671 4.80109 12.75 5 12.75H19C19.1989 12.75 19.3897 12.671 19.5303 12.5303C19.671 12.3897 19.75 12.1989 19.75 12C19.75 11.8011 19.671 11.6103 19.5303 11.4697C19.3897 11.329 19.1989 11.25 19 11.25Z"
    fill="#000D26"
  />
  <path
    d="M8 8.75H16C16.1989 8.75 16.3897 8.67098 16.5303 8.53033C16.671 8.38968 16.75 8.19891 16.75 8C16.75 7.80109 16.671 7.61032 16.5303 7.46967C16.3897 7.32902 16.1989 7.25 16 7.25H8C7.80109 7.25 7.61032 7.32902 7.46967 7.46967C7.32902 7.61032 7.25 7.80109 7.25 8C7.25 8.19891 7.32902 8.38968 7.46967 8.53033C7.61032 8.67098 7.80109 8.75 8 8.75Z"
    fill="#000D26"
  />
</svg>
