<svg
  width="24"
  height="24"
  viewBox="0 0 24 24"
  fill="none"
  xmlns="http://www.w3.org/2000/svg"
>
  <path
    d="M15.12 9.83006L8.62999 6.08006C8.24958 5.86043 7.81802 5.7449 7.37876 5.74512C6.9395 5.74533 6.50805 5.86128 6.12785 6.08129C5.74766 6.30129 5.43214 6.61759 5.21308 6.99833C4.99401 7.37906 4.87913 7.8108 4.87999 8.25006V15.7501C4.87913 16.1893 4.99401 16.6211 5.21308 17.0018C5.43214 17.3825 5.74766 17.6988 6.12785 17.9188C6.50805 18.1388 6.9395 18.2548 7.37876 18.255C7.81802 18.2552 8.24958 18.1397 8.62999 17.9201L15.12 14.1701C15.4998 13.9493 15.815 13.6326 16.0341 13.2518C16.2533 12.871 16.3686 12.4394 16.3686 12.0001C16.3686 11.5607 16.2533 11.1291 16.0341 10.7483C15.815 10.3675 15.4998 10.0509 15.12 9.83006Z"
    fill="#000D26"
  />
  <path
    d="M19.13 18.75C18.9311 18.75 18.7403 18.671 18.5997 18.5303C18.459 18.3897 18.38 18.1989 18.38 18V6C18.38 5.80109 18.459 5.61032 18.5997 5.46967C18.7403 5.32902 18.9311 5.25 19.13 5.25C19.3289 5.25 19.5197 5.32902 19.6603 5.46967C19.801 5.61032 19.88 5.80109 19.88 6V18C19.8774 18.1981 19.7976 18.3874 19.6575 18.5275C19.5174 18.6676 19.3281 18.7474 19.13 18.75Z"
    fill="#000D26"
  />
</svg>
