<svg
  width="24"
  height="24"
  viewBox="0 0 24 24"
  fill="none"
  xmlns="http://www.w3.org/2000/svg"
>
  <path
    d="M12 3C10.22 3 8.47991 3.52784 6.99987 4.51677C5.51983 5.50571 4.36628 6.91131 3.68509 8.55585C3.0039 10.2004 2.82567 12.01 3.17294 13.7558C3.5202 15.5016 4.37737 17.1053 5.63604 18.364C6.89472 19.6226 8.49836 20.4798 10.2442 20.8271C11.99 21.1743 13.7996 20.9961 15.4442 20.3149C17.0887 19.6337 18.4943 18.4802 19.4832 17.0001C20.4722 15.5201 21 13.78 21 12C21 9.61305 20.0518 7.32387 18.364 5.63604C16.6761 3.94821 14.387 3 12 3ZM15.53 14.53L12.53 17.53C12.461 17.6008 12.3797 17.6585 12.29 17.7C12.1024 17.7663 11.8976 17.7663 11.71 17.7C11.6203 17.6585 11.539 17.6008 11.47 17.53L8.47 14.53C8.33752 14.3878 8.2654 14.1998 8.26883 14.0055C8.27226 13.8112 8.35097 13.6258 8.48838 13.4884C8.6258 13.351 8.81118 13.2723 9.00548 13.2688C9.19978 13.2654 9.38783 13.3375 9.53 13.47L11.25 15.19V7C11.25 6.80109 11.329 6.61032 11.4697 6.46967C11.6103 6.32902 11.8011 6.25 12 6.25C12.1989 6.25 12.3897 6.32902 12.5303 6.46967C12.671 6.61032 12.75 6.80109 12.75 7V15.19L14.47 13.47C14.6122 13.3375 14.8002 13.2654 14.9945 13.2688C15.1888 13.2723 15.3742 13.351 15.5116 13.4884C15.649 13.6258 15.7278 13.8112 15.7312 14.0055C15.7346 14.1998 15.6625 14.3878 15.53 14.53Z"
    fill="#000D26"
  />
</svg>
