<svg
  width="24"
  height="24"
  viewBox="0 0 24 24"
  fill="none"
  xmlns="http://www.w3.org/2000/svg"
>
  <path
    d="M21 8.11V8.85C21 8.95609 20.9579 9.05783 20.8828 9.13284C20.8078 9.20786 20.7061 9.25 20.6 9.25H3.4C3.29391 9.25 3.19217 9.20786 3.11716 9.13284C3.04214 9.05783 3 8.95609 3 8.85V8.11C3 7.28518 3.32766 6.49414 3.9109 5.9109C4.49414 5.32766 5.28518 5 6.11 5H17.89C18.7148 5 19.5059 5.32766 20.0891 5.9109C20.6723 6.49414 21 7.28518 21 8.11Z"
    fill="#000D26"
  />
  <path
    d="M3.4 10.75H20.6C20.7061 10.75 20.8078 10.7921 20.8828 10.8672C20.9579 10.9422 21 11.0439 21 11.15V15.89C21 16.7148 20.6723 17.5059 20.0891 18.0891C19.5059 18.6723 18.7148 19 17.89 19H6.11C5.28518 19 4.49414 18.6723 3.9109 18.0891C3.32766 17.5059 3 16.7148 3 15.89V11.15C3 11.0439 3.04214 10.9422 3.11716 10.8672C3.19217 10.7921 3.29391 10.75 3.4 10.75Z"
    fill="#000D26"
  />
</svg>
