<svg
  width="24"
  height="24"
  viewBox="0 0 24 24"
  fill="none"
  xmlns="http://www.w3.org/2000/svg"
>
  <path
    d="M12 3C10.22 3 8.47991 3.52784 6.99987 4.51677C5.51983 5.50571 4.36627 6.91131 3.68508 8.55585C3.0039 10.2004 2.82567 12.01 3.17293 13.7558C3.5202 15.5016 4.37737 17.1053 5.63604 18.364C6.89471 19.6226 8.49836 20.4798 10.2442 20.8271C11.99 21.1743 13.7996 20.9961 15.4442 20.3149C17.0887 19.6337 18.4943 18.4802 19.4832 17.0001C20.4722 15.5201 21 13.78 21 12C21 9.61305 20.0518 7.32387 18.364 5.63604C16.6761 3.94821 14.3869 3 12 3ZM16 12.75H13.81L15.36 14.3C15.5005 14.4406 15.5793 14.6312 15.5793 14.83C15.5793 15.0288 15.5005 15.2194 15.36 15.36C15.2172 15.4972 15.028 15.5757 14.83 15.58C14.6316 15.5777 14.4417 15.4989 14.3 15.36L12.75 13.81V16C12.75 16.1989 12.671 16.3897 12.5303 16.5303C12.3897 16.671 12.1989 16.75 12 16.75C11.8011 16.75 11.6103 16.671 11.4697 16.5303C11.329 16.3897 11.25 16.1989 11.25 16V13.81L9.7 15.36C9.55828 15.4989 9.36841 15.5777 9.17 15.58C8.972 15.5757 8.78285 15.4972 8.64 15.36C8.49955 15.2194 8.42066 15.0288 8.42066 14.83C8.42066 14.6312 8.49955 14.4406 8.64 14.3L10.19 12.75H8C7.80109 12.75 7.61032 12.671 7.46967 12.5303C7.32902 12.3897 7.25 12.1989 7.25 12C7.25 11.8011 7.32902 11.6103 7.46967 11.4697C7.61032 11.329 7.80109 11.25 8 11.25H10.19L8.64 9.7C8.50752 9.55783 8.4354 9.36978 8.43883 9.17548C8.44225 8.98118 8.52097 8.79579 8.65838 8.65838C8.79579 8.52097 8.98118 8.44225 9.17548 8.43882C9.36978 8.4354 9.55783 8.50752 9.7 8.64L11.25 10.19V8C11.25 7.80109 11.329 7.61032 11.4697 7.46967C11.6103 7.32902 11.8011 7.25 12 7.25C12.1989 7.25 12.3897 7.32902 12.5303 7.46967C12.671 7.61032 12.75 7.80109 12.75 8V10.19L14.3 8.64C14.4422 8.50752 14.6302 8.4354 14.8245 8.43882C15.0188 8.44225 15.2042 8.52097 15.3416 8.65838C15.479 8.79579 15.5577 8.98118 15.5612 9.17548C15.5646 9.36978 15.4925 9.55783 15.36 9.7L13.81 11.25H16C16.1989 11.25 16.3897 11.329 16.5303 11.4697C16.671 11.6103 16.75 11.8011 16.75 12C16.75 12.1989 16.671 12.3897 16.5303 12.5303C16.3897 12.671 16.1989 12.75 16 12.75Z"
    fill="#000D26"
  />
</svg>
