<svg
  width="24"
  height="24"
  viewBox="0 0 24 24"
  fill="none"
  xmlns="http://www.w3.org/2000/svg"
>
  <path
    d="M18.18 10.0799C18.18 8.44086 17.5289 6.86896 16.3699 5.70998C15.211 4.55101 13.639 3.8999 12 3.8999C10.361 3.8999 8.78907 4.55101 7.63009 5.70998C6.47112 6.86896 5.82001 8.44086 5.82001 10.0799C5.82001 10.0799 5.47001 12.9199 9.51001 18.7899C9.78367 19.2025 10.1552 19.5409 10.5914 19.775C11.0276 20.0091 11.515 20.1316 12.01 20.1316C12.5051 20.1316 12.9924 20.0091 13.4286 19.775C13.8649 19.5409 14.2364 19.2025 14.51 18.7899C18.53 12.9199 18.18 10.0799 18.18 10.0799ZM12 12.0799C11.6044 12.0799 11.2178 11.9626 10.8889 11.7428C10.56 11.5231 10.3036 11.2107 10.1523 10.8453C10.0009 10.4798 9.96127 10.0777 10.0384 9.68972C10.1156 9.30176 10.3061 8.94539 10.5858 8.66569C10.8655 8.38598 11.2219 8.1955 11.6098 8.11833C11.9978 8.04116 12.3999 8.08077 12.7654 8.23214C13.1308 8.38352 13.4432 8.63986 13.663 8.96876C13.8827 9.29766 14 9.68434 14 10.0799C13.9974 10.6086 13.7855 11.1147 13.4107 11.4877C13.0359 11.8606 12.5287 12.0699 12 12.0699V12.0799Z"
    fill="#000D26"
  />
</svg>
