<svg
  width="24"
  height="24"
  viewBox="0 0 24 24"
  fill="none"
  xmlns="http://www.w3.org/2000/svg"
>
  <path
    d="M16.3 4.25995C16.2194 4.25718 16.1409 4.28592 16.0812 4.34006C16.0215 4.3942 15.9852 4.46949 15.98 4.54995C15.9088 5.15716 15.6167 5.71695 15.1593 6.12266C14.702 6.52838 14.1114 6.75165 13.5 6.74995H10.5C9.8852 6.7566 9.28967 6.53555 8.82811 6.12937C8.36654 5.72319 8.07157 5.16061 8 4.54995C7.99484 4.46949 7.95855 4.3942 7.8988 4.34006C7.83906 4.28592 7.76058 4.25718 7.68 4.25995C6.93743 4.33457 6.24933 4.68329 5.75008 5.23802C5.25082 5.79275 4.97626 6.51365 4.98 7.25995V18.2599C4.98 19.0556 5.29607 19.8187 5.85868 20.3813C6.42129 20.9439 7.18435 21.2599 7.98 21.2599H15.98C16.7756 21.2599 17.5387 20.9439 18.1013 20.3813C18.6639 19.8187 18.98 19.0556 18.98 18.2599V7.25995C18.9842 6.51676 18.7125 5.79845 18.2173 5.2442C17.7222 4.68995 17.039 4.33921 16.3 4.25995ZM13.94 13.8799C14.0108 13.9489 14.067 14.0313 14.1054 14.1223C14.1438 14.2134 14.1636 14.3112 14.1636 14.4099C14.1636 14.5087 14.1438 14.6065 14.1054 14.6976C14.067 14.7886 14.0108 14.871 13.94 14.9399C13.8718 15.0115 13.7895 15.068 13.6982 15.1059C13.607 15.1438 13.5088 15.1622 13.41 15.1599C13.3115 15.1604 13.2138 15.1412 13.1228 15.1034C13.0318 15.0656 12.9492 15.0101 12.88 14.9399L12 14.0599L11.12 14.9399C11.0508 15.0101 10.9682 15.0656 10.8772 15.1034C10.7862 15.1412 10.6885 15.1604 10.59 15.1599C10.4912 15.1622 10.393 15.1438 10.3018 15.1059C10.2105 15.068 10.1282 15.0115 10.06 14.9399C9.98924 14.871 9.93301 14.7886 9.89461 14.6976C9.85621 14.6065 9.83643 14.5087 9.83643 14.4099C9.83643 14.3112 9.85621 14.2134 9.89461 14.1223C9.93301 14.0313 9.98924 13.9489 10.06 13.8799L10.94 12.9999L10.06 12.1199C9.91811 11.9794 9.83787 11.7882 9.83693 11.5885C9.83599 11.3888 9.91443 11.1968 10.055 11.0549C10.1956 10.9131 10.3867 10.8328 10.5865 10.8319C10.7862 10.8309 10.9781 10.9094 11.12 11.0499L12 11.9399L12.88 11.0499C13.0219 10.9094 13.2138 10.8309 13.4135 10.8319C13.6133 10.8328 13.8044 10.9131 13.945 11.0549C14.0856 11.1968 14.164 11.3888 14.1631 11.5885C14.1621 11.7882 14.0819 11.9794 13.94 12.1199L13.06 12.9999L13.94 13.8799Z"
    fill="#000D26"
  />
  <path
    d="M10.5 5.75H13.5C13.8978 5.75 14.2794 5.59196 14.5607 5.31066C14.842 5.02936 15 4.64782 15 4.25C15 3.85218 14.842 3.47064 14.5607 3.18934C14.2794 2.90804 13.8978 2.75 13.5 2.75H10.5C10.1022 2.75 9.72064 2.90804 9.43934 3.18934C9.15804 3.47064 9 3.85218 9 4.25C9 4.64782 9.15804 5.02936 9.43934 5.31066C9.72064 5.59196 10.1022 5.75 10.5 5.75Z"
    fill="#000D26"
  />
</svg>
