<svg
  width="24"
  height="24"
  viewBox="0 0 24 24"
  fill="none"
  xmlns="http://www.w3.org/2000/svg"
>
  <path
    d="M11.13 9.31995C12.7869 9.31995 14.13 7.9768 14.13 6.31995C14.13 4.66309 12.7869 3.31995 11.13 3.31995C9.47315 3.31995 8.13 4.66309 8.13 6.31995C8.13 7.9768 9.47315 9.31995 11.13 9.31995Z"
    fill="#000D26"
  />
  <path
    d="M11.87 17.18C11.87 16.4038 12.0508 15.6382 12.3979 14.9439C12.745 14.2497 13.249 13.6457 13.87 13.18C13.9105 13.1476 13.9418 13.1052 13.961 13.057C13.9802 13.0089 13.9866 12.9565 13.9796 12.9052C13.9725 12.8538 13.9523 12.8051 13.9208 12.7639C13.8893 12.7227 13.8477 12.6903 13.8 12.67C12.6895 12.2517 11.4957 12.1025 10.3164 12.2347C9.13714 12.3669 8.00596 12.7766 7.0156 13.4304C6.02525 14.0841 5.2039 14.9632 4.61889 15.9956C4.03388 17.0281 3.70185 18.1845 3.65002 19.37C3.64998 19.4532 3.68232 19.5331 3.74019 19.5928C3.79805 19.6525 3.8769 19.6874 3.96002 19.69H12.08C12.1321 19.6908 12.1835 19.6781 12.2292 19.653C12.2748 19.6279 12.3132 19.5913 12.3404 19.5469C12.3677 19.5025 12.3829 19.4518 12.3846 19.3997C12.3862 19.3477 12.3743 19.2961 12.35 19.25C12.0387 18.6041 11.8747 17.897 11.87 17.18Z"
    fill="#000D26"
  />
  <path
    d="M16.87 13.6799C16.1778 13.6799 15.5011 13.8852 14.9255 14.2698C14.3499 14.6544 13.9013 15.201 13.6364 15.8406C13.3715 16.4801 13.3022 17.1838 13.4372 17.8628C13.5723 18.5417 13.9056 19.1653 14.3951 19.6548C14.8846 20.1443 15.5082 20.4776 16.1872 20.6127C16.8661 20.7477 17.5698 20.6784 18.2094 20.4135C18.8489 20.1486 19.3956 19.7 19.7801 19.1244C20.1647 18.5489 20.37 17.8722 20.37 17.1799C20.3713 16.7199 20.2817 16.2642 20.1063 15.839C19.9308 15.4138 19.6731 15.0274 19.3478 14.7021C19.0225 14.3769 18.6362 14.1191 18.2109 13.9437C17.7857 13.7683 17.33 13.6786 16.87 13.6799ZM18.46 17.6799C18.6004 17.8206 18.6793 18.0112 18.6793 18.2099C18.6793 18.4087 18.6004 18.5993 18.46 18.7399C18.3908 18.8101 18.3082 18.8656 18.2172 18.9034C18.1262 18.9412 18.0285 18.9604 17.93 18.9599C17.8314 18.961 17.7336 18.942 17.6425 18.9042C17.5514 18.8664 17.4689 18.8105 17.4 18.7399L16.87 18.2099L16.34 18.7399C16.2708 18.8101 16.1882 18.8656 16.0972 18.9034C16.0062 18.9412 15.9085 18.9604 15.81 18.9599C15.7114 18.961 15.6136 18.942 15.5225 18.9042C15.4314 18.8664 15.3489 18.8105 15.28 18.7399C15.2092 18.671 15.153 18.5886 15.1146 18.4976C15.0762 18.4065 15.0564 18.3087 15.0564 18.2099C15.0564 18.1112 15.0762 18.0134 15.1146 17.9223C15.153 17.8313 15.2092 17.7489 15.28 17.6799L15.81 17.1499L15.28 16.6199C15.2063 16.5513 15.1472 16.4685 15.1062 16.3765C15.0652 16.2845 15.0432 16.1852 15.0414 16.0845C15.0396 15.9838 15.0582 15.8837 15.0959 15.7903C15.1336 15.697 15.1897 15.6121 15.261 15.5409C15.3322 15.4697 15.417 15.4135 15.5104 15.3758C15.6038 15.3381 15.7038 15.3196 15.8045 15.3214C15.9052 15.3231 16.0045 15.3452 16.0965 15.3862C16.1885 15.4272 16.2713 15.4863 16.34 15.5599L16.87 16.0899L17.4 15.5599C17.4689 15.4892 17.5514 15.433 17.6424 15.3946C17.7334 15.3562 17.8312 15.3364 17.93 15.3364C18.0288 15.3364 18.1266 15.3562 18.2176 15.3946C18.3086 15.433 18.3911 15.4892 18.46 15.5599C18.6004 15.7006 18.6793 15.8912 18.6793 16.0899C18.6793 16.2887 18.6004 16.4793 18.46 16.6199L17.93 17.1499L18.46 17.6799Z"
    fill="#000D26"
  />
</svg>
