<svg
  width="24"
  height="24"
  viewBox="0 0 24 24"
  fill="none"
  xmlns="http://www.w3.org/2000/svg"
>
  <path
    d="M19 7.5H15.5C15.3674 7.5 15.2402 7.44732 15.1464 7.35355C15.0527 7.25979 15 7.13261 15 7V5.5C15 5.23478 14.8946 4.98043 14.7071 4.79289C14.5196 4.60536 14.2652 4.5 14 4.5H10C9.73478 4.5 9.48043 4.60536 9.29289 4.79289C9.10536 4.98043 9 5.23478 9 5.5V7C9 7.13261 8.94732 7.25979 8.85355 7.35355C8.75979 7.44732 8.63261 7.5 8.5 7.5H5C4.46957 7.5 3.96086 7.71071 3.58579 8.08579C3.21071 8.46086 3 8.96957 3 9.5V17.5C3 18.0304 3.21071 18.5391 3.58579 18.9142C3.96086 19.2893 4.46957 19.5 5 19.5H19C19.5304 19.5 20.0391 19.2893 20.4142 18.9142C20.7893 18.5391 21 18.0304 21 17.5V9.5C21 8.96957 20.7893 8.46086 20.4142 8.08579C20.0391 7.71071 19.5304 7.5 19 7.5ZM12 16.5C11.4067 16.5 10.8266 16.3241 10.3333 15.9944C9.83994 15.6648 9.45542 15.1962 9.22836 14.6481C9.0013 14.0999 8.94189 13.4967 9.05764 12.9147C9.1734 12.3328 9.45912 11.7982 9.87868 11.3787C10.2982 10.9591 10.8328 10.6734 11.4147 10.5576C11.9967 10.4419 12.5999 10.5013 13.1481 10.7284C13.6962 10.9554 14.1648 11.3399 14.4944 11.8333C14.8241 12.3266 15 12.9067 15 13.5C15 14.2956 14.6839 15.0587 14.1213 15.6213C13.5587 16.1839 12.7956 16.5 12 16.5Z"
    fill="#000D26"
  />
</svg>
