<svg
  width="24"
  height="24"
  viewBox="0 0 24 24"
  fill="none"
  xmlns="http://www.w3.org/2000/svg"
>
  <path
    d="M12 3C10.22 3 8.47991 3.52784 6.99987 4.51677C5.51983 5.50571 4.36628 6.91131 3.68509 8.55585C3.0039 10.2004 2.82567 12.01 3.17294 13.7558C3.5202 15.5016 4.37737 17.1053 5.63604 18.364C6.89472 19.6226 8.49836 20.4798 10.2442 20.8271C11.99 21.1743 13.7996 20.9961 15.4442 20.3149C17.0887 19.6337 18.4943 18.4802 19.4832 17.0001C20.4722 15.5201 21 13.78 21 12C21 9.61305 20.0518 7.32387 18.364 5.63604C16.6761 3.94821 14.387 3 12 3ZM16.6 15.45C16.5307 15.5437 16.4402 15.6198 16.336 15.6719C16.2317 15.724 16.1166 15.7508 16 15.75C15.8378 15.7493 15.6802 15.6967 15.55 15.6L11.55 12.6C11.4563 12.5307 11.3802 12.4402 11.3281 12.3359C11.276 12.2317 11.2492 12.1166 11.25 12V6C11.25 5.80109 11.329 5.61032 11.4697 5.46967C11.6103 5.32902 11.8011 5.25 12 5.25C12.1989 5.25 12.3897 5.32902 12.5303 5.46967C12.671 5.61032 12.75 5.80109 12.75 6V11.62L16.45 14.4C16.6091 14.5193 16.7143 14.697 16.7425 14.8939C16.7706 15.0908 16.7194 15.2909 16.6 15.45Z"
    fill="#000D26"
  />
</svg>
