<svg
  width="24"
  height="24"
  viewBox="0 0 24 24"
  fill="none"
  xmlns="http://www.w3.org/2000/svg"
>
  <path
    d="M19.41 18.3499L16.82 15.7599C17.9439 14.3648 18.4901 12.5918 18.3461 10.806C18.2021 9.02028 17.3789 7.35772 16.046 6.16065C14.713 4.96357 12.9719 4.32313 11.181 4.37117C9.39009 4.41922 7.68577 5.15209 6.41896 6.41891C5.15215 7.68572 4.41927 9.39003 4.37123 11.1809C4.32318 12.9718 4.96363 14.713 6.1607 16.0459C7.35777 17.3788 9.02034 18.202 10.8061 18.346C12.5918 18.49 14.3648 17.9438 15.76 16.8199L18.34 19.4099C18.4823 19.551 18.6746 19.6302 18.875 19.6302C19.0754 19.6302 19.2677 19.551 19.41 19.4099C19.5504 19.2693 19.6293 19.0787 19.6293 18.8799C19.6293 18.6812 19.5504 18.4906 19.41 18.3499ZM15 10.4699L10.88 14.5899C10.8108 14.6601 10.7282 14.7156 10.6372 14.7534C10.5462 14.7912 10.4485 14.8104 10.35 14.8099C10.2514 14.811 10.1536 14.792 10.0625 14.7542C9.97138 14.7164 9.8889 14.6605 9.82 14.5899L8 12.7099C7.90123 12.6538 7.81651 12.5759 7.75224 12.4822C7.68797 12.3886 7.64582 12.2815 7.62898 12.1691C7.61214 12.0568 7.62105 11.942 7.65503 11.8336C7.68901 11.7252 7.74718 11.6259 7.82515 11.5433C7.90311 11.4607 7.99884 11.3968 8.10509 11.3566C8.21134 11.3163 8.32535 11.3008 8.4385 11.311C8.55165 11.3213 8.66099 11.3571 8.75826 11.4159C8.85553 11.4746 8.93819 11.5546 9 11.6499L10.38 12.9999L14 9.40995C14.146 9.32691 14.3157 9.29532 14.4819 9.32021C14.648 9.34511 14.801 9.42507 14.9162 9.54727C15.0315 9.66946 15.1024 9.82682 15.1176 9.99413C15.1328 10.1614 15.0914 10.329 15 10.4699Z"
    fill="#000D26"
  />
</svg>
