<svg
  width="24"
  height="24"
  viewBox="0 0 24 24"
  fill="none"
  xmlns="http://www.w3.org/2000/svg"
>
  <path
    d="M16.58 10.41L9.25002 6.17997C8.97132 6.01788 8.65474 5.9323 8.33233 5.93189C8.00992 5.93148 7.69313 6.01625 7.41401 6.17763C7.1349 6.33901 6.90337 6.57126 6.74287 6.85088C6.58237 7.1305 6.49859 7.44756 6.50002 7.76997V16.23C6.49859 16.5524 6.58237 16.8694 6.74287 17.149C6.90337 17.4287 7.1349 17.6609 7.41401 17.8223C7.69313 17.9837 8.00992 18.0685 8.33233 18.068C8.65474 18.0676 8.97132 17.9821 9.25002 17.82L16.58 13.59C16.8607 13.4301 17.094 13.1987 17.2563 12.9195C17.4186 12.6402 17.504 12.323 17.504 12C17.504 11.677 17.4186 11.3597 17.2563 11.0805C17.094 10.8012 16.8607 10.5699 16.58 10.41Z"
    fill="#000D26"
  />
</svg>
