<svg
  width="24"
  height="24"
  viewBox="0 0 24 24"
  fill="none"
  xmlns="http://www.w3.org/2000/svg"
>
  <path
    d="M17.5 15.5C17.4015 15.5004 17.3038 15.4812 17.2128 15.4434C17.1218 15.4056 17.0392 15.3501 16.97 15.28L11.97 10.28L6.96999 15.28C6.82472 15.3501 6.6607 15.3715 6.50227 15.3411C6.34385 15.3106 6.19947 15.2299 6.09056 15.1109C5.98165 14.9919 5.91402 14.8409 5.89771 14.6804C5.88139 14.5199 5.91726 14.3584 5.99999 14.22L11.5 8.71995C11.6406 8.5795 11.8312 8.50061 12.03 8.50061C12.2287 8.50061 12.4194 8.5795 12.56 8.71995L18.06 14.22C18.2004 14.3606 18.2793 14.5512 18.2793 14.75C18.2793 14.9487 18.2004 15.1393 18.06 15.28C17.9873 15.3538 17.8998 15.4115 17.8034 15.4494C17.7069 15.4873 17.6035 15.5045 17.5 15.5Z"
    fill="#000D26"
  />
</svg>
