<svg
  width="24"
  height="24"
  viewBox="0 0 24 24"
  fill="none"
  xmlns="http://www.w3.org/2000/svg"
>
  <path
    d="M15 3.40991H9C8.20435 3.40991 7.44129 3.72598 6.87868 4.28859C6.31607 4.8512 6 5.61426 6 6.40991V19.5799C6.00093 19.76 6.05047 19.9365 6.14339 20.0907C6.23631 20.245 6.36917 20.3713 6.52792 20.4563C6.68668 20.5413 6.86545 20.5819 7.04535 20.5737C7.22525 20.5656 7.3996 20.509 7.55 20.4099L12 17.4099L16.45 20.4099C16.6004 20.509 16.7748 20.5656 16.9547 20.5737C17.1346 20.5819 17.3133 20.5413 17.4721 20.4563C17.6308 20.3713 17.7637 20.245 17.8566 20.0907C17.9495 19.9365 17.9991 19.76 18 19.5799V6.40991C18 5.61426 17.6839 4.8512 17.1213 4.28859C16.5587 3.72598 15.7956 3.40991 15 3.40991ZM14 10.7499H12.75V11.9999C12.75 12.1988 12.671 12.3896 12.5303 12.5302C12.3897 12.6709 12.1989 12.7499 12 12.7499C11.8011 12.7499 11.6103 12.6709 11.4697 12.5302C11.329 12.3896 11.25 12.1988 11.25 11.9999V10.7499H10C9.80109 10.7499 9.61032 10.6709 9.46967 10.5302C9.32902 10.3896 9.25 10.1988 9.25 9.99991C9.25 9.801 9.32902 9.61023 9.46967 9.46958C9.61032 9.32893 9.80109 9.24991 10 9.24991H11.25V7.99991C11.25 7.801 11.329 7.61023 11.4697 7.46958C11.6103 7.32893 11.8011 7.24991 12 7.24991C12.1989 7.24991 12.3897 7.32893 12.5303 7.46958C12.671 7.61023 12.75 7.801 12.75 7.99991V9.24991H14C14.1989 9.24991 14.3897 9.32893 14.5303 9.46958C14.671 9.61023 14.75 9.801 14.75 9.99991C14.75 10.1988 14.671 10.3896 14.5303 10.5302C14.3897 10.6709 14.1989 10.7499 14 10.7499Z"
    fill="#000D26"
  />
</svg>
