<svg
  width="24"
  height="24"
  viewBox="0 0 24 24"
  fill="none"
  xmlns="http://www.w3.org/2000/svg"
>
  <path
    d="M12 3C10.22 3 8.47991 3.52784 6.99987 4.51677C5.51983 5.50571 4.36628 6.91131 3.68509 8.55585C3.0039 10.2004 2.82567 12.01 3.17294 13.7558C3.5202 15.5016 4.37737 17.1053 5.63604 18.364C6.89472 19.6226 8.49836 20.4798 10.2442 20.8271C11.99 21.1743 13.7996 20.9961 15.4442 20.3149C17.0887 19.6337 18.4943 18.4802 19.4832 17.0001C20.4722 15.5201 21 13.78 21 12C21 9.61305 20.0518 7.32387 18.364 5.63604C16.6761 3.94821 14.387 3 12 3ZM10.84 14.89C10.84 15.119 10.7497 15.3388 10.5887 15.5017C10.4277 15.6645 10.209 15.7574 9.98 15.76H8.24C8.011 15.7574 7.79228 15.6645 7.63128 15.5017C7.47028 15.3388 7.37999 15.119 7.38 14.89V9.11C7.37999 8.88098 7.47028 8.6612 7.63128 8.49833C7.79228 8.33545 8.011 8.24263 8.24 8.24H10C10.229 8.24263 10.4477 8.33545 10.6087 8.49833C10.7697 8.6612 10.86 8.88098 10.86 9.11L10.84 14.89ZM16.63 14.89C16.63 15.1207 16.5383 15.342 16.3752 15.5052C16.212 15.6683 15.9907 15.76 15.76 15.76H14C13.771 15.7574 13.5523 15.6645 13.3913 15.5017C13.2303 15.3388 13.14 15.119 13.14 14.89V9.11C13.14 8.88098 13.2303 8.6612 13.3913 8.49833C13.5523 8.33545 13.771 8.24263 14 8.24H15.74C15.9707 8.24 16.192 8.33166 16.3552 8.49482C16.5183 8.65797 16.61 8.87926 16.61 9.11L16.63 14.89Z"
    fill="#000D26"
  />
</svg>
