<svg
  width="24"
  height="24"
  viewBox="0 0 24 24"
  fill="none"
  xmlns="http://www.w3.org/2000/svg"
>
  <path
    d="M9.25 19.1799C9.80228 19.1799 10.25 18.7322 10.25 18.1799C10.25 17.6276 9.80228 17.1799 9.25 17.1799C8.69772 17.1799 8.25 17.6276 8.25 18.1799C8.25 18.7322 8.69772 19.1799 9.25 19.1799Z"
    fill="#000D26"
  />
  <path
    d="M17.25 19.1799C17.8023 19.1799 18.25 18.7322 18.25 18.1799C18.25 17.6276 17.8023 17.1799 17.25 17.1799C16.6977 17.1799 16.25 17.6276 16.25 18.1799C16.25 18.7322 16.6977 19.1799 17.25 19.1799Z"
    fill="#000D26"
  />
  <path
    d="M20.63 6.57007C20.4259 6.33803 20.1753 6.15139 19.8946 6.02221C19.6138 5.89302 19.3091 5.82416 19 5.82007H7.15004C6.94297 5.51174 6.6631 5.2592 6.3352 5.08478C6.00729 4.91036 5.64145 4.81944 5.27004 4.82007H3.54004C3.44155 4.82007 3.34402 4.83947 3.25303 4.87716C3.16203 4.91485 3.07935 4.9701 3.00971 5.03974C2.94006 5.10939 2.88482 5.19206 2.84713 5.28306C2.80944 5.37405 2.79004 5.47158 2.79004 5.57007C2.79004 5.66856 2.80944 5.76609 2.84713 5.85708C2.88482 5.94808 2.94006 6.03076 3.00971 6.1004C3.07935 6.17005 3.16203 6.22529 3.25303 6.26298C3.34402 6.30067 3.44155 6.32007 3.54004 6.32007H5.27004C5.45393 6.32418 5.62991 6.39572 5.7645 6.52109C5.89909 6.64647 5.98292 6.81693 6.00004 7.00007L6.73004 14.3001C6.79161 14.8508 7.05423 15.3594 7.46757 15.7284C7.88092 16.0975 8.41591 16.301 8.97004 16.3001H18.27C18.8242 16.301 19.3592 16.0975 19.7725 15.7284C20.1859 15.3594 20.4485 14.8508 20.51 14.3001L21.17 8.30007C21.2061 7.98997 21.1767 7.67575 21.0837 7.37774C20.9907 7.07973 20.8361 6.80457 20.63 6.57007Z"
    fill="#000D26"
  />
</svg>
