<svg
  width="24"
  height="24"
  viewBox="0 0 24 24"
  fill="none"
  xmlns="http://www.w3.org/2000/svg"
>
  <path
    d="M10.67 8.07996H11.25V10.5L10.32 9.79996C10.2456 9.74618 10.1851 9.67554 10.1434 9.59383C10.1017 9.51213 10.0799 9.4217 10.08 9.32996V8.66996C10.08 8.51348 10.1421 8.36341 10.2528 8.25276C10.3634 8.14212 10.5135 8.07996 10.67 8.07996Z"
    fill="#000D26"
  />
  <path
    d="M12.75 13.5L13.68 14.2C13.7543 14.2538 13.8148 14.3244 13.8566 14.4061C13.8983 14.4878 13.92 14.5783 13.92 14.67V15.33C13.92 15.4865 13.8578 15.6365 13.7472 15.7472C13.6365 15.8578 13.4865 15.92 13.33 15.92H12.75V13.5Z"
    fill="#000D26"
  />
  <path
    d="M12 3C10.22 3 8.47991 3.52784 6.99987 4.51677C5.51983 5.50571 4.36628 6.91131 3.68509 8.55585C3.0039 10.2004 2.82567 12.01 3.17294 13.7558C3.5202 15.5016 4.37737 17.1053 5.63604 18.364C6.89472 19.6226 8.49836 20.4798 10.2442 20.8271C11.99 21.1743 13.7996 20.9961 15.4442 20.3149C17.0887 19.6337 18.4943 18.4802 19.4832 17.0001C20.4722 15.5201 21 13.78 21 12C21 9.61305 20.0518 7.32387 18.364 5.63604C16.6761 3.94821 14.387 3 12 3ZM15.42 10C15.42 10.1989 15.341 10.3897 15.2003 10.5303C15.0597 10.671 14.8689 10.75 14.67 10.75C14.4711 10.75 14.2803 10.671 14.1397 10.5303C13.999 10.3897 13.92 10.1989 13.92 10V8.67C13.92 8.51352 13.8578 8.36345 13.7472 8.25281C13.6366 8.14216 13.4865 8.08 13.33 8.08H12.75V11.63L14.58 13C14.8395 13.1946 15.0503 13.4466 15.1961 13.7364C15.3418 14.0261 15.4185 14.3457 15.42 14.67V15.33C15.4174 15.8835 15.1963 16.4136 14.805 16.8049C14.4136 17.1963 13.8835 17.4174 13.33 17.42H12.75V18C12.75 18.1989 12.671 18.3897 12.5303 18.5303C12.3897 18.671 12.1989 18.75 12 18.75C11.8011 18.75 11.6103 18.671 11.4697 18.5303C11.329 18.3897 11.25 18.1989 11.25 18V17.42H10.67C10.1165 17.4174 9.58644 17.1963 9.19506 16.8049C8.80367 16.4136 8.58263 15.8835 8.58 15.33V14C8.58 13.8011 8.65902 13.6103 8.79967 13.4697C8.94033 13.329 9.13109 13.25 9.33 13.25C9.52892 13.25 9.71968 13.329 9.86033 13.4697C10.001 13.6103 10.08 13.8011 10.08 14V15.33C10.08 15.4865 10.1422 15.6365 10.2528 15.7472C10.3635 15.8578 10.5135 15.92 10.67 15.92H11.25V12.37L9.42 11C9.16054 10.8054 8.94967 10.5534 8.80394 10.2636C8.6582 9.97388 8.58155 9.65432 8.58 9.33V8.67C8.58263 8.11651 8.80367 7.58643 9.19506 7.19505C9.58644 6.80367 10.1165 6.58263 10.67 6.58H11.25V6C11.25 5.80109 11.329 5.61032 11.4697 5.46967C11.6103 5.32902 11.8011 5.25 12 5.25C12.1989 5.25 12.3897 5.32902 12.5303 5.46967C12.671 5.61032 12.75 5.80109 12.75 6V6.58H13.33C13.8835 6.58263 14.4136 6.80367 14.805 7.19505C15.1963 7.58643 15.4174 8.11651 15.42 8.67V10Z"
    fill="#000D26"
  />
</svg>
