<svg
  width="24"
  height="24"
  viewBox="0 0 24 24"
  fill="none"
  xmlns="http://www.w3.org/2000/svg"
>
  <path
    d="M17 3H7C5.93913 3 4.92172 3.42143 4.17157 4.17157C3.42143 4.92172 3 5.93913 3 7V17C3 18.0609 3.42143 19.0783 4.17157 19.8284C4.92172 20.5786 5.93913 21 7 21H17C18.0609 21 19.0783 20.5786 19.8284 19.8284C20.5786 19.0783 21 18.0609 21 17V7C21 5.93913 20.5786 4.92172 19.8284 4.17157C19.0783 3.42143 18.0609 3 17 3ZM11.25 7.5C11.25 7.30109 11.329 7.11032 11.4697 6.96967C11.6103 6.82902 11.8011 6.75 12 6.75C12.1989 6.75 12.3897 6.82902 12.5303 6.96967C12.671 7.11032 12.75 7.30109 12.75 7.5V13.8C12.75 13.9989 12.671 14.1897 12.5303 14.3303C12.3897 14.471 12.1989 14.55 12 14.55C11.8011 14.55 11.6103 14.471 11.4697 14.3303C11.329 14.1897 11.25 13.9989 11.25 13.8V7.5ZM12 17.5C11.8022 17.5 11.6089 17.4414 11.4444 17.3315C11.28 17.2216 11.1518 17.0654 11.0761 16.8827C11.0004 16.7 10.9806 16.4989 11.0192 16.3049C11.0578 16.1109 11.153 15.9327 11.2929 15.7929C11.4327 15.653 11.6109 15.5578 11.8049 15.5192C11.9989 15.4806 12.2 15.5004 12.3827 15.5761C12.5654 15.6518 12.7216 15.78 12.8315 15.9444C12.9414 16.1089 13 16.3022 13 16.5C13 16.7652 12.8946 17.0196 12.7071 17.2071C12.5196 17.3946 12.2652 17.5 12 17.5Z"
    fill="#000D26"
  />
</svg>
