<svg
  width="24"
  height="24"
  viewBox="0 0 24 24"
  fill="none"
  xmlns="http://www.w3.org/2000/svg"
>
  <path
    d="M19 8C18.4698 7.99919 17.9494 7.85791 17.4916 7.59053C17.0338 7.32316 16.655 6.93925 16.3938 6.47788C16.1327 6.01652 15.9984 5.49418 16.0048 4.96406C16.0111 4.43394 16.1579 3.91497 16.43 3.46C16.4585 3.41489 16.4744 3.363 16.4761 3.3097C16.4778 3.25639 16.4653 3.20358 16.4398 3.15672C16.4144 3.10986 16.3769 3.07064 16.3312 3.04309C16.2855 3.01554 16.2333 3.00067 16.18 3H7C5.93913 3 4.92172 3.42143 4.17157 4.17157C3.42143 4.92172 3 5.93913 3 7V17C3 18.0609 3.42143 19.0783 4.17157 19.8284C4.92172 20.5786 5.93913 21 7 21H17C18.0609 21 19.0783 20.5786 19.8284 19.8284C20.5786 19.0783 21 18.0609 21 17V7.82C20.9993 7.76667 20.9845 7.71448 20.9569 7.66881C20.9294 7.62314 20.8901 7.58564 20.8433 7.56017C20.7964 7.5347 20.7436 7.52219 20.6903 7.52391C20.637 7.52564 20.5851 7.54155 20.54 7.57C20.075 7.85001 19.5428 7.99862 19 8ZM17.59 10.32L15.39 13.15C15.1871 13.4128 14.9264 13.6252 14.6281 13.7709C14.3298 13.9166 14.002 13.9916 13.67 13.99C13.3462 13.9855 13.0277 13.9075 12.7384 13.762C12.4492 13.6165 12.1967 13.4072 12 13.15L10.92 11.76C10.8549 11.6794 10.7726 11.6142 10.6792 11.5693C10.5858 11.5243 10.4836 11.5007 10.38 11.5C10.2767 11.5004 10.1749 11.525 10.0829 11.5719C9.99081 11.6188 9.91105 11.6867 9.85 11.77L7.59 14.6C7.52014 14.69 7.4307 14.7628 7.32847 14.8131C7.22624 14.8633 7.11391 14.8896 7 14.89C6.85985 14.8896 6.72262 14.8499 6.60389 14.7754C6.48516 14.7009 6.38966 14.5947 6.32824 14.4687C6.26681 14.3427 6.24191 14.2021 6.25636 14.0627C6.27082 13.9233 6.32404 13.7907 6.41 13.68L8.61 10.84C8.8144 10.5789 9.07542 10.3676 9.37337 10.2221C9.67132 10.0766 9.99842 10.0007 10.33 10C10.6618 9.99918 10.9894 10.0745 11.2876 10.2201C11.5858 10.3657 11.8466 10.5778 12.05 10.84L13.13 12.23C13.1936 12.3123 13.2756 12.3786 13.3693 12.4237C13.463 12.4689 13.566 12.4916 13.67 12.49C13.7726 12.4916 13.8741 12.4688 13.9662 12.4236C14.0583 12.3784 14.1384 12.3121 14.2 12.23L16.41 9.4C16.4674 9.31455 16.5418 9.24183 16.6285 9.18637C16.7153 9.13092 16.8125 9.09392 16.9142 9.07767C17.0158 9.06142 17.1197 9.06628 17.2194 9.09193C17.3191 9.11759 17.4125 9.1635 17.4937 9.2268C17.5749 9.2901 17.6422 9.36943 17.6914 9.45987C17.7406 9.5503 17.7706 9.64989 17.7796 9.75245C17.7887 9.855 17.7765 9.95831 17.7439 10.056C17.7112 10.1536 17.6589 10.2435 17.59 10.32Z"
    fill="#000D26"
  />
  <path
    d="M19 7C20.1046 7 21 6.10457 21 5C21 3.89543 20.1046 3 19 3C17.8954 3 17 3.89543 17 5C17 6.10457 17.8954 7 19 7Z"
    fill="#000D26"
  />
</svg>
