<svg
  width="24"
  height="24"
  viewBox="0 0 24 24"
  fill="none"
  xmlns="http://www.w3.org/2000/svg"
>
  <path
    d="M12 3C10.22 3 8.47991 3.52784 6.99987 4.51677C5.51983 5.50571 4.36628 6.91131 3.68509 8.55585C3.0039 10.2004 2.82567 12.01 3.17294 13.7558C3.5202 15.5016 4.37737 17.1053 5.63604 18.364C6.89472 19.6226 8.49836 20.4798 10.2442 20.8271C11.99 21.1743 13.7996 20.9961 15.4442 20.3149C17.0887 19.6337 18.4943 18.4802 19.4832 17.0001C20.4722 15.5201 21 13.78 21 12C21 9.61305 20.0518 7.32387 18.364 5.63604C16.6761 3.94821 14.387 3 12 3ZM16.07 9L10.27 14.79H12.71C12.9089 14.79 13.0997 14.869 13.2403 15.0097C13.381 15.1503 13.46 15.3411 13.46 15.54C13.46 15.7389 13.381 15.9297 13.2403 16.0703C13.0997 16.211 12.9089 16.29 12.71 16.29H8.46C8.36356 16.2892 8.26829 16.2688 8.18 16.23C8.08823 16.1944 8.00459 16.1406 7.93413 16.0719C7.86367 16.0032 7.80785 15.9209 7.77 15.83C7.73093 15.7383 7.71053 15.6397 7.71 15.54V11.3C7.71 11.1011 7.78902 10.9103 7.92967 10.7697C8.07033 10.629 8.26109 10.55 8.46 10.55C8.65892 10.55 8.84968 10.629 8.99033 10.7697C9.13099 10.9103 9.21 11.1011 9.21 11.3V13.73L15 7.94C15.0689 7.86924 15.1514 7.81301 15.2424 7.77461C15.3334 7.73621 15.4312 7.71643 15.53 7.71643C15.6288 7.71643 15.7266 7.73621 15.8176 7.77461C15.9086 7.81301 15.9911 7.86924 16.06 7.94C16.2018 8.0793 16.2825 8.26918 16.2844 8.46793C16.2862 8.66668 16.2091 8.85805 16.07 9Z"
    fill="#000D26"
  />
</svg>
