<svg
  width="24"
  height="24"
  viewBox="0 0 24 24"
  fill="none"
  xmlns="http://www.w3.org/2000/svg"
>
  <path
    d="M11.63 11C13.2869 11 14.63 9.65685 14.63 8C14.63 6.34315 13.2869 5 11.63 5C9.97315 5 8.63 6.34315 8.63 8C8.63 9.65685 9.97315 11 11.63 11Z"
    fill="#000D26"
  />
  <path
    d="M6.62997 14C6.2989 13.9983 5.97084 14.0629 5.66513 14.19C5.35942 14.3171 5.08226 14.5041 4.84997 14.74C4.5027 15.0902 4.26628 15.5349 4.17024 16.0187C4.07421 16.5024 4.12281 17.0037 4.30997 17.46C4.51328 17.925 4.84969 18.3194 5.27679 18.5934C5.7039 18.8675 6.20258 19.009 6.70997 19H12.08C12.1312 18.9991 12.1814 18.9851 12.2257 18.9593C12.2699 18.9335 12.3069 18.8968 12.3329 18.8527C12.359 18.8086 12.3734 18.7585 12.3746 18.7073C12.3758 18.656 12.3639 18.6054 12.34 18.56C12.0369 17.9156 11.8797 17.2122 11.8797 16.5C11.8797 15.7879 12.0369 15.0845 12.34 14.44C12.3639 14.3947 12.3758 14.344 12.3746 14.2928C12.3734 14.2416 12.359 14.1915 12.3329 14.1474C12.3069 14.1032 12.2699 14.0665 12.2257 14.0407C12.1814 14.015 12.1312 14.0009 12.08 14H6.62997Z"
    fill="#000D26"
  />
  <path
    d="M16.63 13.25C15.9872 13.25 15.3589 13.4406 14.8244 13.7977C14.2899 14.1548 13.8734 14.6624 13.6274 15.2563C13.3814 15.8501 13.3171 16.5036 13.4425 17.134C13.5679 17.7645 13.8774 18.3436 14.3319 18.7981C14.7864 19.2526 15.3655 19.5621 15.996 19.6876C16.6264 19.813 17.2799 19.7486 17.8737 19.5026C18.4676 19.2566 18.9752 18.8401 19.3323 18.3056C19.6894 17.7711 19.88 17.1428 19.88 16.5C19.8774 15.6389 19.5341 14.8137 18.9252 14.2048C18.3163 13.5959 17.4911 13.2526 16.63 13.25ZM18.13 17.25H17.38V18C17.38 18.1989 17.301 18.3897 17.1603 18.5303C17.0197 18.671 16.8289 18.75 16.63 18.75C16.4311 18.75 16.2403 18.671 16.0997 18.5303C15.959 18.3897 15.88 18.1989 15.88 18V17.25H15.13C14.9311 17.25 14.7403 17.171 14.5997 17.0303C14.459 16.8897 14.38 16.6989 14.38 16.5C14.38 16.3011 14.459 16.1103 14.5997 15.9697C14.7403 15.829 14.9311 15.75 15.13 15.75H15.88V15C15.88 14.8011 15.959 14.6103 16.0997 14.4697C16.2403 14.329 16.4311 14.25 16.63 14.25C16.8289 14.25 17.0197 14.329 17.1603 14.4697C17.301 14.6103 17.38 14.8011 17.38 15V15.75H18.13C18.3289 15.75 18.5197 15.829 18.6603 15.9697C18.801 16.1103 18.88 16.3011 18.88 16.5C18.88 16.6989 18.801 16.8897 18.6603 17.0303C18.5197 17.171 18.3289 17.25 18.13 17.25Z"
    fill="#000D26"
  />
</svg>
