<svg
  width="24"
  height="24"
  viewBox="0 0 24 24"
  fill="none"
  xmlns="http://www.w3.org/2000/svg"
>
  <path
    d="M12 3C10.22 3 8.47991 3.52784 6.99987 4.51677C5.51983 5.50571 4.36628 6.91131 3.68509 8.55585C3.0039 10.2004 2.82567 12.01 3.17294 13.7558C3.5202 15.5016 4.37737 17.1053 5.63604 18.364C6.89472 19.6226 8.49836 20.4798 10.2442 20.8271C11.99 21.1743 13.7996 20.9961 15.4442 20.3149C17.0887 19.6337 18.4943 18.4802 19.4832 17.0001C20.4722 15.5201 21 13.78 21 12C21 9.61305 20.0518 7.32387 18.364 5.63604C16.6761 3.94821 14.387 3 12 3ZM17.53 10.68L16.43 11.78C16.2895 11.9207 16.0988 11.9998 15.9 12C15.702 11.9957 15.5128 11.9172 15.37 11.78C15.2658 11.6719 15.196 11.5354 15.1693 11.3877C15.1426 11.24 15.1602 11.0877 15.22 10.95H9.37C9.15726 10.95 8.9466 10.9919 8.75006 11.0733C8.55351 11.1547 8.37492 11.2741 8.22449 11.4245C8.07406 11.5749 7.95473 11.7535 7.87332 11.9501C7.79191 12.1466 7.75 12.3573 7.75 12.57C7.75 12.7827 7.79191 12.9934 7.87332 13.1899C7.95473 13.3865 8.07406 13.5651 8.22449 13.7155C8.37492 13.8659 8.55351 13.9853 8.75006 14.0667C8.9466 14.1481 9.15726 14.19 9.37 14.19H16.5C16.6989 14.19 16.8897 14.269 17.0303 14.4097C17.171 14.5503 17.25 14.7411 17.25 14.94C17.25 15.1389 17.171 15.3297 17.0303 15.4703C16.8897 15.611 16.6989 15.69 16.5 15.69H9.37C8.54253 15.69 7.74894 15.3613 7.16383 14.7762C6.57872 14.1911 6.25 13.3975 6.25 12.57C6.25 11.7425 6.57872 10.9489 7.16383 10.3638C7.74894 9.77871 8.54253 9.45 9.37 9.45H15.28C15.1652 9.29673 15.1142 9.1049 15.1379 8.91485C15.1616 8.7248 15.258 8.55133 15.4069 8.4309C15.5558 8.31047 15.7456 8.25247 15.9364 8.26908C16.1272 8.2857 16.3041 8.37564 16.43 8.52L17.53 9.62C17.6705 9.76063 17.7493 9.95125 17.7493 10.15C17.7493 10.3488 17.6705 10.5394 17.53 10.68Z"
    fill="#000D26"
  />
</svg>
