<svg
  width="24"
  height="24"
  viewBox="0 0 24 24"
  fill="none"
  xmlns="http://www.w3.org/2000/svg"
>
  <path
    d="M17 11.25H13.81L16.07 9C16.2105 8.85937 16.2893 8.66875 16.2893 8.47C16.2893 8.27125 16.2105 8.08063 16.07 7.94C15.9264 7.8013 15.7346 7.72378 15.535 7.72378C15.3354 7.72378 15.1436 7.8013 15 7.94L12.75 10.2V7C12.75 6.80109 12.671 6.61032 12.5303 6.46967C12.3897 6.32902 12.1989 6.25 12 6.25C11.8011 6.25 11.6103 6.32902 11.4697 6.46967C11.329 6.61032 11.25 6.80109 11.25 7V10.19L9 7.93C8.85644 7.7913 8.66462 7.71378 8.465 7.71378C8.26538 7.71378 8.07356 7.7913 7.93 7.93C7.85895 7.99981 7.80251 8.08307 7.76399 8.17493C7.72546 8.26678 7.70562 8.36539 7.70562 8.465C7.70562 8.56461 7.72546 8.66322 7.76399 8.75507C7.80251 8.84693 7.85895 8.93019 7.93 9L10.19 11.26H7C6.80109 11.26 6.61032 11.339 6.46967 11.4797C6.32902 11.6203 6.25 11.8111 6.25 12.01C6.25 12.2089 6.32902 12.3997 6.46967 12.5403C6.61032 12.681 6.80109 12.76 7 12.76H10.19L7.93 15C7.78955 15.1406 7.71066 15.3312 7.71066 15.53C7.71066 15.7288 7.78955 15.9194 7.93 16.06C8.07233 16.2011 8.26461 16.2802 8.465 16.2802C8.66539 16.2802 8.85767 16.2011 9 16.06L11.25 13.8V17C11.25 17.1989 11.329 17.3897 11.4697 17.5303C11.6103 17.671 11.8011 17.75 12 17.75C12.1989 17.75 12.3897 17.671 12.5303 17.5303C12.671 17.3897 12.75 17.1989 12.75 17V13.81L15 16.07C15.1423 16.2111 15.3346 16.2902 15.535 16.2902C15.7354 16.2902 15.9277 16.2111 16.07 16.07C16.2105 15.9294 16.2893 15.7388 16.2893 15.54C16.2893 15.3412 16.2105 15.1506 16.07 15.01L13.81 12.75H17C17.1989 12.75 17.3897 12.671 17.5303 12.5303C17.671 12.3897 17.75 12.1989 17.75 12C17.75 11.8011 17.671 11.6103 17.5303 11.4697C17.3897 11.329 17.1989 11.25 17 11.25Z"
    fill="#000D26"
  />
</svg>
