<svg
  width="24"
  height="24"
  viewBox="0 0 24 24"
  fill="none"
  xmlns="http://www.w3.org/2000/svg"
>
  <path
    d="M6.88001 8.88999C6.7842 8.88835 6.68909 8.90669 6.60075 8.94383C6.51242 8.98097 6.43278 9.03611 6.36693 9.10572C6.30108 9.17534 6.25044 9.25791 6.21826 9.34818C6.18608 9.43844 6.17306 9.53442 6.18001 9.62999L6.75001 18.06C6.75001 18.5904 6.96073 19.0991 7.3358 19.4742C7.71087 19.8493 8.21958 20.06 8.75001 20.06H15.25C15.7804 20.06 16.2892 19.8493 16.6642 19.4742C17.0393 19.0991 17.25 18.5904 17.25 18.06L17.82 9.62999C17.827 9.53442 17.8139 9.43844 17.7818 9.34818C17.7496 9.25791 17.699 9.17534 17.6331 9.10572C17.5672 9.03611 17.4876 8.98097 17.3993 8.94383C17.3109 8.90669 17.2158 8.88835 17.12 8.88999H6.88001ZM11.25 17.06C11.25 17.2589 11.171 17.4497 11.0303 17.5903C10.8897 17.731 10.6989 17.81 10.5 17.81C10.3011 17.81 10.1103 17.731 9.96968 17.5903C9.82903 17.4497 9.75001 17.2589 9.75001 17.06V12.56C9.75001 12.3611 9.82903 12.1703 9.96968 12.0297C10.1103 11.889 10.3011 11.81 10.5 11.81C10.6989 11.81 10.8897 11.889 11.0303 12.0297C11.171 12.1703 11.25 12.3611 11.25 12.56V17.06ZM14.25 17.06C14.25 17.2589 14.171 17.4497 14.0303 17.5903C13.8897 17.731 13.6989 17.81 13.5 17.81C13.3011 17.81 13.1103 17.731 12.9697 17.5903C12.829 17.4497 12.75 17.2589 12.75 17.06V12.56C12.75 12.3611 12.829 12.1703 12.9697 12.0297C13.1103 11.889 13.3011 11.81 13.5 11.81C13.6989 11.81 13.8897 11.889 14.0303 12.0297C14.171 12.1703 14.25 12.3611 14.25 12.56V17.06Z"
    fill="#000D26"
  />
  <path
    d="M19 7.68994H5C4.80109 7.68994 4.61032 7.61092 4.46967 7.47027C4.32902 7.32962 4.25 7.13885 4.25 6.93994C4.25 6.74103 4.32902 6.55026 4.46967 6.40961C4.61032 6.26896 4.80109 6.18994 5 6.18994H19C19.1989 6.18994 19.3897 6.26896 19.5303 6.40961C19.671 6.55026 19.75 6.74103 19.75 6.93994C19.75 7.13885 19.671 7.32962 19.5303 7.47027C19.3897 7.61092 19.1989 7.68994 19 7.68994Z"
    fill="#000D26"
  />
  <path
    d="M14.5 6.93994V4.93994C14.5 4.67472 14.3946 4.42037 14.2071 4.23283C14.0196 4.0453 13.7652 3.93994 13.5 3.93994H10.5C10.2348 3.93994 9.98043 4.0453 9.79289 4.23283C9.60536 4.42037 9.5 4.67472 9.5 4.93994V6.93994"
    fill="#000D26"
  />
</svg>
