<svg
  width="24"
  height="24"
  viewBox="0 0 24 24"
  fill="none"
  xmlns="http://www.w3.org/2000/svg"
>
  <path
    d="M18.51 10.54L14.13 8.00002C13.8732 7.84938 13.5811 7.76968 13.2834 7.76905C12.9857 7.76842 12.6932 7.84689 12.4359 7.99644C12.1785 8.14599 11.9655 8.36123 11.8186 8.62015C11.6717 8.87907 11.5963 9.17237 11.6 9.47002V10.57L7.18 8.00002C6.92274 7.85266 6.63125 7.77557 6.33479 7.77648C6.03832 7.77739 5.74731 7.85628 5.49097 8.00522C5.23463 8.15416 5.02198 8.36792 4.87437 8.62503C4.72675 8.88213 4.64938 9.17355 4.65 9.47002V14.53C4.64938 14.8265 4.72675 15.1179 4.87437 15.375C5.02198 15.6321 5.23463 15.8459 5.49097 15.9948C5.74731 16.1438 6.03832 16.2226 6.33479 16.2236C6.63125 16.2245 6.92274 16.1474 7.18 16L11.56 13.47V14.57C11.5591 14.8703 11.6387 15.1653 11.7905 15.4244C11.9423 15.6835 12.1607 15.8972 12.4231 16.0432C12.6855 16.1892 12.9823 16.2622 13.2825 16.2546C13.5826 16.247 13.8753 16.1591 14.13 16L18.51 13.47C18.7676 13.3219 18.9815 13.1084 19.1303 12.8512C19.2791 12.594 19.3575 12.3022 19.3575 12.005C19.3575 11.7079 19.2791 11.416 19.1303 11.1588C18.9815 10.9016 18.7676 10.6882 18.51 10.54Z"
    fill="#000D26"
  />
</svg>
