<svg
  width="24"
  height="24"
  viewBox="0 0 24 24"
  fill="none"
  xmlns="http://www.w3.org/2000/svg"
>
  <path
    d="M18 15.25C17.8019 15.2474 17.6126 15.1676 17.4725 15.0275C17.3324 14.8874 17.2526 14.6981 17.25 14.5V3.5C17.25 3.30109 17.329 3.11032 17.4697 2.96967C17.6103 2.82902 17.8011 2.75 18 2.75C18.1989 2.75 18.3897 2.82902 18.5303 2.96967C18.671 3.11032 18.75 3.30109 18.75 3.5V14.5C18.7474 14.6981 18.6676 14.8874 18.5275 15.0275C18.3874 15.1676 18.1981 15.2474 18 15.25Z"
    fill="#000D26"
  />
  <path
    d="M18 21C19.1046 21 20 20.1046 20 19C20 17.8954 19.1046 17 18 17C16.8954 17 16 17.8954 16 19C16 20.1046 16.8954 21 18 21Z"
    fill="#000D26"
  />
  <path
    d="M12 21.25C11.8019 21.2474 11.6126 21.1676 11.4725 21.0275C11.3324 20.8874 11.2526 20.6981 11.25 20.5V9.5C11.25 9.30109 11.329 9.11032 11.4697 8.96967C11.6103 8.82902 11.8011 8.75 12 8.75C12.1989 8.75 12.3897 8.82902 12.5303 8.96967C12.671 9.11032 12.75 9.30109 12.75 9.5V20.5C12.7474 20.6981 12.6676 20.8874 12.5275 21.0275C12.3874 21.1676 12.1981 21.2474 12 21.25Z"
    fill="#000D26"
  />
  <path
    d="M12 7C13.1046 7 14 6.10457 14 5C14 3.89543 13.1046 3 12 3C10.8954 3 10 3.89543 10 5C10 6.10457 10.8954 7 12 7Z"
    fill="#000D26"
  />
  <path
    d="M6 15.25C5.80189 15.2474 5.61263 15.1676 5.47253 15.0275C5.33244 14.8874 5.25259 14.6981 5.25 14.5V3.5C5.25 3.30109 5.32902 3.11032 5.46967 2.96967C5.61032 2.82902 5.80109 2.75 6 2.75C6.19891 2.75 6.38968 2.82902 6.53033 2.96967C6.67098 3.11032 6.75 3.30109 6.75 3.5V14.5C6.74741 14.6981 6.66756 14.8874 6.52747 15.0275C6.38737 15.1676 6.19811 15.2474 6 15.25Z"
    fill="#000D26"
  />
  <path
    d="M6 21C7.10457 21 8 20.1046 8 19C8 17.8954 7.10457 17 6 17C4.89543 17 4 17.8954 4 19C4 20.1046 4.89543 21 6 21Z"
    fill="#000D26"
  />
</svg>
