<svg
  width="24"
  height="24"
  viewBox="0 0 24 24"
  fill="none"
  xmlns="http://www.w3.org/2000/svg"
>
  <path
    d="M17 3H7C5.93913 3 4.92172 3.42143 4.17157 4.17157C3.42143 4.92172 3 5.93913 3 7V17C3 18.0609 3.42143 19.0783 4.17157 19.8284C4.92172 20.5786 5.93913 21 7 21H17C18.0609 21 19.0783 20.5786 19.8284 19.8284C20.5786 19.0783 21 18.0609 21 17V7C21 5.93913 20.5786 4.92172 19.8284 4.17157C19.0783 3.42143 18.0609 3 17 3ZM15.53 14.53L12.53 17.53C12.4634 17.6012 12.3813 17.6559 12.29 17.69C12.1985 17.7296 12.0998 17.7501 12 17.7501C11.9002 17.7501 11.8015 17.7296 11.71 17.69C11.6187 17.6559 11.5366 17.6012 11.47 17.53L8.47 14.53C8.33752 14.3878 8.2654 14.1998 8.26882 14.0055C8.27225 13.8112 8.35097 13.6258 8.48838 13.4884C8.62579 13.351 8.81118 13.2723 9.00548 13.2688C9.19978 13.2654 9.38783 13.3375 9.53 13.47L11.25 15.19V7C11.25 6.80109 11.329 6.61032 11.4697 6.46967C11.6103 6.32902 11.8011 6.25 12 6.25C12.1989 6.25 12.3897 6.32902 12.5303 6.46967C12.671 6.61032 12.75 6.80109 12.75 7V15.19L14.47 13.47C14.6122 13.3375 14.8002 13.2654 14.9945 13.2688C15.1888 13.2723 15.3742 13.351 15.5116 13.4884C15.649 13.6258 15.7277 13.8112 15.7312 14.0055C15.7346 14.1998 15.6625 14.3878 15.53 14.53Z"
    fill="#000D26"
  />
</svg>
