<svg
  width="24"
  height="24"
  viewBox="0 0 24 24"
  fill="none"
  xmlns="http://www.w3.org/2000/svg"
>
  <path
    d="M19.41 18.3499L16.82 15.7599C17.9439 14.3648 18.4901 12.5918 18.3461 10.806C18.2021 9.02028 17.3789 7.35772 16.046 6.16065C14.7131 4.96357 12.9719 4.32313 11.181 4.37117C9.3901 4.41922 7.68578 5.15209 6.41897 6.41891C5.15216 7.68572 4.41928 9.39003 4.37123 11.1809C4.32319 12.9718 4.96364 14.713 6.16071 16.0459C7.35778 17.3788 9.02035 18.202 10.8061 18.346C12.5918 18.49 14.3648 17.9438 15.76 16.8199L18.34 19.4099C18.4823 19.551 18.6746 19.6302 18.875 19.6302C19.0754 19.6302 19.2677 19.551 19.41 19.4099C19.5505 19.2693 19.6293 19.0787 19.6293 18.8799C19.6293 18.6812 19.5505 18.4906 19.41 18.3499Z"
    fill="#000D26"
  />
</svg>
