<svg
  width="24"
  height="24"
  viewBox="0 0 24 24"
  fill="none"
  xmlns="http://www.w3.org/2000/svg"
>
  <path
    d="M17 3H7C5.93913 3 4.92172 3.42143 4.17157 4.17157C3.42143 4.92172 3 5.93913 3 7V17C3 18.0609 3.42143 19.0783 4.17157 19.8284C4.92172 20.5786 5.93913 21 7 21H17C18.0609 21 19.0783 20.5786 19.8284 19.8284C20.5786 19.0783 21 18.0609 21 17V7C21 5.93913 20.5786 4.92172 19.8284 4.17157C19.0783 3.42143 18.0609 3 17 3ZM16 10.13L11.19 14.93C11.1211 15.0006 11.0386 15.0565 10.9475 15.0943C10.8564 15.1321 10.7586 15.151 10.66 15.15C10.5615 15.1505 10.4638 15.1312 10.3728 15.0935C10.2818 15.0557 10.1992 15.0001 10.13 14.93L8 12.74C7.90861 12.599 7.86719 12.4315 7.88238 12.2642C7.89756 12.0969 7.96848 11.9395 8.08376 11.8173C8.19904 11.6951 8.352 11.6152 8.51814 11.5903C8.68428 11.5654 8.85396 11.597 9 11.68L10.66 13.34L15 9.07C15.0689 8.99924 15.1514 8.94301 15.2424 8.90461C15.3334 8.86621 15.4312 8.84643 15.53 8.84643C15.6288 8.84643 15.7266 8.86621 15.8176 8.90461C15.9086 8.94301 15.9911 8.99924 16.06 9.07C16.1258 9.1435 16.1764 9.22924 16.2089 9.32232C16.2415 9.4154 16.2554 9.51399 16.2498 9.61244C16.2443 9.7109 16.2193 9.80729 16.1765 9.8961C16.1336 9.98491 16.0736 10.0644 16 10.13Z"
    fill="#000D26"
  />
</svg>
