<svg
  width="24"
  height="24"
  viewBox="0 0 24 24"
  fill="none"
  xmlns="http://www.w3.org/2000/svg"
>
  <path
    d="M17 3H7C5.93913 3 4.92172 3.42143 4.17157 4.17157C3.42143 4.92172 3 5.93913 3 7V17C3 18.0609 3.42143 19.0783 4.17157 19.8284C4.92172 20.5786 5.93913 21 7 21H17C18.0609 21 19.0783 20.5786 19.8284 19.8284C20.5786 19.0783 21 18.0609 21 17V7C21 5.93913 20.5786 4.92172 19.8284 4.17157C19.0783 3.42143 18.0609 3 17 3ZM14 12.53L11 15.53C10.8594 15.6705 10.6688 15.7493 10.47 15.7493C10.2712 15.7493 10.0806 15.6705 9.94 15.53C9.79955 15.3894 9.72066 15.1988 9.72066 15C9.72066 14.8012 9.79955 14.6106 9.94 14.47L12.44 12L10 9.53C9.90861 9.38904 9.86719 9.22148 9.88238 9.05418C9.89756 8.88688 9.96848 8.72952 10.0838 8.60732C10.199 8.48512 10.352 8.40517 10.5181 8.38027C10.6843 8.35537 10.854 8.38697 11 8.47L14 11.47C14.1405 11.6106 14.2193 11.8012 14.2193 12C14.2193 12.1988 14.1405 12.3894 14 12.53Z"
    fill="#000D26"
  />
</svg>
