<svg
  width="24"
  height="24"
  viewBox="0 0 24 24"
  fill="none"
  xmlns="http://www.w3.org/2000/svg"
>
  <path
    d="M15 3.41992H9C8.20435 3.41992 7.44129 3.73599 6.87868 4.2986C6.31607 4.86121 6 5.62427 6 6.41992V19.5799C5.99912 19.7609 6.04735 19.9386 6.13954 20.0943C6.23174 20.25 6.36444 20.3778 6.52352 20.464C6.68259 20.5502 6.86208 20.5916 7.04285 20.5838C7.22361 20.5761 7.39889 20.5194 7.55 20.4199L12 17.4199L16.45 20.4199C16.6011 20.5194 16.7764 20.5761 16.9571 20.5838C17.1379 20.5916 17.3174 20.5502 17.4765 20.464C17.6355 20.3778 17.7683 20.25 17.8604 20.0943C17.9526 19.9386 18.0009 19.7609 18 19.5799V6.41992C18 5.62427 17.6839 4.86121 17.1213 4.2986C16.5587 3.73599 15.7956 3.41992 15 3.41992ZM15.75 8.99992C15.75 9.19883 15.671 9.3896 15.5303 9.53025C15.3897 9.6709 15.1989 9.74992 15 9.74992C14.8011 9.74992 14.6103 9.6709 14.4697 9.53025C14.329 9.3896 14.25 9.19883 14.25 8.99992V6.99992C14.25 6.93362 14.2237 6.87003 14.1768 6.82314C14.1299 6.77626 14.0663 6.74992 14 6.74992H12C11.8011 6.74992 11.6103 6.6709 11.4697 6.53025C11.329 6.3896 11.25 6.19883 11.25 5.99992C11.25 5.80101 11.329 5.61024 11.4697 5.46959C11.6103 5.32894 11.8011 5.24992 12 5.24992H14C14.4633 5.25255 14.9069 5.43776 15.2345 5.76539C15.5622 6.09301 15.7474 6.5366 15.75 6.99992V8.99992Z"
    fill="#000D26"
  />
</svg>
