<svg
  width="24"
  height="24"
  viewBox="0 0 24 24"
  fill="none"
  xmlns="http://www.w3.org/2000/svg"
>
  <path
    d="M20 16L17.76 13.75C17.5599 13.5534 17.2906 13.4432 17.01 13.4432C16.7295 13.4432 16.4601 13.5534 16.26 13.75L15.51 14.5C15.3099 14.6967 15.0406 14.8069 14.76 14.8069C14.4795 14.8069 14.2101 14.6967 14.01 14.5L9.47003 10C9.27338 9.79991 9.16318 9.53058 9.16318 9.25002C9.16318 8.96946 9.27338 8.70012 9.47003 8.50002L10.22 7.75002C10.4167 7.54991 10.5269 7.28058 10.5269 7.00002C10.5269 6.71946 10.4167 6.45012 10.22 6.25002L8.00003 4.05002C7.90227 3.95024 7.78558 3.87097 7.65679 3.81685C7.52801 3.76274 7.38972 3.73486 7.25003 3.73486C7.11034 3.73486 6.97205 3.76274 6.84327 3.81685C6.71448 3.87097 6.59779 3.95024 6.50003 4.05002L5.00003 5.54002C4.60335 5.93245 4.28843 6.39966 4.07351 6.91461C3.85859 7.42956 3.74792 7.98202 3.74792 8.54002C3.74792 9.09801 3.85859 9.65047 4.07351 10.1654C4.28843 10.6804 4.60335 11.1476 5.00003 11.54L12.47 19C12.8625 19.3967 13.3297 19.7116 13.8446 19.9265C14.3596 20.1415 14.912 20.2521 15.47 20.2521C16.028 20.2521 16.5805 20.1415 17.0954 19.9265C17.6104 19.7116 18.0776 19.3967 18.47 19L20 17.53C20.1045 17.4318 20.1877 17.3133 20.2446 17.1817C20.3015 17.0502 20.3308 16.9084 20.3308 16.765C20.3308 16.6217 20.3015 16.4799 20.2446 16.3483C20.1877 16.2167 20.1045 16.0982 20 16Z"
    fill="#000D26"
  />
  <path
    d="M15.2 8.30007C15.3406 8.44052 15.5312 8.51941 15.73 8.51941C15.9287 8.51941 16.1194 8.44052 16.26 8.30007L17.5 7.06007L18.74 8.30007C18.8805 8.44076 19.0711 8.5199 19.27 8.52007C19.468 8.51576 19.6571 8.43724 19.8 8.30007C19.9404 8.15945 20.0193 7.96882 20.0193 7.77007C20.0193 7.57132 19.9404 7.3807 19.8 7.24007L18.56 6.00007L19.8 4.76007C19.9325 4.6179 20.0046 4.42985 20.0012 4.23555C19.9977 4.04125 19.919 3.85586 19.7816 3.71845C19.6442 3.58104 19.4588 3.50232 19.2645 3.4989C19.0702 3.49547 18.8822 3.56759 18.74 3.70007L17.5 4.94007L16.26 3.70007C16.1178 3.56759 15.9298 3.49547 15.7355 3.4989C15.5412 3.50232 15.3558 3.58104 15.2184 3.71845C15.081 3.85586 15.0022 4.04125 14.9988 4.23555C14.9954 4.42985 15.0675 4.6179 15.2 4.76007L16.44 6.00007L15.2 7.24007C15.0595 7.3807 14.9807 7.57132 14.9807 7.77007C14.9807 7.96882 15.0595 8.15945 15.2 8.30007Z"
    fill="#000D26"
  />
</svg>
