<svg
  width="24"
  height="24"
  viewBox="0 0 24 24"
  fill="none"
  xmlns="http://www.w3.org/2000/svg"
>
  <path
    d="M15.89 8H15.15V6.4C15.15 5.98634 15.0685 5.57672 14.9102 5.19455C14.7519 4.81237 14.5199 4.46512 14.2274 4.17261C13.9348 3.88011 13.5876 3.64808 13.2054 3.48978C12.8232 3.33148 12.4136 3.25 12 3.25C11.5863 3.25 11.1767 3.33148 10.7945 3.48978C10.4123 3.64808 10.0651 3.88011 9.77258 4.17261C9.48007 4.46512 9.24805 4.81237 9.08974 5.19455C8.93144 5.57672 8.84996 5.98634 8.84996 6.4V8H8.10996C7.81709 7.99598 7.52691 8.05634 7.25994 8.1768C6.99296 8.29727 6.7557 8.47491 6.56493 8.69716C6.37415 8.91941 6.23452 9.18085 6.15591 9.463C6.07729 9.74515 6.06161 10.0411 6.10996 10.33L7.43996 18.33C7.51878 18.8014 7.76382 19.229 8.1307 19.5354C8.49758 19.8417 8.96204 20.0065 9.43996 20H14.56C15.0379 20.0065 15.5023 19.8417 15.8692 19.5354C16.2361 19.229 16.4811 18.8014 16.56 18.33L17.89 10.33C17.9383 10.0411 17.9226 9.74515 17.844 9.463C17.7654 9.18085 17.6258 8.91941 17.435 8.69716C17.2442 8.47491 17.007 8.29727 16.74 8.1768C16.473 8.05634 16.1828 7.99598 15.89 8ZM10.35 6.4C10.35 6.18332 10.3926 5.96876 10.4756 5.76857C10.5585 5.56839 10.68 5.38649 10.8332 5.23327C10.9865 5.08006 11.1683 4.95852 11.3685 4.8756C11.5687 4.79268 11.7833 4.75 12 4.75C12.2166 4.75 12.4312 4.79268 12.6314 4.8756C12.8316 4.95852 13.0135 5.08006 13.1667 5.23327C13.3199 5.38649 13.4414 5.56839 13.5244 5.76857C13.6073 5.96876 13.65 6.18332 13.65 6.4V8H10.35V6.4ZM14 14.75H9.99996C9.80105 14.75 9.61029 14.671 9.46963 14.5303C9.32898 14.3897 9.24996 14.1989 9.24996 14C9.24996 13.8011 9.32898 13.6103 9.46963 13.4697C9.61029 13.329 9.80105 13.25 9.99996 13.25H14C14.1989 13.25 14.3896 13.329 14.5303 13.4697C14.6709 13.6103 14.75 13.8011 14.75 14C14.75 14.1989 14.6709 14.3897 14.5303 14.5303C14.3896 14.671 14.1989 14.75 14 14.75Z"
    fill="#000D26"
  />
</svg>
