<svg
  width="24"
  height="24"
  viewBox="0 0 24 24"
  fill="none"
  xmlns="http://www.w3.org/2000/svg"
>
  <path
    d="M11 9.5C12.6569 9.5 14 8.15685 14 6.5C14 4.84315 12.6569 3.5 11 3.5C9.34315 3.5 8 4.84315 8 6.5C8 8.15685 9.34315 9.5 11 9.5Z"
    fill="#000D26"
  />
  <path
    d="M11.5 16.25C11.5001 15.0548 11.9335 13.9001 12.72 13C12.7559 12.9562 12.7786 12.9032 12.7856 12.847C12.7925 12.7908 12.7835 12.7338 12.7594 12.6826C12.7354 12.6313 12.6973 12.5879 12.6496 12.5574C12.6019 12.5269 12.5466 12.5105 12.49 12.51H5.49C5.2319 12.5034 4.97506 12.5483 4.73455 12.6422C4.49404 12.7361 4.27468 12.877 4.08935 13.0568C3.90401 13.2365 3.75641 13.4515 3.65521 13.689C3.55401 13.9265 3.50125 14.1819 3.5 14.44V18.06C3.5 18.5746 3.70439 19.068 4.06821 19.4318C4.43203 19.7957 4.92548 20 5.44 20H12.49C12.5466 19.9996 12.6019 19.9832 12.6496 19.9527C12.6973 19.9222 12.7354 19.8788 12.7594 19.8275C12.7835 19.7763 12.7925 19.7193 12.7856 19.6631C12.7786 19.6069 12.7559 19.5539 12.72 19.51C11.9313 18.6074 11.4977 17.4487 11.5 16.25Z"
    fill="#000D26"
  />
  <path
    d="M16.5 12.75C15.8078 12.75 15.1311 12.9553 14.5555 13.3399C13.9799 13.7244 13.5313 14.2711 13.2664 14.9106C13.0015 15.5501 12.9322 16.2539 13.0673 16.9328C13.2023 17.6117 13.5356 18.2354 14.0251 18.7249C14.5146 19.2144 15.1383 19.5477 15.8172 19.6827C16.4961 19.8178 17.1999 19.7485 17.8394 19.4836C18.4789 19.2187 19.0256 18.7701 19.4101 18.1945C19.7947 17.6189 20 16.9422 20 16.25C20 15.3217 19.6313 14.4315 18.9749 13.7751C18.3185 13.1187 17.4283 12.75 16.5 12.75ZM18 17H15C14.8011 17 14.6103 16.921 14.4697 16.7803C14.329 16.6397 14.25 16.4489 14.25 16.25C14.25 16.0511 14.329 15.8603 14.4697 15.7197C14.6103 15.579 14.8011 15.5 15 15.5H18C18.1989 15.5 18.3897 15.579 18.5303 15.7197C18.671 15.8603 18.75 16.0511 18.75 16.25C18.75 16.4489 18.671 16.6397 18.5303 16.7803C18.3897 16.921 18.1989 17 18 17Z"
    fill="#000D26"
  />
</svg>
