<svg
  width="24"
  height="24"
  viewBox="0 0 24 24"
  fill="none"
  xmlns="http://www.w3.org/2000/svg"
>
  <path
    d="M17 3H7C5.93913 3 4.92172 3.42143 4.17157 4.17157C3.42143 4.92172 3 5.93913 3 7V17C3 18.0609 3.42143 19.0783 4.17157 19.8284C4.92172 20.5786 5.93913 21 7 21H17C18.0609 21 19.0783 20.5786 19.8284 19.8284C20.5786 19.0783 21 18.0609 21 17V7C21 5.93913 20.5786 4.92172 19.8284 4.17157C19.0783 3.42143 18.0609 3 17 3ZM16.29 12.71C16.29 12.9089 16.211 13.0997 16.0703 13.2403C15.9297 13.381 15.7389 13.46 15.54 13.46C15.3411 13.46 15.1503 13.381 15.0097 13.2403C14.869 13.0997 14.79 12.9089 14.79 12.71V10.28L9 16.07C8.85715 16.2072 8.668 16.2857 8.47 16.29C8.27115 16.2898 8.08052 16.2107 7.94 16.07C7.86924 16.0011 7.81301 15.9186 7.77461 15.8276C7.73621 15.7366 7.71643 15.6388 7.71643 15.54C7.71643 15.4412 7.73621 15.3434 7.77461 15.2524C7.81301 15.1614 7.86924 15.0789 7.94 15.01L13.73 9.21H11.29C11.0911 9.21 10.9003 9.13098 10.7597 8.99033C10.619 8.84968 10.54 8.65891 10.54 8.46C10.54 8.26109 10.619 8.07032 10.7597 7.92967C10.9003 7.78902 11.0911 7.71 11.29 7.71H15.54C15.6366 7.70959 15.7321 7.73006 15.82 7.77C15.9121 7.80771 15.9958 7.86338 16.0662 7.93378C16.1366 8.00417 16.1923 8.08787 16.23 8.18C16.2688 8.26829 16.2892 8.36356 16.29 8.46V12.71Z"
    fill="#000D26"
  />
</svg>
