<svg
  width="24"
  height="24"
  viewBox="0 0 24 24"
  fill="none"
  xmlns="http://www.w3.org/2000/svg"
>
  <path
    d="M16 9.75C16.1981 9.74741 16.3874 9.66756 16.5275 9.52747C16.6676 9.38737 16.7474 9.19811 16.75 9V7C16.75 6.27065 16.4603 5.57118 15.9445 5.05546C15.4288 4.53973 14.7293 4.25 14 4.25H12.75V3C12.75 2.80109 12.671 2.61032 12.5303 2.46967C12.3897 2.32902 12.1989 2.25 12 2.25C11.8011 2.25 11.6103 2.32902 11.4697 2.46967C11.329 2.61032 11.25 2.80109 11.25 3V4.25H10C9.27065 4.25 8.57118 4.53973 8.05546 5.05546C7.53973 5.57118 7.25 6.27065 7.25 7V8C7.25154 8.42665 7.35161 8.84718 7.54242 9.22879C7.73322 9.6104 8.0096 9.94278 8.35 10.2L11.25 12.37V18.25H10C9.66848 18.25 9.35054 18.1183 9.11612 17.8839C8.8817 17.6495 8.75 17.3315 8.75 17V15C8.75 14.8011 8.67098 14.6103 8.53033 14.4697C8.38968 14.329 8.19891 14.25 8 14.25C7.80109 14.25 7.61032 14.329 7.46967 14.4697C7.32902 14.6103 7.25 14.8011 7.25 15V17C7.25 17.7293 7.53973 18.4288 8.05546 18.9445C8.57118 19.4603 9.27065 19.75 10 19.75H11.25V21C11.25 21.1989 11.329 21.3897 11.4697 21.5303C11.6103 21.671 11.8011 21.75 12 21.75C12.1989 21.75 12.3897 21.671 12.5303 21.5303C12.671 21.3897 12.75 21.1989 12.75 21V19.75H14C14.7293 19.75 15.4288 19.4603 15.9445 18.9445C16.4603 18.4288 16.75 17.7293 16.75 17V16C16.7485 15.5733 16.6484 15.1528 16.4576 14.7712C16.2668 14.3896 15.9904 14.0572 15.65 13.8L12.75 11.63V5.75H14C14.3315 5.75 14.6495 5.8817 14.8839 6.11612C15.1183 6.35054 15.25 6.66848 15.25 7V9C15.2526 9.19811 15.3324 9.38737 15.4725 9.52747C15.6126 9.66756 15.8019 9.74741 16 9.75ZM14.75 15C14.9041 15.1175 15.0293 15.2687 15.116 15.442C15.2026 15.6154 15.2485 15.8062 15.25 16V17C15.25 17.3315 15.1183 17.6495 14.8839 17.8839C14.6495 18.1183 14.3315 18.25 14 18.25H12.75V13.5L14.75 15ZM11.25 10.5L9.25 9C9.09533 8.88303 8.96974 8.73194 8.88301 8.55849C8.79629 8.38505 8.75077 8.19392 8.75 8V7C8.75 6.66848 8.8817 6.35054 9.11612 6.11612C9.35054 5.8817 9.66848 5.75 10 5.75H11.25V10.5Z"
    fill="#000D26"
  />
</svg>
