<svg
  width="24"
  height="24"
  viewBox="0 0 24 24"
  fill="none"
  xmlns="http://www.w3.org/2000/svg"
>
  <path
    d="M16.8 4.42993H7.19995C6.4043 4.42993 5.64124 4.746 5.07863 5.30861C4.51602 5.87122 4.19995 6.63428 4.19995 7.42993V13.2799C4.20025 13.9359 4.41556 14.5737 4.8129 15.0957C5.21024 15.6177 5.76771 15.995 6.39995 16.1699C6.62923 16.2167 6.83485 16.3424 6.98102 16.5251C7.1272 16.7078 7.20467 16.936 7.19995 17.1699V19.0899C7.19937 19.1886 7.22803 19.2853 7.2823 19.3678C7.33658 19.4502 7.41405 19.5148 7.50495 19.5533C7.59585 19.5918 7.69611 19.6025 7.79309 19.5841C7.89008 19.5657 7.97946 19.519 8.04995 19.4499L10.89 16.6099C11.0762 16.4252 11.3276 16.321 11.59 16.3199H16.8C17.5956 16.3199 18.3587 16.0039 18.9213 15.4413C19.4839 14.8786 19.8 14.1156 19.8 13.3199V7.42993C19.8 6.63428 19.4839 5.87122 18.9213 5.30861C18.3587 4.746 17.5956 4.42993 16.8 4.42993ZM8.99995 11.2799C8.80217 11.2799 8.60883 11.2213 8.44438 11.1114C8.27993 11.0015 8.15176 10.8453 8.07607 10.6626C8.00038 10.4799 7.98058 10.2788 8.01917 10.0848C8.05775 9.89086 8.15299 9.71268 8.29284 9.57282C8.4327 9.43297 8.61088 9.33773 8.80486 9.29915C8.99884 9.26056 9.19991 9.28036 9.38264 9.35605C9.56536 9.43174 9.72154 9.55991 9.83142 9.72436C9.9413 9.88881 9.99995 10.0822 9.99995 10.2799C9.99995 10.5451 9.89459 10.7995 9.70706 10.987C9.51952 11.1746 9.26517 11.2799 8.99995 11.2799ZM12 11.2799C11.8022 11.2799 11.6088 11.2213 11.4444 11.1114C11.2799 11.0015 11.1518 10.8453 11.0761 10.6626C11.0004 10.4799 10.9806 10.2788 11.0192 10.0848C11.0578 9.89086 11.153 9.71268 11.2928 9.57282C11.4327 9.43297 11.6109 9.33773 11.8049 9.29915C11.9988 9.26056 12.1999 9.28036 12.3826 9.35605C12.5654 9.43174 12.7215 9.55991 12.8314 9.72436C12.9413 9.88881 13 10.0822 13 10.2799C13 10.5451 12.8946 10.7995 12.7071 10.987C12.5195 11.1746 12.2652 11.2799 12 11.2799ZM15 11.2799C14.8022 11.2799 14.6088 11.2213 14.4444 11.1114C14.2799 11.0015 14.1518 10.8453 14.0761 10.6626C14.0004 10.4799 13.9806 10.2788 14.0192 10.0848C14.0578 9.89086 14.153 9.71268 14.2928 9.57282C14.4327 9.43297 14.6109 9.33773 14.8049 9.29915C14.9988 9.26056 15.1999 9.28036 15.3826 9.35605C15.5654 9.43174 15.7215 9.55991 15.8314 9.72436C15.9413 9.88881 16 10.0822 16 10.2799C16 10.5451 15.8946 10.7995 15.7071 10.987C15.5195 11.1746 15.2652 11.2799 15 11.2799Z"
    fill="#000D26"
  />
</svg>
