<svg
  width="24"
  height="24"
  viewBox="0 0 24 24"
  fill="none"
  xmlns="http://www.w3.org/2000/svg"
>
  <path
    d="M8 8.75H20C20.1989 8.75 20.3897 8.67098 20.5303 8.53033C20.671 8.38968 20.75 8.19891 20.75 8C20.75 7.80109 20.671 7.61032 20.5303 7.46967C20.3897 7.32902 20.1989 7.25 20 7.25H8C7.80109 7.25 7.61032 7.32902 7.46967 7.46967C7.32902 7.61032 7.25 7.80109 7.25 8C7.25 8.19891 7.32902 8.38968 7.46967 8.53033C7.61032 8.67098 7.80109 8.75 8 8.75Z"
    fill="#000D26"
  />
  <path
    d="M20 11.25H8C7.80109 11.25 7.61032 11.329 7.46967 11.4697C7.32902 11.6103 7.25 11.8011 7.25 12C7.25 12.1989 7.32902 12.3897 7.46967 12.5303C7.61032 12.671 7.80109 12.75 8 12.75H20C20.1989 12.75 20.3897 12.671 20.5303 12.5303C20.671 12.3897 20.75 12.1989 20.75 12C20.75 11.8011 20.671 11.6103 20.5303 11.4697C20.3897 11.329 20.1989 11.25 20 11.25Z"
    fill="#000D26"
  />
  <path
    d="M20 15.25H8C7.80109 15.25 7.61032 15.329 7.46967 15.4697C7.32902 15.6103 7.25 15.8011 7.25 16C7.25 16.1989 7.32902 16.3897 7.46967 16.5303C7.61032 16.671 7.80109 16.75 8 16.75H20C20.1989 16.75 20.3897 16.671 20.5303 16.5303C20.671 16.3897 20.75 16.1989 20.75 16C20.75 15.8011 20.671 15.6103 20.5303 15.4697C20.3897 15.329 20.1989 15.25 20 15.25Z"
    fill="#000D26"
  />
  <path
    d="M5 9C5.55228 9 6 8.55228 6 8C6 7.44772 5.55228 7 5 7C4.44772 7 4 7.44772 4 8C4 8.55228 4.44772 9 5 9Z"
    fill="#000D26"
  />
  <path
    d="M5 13C5.55228 13 6 12.5523 6 12C6 11.4477 5.55228 11 5 11C4.44772 11 4 11.4477 4 12C4 12.5523 4.44772 13 5 13Z"
    fill="#000D26"
  />
  <path
    d="M5 17C5.55228 17 6 16.5523 6 16C6 15.4477 5.55228 15 5 15C4.44772 15 4 15.4477 4 16C4 16.5523 4.44772 17 5 17Z"
    fill="#000D26"
  />
</svg>
