<svg
  width="24"
  height="24"
  viewBox="0 0 24 24"
  fill="none"
  xmlns="http://www.w3.org/2000/svg"
>
  <path
    d="M19 16.9099C19.0002 17.2646 18.8748 17.6078 18.646 17.8788C18.4171 18.1497 18.0997 18.3308 17.75 18.3899H17.5H6.5H6.25C5.90031 18.3308 5.58288 18.1497 5.35404 17.8788C5.1252 17.6078 4.99977 17.2646 5 16.9099C5.00013 16.5564 5.12592 16.2145 5.3549 15.9452C5.58388 15.676 5.90114 15.4968 6.25 15.4399V9.65991C6.25 8.13492 6.8558 6.67238 7.93414 5.59405C9.01247 4.51571 10.475 3.90991 12 3.90991C13.525 3.90991 14.9875 4.51571 16.0659 5.59405C17.1442 6.67238 17.75 8.13492 17.75 9.65991V15.4399C18.0989 15.4968 18.4161 15.676 18.6451 15.9452C18.8741 16.2145 18.9999 16.5564 19 16.9099Z"
    fill="#000D26"
  />
  <path
    d="M14 21.1599H10C9.80109 21.1599 9.61032 21.0809 9.46967 20.9402C9.32902 20.7996 9.25 20.6088 9.25 20.4099C9.25 20.211 9.32902 20.0202 9.46967 19.8796C9.61032 19.7389 9.80109 19.6599 10 19.6599H14C14.1989 19.6599 14.3897 19.7389 14.5303 19.8796C14.671 20.0202 14.75 20.211 14.75 20.4099C14.75 20.6088 14.671 20.7996 14.5303 20.9402C14.3897 21.0809 14.1989 21.1599 14 21.1599Z"
    fill="#000D26"
  />
  <path
    d="M12.82 4.41009C12.9367 4.24288 12.9995 4.044 13 3.84009C13 3.57487 12.8946 3.32052 12.7071 3.13298C12.5196 2.94544 12.2652 2.84009 12 2.84009C11.7348 2.84009 11.4804 2.94544 11.2929 3.13298C11.1054 3.32052 11 3.57487 11 3.84009C11.0005 4.044 11.0633 4.24288 11.18 4.41009"
    fill="#000D26"
  />
</svg>
