<svg
  width="24"
  height="24"
  viewBox="0 0 24 24"
  fill="none"
  xmlns="http://www.w3.org/2000/svg"
>
  <path
    d="M21.58 9.11996C21.1266 9.34773 20.6299 9.47625 20.1229 9.49694C19.616 9.51764 19.1104 9.43003 18.64 9.23996C18.2164 9.06896 17.8316 8.81435 17.5086 8.49134C17.1856 8.16833 16.931 7.78355 16.76 7.35996C16.5693 6.88967 16.4813 6.38404 16.502 5.87698C16.5227 5.36992 16.6516 4.87314 16.88 4.41996C16.9026 4.37492 16.9131 4.32477 16.9105 4.27443C16.9078 4.2241 16.8921 4.17533 16.8648 4.13294C16.8376 4.09054 16.7997 4.05598 16.755 4.03266C16.7104 4.00934 16.6604 3.99807 16.61 3.99996H5.4C4.49908 4.0026 3.6358 4.36166 2.99875 4.99871C2.3617 5.63576 2.00264 6.49904 2 7.39996V16.6C2.00264 17.5009 2.3617 18.3642 2.99875 19.0012C3.6358 19.6383 4.49908 19.9973 5.4 20H18.6C19.5009 19.9973 20.3642 19.6383 21.0012 19.0012C21.6383 18.3642 21.9974 17.5009 22 16.6V9.38996C22.0019 9.33959 21.9906 9.2896 21.9673 9.24492C21.944 9.20024 21.9094 9.1624 21.867 9.13515C21.8246 9.10789 21.7759 9.09215 21.7255 9.08949C21.6752 9.08683 21.625 9.09733 21.58 9.11996ZM16.14 11.12L13.57 12.8C13.114 13.1224 12.5684 13.2938 12.01 13.29C11.4335 13.2904 10.8711 13.1122 10.4 12.78L5.59 9.62996C5.50727 9.57612 5.43595 9.50651 5.38012 9.4251C5.32429 9.3437 5.28504 9.2521 5.26461 9.15552C5.24418 9.05895 5.24297 8.9593 5.26106 8.86226C5.27914 8.76522 5.31616 8.67269 5.37 8.58996C5.42384 8.50723 5.49345 8.43591 5.57486 8.38008C5.65626 8.32425 5.74786 8.285 5.84444 8.26457C5.94101 8.24414 6.04066 8.24293 6.1377 8.26102C6.23474 8.2791 6.32727 8.31612 6.41 8.36996L11.25 11.54C11.4652 11.6961 11.7242 11.7802 11.99 11.7802C12.2558 11.7802 12.5148 11.6961 12.73 11.54L15.32 9.83996C15.4017 9.77619 15.4958 9.73005 15.5963 9.70446C15.6967 9.67887 15.8014 9.67439 15.9037 9.6913C16.006 9.70821 16.1036 9.74613 16.1905 9.80269C16.2774 9.85924 16.3516 9.93319 16.4085 10.0199C16.4653 10.1066 16.5036 10.2041 16.5209 10.3063C16.5382 10.4085 16.5341 10.5132 16.5088 10.6138C16.4836 10.7143 16.4378 10.8086 16.3743 10.8905C16.3108 10.9725 16.231 11.0404 16.14 11.09V11.12Z"
    fill="#000D26"
  />
  <path
    d="M20 8C21.1046 8 22 7.10457 22 6C22 4.89543 21.1046 4 20 4C18.8954 4 18 4.89543 18 6C18 7.10457 18.8954 8 20 8Z"
    fill="#000D26"
  />
</svg>
