<svg
  width="24"
  height="24"
  viewBox="0 0 24 24"
  fill="none"
  xmlns="http://www.w3.org/2000/svg"
>
  <path
    d="M7.86001 16.14C5.58001 12.06 5.86001 10.08 5.86001 10.08C5.86178 8.7421 6.29767 7.4409 7.10221 6.37191C7.90674 5.30293 9.03646 4.5239 10.3216 4.15189C11.6068 3.77987 12.9779 3.83496 14.2291 4.30887C15.4802 4.78279 16.5438 5.64993 17.26 6.78001"
    stroke="#000D26"
    stroke-width="1.5"
    stroke-linecap="round"
    stroke-linejoin="round"
  />
  <path
    d="M18.18 10.08C18.18 10.08 18.53 12.92 14.49 18.79C14.2163 19.2025 13.8448 19.541 13.4086 19.7751C12.9724 20.0092 12.4851 20.1317 11.99 20.1317C11.4949 20.1317 11.0076 20.0092 10.5714 19.7751C10.1351 19.541 9.76365 19.2025 9.48999 18.79"
    stroke="#000D26"
    stroke-width="1.5"
    stroke-linecap="round"
    stroke-linejoin="round"
  />
  <path
    d="M11.75 12.05C11.3089 12.0006 10.8987 11.799 10.59 11.48C10.2624 11.0974 10.0911 10.6052 10.1106 10.1019C10.13 9.59853 10.3387 9.12105 10.6949 8.76486C11.0511 8.40868 11.5286 8.20001 12.0319 8.18057C12.5353 8.16113 13.0274 8.33234 13.41 8.65999C13.7491 8.98504 13.9587 9.42209 14 9.88999"
    stroke="#000D26"
    stroke-width="1.5"
    stroke-linecap="round"
    stroke-linejoin="round"
  />
  <path
    d="M21 3L3 21"
    stroke="#000D26"
    stroke-width="1.5"
    stroke-linecap="round"
    stroke-linejoin="round"
  />
</svg>
