<svg
  width="24"
  height="24"
  viewBox="0 0 24 24"
  fill="none"
  xmlns="http://www.w3.org/2000/svg"
>
  <path
    d="M12 13.6C13.5463 13.6 14.8 12.3464 14.8 10.8C14.8 9.2536 13.5463 8 12 8C10.4536 8 9.19995 9.2536 9.19995 10.8C9.19995 12.3464 10.4536 13.6 12 13.6Z"
    stroke="#000D26"
    stroke-width="1.5"
    stroke-linecap="round"
    stroke-linejoin="round"
  />
  <path
    d="M6.25 18.92V17.38C6.25264 16.9866 6.41079 16.6101 6.68993 16.3329C6.96907 16.0556 7.34655 15.9 7.74 15.9H16.27C16.6617 15.9026 17.0366 16.0594 17.3136 16.3364C17.5906 16.6134 17.7474 16.9883 17.75 17.38V18.92"
    stroke="#000D26"
    stroke-width="1.5"
    stroke-linecap="round"
    stroke-linejoin="round"
  />
  <path
    d="M12 21C16.9706 21 21 16.9706 21 12C21 7.02944 16.9706 3 12 3C7.02944 3 3 7.02944 3 12C3 16.9706 7.02944 21 12 21Z"
    stroke="#000D26"
    stroke-width="1.5"
    stroke-linecap="round"
    stroke-linejoin="round"
  />
</svg>
