<svg
  width="24"
  height="24"
  viewBox="0 0 24 24"
  fill="none"
  xmlns="http://www.w3.org/2000/svg"
>
  <path
    d="M12.4 10.57L16.82 7.99998C17.0765 7.85304 17.3671 7.77596 17.6627 7.77643C17.9583 7.7769 18.2487 7.85491 18.5047 8.00267C18.7608 8.15043 18.9736 8.36277 19.1219 8.61849C19.2702 8.8742 19.3489 9.16436 19.35 9.45998V14.52C19.3524 14.8173 19.2763 15.11 19.1294 15.3685C18.9825 15.627 18.77 15.8422 18.5134 15.9923C18.2568 16.1424 17.965 16.2222 17.6677 16.2235C17.3704 16.2249 17.078 16.1478 16.82 16L12.44 13.47"
    stroke="#000D26"
    stroke-width="1.5"
    stroke-miterlimit="10"
  />
  <path
    d="M5.49 13.46L9.87 16C10.126 16.1502 10.4172 16.2299 10.7141 16.2309C11.0109 16.232 11.3027 16.1544 11.5597 16.006C11.8168 15.8577 12.03 15.6439 12.1776 15.3864C12.3252 15.1288 12.4019 14.8368 12.4 14.54V9.47002C12.4037 9.17237 12.3283 8.87907 12.1814 8.62015C12.0345 8.36123 11.8215 8.14599 11.5641 7.99644C11.3068 7.84689 11.0143 7.76842 10.7166 7.76905C10.4189 7.76968 10.1267 7.84938 9.87 8.00002L5.49 10.54C5.23476 10.6888 5.02299 10.9019 4.87581 11.1581C4.72863 11.4143 4.65118 11.7046 4.65118 12C4.65118 12.2955 4.72863 12.5857 4.87581 12.8419C5.02299 13.0981 5.23476 13.3112 5.49 13.46Z"
    stroke="#000D26"
    stroke-width="1.5"
    stroke-miterlimit="10"
  />
</svg>
