<svg
  width="24"
  height="24"
  viewBox="0 0 24 24"
  fill="none"
  xmlns="http://www.w3.org/2000/svg"
>
  <path
    d="M13.44 16.15L17.27 9.51C17.4204 9.25772 17.5011 8.97005 17.504 8.67635C17.5069 8.38266 17.4319 8.09346 17.2865 7.83826C17.1411 7.58306 16.9306 7.37101 16.6765 7.22374C16.4223 7.07647 16.1337 6.99927 15.84 7H8.15998C7.86628 6.99927 7.57763 7.07647 7.32351 7.22374C7.06939 7.37101 6.8589 7.58306 6.71351 7.83826C6.56811 8.09346 6.49304 8.38266 6.49593 8.67635C6.49883 8.97005 6.57959 9.25772 6.72998 9.51L10.56 16.15C10.7054 16.4035 10.9151 16.6141 11.1679 16.7606C11.4207 16.907 11.7078 16.9842 12 16.9842C12.2922 16.9842 12.5792 16.907 12.8321 16.7606C13.0849 16.6141 13.2946 16.4035 13.44 16.15Z"
    stroke="#000D26"
    stroke-width="1.5"
    stroke-linecap="round"
    stroke-linejoin="round"
  />
</svg>
