<svg
  width="24"
  height="24"
  viewBox="0 0 24 24"
  fill="none"
  xmlns="http://www.w3.org/2000/svg"
>
  <path
    d="M17.58 8.7L19.42 6.85L17.58 5"
    stroke="#000D26"
    stroke-width="1.5"
    stroke-linecap="round"
    stroke-linejoin="round"
  />
  <path
    d="M4.58 16H5.37C6.35891 16.0015 7.33285 15.7585 8.20517 15.2927C9.0775 14.8268 9.82116 14.1526 10.37 13.33L12.8 9.67001C13.3488 8.84738 14.0925 8.17317 14.9648 7.70735C15.8372 7.24153 16.8111 6.99854 17.8 7.00001H18.59"
    stroke="#000D26"
    stroke-width="1.5"
    stroke-linecap="round"
    stroke-linejoin="round"
  />
  <path
    d="M17.58 14.31L19.42 16.15L17.58 18"
    stroke="#000D26"
    stroke-width="1.5"
    stroke-linecap="round"
    stroke-linejoin="round"
  />
  <path
    d="M13.32 14C13.8826 14.6289 14.5714 15.1322 15.3417 15.4768C16.1119 15.8214 16.9462 15.9997 17.79 16H18.58"
    stroke="#000D26"
    stroke-width="1.5"
    stroke-linecap="round"
    stroke-linejoin="round"
  />
  <path
    d="M4.58 7H5.37C6.21382 7.0003 7.04809 7.17858 7.81833 7.52321C8.58857 7.86784 9.27745 8.37105 9.84 9"
    stroke="#000D26"
    stroke-width="1.5"
    stroke-linecap="round"
    stroke-linejoin="round"
  />
</svg>
