<svg
  width="24"
  height="24"
  viewBox="0 0 24 24"
  fill="none"
  xmlns="http://www.w3.org/2000/svg"
>
  <path
    d="M18.69 9.19L20.09 10.59C20.4625 10.9647 20.6715 11.4716 20.6715 12C20.6715 12.5284 20.4625 13.0353 20.09 13.41L17.66 15.84C16.7033 16.8023 15.5175 17.5055 14.2143 17.8833C12.911 18.2612 11.533 18.3013 10.21 18"
    stroke="#000D26"
    stroke-width="1.5"
    stroke-linecap="round"
    stroke-linejoin="round"
  />
  <path
    d="M7.29995 16.66C6.94504 16.4141 6.61061 16.1399 6.29995 15.84L3.90995 13.41C3.53745 13.0353 3.32837 12.5284 3.32837 12C3.32837 11.4716 3.53745 10.9647 3.90995 10.59L6.33995 8.16C7.66601 6.83039 9.41752 6.00963 11.2878 5.84143C13.1581 5.67324 15.028 6.16832 16.57 7.24"
    stroke="#000D26"
    stroke-width="1.5"
    stroke-linecap="round"
    stroke-linejoin="round"
  />
  <path
    d="M10.11 13.63C9.70476 13.1477 9.49647 12.5303 9.52683 11.9011C9.55719 11.2719 9.82397 10.6773 10.2738 10.2363C10.7236 9.79533 11.3234 9.54041 11.953 9.52255C12.5827 9.50469 13.1959 9.7252 13.67 10.14"
    stroke="#000D26"
    stroke-width="1.5"
    stroke-linecap="round"
    stroke-linejoin="round"
  />
  <path
    d="M20.8901 3.07001L2.93005 21.03"
    stroke="#000D26"
    stroke-width="1.5"
    stroke-linecap="round"
    stroke-linejoin="round"
  />
</svg>
