<svg
  width="24"
  height="24"
  viewBox="0 0 24 24"
  fill="none"
  xmlns="http://www.w3.org/2000/svg"
>
  <path
    d="M18.71 10C18.9042 10.6489 19.0019 11.3227 19 12C19 13.8565 18.2625 15.637 16.9497 16.9497C15.637 18.2625 13.8565 19 12 19C11.3227 19.0019 10.6489 18.9042 10 18.71"
    stroke="#000D26"
    stroke-width="1.5"
    stroke-linecap="round"
    stroke-linejoin="round"
  />
  <path
    d="M7 16.9C5.68718 15.5872 4.94965 13.8066 4.94965 11.95C4.94965 10.0934 5.68718 8.31282 7 7C8.31282 5.68718 10.0934 4.94965 11.95 4.94965C13.8066 4.94965 15.5872 5.68718 16.9 7"
    stroke="#000D26"
    stroke-width="1.5"
    stroke-linecap="round"
    stroke-linejoin="round"
  />
  <path
    d="M12 5V2"
    stroke="#000D26"
    stroke-width="1.5"
    stroke-linecap="round"
    stroke-linejoin="round"
  />
  <path
    d="M12 22V19"
    stroke="#000D26"
    stroke-width="1.5"
    stroke-linecap="round"
    stroke-linejoin="round"
  />
  <path
    d="M19 12H22"
    stroke="#000D26"
    stroke-width="1.5"
    stroke-linecap="round"
    stroke-linejoin="round"
  />
  <path
    d="M2 12H5"
    stroke="#000D26"
    stroke-width="1.5"
    stroke-linecap="round"
    stroke-linejoin="round"
  />
  <path
    d="M10.59 13.41C10.2623 13.0274 10.0911 12.5353 10.1106 12.0319C10.13 11.5286 10.3387 11.0511 10.6949 10.6949C11.051 10.3387 11.5285 10.13 12.0319 10.1106C12.5352 10.0911 13.0274 10.2624 13.41 10.59"
    stroke="#000D26"
    stroke-width="1.5"
    stroke-linecap="round"
    stroke-linejoin="round"
  />
  <path
    d="M21 3L3 21"
    stroke="#000D26"
    stroke-width="1.5"
    stroke-linecap="round"
    stroke-linejoin="round"
  />
</svg>
