<svg
  width="24"
  height="24"
  viewBox="0 0 24 24"
  fill="none"
  xmlns="http://www.w3.org/2000/svg"
>
  <path
    d="M7.34 15.31L11.11 7.79001C11.1939 7.62621 11.3214 7.48874 11.4784 7.39275C11.6355 7.29676 11.8159 7.24597 12 7.24597C12.184 7.24597 12.3645 7.29676 12.5216 7.39275C12.6786 7.48874 12.8061 7.62621 12.89 7.79001L16.66 15.31C16.7566 15.4978 16.7912 15.7114 16.759 15.9201C16.7267 16.1288 16.6292 16.3219 16.4804 16.4718C16.3317 16.6217 16.1392 16.7206 15.9308 16.7544C15.7223 16.7882 15.5085 16.7552 15.32 16.66L12.45 15.22C12.3104 15.1497 12.1563 15.113 12 15.113C11.8437 15.113 11.6896 15.1497 11.55 15.22L8.68 16.66C8.49148 16.7552 8.27766 16.7882 8.0692 16.7544C7.86074 16.7206 7.66834 16.6217 7.51956 16.4718C7.37079 16.3219 7.27329 16.1288 7.24103 15.9201C7.20877 15.7114 7.24342 15.4978 7.34 15.31Z"
    stroke="#000D26"
    stroke-width="1.5"
    stroke-miterlimit="10"
  />
  <path
    d="M12 15V13"
    stroke="#000D26"
    stroke-width="1.5"
    stroke-miterlimit="10"
    stroke-linecap="round"
  />
</svg>
