<svg
  width="24"
  height="24"
  viewBox="0 0 24 24"
  fill="none"
  xmlns="http://www.w3.org/2000/svg"
>
  <path
    d="M11.75 11C13.4069 11 14.75 9.65685 14.75 8C14.75 6.34315 13.4069 5 11.75 5C10.0931 5 8.75 6.34315 8.75 8C8.75 9.65685 10.0931 11 11.75 11Z"
    stroke="#000D26"
    stroke-width="1.5"
    stroke-linecap="round"
    stroke-linejoin="round"
  />
  <path
    d="M13.75 19H6.75C6.08696 19 5.45107 18.7366 4.98223 18.2678C4.51339 17.7989 4.25 17.163 4.25 16.5C4.25 15.837 4.51339 15.2011 4.98223 14.7322C5.45107 14.2634 6.08696 14 6.75 14H13.75"
    stroke="#000D26"
    stroke-width="1.5"
    stroke-linecap="round"
    stroke-linejoin="round"
  />
  <path
    d="M19.75 16.75H16.25"
    stroke="#000D26"
    stroke-width="1.5"
    stroke-linecap="round"
    stroke-linejoin="round"
  />
  <path
    d="M18 18.5V15"
    stroke="#000D26"
    stroke-width="1.5"
    stroke-linecap="round"
    stroke-linejoin="round"
  />
</svg>
