<svg
  width="24"
  height="24"
  viewBox="0 0 24 24"
  fill="none"
  xmlns="http://www.w3.org/2000/svg"
>
  <path
    d="M14.73 8.36H5.22996C3.8382 8.36 2.70996 9.48824 2.70996 10.88V17.15C2.70996 18.5418 3.8382 19.67 5.22996 19.67H14.73C16.1217 19.67 17.25 18.5418 17.25 17.15V10.88C17.25 9.48824 16.1217 8.36 14.73 8.36Z"
    stroke="#000D26"
    stroke-width="1.5"
    stroke-linecap="round"
    stroke-linejoin="round"
  />
  <path
    d="M2.70996 12.4H17.25"
    stroke="#000D26"
    stroke-width="1.5"
    stroke-linejoin="round"
  />
  <path
    d="M6.75002 8V6.84C6.7487 6.50954 6.81265 6.18208 6.9382 5.87639C7.06375 5.57071 7.24843 5.29283 7.48164 5.05869C7.71484 4.82456 7.99199 4.63878 8.29717 4.51201C8.60235 4.38525 8.92956 4.32 9.26002 4.32H18.78C19.1105 4.32 19.4377 4.38525 19.7429 4.51201C20.0481 4.63878 20.3252 4.82456 20.5584 5.05869C20.7916 5.29283 20.9763 5.57071 21.1018 5.87639C21.2274 6.18208 21.2913 6.50954 21.29 6.84V13.12C21.2913 13.4505 21.2274 13.7779 21.1018 14.0836C20.9763 14.3893 20.7916 14.6672 20.5584 14.9013C20.3252 15.1354 20.0481 15.3212 19.7429 15.448C19.4377 15.5747 19.1105 15.64 18.78 15.64H17.25"
    stroke="#000D26"
    stroke-width="1.5"
    stroke-linecap="round"
    stroke-linejoin="round"
  />
</svg>
