<svg
  width="24"
  height="24"
  viewBox="0 0 24 24"
  fill="none"
  xmlns="http://www.w3.org/2000/svg"
>
  <path
    d="M7.41999 13.59L14.75 17.82C15.0287 17.9821 15.3453 18.0677 15.6677 18.0681C15.9901 18.0685 16.3069 17.9837 16.586 17.8223C16.8651 17.661 17.0966 17.4287 17.2571 17.1491C17.4176 16.8695 17.5014 16.5524 17.5 16.23V7.77C17.5014 7.44759 17.4176 7.13053 17.2571 6.85091C17.0966 6.57129 16.8651 6.33904 16.586 6.17766C16.3069 6.01628 15.9901 5.93151 15.6677 5.93192C15.3453 5.93233 15.0287 6.01791 14.75 6.18L7.41999 10.41C7.13936 10.5699 6.90604 10.8012 6.74375 11.0805C6.58146 11.3598 6.49597 11.677 6.49597 12C6.49597 12.323 6.58146 12.6402 6.74375 12.9195C6.90604 13.1988 7.13936 13.4301 7.41999 13.59Z"
    stroke="#000D26"
    stroke-width="1.5"
    stroke-linecap="round"
    stroke-linejoin="round"
  />
</svg>
