<svg
  width="24"
  height="24"
  viewBox="0 0 24 24"
  fill="none"
  xmlns="http://www.w3.org/2000/svg"
>
  <path
    d="M14.49 18.79C14.2164 19.2025 13.8449 19.541 13.4087 19.7751C12.9724 20.0092 12.4851 20.1317 11.99 20.1317C11.495 20.1317 11.0076 20.0092 10.5714 19.7751C10.1352 19.541 9.76367 19.2025 9.49002 18.79C5.49002 12.92 5.80002 10.08 5.80002 10.08C5.80002 8.44096 6.45112 6.86905 7.6101 5.71007C8.76907 4.5511 10.341 3.89999 11.98 3.89999C13.6191 3.89999 15.191 4.5511 16.3499 5.71007C17.5089 6.86905 18.16 8.44096 18.16 10.08C18.16 10.08 18.53 12.92 14.49 18.79Z"
    stroke="#000D26"
    stroke-width="1.5"
    stroke-linecap="round"
    stroke-linejoin="round"
  />
  <path
    d="M8.87 11.11L10.83 13.07L15.13 8.76999"
    stroke="#000D26"
    stroke-width="1.5"
    stroke-linecap="round"
    stroke-linejoin="round"
  />
</svg>
